<?xml version="1.0" encoding="utf-8"?>
<!-- Generator: Adobe Illustrator 24.1.0, SVG Export Plug-In . SVG Version: 6.00 Build 0)  -->
<svg version="1.1" id="Layer_1" xmlns="http://www.w3.org/2000/svg" xmlns:xlink="http://www.w3.org/1999/xlink" x="0px" y="0px"
	 viewBox="0 0 602.21 455.84" style="enable-background:new 0 0 602.21 455.84;" xml:space="preserve">
<style type="text/css">
	.st0{fill:#FFCD05;}
	.st1{fill:#231F20;}
	.st2{fill:#FFFFFF;}
</style>
<g id="email_frame">
	<g>
		<rect x="3.11" y="4" class="st0" width="594.57" height="449.21"/>
		<g>
			<path class="st1" d="M598.84,123c-0.02-0.41,0-0.82,0.07-1.22c0-0.75,0-1.47,0-2.23L598.84,123z"/>
			<path class="st1" d="M601.48,332.47v0.37c0-0.4,0.06-0.89,0.09-1C601.51,331.46,601.51,331.46,601.48,332.47z"/>
			<path class="st1" d="M600.83,279.73c0-0.93,0.06-1.84,0.09-2.66C600.88,277.12,600.85,278.22,600.83,279.73z"/>
			<path class="st1" d="M598.67,151.83c0.05-2.34,0.09-4.72,0.14-7.16C598.72,145.44,598.64,148.16,598.67,151.83z"/>
			<path class="st1" d="M600.71,286.83l0.12-7.1C600.77,281.89,600.73,284.28,600.71,286.83z"/>
			<path class="st1" d="M601.52,431.89c0-1.43,0.06-3,0.09-4.72c0-0.1,0-0.38-0.06-0.35L601.52,431.89z"/>
			<path class="st1" d="M585.44,450.21c-4.7,0-5.48,0.11-4.8,0.19S582.88,450.28,585.44,450.21z"/>
			<path class="st1" d="M470.34,450.2l2.46-0.06C471.98,450.12,471.16,450.14,470.34,450.2z"/>
			<path class="st1" d="M536.5,451.57c0.29,0.06,0.58,0.09,0.87,0.1C537.79,451.64,537.61,451.6,536.5,451.57z"/>
			<path class="st1" d="M0.43,180.68l-0.09,2.78C0.39,183,0.41,182,0.43,180.68z"/>
			<path class="st1" d="M0,29.06L0,29.06z"/>
			<path class="st1" d="M0,24.57L0,24.57z"/>
			<path class="st1" d="M601,436.75c0.16,3.67,0.21,12.8,0.41,13l0.09-17.87C601.38,438.24,601.16,441.48,601,436.75z"/>
			<path class="st1" d="M67,449c-5.8,0-8.71,0.05-10.16,0.09l10.5-0.09H67z"/>
			<path class="st1" d="M5.53,384.31v0.52V384.31z"/>
			<path class="st1" d="M77.41,448.81c0.68,0,1.43-0.06,1.82-0.1C77,448.72,76.9,448.76,77.41,448.81z"/>
			<path class="st1" d="M598.06,93.28c0-0.82,0-1.5,0-2.55C598,91.87,598.05,92.63,598.06,93.28z"/>
			<path class="st1" d="M5.24,393.14l0.29-8.83l-0.15-4C5.16,378.72,5.18,388.88,5.24,393.14z"/>
			<path class="st1" d="M77.41,448.81c-2.31,0.11-5.85,0.17-10.07,0.21l4.8,0.15C83.87,449.16,78.6,448.94,77.41,448.81z"/>
			<path class="st1" d="M595.5,451c-5.46-0.16,13.54-0.41,2.18-0.48l-11.24,0.36c1.86-0.17-4.52-0.37-5.8-0.52
				c-4.5,0.33,14.42,0.55,1.18,1c-3.08,0.2-13.14,0.16-18.22,0.11c11.35,0.07-0.29,0.32-4.85,0.44c-7-0.14-18.15-0.08-21.38-0.29
				c-1.07,0.08-6.48,0.12-10.19,0.08l-0.36-0.11c-8.34,0.1,2.83,0.11,0.7,0.23c-6,0-15.48-0.2-25.32-0.19c9.84,0,18-0.17,25.07-0.3
				c-17.95-0.19,3.16-0.57,7.17-0.86c-14.42,0.14-19.94,0.35-31.72,0.54c-14.33-0.23,1.12-0.83,4.73-0.86
				c-13.09,0.16-26.81,0.52-33.84,0.65c9.75-0.44,8.07-0.58,16.86-0.94c-10.51-0.25-12.65,0.06-17.67,0.23c2.93,0,7.46-0.07,8.52,0
				c-12.48,0-10.35,0.64-16.85,0.93c-9.23-0.18-26.82-0.27-25.64-0.67l0.12,0.43c-10.81,0.1-5.62-0.22-7.29-0.36
				c-4,0.29,1,0.71-17.23,0.83c2.8-0.69-16.26-0.06-15.75-0.69c-8.52,0-12.39,0.39-21.26,0.32c-9.81-0.35,13.42-0.84,18.71-0.74
				c12.31,0-1.62,0.29,3.32,0.28l11.77-0.19c-6.57-0.13-19.43-0.28-17.86-0.57c-12,0.14,9.64,0.3-3.5,0.46L382,450
				c-13.1,0.16,2.75,0.47-14.34,0.56c11.43-0.3-18.54,0-17.51-0.45c-0.68,0.56-30.62,0.07-34.18,0.53l9.05,0.13l-2-0.25
				c9.85,0,18-0.17,28.21-0.08c-8,0.22,2.74,0.48-6.56,0.67c-17.48,0.34-4.67-0.31-7.13-0.3l-13.9,0.3l9.43,0.24
				c-10.82,0.11-25.6,0.13-40.55,0.1c-22.08-0.33,2.71-0.32-13.11-0.63c-7.07,0.12-5.34,0.26-15.38,0.22
				c5.42,0.16,9.66-0.07,13.43-0.05c4.85,0.36-18,0.17-17,0.51c-4.12-0.13-3.33-0.28-0.08-0.42c-16.9,0.14-33.15,0.08-39.5-0.36
				l-7.29,0.43c-28.92-0.15,19.78-0.4-4.55-0.67c-10,0-19.92,0-24.3,0.15h8.69c-6.65,0.24-6.14,0.4-16.77,0.56
				c-7.56,0-3.51-0.33-12.64-0.09c-23.05-0.24-7.07-0.67-3.38-1.07c-16.82-0.23,8.49-0.83-2.87-0.65l3.07,0.1l-17.44,0.58
				c16.36,0.48,6.48-0.45,13,0h9.74c-3.06,0.25-25.58,0.08-27.62,0.35c-0.09-0.07,0.46-0.19,2.31-0.29s5-0.19,10.07-0.2l-6.08-0.54
				c-5.86-0.05-9.74,0.3-13,0.06c-8.74-0.35,12.78-0.55-8.68-0.69c-23-0.12-21.57,0.55-37.17,0.46c1.6,0.12,5.48,0.11,10.35,0.13
				c-5.08,0.18,3.84,0.33-4.7,0.46c-4.85-0.36-21.29-0.33-33.86-0.33c3.28-0.19-4.78-0.39-0.84-0.5c-6.37,0-12.25,0.11-15,0.27
				c25.57,0.27-24.76,0.31-4.89,0.67c-9.31,0-15.11-0.08-19.92-0.18l-6.78-0.16H8.64H7.78h-0.3l-0.69-0.08v-0.43
				c0.04,0.11,0.06,0.22,0.06,0.33h0.39h0.2h0.4l4.18-0.08c0.95,0,1.29-0.05,0.48-0.08l-5-0.09l-0.36,0.07l-0.12-0.4v-0.08
				c0,0,0-0.08,0-0.15v-0.2c0-0.24,0-0.4,0-0.49s-0.07-0.1-0.1,0.11l-0.05,0.39c0.01,0.12,0.01,0.24,0,0.36
				c-0.07,0.14-0.14,0.32-0.22,0.23c-0.03-0.04-0.05-0.08-0.06-0.13v-0.12v-0.55c0-0.9-0.09-2.2-0.14-4l-0.05,4.55v1.53h1.21
				c0.15,0.13-0.43,0.2-1.48,0.23v-1.05v-2v-6.62c0-4.33,0-8.15,0-9.33c0.12-7.88,0.13,11,0.45,3.28c0.1-11.76-0.19-17.68,0-25.19
				c0.32,7.32,0.19,2.66,0.47,11c0-27.6,0.37,1.41,0.57-19.66c-0.06-6.7-0.34-2.44-0.27-13.23c-0.34,6.3-0.45,5.51-0.46,22.94
				c-0.49-6.09,0.12-22.94-0.18-35.12c0,9.76-0.1,3.06,0,13.62c-0.41,1.43-0.48,5.34-0.86-4.28c0.11,11.33,0.55,16.24,0.43,32.47
				c-0.41,4.47-0.32-19.9-0.87-20.1c-0.27-8.07,0-27.71,0.16-36.67c-0.34-15.75-0.35-35.07-0.84-47.13
				c0.16-11.38-0.31-39.8-0.17-61.29c0.25-3.28,0.16-26.38,0.43-13.17c-0.08-1.87-0.13-19.7-0.35-15c0.08,1.83,0,3.85,0,7.7
				l-0.3-3.43c0.13-10.36-0.26-21.95-0.08-31.88c0.24-3.25,0.16,18.66,0.44,12C4,198.72,3.79,159.77,4,147.38
				c0.06-8.32,0.43-9.31,0.48-12.78v-14c0.12-1.64,0.27-1.85,0.42-4.45c0.09-6.9,0-11.58-0.11-15.85c0.24-18.25,0.55-8.5,0.8,0.85
				l-0.12,10.3c0.17,7.52,0.1,18.3,0.44,12c0-5.22-0.18-5-0.26-6.89l0.19-6.06c-0.15-6.09-0.23-22.94-0.49-21.14
				c0.19-12.35,0-26.55,0.17-37.51c-0.17,7.52-0.28-2-0.49,0.2L4.89,65.22C4.82,54.67,4.62,39.45,4.8,29.5
				c0.17,1.22,0.22,1.62,0.39-3.43C5,33.16,4.89,7.61,4.6,23c0.09,5.67,0.13,11,0.1,18.29c-0.36,4.82-0.41-6.74-0.61-13.22
				L3.87,4.76l10.07-0.1c6.9,0.08,8.93,0.49,20.71,0.25c-15-0.35,14.19-0.58,18.08-0.94c11.37,0.16,18.45-0.3,27.57,0
				C75.65,4.1,58.18,4.09,53.73,4.36c-0.63,0.25,3.85,0.67-13.41,0.81C61.06,5.3,52.5,4.95,62.05,4.84h-7.1
				c3.23-0.1-2.86-0.3,3.44-0.3C82.72,4.63,87,4.9,103.44,5.23c-3.67-0.19,3.84-0.36,7.72-0.38c15.81,0.24-0.21,0.55,9.49,0.93
				c5.5-0.24,16.27-0.17,12.62-0.35c6.27,0,3,0.09,7.5,0.17c4-0.22,8.74-0.34,17.43-0.34c-0.79,0.12-2,0.28-10.33,0.22
				c9.33,0.1,12.75,0.48,8.71,0.7l-15.21-0.15c-6.91,0.26,14.19,0.11,13.6,0.37c-6.7,0.06-11.76-0.1-16,0c4.28,0.27,17.44,0,25.15,0
				c12.18,0,7.72,0.31,7.91,0.46c20.7-0.44-23.93-0.5-4.65-0.91c7.31-0.32,25.77-0.27,38.76-0.34c-11.16-0.36,1.24-0.51,14.62-0.63
				c-17.45,0-4.46-0.42-25-0.18l-0.4-0.29l27.79,0.13c-0.88,0.13-1.76,0.19-2.65,0.2l26-0.13l-2.64,0.19c16,0,35.71,0.25,45.26,0.14
				c-7.72,0-14.4-0.26-6.31-0.34c4.68-0.12,13.2-0.26,20.5-0.24c3.85,0.33,31.46,0.32,14,0.66c22.52-0.17,14.2-0.23,35.73-0.44
				l-14.42,0.09c-1.81-0.26,10.16-0.71-3.65-0.87c16.24-0.17,5.89-0.64,27.62-0.7c8.82,0.16-2.64,0.53-14.84,0.6
				c6.15,0,11.73,0.17,18.08,0c4.65,0.21-11.57,0.38-10.95,0.47c11.17,0-0.22-0.14,10.33-0.22c18.46-0.3,11.76,0.45,29.43,0.26
				c-3.86,0-10.74-0.07-6.1-0.2c23.75,0,13.21-0.26,30.45-0.4c9.74,0.38,5.47,0.8,21.07,0.89h-8.7c6.08,0.2,13,0.28,19.28,0.27
				c32.45-0.33,59.25-0.91,92.72-1.22l-12,0.1c-4-0.13,10-0.16,9.78-0.31l7.48,0.18c2.05-0.28-16.83-0.27-12.36-0.54
				c1,0,3.46,0,4.88,0L534.25,3c15.64,0.08,28-0.41,39.78,0c-30.45,0.06-4.66,0.82-34.49,1c15.8-0.11,2.81,0.3,4.43,0.42
				c8.33,0.06,4.08-0.21,13.43-0.12c-0.22,0.2-20.32,0.38-11.39,0.53c1-0.31,9.33-0.25,13.38-0.47c6.9,0.09-0.18,0.2,2.86,0.3
				c3.84,0,6.09-0.15,9.53-0.11l-2.62,0.2c9.63,0.13,11.1,0.06,12.89,0c0.9,0,1.88-0.1,4-0.14h4.18h6.27c0.39-0.13-1-0.18-3.53-0.19
				h-11.26c-1.36-0.16,0.51-0.28,3.78-0.39L598,3.69c0,1.61,0.07,3.16,0.1,4.57s0.09,2.52,0.12,3.51c0.09,2,0.19,3.05,0.32,2.68
				c0.09,20.7-0.24-5.48-0.39,12.16c-0.38,9.73-0.41-13-0.68-17.47l-0.24,18.29C597,24.38,596.9,20,596.82,16
				c-0.05-2-0.09-3.92-0.13-5.54c0-0.78-0.06-1.59-0.1-2.11s-0.09-0.87-0.14-1.14v7.33c0,2,0,3.48,0.06,5c0,3,0.1,6.07,0.21,13
				c0.37-22.33,0.31,9.72,0.79-3c-0.13,10.33-0.23,7.09-0.23,22.1c-0.11-9.53-0.4-0.38-0.41-13c0.1,20.29,0.08,14.81,0.18,35.09
				c0.35,6.32,0.45-20.5,0.7,3.89c0,5.28-0.13,4.24-0.12,1.15c-0.14,17.42,0.43-3.58,0.61,7.37c0,7.61-0.1,10.35-0.18,7.21
				c0.19,11.41,0.42,5.1,0.5,12.69v-3.46c0.11,3.25,0.6-5.65,0.62,10.78c0,12-0.19,8.23-0.31,8.51c0.12,9.32,0,16.48-0.1,22.87
				c0.07-0.65,0.13,0.07,0.14,2.9c0.11,15.83-0.3,9.1-0.35,15c-0.17,22.56,0.64-2.81,0.66,22.34l0.11-29.22
				c0.17,1.22,0.43,1.85,0.42-4.45c-0.25-0.59-0.47-11-0.43-20.71c0.29-2.82,0.33,26.19,0.65,9.75v21.31
				c-0.31-7.31-0.06,23.34-0.41,10.74c0.08,31.87-0.14,36.53,0.09,65.76c-0.19-2.64-0.69-21.3-0.55-36.52l0.18-1.25
				c-0.22-19.06-0.2,14.85-0.5,11.39c0.48,23.53-0.23,52.13-0.06,80.93c0.17-5.07,0.26,0.64,0.43,1.86c0-11.57-0.11-9.54,0.1-18.05
				c0.22,1.61,0.13,8.52,0.29,12.17c0.25,3,0-8.72,0.14-12.81c0.13,11,0.16,10,0.37,16.48c-0.2,6.07-0.31,5.25-0.53,9.93
				c0,27.19,0.39,24.14,0.31,46.06c0-12.16-0.25,5.69-0.17-7.52v7.32c-0.36-18.88-0.35-51.34-0.93-48.11
				c0,15.43,0.38,26.6,0.4,45.45l-0.12-0.8c0,13.62,0.15-0.2,0.25,3c0.2,15.24-0.56,19.71-0.14,30.23l0.09-15.59
				c0.24,11.77,0-3.45,0.43-0.62c0.29,20.91,0.09,57,0.38,86.66c0.21-8.51,0.22-10.94,0.23-22.12c0.53,5.06,0.45,9.56,0.9,4.09
				v-13.61l0.48-0.2c0,3.72,0,7.41-0.06,10.7c0.31,1.87-0.09,20.64,0.2,21.56v-11.57c0.25-5.68,0.23,7.94,0.31,16.06
				c0.31-7.71,0-25.17,0-41.6c-0.18,1.19-0.55-15.22-0.58,0.8c-0.18-1.91-0.26-3.82-0.23-5.74c-0.05-3.2-0.08-7.17-0.08-10.32
				c0.1,3.28,0.53-12.36,0.68,2.46c-0.23-14.2,0-6.29-0.12-22.12c0.14,2.23,0-27.61,0.42-25.77c-0.18-5-0.63,0.26-0.65-18.09
				c-0.29,4.46-0.33,24.91-0.65,11.19L601,353c-0.14,12.78-0.3-3.48-0.42,13.2c0-4.9-0.15-14.84,0.06-17.06
				c-0.62,4.28-0.31-24.75-0.76-25.56c0.18-3.67,0.2-8.53,0.15-17.7c0.17,1.25,0.33-3.82,0.45,3.29c0,5.88,0,10.14-0.12,16.64
				c0.61-3.61,0.19-23.71,0.32-38.93c-0.05,2.13-0.11,2.74-0.2-1.47c0.1-9.3,0.2-29.81,0.5-23.93l-0.08-46.87
				c0.14-0.21,0.06,6.69,0.1,9.55v-26.17c0.19-6.1,0.19,8.91,0.38,11.54v-18.92l0.19,2.64c-0.12-4.64-0.19-26.38,0.12-31.65
				c-0.09-20.68-0.72-20.3-0.44-48.3c0.31,1,0.11,15.83,0.31,22.33c0.11-5.47-0.11-22.12,0.18-24.95c-0.18-20.09-0.73-17.88-1-27.61
				c0-16.43,0.27-1.82,0.36-2.47c0-4.85-0.56-12.77-0.14-17.21c-0.23-7.92-0.5-12.39-0.6-0.62c0-8.73-0.15-21.11-0.28-23.32
				c0.46,7.07,0.18-10,0.56-11c0-6.66,0-16.94,0.06-27.52L589,1l-8.28,0.07c-5.28,0.06-10,0.15-13.39,0.28l3.67-0.5l-15.4,0.06
				c-11.54-0.31,13.6-0.32,21.31-0.35h-53.78c5.5,0.11,2.23,0.21,4.86,0.37c-6.48,0.2-15.4,0-22.12,0.11
				c-1.63-0.12-0.81-0.23,4.46-0.27l-13,0.07c1-0.31-5.29-0.31,7.52-0.52l-12,0.1c-13.21-0.08,0.59-0.26,3.84-0.36L475.86,0
				c-7.49,0.17,4.26,0.27-10.14,0.36C446.45,0.09,421.87,0.19,400,0.11l15.39,0.29c-13.2-0.08-10.55,0.42-14.62,0.63
				C388.58,1,372.16,1,361.82,0.88c11.76-0.24,6.91-0.6-4.05-0.82C333,0,339.09,0.57,325.3,0.74C336,0.12,308,0.53,310.46,0.2
				l-95.57,0.23c0.63,0.09,10,0.19,4.25,0.28c-11.95,0.1-17.63-0.15-19.26-0.28c-15.43,0.06-24.33,0.26-29.43,0.44
				c6.71-0.06,7.32,0,6.08,0.19C161.11,1.12,165.38,0.7,150.76,1c-3.85-0.34,16.24-0.17,14.83-0.5c-13.61,0-22.14,0.12-32.07,0.28
				c-2.25-0.21,9.12-0.05,1.61-0.22L72.84,1l-4.26-0.24C58.44,0.78,51.74,0.84,47.08,1c-5.49-0.14-1.21-0.21,4.06-0.24
				C37.55,0.73,20.89,1,13.18,1c1.23-0.17,7.71,0,10-0.16h-9.83L0,0.92l0.17,19.62c0,5.11,0,9.65-0.12,13.16c0-1.45,0-3.1,0-4.64
				c0.02,25.25,0.09,47.24,0.17,74.66c-0.33,25.13,0.42,8.1,0.39,32.85c-0.37,0.09-0.39,8.51-0.32,18.21s0.21,20.69,0.14,25.9
				l0.11-3.32c0.29,12.19,0,29-0.18,37.55c0,18.45,0,46.07,0.27,64.52l-0.15-3.66c0.19,15.23,0,24.75,0.16,40
				c-0.06-0.41-0.15-6.11-0.2-0.21c0,22.79,0,45.69,0,68.69l0.14,71.54l86.51-0.08c140.22,0.16,314.83,0.28,452.83-0.32
				C539.88,455.39,605.34,452.3,595.5,451z"/>
			<path class="st1" d="M597.63,78.7c0-0.64,0-1.23,0-2C597.63,77.47,597.63,78.1,597.63,78.7z"/>
			<path class="st1" d="M343.1,3.79L343.1,3.79z"/>
			<path class="st1" d="M62.05,4.83h5.88H62.05z"/>
			<path class="st1" d="M5.38,371.63c0.21-2.23,0.6,9.36,0.78-0.59c0-34.88-0.83-14.84-0.78-50.75l-0.24,18.25
				c0.38-1,0.58,11.79,0.62,25.79l-0.28,4.27l-0.2-7.6C5.24,366.26,5.46,365.26,5.38,371.63z"/>
			<path class="st1" d="M5.29,359.67v0.86V359.67z"/>
		</g>
	</g>
	<g>
		<rect x="58.85" y="60.78" class="st2" width="483.08" height="335.66"/>
		<g>
			<path class="st1" d="M544.26,137.44c0-0.72,0.08-0.91,0.14-1v-1.76L544.26,137.44z"/>
			<path class="st1" d="M549.54,301.73V302c0.03-0.27,0.09-0.53,0.18-0.78C549.6,300.94,549.6,300.94,549.54,301.73z"/>
			<path class="st1" d="M548.24,260.35c0-0.72,0.11-1.43,0.18-2.08C548.29,258.96,548.23,259.65,548.24,260.35z"/>
			<path class="st1" d="M543.93,160c0.08-1.83,0.17-3.7,0.27-5.62C543.92,156.24,543.83,158.12,543.93,160z"/>
			<path class="st1" d="M548,265.93c0.06-1.47,0.16-3.83,0.24-5.58C548.12,262.05,548,263.93,548,265.93z"/>
			<path class="st1" d="M549.63,379.71c0.06-1.12,0.12-2.35,0.17-3.7c0-0.08-0.07-0.3-0.12-0.27L549.63,379.71z"/>
			<path class="st1" d="M532.34,390.43c-3.69,0.07-4.3,0.21-3.76,0.38C529.83,390.61,531.08,390.49,532.34,390.43z"/>
			<path class="st1" d="M442.05,390.41c0.68,0,1.35-0.08,1.93-0.12C442.6,390.33,441.66,390.39,442.05,390.41z"/>
			<path class="st1" d="M494,393.14c0.21,0.11,0.44,0.18,0.68,0.2C495,393.28,494.82,393.21,494,393.14z"/>
			<path class="st1" d="M53.48,199.37l-0.17,2.18C53.42,200.83,53.48,200.1,53.48,199.37z"/>
			<path class="st1" d="M52.63,80.44L52.63,80.44z"/>
			<path class="st1" d="M52.63,76.91v2.47C52.64,78.31,52.65,77.37,52.63,76.91z"/>
			<path class="st1" d="M548.63,383.52c0.31,2.89,0.42,10.05,0.82,10.21l0.18-14C549.34,384.69,548.9,387.24,548.63,383.52z"/>
			<path class="st1" d="M125.7,388c-4.55,0-6.83,0.09-8,0.17l8.2-0.16L125.7,388z"/>
			<path class="st1" d="M63.68,359.1v0.4v-0.64V359.1z"/>
			<path class="st1" d="M133.84,387.63c0.48-0.04,0.95-0.11,1.42-0.2C133.54,387.45,133.44,387.53,133.84,387.63z"/>
			<path class="st1" d="M542.7,114.1c0-0.64-0.05-1.17-0.08-2C542.64,113,542.66,113.59,542.7,114.1z"/>
			<path class="st1" d="M63.12,366l0.56-6.92c-0.08-0.93-0.18-1.87-0.29-3.12C62.94,354.71,63,362.68,63.12,366z"/>
			<path class="st1" d="M133.84,387.63c-1.81,0.21-4.59,0.33-7.91,0.41l3.77,0.31C138.9,388.32,134.77,387.89,133.84,387.63z"/>
			<path class="st1" d="M540.23,392.1c-4.29-0.33,10.62-0.84,1.71-1l-8.82,0.72c1.47-0.33-3.55-0.73-4.54-1
				c-3.54,0.66,11.3,1.1,0.92,2c-2.42,0.41-10.31,0.33-14.3,0.23c8.91,0.13-0.22,0.63-3.79,0.87c-5.48-0.28-14.24-0.15-16.78-0.58
				c-2.66,0.2-5.33,0.26-8,0.17l-0.28-0.22c-6.54,0.19,2.22,0.21,0.55,0.45c-4.74,0.07-12.15-0.4-19.87-0.37
				c7.72,0,14.15-0.34,19.67-0.59c-14.08-0.4,2.48-1.15,5.62-1.73c-11.31,0.27-15.64,0.69-24.88,1.07
				c-11.24-0.46,0.88-1.65,3.72-1.72c-10.28,0.33-21,1.05-26.55,1.3c7.65-0.88,6.33-1.16,13.22-1.87
				c-8.24-0.51-9.92,0.12-13.86,0.46c2.23-0.14,4.46-0.14,6.69,0c-9.79-0.07-8.12,1.28-13.22,1.87c-7.24-0.37-21-0.54-20.11-1.33
				l0.09,0.84c-8.48,0.21-4.4-0.43-5.72-0.71c-3.17,0.58,0.78,1.42-13.52,1.65c2.2-1.37-12.74-0.12-12.35-1.37
				c-6.68,0.09-9.72,0.78-16.67,0.64c-7.7-0.71,10.53-1.69,14.68-1.48c9.65,0-1.27,0.57,2.59,0.55l9.24-0.37
				c-5.15-0.27-15.24-0.57-14-1.14c-9.4,0.27,7.56,0.59-2.74,0.92l-6.21-0.31c-10.28,0.32,2.16,0.95-11.25,1.12
				c9-0.6-14.54,0-13.73-0.9c-0.54,1.13-24,0.15-26.81,1.07l7.1,0.26l-1.58-0.51c7.72,0,14.14-0.34,22.12-0.15
				c-6.27,0.43,2.15,1-5.14,1.33c-13.71,0.68-3.66-0.61-5.59-0.6l-10.91,0.61l7.4,0.48c-8.49,0.21-20.08,0.26-31.8,0.19
				c-17.33-0.66,2.12-0.63-10.29-1.26c-5.54,0.25-4.19,0.53-12.06,0.45c4.24,0.32,7.57-0.15,10.53-0.1c3.81,0.72-14.12,0.34-13.31,1
				c-3.23-0.27-2.62-0.56-0.07-0.85c-13.25,0.28-26,0.16-31-0.72l-5.71,0.87c-22.69-0.3,15.51-0.8-3.58-1.35
				c-7.87-0.08-15.62,0-19.06,0.31h6.82c-5.21,0.48-4.82,0.82-13.16,1.13c-5.93-0.08-2.75-0.66-9.91-0.18
				c-18.08-0.49-5.54-1.34-2.65-2.14c-13.19-0.46,6.66-1.67-2.25-1.3l2.4,0.2l-13.67,1.15c12.83,1,5.08-0.89,10.16,0.07l7.64,0.08
				c-2.4,0.49-20.06,0.15-21.66,0.71c-0.15-0.29,1.75-1,9.71-1l-4.75-1.02c-4.6-0.1-7.64,0.61-10.17,0.13
				c-6.86-0.7,10-1.11-6.82-1.38c-18-0.24-16.91,1.09-29.15,0.92c2.7,0.23,5.41,0.31,8.12,0.25c-4,0.36,3,0.66-3.69,0.93
				c-3.8-0.72-16.7-0.67-26.56-0.66c2.58-0.39-3.75-0.78-0.66-1c-5,0.1-9.61,0.22-11.74,0.55c20.05,0.54-19.43,0.61-3.84,1.34
				c-15.62,0-18.63-0.7-28.33-1.08c0.64-0.22,18-0.46,4.14-0.76c-15.93,0.76,2.85,1.06-9.54,2l10,0.27c0.6,0.45-3.44,0.52-8.06,0.49
				h-1.73h-1.14H66.2c-0.6-0.04-1.21-0.04-1.81,0c0-0.04,0-0.08,0-0.12c0.1-1.12,0.16-0.67,0.25-0.12c0.45-0.04,0.9-0.12,1.34-0.23
				c0.3-0.1,0.33-0.23,0-0.41h-0.61c0-0.58,0-1.06,0-1.51v-0.65v-0.31v-0.24v-0.52c-0.06-2.73-0.1-5.16,0.06-7.85
				c0.31,2.87,0.41,3.39,0.5,4c0,0.31,0.08,0.64,0.15,1.31l0.3,3.19v-6.1c0-1.48,0-2.43,0.09-3c0.07-1.17,0.18-0.87,0.3-0.41
				c0.23,0.92,0.52,2.47,0.71-5.8c-0.12-5.25-0.67-1.91-0.53-10.37c-0.68,4.94-0.9,4.32-0.92,18c-1-4.79,0.23-18-0.36-27.55
				c-0.08,7.65-0.2,2.39,0,10.68c-0.82,1.12-1,4.19-1.72-3.36c0.23,8.89,1.11,12.74,0.88,25.47c-0.84,3.5-0.65-15.61-1.74-15.76
				c-0.55-6.33-0.1-21.74,0.3-28.77c-0.67-12.35-0.69-27.51-1.67-37c0.32-8.93-0.61-31.22-0.33-48.07
				c0.48-2.57,0.31-20.69,0.84-10.34c-0.15-1.46-0.25-15.45-0.69-11.79c0.16,1.44,0,3,0.06,6l-0.6-2.69
				c0.25-8.13-0.52-17.22-0.16-25c0.48-2.55,0.32,14.63,0.88,9.39c-0.9-7.49-1.29-38-0.91-47.76c0.12-6.52,0.88-7.3,1-10l-0.07-11
				c0.34-1.15,0.62-2.31,0.84-3.49c0.17-5.41-0.08-9.08-0.22-12.43c0.48-14.31,1.1-6.67,1.6,0.67l-0.25,8.08
				c0.34,5.9,0.2,14.35,0.88,9.39c0.02-1.82-0.15-3.63-0.52-5.41l0.39-4.75c-0.3-4.78-0.46-18-1-16.58
				c0.38-9.69-0.09-20.83,0.34-29.43c-0.34,5.9-0.56-1.58-1,0.16l-0.15,10.34c-0.15-8.28-0.55-20.22-0.19-28
				c0.33,1,0.45,1.27,0.77-2.69c-0.46,5.56-0.6-14.48-1.18-2.4c0.19,4.45,0.26,8.59,0.21,14.35c-0.73,3.77-0.81-5.29-1.22-10.37
				L60.37,62.3l7.06-0.22l1.79,0.09l1.65,0.13l3.16,0.28c3.18,0.21,6.38,0.21,9.56,0c-11.77-0.68,11.13-1.15,14.18-1.86
				c8.92,0.31,14.48-0.61,21.63,0c-3.65,0.25-17.35,0.23-20.84,0.77c-0.5,0.51,3,1.35-10.52,1.62c16.26,0.26,9.56-0.44,17-0.65
				l-5.56,0.07c2.53-0.2-2.25-0.59,2.69-0.6c19.09,0.18,22.44,0.73,35.34,1.37c-2.88-0.37,3-0.71,6-0.74
				c12.41,0.46-0.16,1.09,7.45,1.85c4.32-0.47,12.76-0.33,9.9-0.71c4.92,0,2.37,0.2,5.88,0.35c4.54-0.54,9.1-0.77,13.67-0.67
				c-0.61,0.22-1.57,0.56-8.1,0.44c7.32,0.18,10,1,6.83,1.38l-11.93-0.29c-5.42,0.52,11.13,0.23,10.67,0.74
				c-5.26,0.12-9.23-0.21-12.58-0.07c3.35,0.55,13.68,0,19.73,0c9.55,0.09,6,0.63,6.2,0.92c16.24-0.88-18.77-1-3.64-1.82
				c5.72-0.63,20.21-0.55,30.39-0.67c-8.74-0.72,1-1,11.48-1.27c-13.69,0-3.5-0.84-19.58-0.36l-0.32-0.58c6.85,0,15,0.26,21.81,0.27
				c-1.43,0.16,0.16,0.29-2.09,0.38l20.4-0.26l-2.08,0.38c12.57,0.07,28,0.51,35.51,0.29c-6.06,0.06-11.3-0.51-4.95-0.68
				c3.67-0.25,10.36-0.53,16.08-0.47c3,0.66,24.68,0.64,11,1.31c17.66-0.34,11.14-0.46,28-0.87L322,62.27
				c-1.42-0.53,8-1.41-2.86-1.74c12.73-0.34,4.61-1.28,21.66-1.4c6.92,0.32-2.07,1.07-11.64,1.21c4.82,0,9.2,0.33,14.18,0
				c3.65,0.44-9.07,0.77-8.59,1c8.76,0-0.17-0.29,8.1-0.43c14.49-0.61,9.23,0.89,23.09,0.51c-3,0-8.42-0.14-4.78-0.39
				c18.62,0,10.36-0.54,23.88-0.8c7.64,0.76,4.29,1.59,16.52,1.76h-6.81c4.76,0.39,10.17,0.56,15.11,0.55
				c25.46-0.67,46.48-1.84,72.74-2.44l-9.39,0.19c-3.18-0.26,7.83-0.32,7.66-0.61l5.88,0.34c1.6-0.55-13.2-0.53-9.7-1.07
				c0.8,0.07,2.71,0.09,3.82,0l-5.42-0.17c12.27,0.18,22-0.81,31.21,0.08c-23.89,0.11-3.66,1.63-27.06,1.91
				c12.39-0.22,2.2,0.6,3.48,0.84c6.53,0.12,3.2-0.43,10.53-0.24c-0.17,0.4-15.94,0.76-8.93,1.06c0.8-0.62,7.31-0.5,10.49-0.93
				c5.41,0.17-0.14,0.4,2.24,0.6c3,0,4.78-0.3,7.48-0.22l-2.05,0.38c15.1,0.55,4.6-0.58,21.78-0.42c0.48-0.51-4.78-0.39-11.93-0.28
				c-1.82-0.57,3.71-0.87,9.52-1.19c2.91-0.15,5.88-0.32,8-0.51c0.84-0.07,1.68-0.18,2.51-0.33c0.61-0.12,0.94-0.26,0.74-0.41
				c9.44-0.09,8.43,0,6.77,0.19s-3.71,0.4,2.6,0.56v1.17c-0.32,3.79-0.52,2.38-0.68-0.46l-7.28,0.3c-2.42,0.11-4.64,0.22-5.66,0.38
				l11.83,0.43l-0.04,1.5c-0.12-0.4-0.21-0.82-0.28-1.23c-2.47,0.33-5,0.45-7.26,0.59l-1.83,0.11c-0.63,0-1.22,0.09-1.76,0.14
				c-0.86,0.06-1.72,0.21-2.55,0.44h5h1.48h1.15l4.78-0.26c0.07,1,0.14,2.32,0.22,4.23c0.13-2.48,0.24-4,0.32-4.78
				c-0.8-0.1-0.53-0.18,0.27-0.26c0.11,0.89,0.21,2.85,0.35,3.94s0.34,1.32,0.63-1.79c-0.12,4-0.24,5.17-0.32,7.08
				s-0.13,4.15-0.13,10c-0.22-7.47-0.8-0.3-0.82-10.19c0.07,15.91,0.29,11.62,0.36,27.52c0.7,5,0.9-16.07,1.41,3.06
				c0,4.13-0.26,3.32-0.26,0.9c-0.27,13.66,0.86-2.81,1.22,5.78c0.09,6-0.19,8.12-0.35,5.65c0.39,9,0.85,4,1,10l0.09-2.71
				c0.2,2.54,1.19-4.44,1.23,8.45c0,9.4-0.39,6.46-0.62,6.68c0.24,7.31,0,12.92-0.2,17.93c0.13-0.5,0.27,0.06,0.27,2.28
				c0.23,12.42-0.58,7.14-0.68,11.76c-0.35,17.69,1.28-2.21,1.32,17.52l0.22-22.92c0.33,1,0.85,1.45,0.84-3.49
				c-0.51-0.46-0.95-8.59-0.88-16.25c0.6-2.21,0.66,20.55,1.31,7.66c-0.11,4.61,0.06,11,0,16.71c-0.63-5.73-0.12,18.31-0.82,8.43
				c0.15,25-0.28,28.65,0.18,51.58c-0.92-9.52-1.29-19.09-1.1-28.65l0.36-1c-0.43-14.95-0.4,11.65-1,8.93
				c1,18.46-0.45,40.89-0.1,63.48c0.32-4,0.51,0.51,0.85,1.47c-0.09-9.08-0.22-7.49,0.19-14.16c0.45,1.26,0.28,6.68,0.6,9.54
				c0.49,2.39,0-6.84,0.27-10c0.26,8.62,0.32,7.8,0.73,12.92c-0.39,4.76-0.61,4.12-1,7.79c-0.09,21.33,0.79,18.94,0.62,36.13
				c0.1-9.54-0.5,4.47-0.34-5.9l-0.06,5.75c-0.71-14.81-0.69-40.28-1.87-37.75c0.11,12.11,0.78,20.87,0.8,35.66l-0.22-0.63
				c0,10.68,0.29-0.16,0.49,2.37c0.4,11.95-1.12,15.46-0.29,23.71l0.18-12.22c0.48,9.22,0.09-2.72,0.87-0.5
				c0.58,16.4,0.19,44.75,0.77,68c0.41-6.68,0.42-8.58,0.45-17.34c1,4,0.9,7.49,1.81,3.2v-10.67l1-0.16c0,2.91,0,5.81-0.13,8.39
				c0.61,1.47-0.19,16.19,0.4,16.91l-0.08-9.07c0.5-4.46,0.45,6.22,0.62,12.59c0.63-6.05,0-19.74-0.08-32.63
				c-0.36,0.93-1.09-11.94-1.16,0.63c-0.4-0.16-0.61-7.65-0.62-12.6c0.2,2.58,1.07-9.69,1.36,1.94c-0.47-11.15,0-4.94-0.24-17.36
				c0.27,1.75,0-21.65,0.83-20.22c-0.36-3.94-1.24,0.21-1.29-14.18c-0.58,3.49-0.66,19.54-1.29,8.78l0.39,7
				c-0.27,10-0.61-2.73-0.85,10.35c0-3.84-0.29-11.63,0.13-13.37c-1.24,3.35-0.61-19.42-1.52-20.06c0.37-2.87,0.41-6.69,0.3-13.88
				c0.34,1,0.66-3,0.9,2.58c-0.1,4.61,0,8-0.25,13c1.24-2.83,0.39-18.59,0.65-30.53c-0.1,1.67-0.22,2.15-0.39-1.16
				c0.18-7.29,0.4-23.38,1-18.76l-0.16-36.77c0.29-0.17,0.13,5.25,0.22,7.49v-20.53c0.39-4.79,0.39,7,0.77,9.06v-14.81l0.38,2.07
				c-0.25-3.64-0.37-20.69,0.25-24.82c-0.19-16.23-1.45-15.93-0.9-37.89c0.63,0.81,0.23,12.42,0.63,17.51
				c0.22-4.29-0.23-17.35,0.37-19.57c-0.36-15.75-1.47-14-2.08-21.66c-0.05-12.88,0.53-1.42,0.7-1.93c0-3.8-1.11-10-0.27-13.5
				c-0.45-6.21-1-9.72-1.2-0.49c0-6.85-0.29-16.56-0.56-18.29c0.46,2.77,0.55,0.82,0.62-1.93c0-1.07,0-2.23,0-3.36
				s0.06-2.33,0.08-3.36c-0.02-1.41,0.1-2.82,0.36-4.21c0-1.23,0-2.56,0-4.19l-15.67-0.09c-3.61,0-7.48,0-11.28,0
				c-7.62,0.07-15,0.27-19.48,0.73l2.87-1l-12.11,0.12c-9.05-0.61,10.67-0.65,16.72-0.7c-16.4-0.1-27.38,0-42.18,0
				c4.31,0.21,1.75,0.42,3.81,0.72c-5.08,0.41-12.08,0.12-17.35,0.24c-1.28-0.25-0.63-0.47,3.5-0.54l-10.17,0.13
				c0.8-0.63-4.15-0.62,5.9-1l-9.39,0.19c-10.37-0.16,0.46-0.51,3-0.72l-16.39-0.1c-5.88,0.35,3.34,0.55-8,0.73
				c-15.11-0.55-34.39-0.34-51.57-0.51l12.09,0.58c-10.35-0.16-8.27,0.84-11.46,1.26c-9.56-0.09-22.45,0-30.55-0.29
				c9.22-0.49,5.42-1.21-3.18-1.64c-19.42-0.08-14.65,1-25.47,1.36C320,53,298,53.84,299.94,53.17c-24.67,0-49.48,0.49-75,0.47
				c0.5,0.18,7.81,0.36,3.33,0.55c-9.36,0.2-13.82-0.31-15.1-0.55c-12.11,0.11-19.09,0.5-23.08,0.87c5.26-0.12,5.73,0.05,4.76,0.39
				c-12.09,0.11-8.75-0.72-20.21-0.14c-3-0.66,12.75-0.34,11.63-1c-10.67-0.05-17.37,0.23-25.16,0.56c-1.76-0.42,7.16-0.1,1.27-0.45
				l-48.86,1l-3.34-0.55c-8,0-13.21,0.16-16.87,0.41c-4.3-0.22-0.94-0.36,3.19-0.43c-5.33,0-11.27,0.08-16.62,0.19l-7.45,0.16
				l-3.13,0.07h-3.35c0.3-0.05,0.6-0.08,0.9-0.09l1.25-0.06c0.64,0,1.42,0,2.23,0c1.4,0.03,2.8-0.01,4.2-0.14h-3.76h-4.65
				l-13.43,0.18c0.1,6.67,0.19,13.23,0.28,19.13c0,4,0,7.57-0.24,10.33c-0.09-1.14-0.1-2.44-0.1-3.64c0,19.8,0.37,37.05,0.43,58.56
				c-0.65,19.71,0.85,6.36,0.78,25.77c-1.48,0.13-0.08,26.41-0.36,34.6l0.22-2.6c0.4,9.82,0.29,19.65-0.34,29.45
				c-0.09,14.47-0.07,36.13,0.53,50.61L53.58,274c0.4,11.95-0.08,19.42,0.32,31.38c-0.11-0.32-0.29-4.79-0.4-0.16
				c-0.12,15.12-0.15,30.3-0.1,45.54c0.07,16.97,0.13,33.97,0.2,51l46.65-0.22c13.77-0.06,27.49-0.06,41.14,0
				c110,0.32,247,0.55,355.21-0.64C496.6,400.79,548,394.6,540.23,392.1z"/>
			<path class="st1" d="M541.83,102.67c0-0.51,0-1,0-1.55C541.84,101.7,541.83,102.19,541.83,102.67z"/>
			<path class="st1" d="M325.54,60.36h3.65C328,60.32,326.79,60.32,325.54,60.36z"/>
			<path class="st1" d="M105.08,62.44l4.62-0.06C107.7,62.39,106.26,62.41,105.08,62.44z"/>
			<path class="st1" d="M63.4,349.15c0.41-1.75,1.19,7.34,1.55-0.46c0-27.36-1.66-11.65-1.56-39.81l-0.49,14.31
				c0.76-0.77,1.18,9.25,1.24,20.23l-0.55,3.35c-0.16-1.88-0.29-3.88-0.41-6C63.12,344.93,63.55,344.15,63.4,349.15z"/>
			<path class="st1" d="M63.2,339.77v0.67v0.36V339.77z"/>
		</g>
	</g>
	<g>
		<polygon class="st1" points="60.4,59.26 60.8,58.76 59.95,59.04 		"/>
		<path class="st1" d="M58,55.83c-0.75,0.22-1.56,0-2.52,1l1.31-0.35c-0.65,0.77-0.29,1,0.21,1.08l-0.35-0.27
			c0.17,0,0.58-0.51,0.75-0.52c0.11,0.84,1.22,0,0.87,1.21h-0.1l0.81-0.1c0,0.21-0.37,0.5-0.54,0.59c0.69-0.06,1.32-0.21,1.69,0.26
			c1-1.61-1.92,0.06-0.95-1.55h0.1C58.39,57.2,58.75,55.9,58,55.83z"/>
		<path class="st1" d="M58.43,58.47h-0.06C58.37,58.47,58.37,58.5,58.43,58.47z"/>
		<path class="st1" d="M43.61,39.61l-0.23,0.18C43.48,39.74,43.58,39.7,43.61,39.61z"/>
		<path class="st1" d="M46.1,47.37L46.1,47.37C45.78,47.57,45.87,47.52,46.1,47.37z"/>
		<path class="st1" d="M15.55,11.66l0.2-0.4C15.5,11.56,15.47,11.66,15.55,11.66z"/>
		<path class="st1" d="M8.93,4.45L8.93,4.45z"/>
		<path class="st1" d="M8,11.58l-0.25,0.27C7.94,11.72,8,11.64,8,11.58z"/>
		<path class="st1" d="M5.29,9.84C5.3,9.73,5.28,9.63,5.23,9.53C5.12,9.72,5.17,9.84,5.29,9.84z"/>
		<path class="st1" d="M9.11,4.41H8.93C8.99,4.42,9.05,4.42,9.11,4.41z"/>
		<path class="st1" d="M10.87,15.45l-0.6,0.76C10.49,15.97,10.69,15.72,10.87,15.45z"/>
		<path class="st1" d="M4.19,9.83C4.26,9.72,4.31,9.6,4.32,9.47C4.21,9.62,4.14,9.76,4.19,9.83z"/>
		<path class="st1" d="M57.5,55.41c0.09,0.08,0.2,0.13,0.32,0.13C57.78,55.41,57.66,55.39,57.5,55.41z"/>
		<path class="st1" d="M22.73,28.77c-0.11,0.06-0.21,0.14-0.3,0.22C22.54,29,22.63,28.89,22.73,28.77z"/>
		<path class="st1" d="M15.53,21.22L15.53,21.22l-0.08,0.14L15.53,21.22z"/>
		<path class="st1" d="M17.77,23.28L17.6,23.4C17.66,23.37,17.72,23.33,17.77,23.28z"/>
		<path class="st1" d="M13.2,20.28c-0.11,0.04-0.21,0.09-0.31,0.15L13.2,20.28z"/>
		<path class="st1" d="M12.36,18c-0.19,0.28-0.46,0.49-0.78,0.61c0.06,0.72,1,0,0.85,1l0.14-0.52c0.76-0.23,1.35,0.15,0.92,1
			l-0.29,0.15c0.79-0.29,0.16,1.11,0.73,0.76c0.2-0.4,0.48-0.46,0.6-0.9l1.19,0.09l-0.88,0.95h0.64c0.29-0.44,0.15,0.74,1-0.11
			c-0.14,0.52-0.78,0.61-1.2,0.9c0.45-0.08,0.07,0.33,0.78,0l-0.62,1l1.06-0.08c-0.1,0.05-0.13,0.14-0.23,0.19
			c0.91-0.45,0.16,1,1.62,0.09c-0.05,0.03-0.11,0.07-0.15,0.12c0.8-0.47,0.71,0.37,0.72,0.65c0.4,0.1,0.88-0.66,1.23-1
			c0.51,0.94,0.33,0.66,1.9,0.33c-0.65,1.37-2.06,1.17-2.31,2.34c0.52-0.39,1.2-0.5,1.82-0.31c0.15,0.85,0.11,1.72-0.1,2.56
			l0.63-0.69l0.84,0.11l-1.23,0.68c0.3-0.14,0.95-0.32,1.43-0.48c1.07-0.08-1.17,1.7,0.22,1.09l-0.18,0.24
			c0.63-0.38,0.76,0.13,1.32,0.31l-1,0.71L23,29.37c-0.7,0.94,0.54,0.26,0.72,0.54c0.53,0,1.1-0.84,1.48-1
			c0.05,0.13,0.43,0,0.26,0.32c0,0.47-1,1-1.41,1.29c1.06-0.67,1-0.49,1.77-0.42c-0.39,0.42-0.6,0.57-0.74,0.6
			c0.34-0.05,0.65-0.19,0.92-0.4l-0.35,0.62c-0.24,1.16,2-1.09,2.33-0.26c-0.61,0.3,0.58,0.38,0.21,1.09
			c-0.33-0.06-1.16,1.32-1.79,1.7c0.14,0.76,1.19-0.81,1.75-0.64l-1.21,0.9c0.81-0.1,0.65-0.47,1.34-0.44
			c-0.41,0.2-0.13,0.44-0.68,0.56c0.22,0.28,0.42,0.58,0.61,0.89l1.06-1c0.25,0-0.15,0.52-0.3,0.74c-0.08,0-0.13-0.16-0.25,0
			c-0.73,1,0.75-0.23,0.13,0.76c0.27-0.37,0.68-0.86,0.9-0.75c-0.68,0.56-0.32,0.83-0.57,1.1c0.32-0.53,0.56,0.17,1.26-0.47
			c-0.27,0.65-0.55,0.42-0.9,0.74c0.95-0.62,0.79,0.58,1.39,0.28c-0.04,0.06-0.09,0.11-0.14,0.16c0.7-0.27,1.16,0,2.27-0.32
			l-0.73,0.44c0.16,0.67,1.48-1,1.82-0.6c-0.91,0.75,0.63,0.51-0.45,1.26c0.71-0.17,1.38-0.44,2-0.82
			c-0.27,0.66-1.52,0.75-1.48,1.25l0.73-0.13l-0.4,0.49c0.35-0.32,0.63-0.09,0.88-0.36c-0.5,0.58-0.76,1.07-1.18,1.46
			c0.34,0,0.08,0.8,0.71,0.48l-0.25,0.28c1.19-0.81,0.77,0.37,1.9-0.57l-0.45,0.67c0.38,0.19,1.38-0.91,1.76-1
			c0.15,0.08,0.41,0.1,0.44,0.31c-1,0.29-0.63,1-0.93,1.43c0.34,0.34,0.87,0.39,1.27,0.12c-0.71,0.34-1,0.88-1.39,0.61
			c-0.85,1.16,0.71,0.24,0.92,0.74l-0.48,0.46c0.81,0.19,1.64-0.59,2.68-1.18c-0.39,0.5-0.9,0.9-1.47,1.17
			c0,0.68,0.9,0.83,1.21,1.27c-0.17,0.39-0.52,0.66-0.93,0.74c0.84,0,0.76,1,2,0.2c-0.51,0.31-0.12,0.42-0.18,0.76
			c0.15-0.16,0.32-0.3,0.51-0.41c0.66-0.17,1.57,0,1.47,0.62l-0.4,0.2c0.46,0.81,2.53-0.66,2.46,0.79c-0.1,0.35-1,0.71-0.7,0.95
			c0.51-0.25,1.26-1.08,1.36-0.53l-0.7,0.65l0.91-0.45c0.45-0.67-0.11-0.84,0.77-1.21c-0.34,0.92,0.89-0.36,0.49,0.73
			c-0.39,0.15-0.77,0.35-1.11,0.6c-0.07,1.54,1.7,0.4,1.59,2c0.91-0.15,1.49,0.23,2.25,0c-0.59,0.62-1.26,1.16-2,1.59
			c0.23,0.41,1.92-0.94,1.14,0.26c1.08-0.76,1.47,0.32,2.85-0.89c-0.25,0.27,0.34,0.36-0.73,0.74c0.87,0-0.56,1.69-0.36,1.89
			s0.7-1,1-0.71c0,0.09-0.15,0.22-0.17,0.31l0.4-0.2c-0.2,0.4-0.76,0.52-1.11,0.85c0.08,0.63,1.35-0.15,1.85,0.2l-0.3,0.15
			l0.38,0.48l-0.1,0.05l0.81-0.1l-0.35,0.32c0.18,0,0.41-0.2,0.56-0.13l-0.45,0.38c0.47-0.42,1.15-0.52,1.72-0.26l-0.15,0.23
			l1.31-0.36c-0.2,0.7-1.31,0.65-0.5,0.85l-1,0.71c0.68,0,0.28,0.53,0.81,0.49c0.33-0.53,0.1-0.64,0.6-0.89
			c-0.7,1.24,0.69,0.2,1.36,0.08c-0.16-0.12-0.24-0.22-0.83,0.17c-0.12-0.16,0.41-0.49,0.36-0.62l-0.69,0.27l0.53-0.64l-0.81,0.11
			c0.71-0.65-0.23-0.41,0.63-1c-0.54,0-0.19-0.59-1.09-0.14c0.24-0.57,0.75-0.22,0.65-0.47c-1.39-0.49-2.54-1.5-3.19-2.82l0.41-0.2
			c-0.41,0.2-0.79,0.31-1.09,0.46c0.37-0.71,0.41-2.07-0.85-1.29c0-0.09,0.23-0.19,0.33-0.24c-0.46-0.22-0.34-1.55-0.92-1.93
			c-1.29,0.86,0-1.4-1.7-0.13l0.4-0.2c-0.25,0.57-1.26,0.77-1.69,1.06c0.83-1.08,0.73-0.73,1.46-1.76l-0.15,0.52l0.75-0.82
			c-2.65,1.38-0.19-2.07-2.06-1c0.11,0,0.23-0.18,0.33-0.23c0.2-0.7-1,0.11-1.44,0.19C47.19,44.4,47.58,44.15,48,44
			c-0.13-0.76-2-0.45-1.81-1.57c-0.71,0.35-0.65,0.77-1.24,1c0.05-0.43,0.36-0.79,0.78-0.91c0.57-1.4-2-0.78-1.76-2.33
			c-0.94,0.23-1,0.7-1.9,0.56c0.5-0.25,1.18-1.4,1.54-1.13l0.45-0.37c-0.44-0.61-1-1.46-2.44-0.59c0.86-0.87,0.08-0.26,0.35-0.92
			c-0.18,0-0.12,0.14-0.15,0.23c-0.93,0.53-0.26-0.32-0.51-0.35l0.2-0.1l-0.91,0.15c0.08-0.25,0.21-0.48,0.4-0.67l-0.61,0.59
			c-0.2-0.19,0.68-0.85,0.27-0.95l-0.4,0.5c0.13-0.44-0.76-0.08-0.13-0.76c0.13-0.13,0.1-0.05,0.18,0c0.67-1.16-0.94-0.36-0.82-1.09
			l-0.9,1c-0.61,0,0-0.39,0.37-0.71c-0.21-0.2,0.07-0.56-0.08-0.93c-0.38,0.11-0.43,0.29-0.76,0.52v-0.5l0.71-0.35
			c-1.84,1-0.87-1.21-2.46-0.2c0.12-0.44,0.73-0.44,0.8-0.7c0.15-1.11-2-0.19-1.7-1.32c0-1.36-1.41-1.46-1.67-2.68l-0.25,0.28
			L33.19,29c-0.73,0.43-0.81-0.2-1.72,0.25c0.22-0.23,0.45-0.45,0.7-0.65c-0.3-0.14-0.83-0.1-0.61-0.59l0.3-0.15
			c-0.33-0.65-1-1.37-1.75-1.14c-0.23-0.11,0.24-0.57,0.52-0.93c-0.26-0.32-0.71-0.25-1.37-0.07c0.06-0.23,0.15-0.45,0.27-0.66
			l-0.75,0.52c0-0.21,0.5-0.54,0.58-0.8c-1.22,0.3-1.05-0.9-1.41-1.17l-0.27,0.36c-0.38,0.11-0.18-0.59,0.29-0.75
			c-0.23-1-1.92,0.06-2.58-0.95c1.05-1.27-1.1-0.43,0.08-1.84c-0.68,0-0.39-0.77-1.39-0.27c0.12-0.14,0.15-0.22,0.22-0.19
			c0.35-0.62-0.48-0.73-1.17-0.76l0.38-0.41c-1,0.71-1.34-0.16-2.33,0.55c0.15-0.22,0.43-0.28,0.64-0.38c0.62-1-0.71,0.05-0.77-0.37
			c0.23-0.19,0.4-0.5,0.6-0.6c0.14-1.71-2.57-1.34-3-3c-0.25-0.32-0.8,1-1.11,0.55c0.33-0.53,1.06-0.67,1-1.09
			c-0.71,0.35-0.66,0.17-0.84-0.11c0.33-0.24,0.48-0.46,0.83-0.49c0.23-0.48-1.24,0.1-0.79-0.87c-0.18,0.2-0.4,0.36-0.65,0.47
			c-1.14,0.34-0.15-1.64-0.6-1.27c0,0-0.25,0-0.22,0.18c-0.13-0.16-0.21-0.49,0.24-0.86c-0.3,0.15-0.73,0.44-0.88,0.36l0.55-0.42
			c-0.17,0-0.55,0.26-0.68,0.26l-0.2,0.4c0.25-0.57-1.06,0.07-0.11-0.84h0.08l0.12-0.73c-0.5,0.25-1,0.5-1.09,0.17
			c0.91-1-0.31-0.75-0.46-1.11l0.35-0.33c-0.68,0.26-1-0.48-1.07-0.22c-0.21-0.24-0.19-0.61,0.05-0.82
			c0.04-0.03,0.08-0.06,0.12-0.08c-0.35,0-0.68-0.33-1.34,0.14l0.5-1.14c-1.41,1-0.21-1.09-1.52,0.15c0-0.38,0.35-0.62,0.45-1
			c-0.88,0.36-1,0-1.19-0.38l0.12-0.14c-0.15-0.37-1.11,0-1.55-0.35l0.91-1C9.34,4.37,8.53,5.06,8.56,4.68
			c0.1-0.2,0.2-0.21,0.3-0.21c-0.38,0-0.37-0.48-0.26-0.86C7.66,4,7.71,3.53,6.7,4C7.35,3,7.41,4,8,3c0.06-0.85-0.82-0.79-1.68-0.81
			c0.17-0.2,0.36-0.37,0.58-0.51c0,0-3.2,1.42-3.97,2.51C2.17,4.71,1.67,5,1.5,5.86c0.51-0.25,1.32-0.35,0.66,0.42l0.7-0.64
			c0.82,0.19-1.35,1.41-0.74,2l0.1-0.34C2.37,7.37,2.9,7.03,2.8,7.38S2.48,7.62,2.28,7.72l1.41-0.41c-0.27,0.34-0.61,0.61-1,0.8
			c0.49,0.43,1.16-1.32,1.44-0.49C3.93,8.02,3.68,8,3.38,8.14c-0.33,0.84,0.38,0.49,1,0.4c-0.6,0.6-0.7,0.35-0.88,1
			c0.28-0.35,0.78-0.9,1-0.79C3.81,9.27,4.3,9.2,4.31,9.52C4.48,9.26,4.72,9.05,5,8.92c0.18,0,0,0.29,0.15,0.37l0.4-0.79
			c0.86-0.28,0.13,0.75,0.09,1.22C5.55,9.8,5.44,9.84,5.32,9.84c0,0.48-0.28,1.2,0.53,1h-0.1c1.14,0,0.85-1.17,2-1.09
			c0.08,0.34-2.08,1.86-0.9,1.64c0.3-0.74,1.57-0.92,2.07-0.87l-1.46,0.87c0.1,0.12,0.62,0,0.56,0.17l0.25-0.27
			c1-1,0.21,0.49,1,0.09c-1.01,0.59-1.94,1.3-2.77,2.12c0.94-0.54,1.85-1,2.05-0.49l-1.33,0.73c0.23,0.71,2.32-0.25,3.59-0.73
			c-0.89,0.66-1,1.09-1.84,1.58l0.61,0.29l-1,0.71c1.06-0.67,0.66,0.12,1.76-1c-0.2,0.1-0.32,0.24-0.38,0.11
			c0.36-0.32,1.14-0.93,1.32-0.65c-0.13,0.44-0.53,0.34-0.81,0.7c0.61-0.3-0.12,0.43,0.36,0.27l0.35-0.62
			c0.75-0.52,0.28,0.24,0.76,0.07c-0.47,0.09-0.78,0.52-1.11,1l0.08-0.1c0.15,0.08,0.75-0.22,0.45,0.23l-1,0.79l0.83-0.48
			c-0.11,0.27-0.33,0.49-0.6,0.59c-0.05,1.07,1.93-1.92,1.77-0.43c-0.36,0.33-0.66,0.48-0.64,0.1c-0.58,0.5-0.85,0.87-0.87,1.25
			l-0.1,0.1C11.12,17.87,11.53,18.38,12.36,18z"/>
		<path class="st1" d="M10.79,17.5c-0.18-0.2-0.34-0.35-0.54-0.31C10.11,17.4,10.23,18.07,10.79,17.5z"/>
		<path class="st1" d="M39.17,44.47h-0.16H39.17z"/>
		<path class="st1" d="M40.92,45.71c0.06-0.08,0.11-0.18,0.12-0.28C40.87,45.61,40.75,45.76,40.92,45.71z"/>
		<path class="st1" d="M25.08,30.74L25.08,30.74z"/>
		<path class="st1" d="M33.22,39.53c0.37-0.12,0.71-0.31,1-0.57C34,39,33.75,39.08,33.22,39.53z"/>
		<path class="st1" d="M30.75,36.29c-0.06,0.02-0.12,0.05-0.18,0.08C30.64,36.37,30.7,36.34,30.75,36.29z"/>
		<path class="st1" d="M24.19,30.73c0.42-0.17,0.57,0,0.89,0C24.8,30.77,24.85,30.24,24.19,30.73z"/>
		<polygon class="st1" points="43.71,46.56 43.11,46.86 43.59,46.7 		"/>
		<path class="st1" d="M42,45.46c0-0.18-0.48-0.14-0.65,0.17C41.55,45.52,41.77,45.46,42,45.46z"/>
		<polygon class="st1" points="37.18,39.66 36.62,40.08 37.13,39.83 		"/>
	</g>
	<g>
		<polygon class="st1" points="596.13,2.48 595.62,2.09 595.92,2.94 		"/>
		<path class="st1" d="M592.74,5c0.24,0.75,0.06,1.56,1,2.5l-0.38-1.31c0.79,0.64,1,0.28,1.09-0.23l-0.27,0.36
			c0-0.17-0.52-0.57-0.53-0.74c0.84-0.12,0-1.22,1.19-0.89v0.1l-0.12-0.81c0.22,0,0.51,0.37,0.6,0.53c-0.06-0.69-0.23-1.31,0.23-1.7
			c-1.62-0.94,0.1,1.93-1.52,1l-0.06-0.1C594.11,4.54,592.8,4.19,592.74,5z"/>
		<path class="st1" d="M595.37,4.47c0,0.02,0,0.04,0,0.06C595.37,4.53,595.41,4.53,595.37,4.47z"/>
		<path class="st1" d="M576.79,19.64l0.19,0.22C576.93,19.76,576.88,19.66,576.79,19.64z"/>
		<path class="st1" d="M584.51,17L584.51,17C584.71,17.32,584.66,17.23,584.51,17z"/>
		<path class="st1" d="M549.36,48.2L549,48C549.27,48.26,549.36,48.28,549.36,48.2z"/>
		<path class="st1" d="M542.28,55L542.28,55z"/>
		<path class="st1" d="M549.42,55.73l0.28,0.24C549.63,55.87,549.53,55.79,549.42,55.73z"/>
		<path class="st1" d="M547.74,58.5c-0.11-0.01-0.22,0.01-0.31,0.07C547.62,58.67,547.73,58.62,547.74,58.5z"/>
		<path class="st1" d="M542.23,54.78c0.01,0.06,0.01,0.11,0,0.17C542.24,54.89,542.24,54.84,542.23,54.78z"/>
		<path class="st1" d="M553.24,52.81l0.77,0.59C553.77,53.18,553.51,52.98,553.24,52.81z"/>
		<path class="st1" d="M547.74,59.59c-0.11-0.07-0.23-0.11-0.36-0.12C547.53,59.58,547.68,59.65,547.74,59.59z"/>
		<path class="st1" d="M592.34,5.46c0.07-0.09,0.11-0.2,0.12-0.32C592.33,5.17,592.31,5.29,592.34,5.46z"/>
		<path class="st1" d="M566.34,40.71c0.07,0.1,0.14,0.2,0.22,0.3C566.53,40.88,566.45,40.78,566.34,40.71z"/>
		<path class="st1" d="M558.92,48.05v0.05l0.14,0.07L558.92,48.05z"/>
		<path class="st1" d="M560.94,45.77l0.12,0.17C561.03,45.88,560.99,45.82,560.94,45.77z"/>
		<path class="st1" d="M558,50.4c0.04,0.11,0.1,0.21,0.16,0.31L558,50.4z"/>
		<path class="st1" d="M555.77,51.27c0.28,0.19,0.5,0.45,0.63,0.77c0.71-0.07,0-1,1-0.86l-0.52-0.14c-0.24-0.75,0.13-1.34,1-0.93
			l0.16,0.29c-0.3-0.79,1.1-0.19,0.74-0.75c-0.4-0.19-0.47-0.47-0.91-0.58l0.06-1.2l1,0.87V48.1c-0.45-0.28,0.73-0.16-0.13-1
			c0.52,0.14,0.62,0.77,0.91,1.19c-0.08-0.46,0.34-0.09,0-0.78l1,0.6L560.57,47c0,0.1,0.14,0.12,0.19,0.22
			c-0.47-0.9,1-0.17,0.06-1.62c0.03,0.05,0.07,0.11,0.12,0.15c-0.48-0.79,0.36-0.72,0.63-0.73c0.1-0.41-0.67-0.87-1-1.21
			c0.93-0.53,0.65-0.35,0.29-1.91c1.38,0.63,1.21,2,2.38,2.27c-0.39-0.52-0.52-1.19-0.34-1.82c0.84-0.15,1.69-0.13,2.52,0.06
			l-0.7-0.61l0.1-0.84l0.7,1.22c-0.15-0.3-0.34-1-0.51-1.43c-0.1-1.06,1.72,1.15,1.08-0.23l0.25,0.17
			c-0.39-0.62,0.11-0.76,0.28-1.32l0.73,1l-0.42,0.07c1,0.68,0.25-0.54,0.53-0.73c-0.05-0.53-0.86-1.09-1-1.46
			c0.13-0.06,0-0.43,0.32-0.27c0.47,0,1,1,1.32,1.39c-0.69-1.05-0.52-1-0.46-1.76c0.43,0.38,0.58,0.59,0.61,0.72
			c-0.07-0.32-0.23-0.62-0.46-0.85l0.63,0.33c1.17,0.23-1.12-2-0.3-2.32c0.31,0.6,0.37-0.59,1.09-0.23
			c-0.06,0.33,1.34,1.13,1.73,1.75c0.76-0.15-0.83-1.17-0.67-1.73l0.92,1.19c-0.12-0.8-0.49-0.64-0.46-1.33
			c0.2,0.4,0.43,0.12,0.57,0.67c0.28-0.23,0.57-0.44,0.88-0.63l-1-1c0-0.25,0.52,0.14,0.75,0.29c0,0.07-0.16,0.13,0,0.25
			c1,0.71-0.24-0.75,0.75-0.14c-0.37-0.27-0.87-0.67-0.76-0.9c0.57,0.67,0.83,0.31,1.11,0.56c-0.54-0.32,0.16-0.57-0.5-1.26
			c0.67,0.26,0.44,0.55,0.77,0.9c-0.64-1,0.56-0.81,0.25-1.4l0.16,0.13c-0.28-0.69-0.06-1.15-0.36-2.26l0.45,0.72
			c0.67-0.17-1-1.46-0.63-1.8c0.76,0.89,0.49-0.65,1.27,0.42c-0.18-0.69-0.47-1.35-0.86-1.95c0.66,0.26,0.77,1.5,1.28,1.46
			l-0.15-0.73l0.5,0.39c-0.33-0.35-0.1-0.63-0.38-0.88c0.59,0.49,1.09,0.74,1.49,1.16c0-0.35,0.79-0.1,0.47-0.73l0.28,0.25
			c-0.83-1.17,0.35-0.77-0.6-1.89l0.67,0.44c0.18-0.38-0.93-1.37-1-1.74c0.07-0.16,0.09-0.41,0.3-0.44c0.31,1,1,0.61,1.44,0.9
			c0.33-0.34,0.38-0.88,0.1-1.27c0.36,0.7,0.9,1,0.64,1.37c1.18,0.83,0.23-0.71,0.72-0.93l0.47,0.47c0.18-0.81-0.62-1.63-1.23-2.65
			c0.51,0.38,0.92,0.87,1.2,1.44c0.68,0,0.81-0.91,1.25-1.23c0.39,0.16,0.67,0.5,0.75,0.91c-0.06-0.83,1-0.78,0.16-2.05
			c0.32,0.51,0.43,0.11,0.77,0.16c-0.16-0.15-0.3-0.31-0.42-0.49c-0.18-0.66,0-1.57,0.59-1.49l0.21,0.4c0.8-0.48-0.7-2.51,0.75-2.48
			c0.34,0.1,0.72,1,1,0.69c-0.26-0.5-1.09-1.24-0.55-1.35l0.66,0.69l-0.46-0.9c-0.68-0.44-0.84,0.12-1.22-0.76
			c0.92,0.33-0.38-0.87,0.72-0.5c0.16,0.39,0.36,0.76,0.62,1.1c1.54,0,0.36-1.7,2-1.62c-0.17-0.91,0.2-1.5,0-2.25
			c0.63,0.59,1.18,1.26,1.63,2c0.4-0.24-1-1.9,0.23-1.15c-0.78-1.06,0.29-1.47-0.94-2.83c0.28,0.24,0.35-0.34,0.75,0.71
			c0-0.86,1.7,0.54,1.9,0.33s-1-0.68-0.73-1c0.09,0,0.23,0.15,0.31,0.17l-0.21-0.4c0.41,0.19,0.54,0.75,0.87,1.09
			c0.63-0.09-0.17-1.34,0.17-1.85l0.16,0.3l0.47-0.39l0.05,0.1L591,9.41l0.32,0.34c0-0.17-0.2-0.4-0.13-0.55l0.38,0.45
			c-0.42-0.47-0.54-1.14-0.29-1.72l0.23,0.15l-0.38-1.31c0.7,0.18,0.68,1.3,0.86,0.48l0.72,1c0-0.68,0.53-0.29,0.48-0.82
			c-0.54-0.31-0.65-0.08-0.9-0.58c1.25,0.67,0.19-0.7,0.06-1.36c-0.12,0.16-0.22,0.24,0.18,0.82c-0.15,0.13-0.5-0.39-0.63-0.34
			l0.28,0.68l-0.64-0.52l0.12,0.81c-0.66-0.69-0.41,0.24-1-0.61c0,0.53-0.58,0.19-0.12,1.09c-0.57-0.23-0.24-0.75-0.48-0.64
			c-0.47,1.39-1.46,2.54-2.76,3.22l-0.21-0.4c0.21,0.4,0.33,0.77,0.48,1.08c-0.71-0.37-2.07-0.38-1.28,0.86
			c-0.09,0-0.19-0.22-0.24-0.32c-0.22,0.46-1.54,0.37-1.91,1c0.88,1.27-1.4,0.07-0.1,1.7l-0.21-0.4c0.58,0.24,0.8,1.25,1.09,1.67
			c-1.09-0.81-0.74-0.71-1.79-1.42l0.53,0.14l-0.84-0.74c1.44,2.62-2.06,0.23-1,2.08c-0.06-0.1-0.19-0.22-0.25-0.32
			c-0.69-0.19,0.14,1,0.22,1.43c-0.33-0.32-0.58-0.71-0.74-1.14c-0.75,0.14-0.42,2-1.53,1.83c0.36,0.71,0.78,0.64,1,1.22
			c-0.43-0.04-0.8-0.34-0.92-0.76c-1.41-0.54-0.74,2.05-2.3,1.81c0.26,0.93,0.73,1,0.6,1.88c-0.26-0.5-1.42-1.15-1.16-1.51
			l-0.38-0.45c-0.6,0.45-1.44,1-0.54,2.45c-0.89-0.84-0.26-0.07-0.93-0.33c0,0.18,0.14,0.12,0.23,0.14
			c0.56,0.93-0.31,0.27-0.33,0.52l-0.11-0.2l0.17,0.91c-0.26-0.06-0.51-0.19-0.71-0.37l0.61,0.6c-0.2,0.21-0.87-0.66-1-0.25
			l0.5,0.39c-0.44-0.12-0.06,0.76-0.75,0.14c-0.14-0.12-0.05-0.1,0-0.17c-1.16-0.65-0.33,0.94-1.07,0.83l1.06,0.89
			c0,0.61-0.38,0-0.71-0.36c-0.2,0.21-0.56-0.06-0.93,0.1c0.12,0.38,0.3,0.42,0.54,0.74h-0.51l-0.36-0.7c1,1.82-1.19,0.9-0.16,2.46
			c-0.43-0.11-0.45-0.72-0.71-0.79c-1.11-0.12-0.15,2-1.28,1.73c-1.36,0-1.44,1.44-2.65,1.72l0.28,0.25l-0.74,0.32
			c0.45,0.72-0.18,0.82,0.29,1.72c-0.24-0.22-0.46-0.45-0.66-0.7c-0.14,0.31-0.09,0.84-0.58,0.63l-0.16-0.3
			c-0.65,0.34-1.35,1-1.11,1.77c-0.1,0.24-0.57-0.23-0.94-0.5c-0.31,0.26-0.23,0.71,0,1.37c-0.23-0.06-0.45-0.15-0.66-0.26
			l0.53,0.74c-0.21,0-0.55-0.49-0.82-0.56c0.33,1.21-0.87,1.06-1.14,1.42l0.37,0.27c0.12,0.38-0.58,0.19-0.75-0.28
			c-1,0.25,0.09,1.92-0.91,2.61c-1.29-1-0.41,1.1-1.84-0.06c0,0.69-0.76,0.41-0.25,1.4c-0.14-0.12-0.22-0.14-0.19-0.22
			c-0.62-0.34-0.72,0.5-0.74,1.18l-0.41-0.36c0.72,1-0.14,1.34,0.59,2.31c-0.23-0.14-0.29-0.42-0.4-0.62
			c-1-0.61,0.07,0.71-0.35,0.77c-0.19-0.23-0.5-0.39-0.61-0.6c-1.71-0.1-1.29,2.6-2.95,3c-0.32,0.26,1,0.79,0.57,1.1
			c-0.54-0.31-0.69-1-1.11-1c0.36,0.7,0.18,0.65-0.1,0.84c-0.24-0.32-0.47-0.47-0.5-0.83c-0.49-0.21,0.12,1.24-0.86,0.81
			c0.2,0.18,0.37,0.4,0.49,0.65c0.36,1.13-1.65,0.17-1.27,0.61c0,0,0,0.26,0.19,0.23c-0.15,0.13-0.48,0.21-0.87-0.23
			c0.16,0.3,0.45,0.72,0.38,0.87l-0.43-0.54c0.1,0.22,0.19,0.44,0.27,0.67l0.4,0.2c-0.57-0.24,0.1,1.06-0.83,0.12v-0.08l-0.73-0.1
			c0.26,0.5,0.52,1,0.18,1.08c-1.06-0.88-0.73,0.32-1.1,0.49l-0.33-0.35c0.27,0.68-0.46,1-0.2,1.07c-0.23,0.22-0.6,0.21-0.82-0.02
			c-0.04-0.04-0.07-0.08-0.09-0.13c0,0.35-0.31,0.69,0.17,1.33l-1.15-0.47c1,1.39-1.09,0.23,0.18,1.51c-0.38,0-0.62-0.33-1-0.43
			c0.38,0.88,0,1-0.36,1.2l-0.14-0.12c-0.37,0.16,0,1.11-0.32,1.55l-1.06-0.88c-0.06,0.33,0.66,1.12,0.27,1.11
			c-0.2-0.11-0.21-0.2-0.21-0.3c0,0.37-0.48,0.37-0.85,0.28c0.43,1,0,0.93,0.47,1.93c-1.08-0.63-0.06-0.71-1.06-1.31
			c-0.85-0.05-0.77,0.83-0.78,1.69c-0.2-0.17-0.37-0.36-0.51-0.57c0,0,1.48,3.21,2.57,4c0.54,0.75,0.8,1.25,1.71,1.4
			c-0.26-0.5-0.38-1.31,0.4-0.67l-0.66-0.69c0.18-0.82,1.45,1.33,2,0.7l-0.35-0.09c0.07-0.15-0.28-0.67,0.07-0.58
			s0.24,0.32,0.35,0.52l-0.43-1.41c0.34,0.27,0.61,0.61,0.81,1c0.42-0.49-1.34-1.12-0.51-1.43c0.4,0.2,0.38,0.45,0.53,0.75
			c0.84,0.31,0.48-0.39,0.38-1c0.61,0.59,0.36,0.7,1,0.86c-0.36-0.27-0.92-0.76-0.81-1c0.53,0.68,0.45,0.19,0.77,0.17
			c-0.24-0.16-0.44-0.38-0.56-0.64c0-0.17,0.29,0,0.37-0.16l-0.81-0.38c-0.29-0.85,0.76-0.15,1.23-0.11
			c0.07,0.09,0.12,0.2,0.13,0.32c0.47,0,1.19,0.26,1-0.55v0.1c-0.06-1.14-1.18-0.83-1.12-2c0.33-0.09,1.89,2,1.65,0.87
			c-0.74-0.29-0.95-1.55-0.91-2.06l0.9,1.45c0.12-0.1,0-0.62,0.16-0.56l-0.28-0.25c-1-1,0.49-0.22,0.08-1
			c0.61,1,1.34,1.91,2.17,2.73c-0.56-0.92-1-1.82-0.53-2l0.76,1.32c0.7-0.25-0.3-2.32-0.8-3.58c0.68,0.87,1.11,1,1.61,1.81
			l0.29-0.62l0.72,1c-0.69-1.05,0.11-0.66-1.05-1.74c0.1,0.2,0.24,0.32,0.12,0.37c-0.33-0.34-1-1.11-0.67-1.3
			c0.43,0.12,0.34,0.53,0.71,0.8c-0.31-0.6,0.43,0.11,0.26-0.37l-0.62-0.33c-0.54-0.75,0.22-0.29,0-0.76c0.1,0.46,0.54,0.77,1,1.08
			l-0.1-0.07c0.07-0.15-0.24-0.75,0.22-0.46l0.81,1l-0.5-0.82c0.28,0.1,0.5,0.31,0.61,0.59c1.06,0-2-1.9-0.46-1.76
			c0.33,0.34,0.48,0.64,0.1,0.63c0.52,0.57,0.88,0.84,1.27,0.85l0.1,0.1C555.65,52.52,556.15,52.11,555.77,51.27z"/>
		<path class="st1" d="M555.29,52.86c-0.19,0.18-0.35,0.35-0.3,0.54C555.2,53.54,555.87,53.41,555.29,52.86z"/>
		<path class="st1" d="M581.73,24c0,0.05,0,0.11,0,0.16V24z"/>
		<path class="st1" d="M582.94,22.21c-0.08-0.06-0.18-0.11-0.28-0.12C582.84,22.27,583,22.38,582.94,22.21z"/>
		<path class="st1" d="M568.26,38.33L568.26,38.33z"/>
		<path class="st1" d="M576.9,30c-0.13-0.35-0.32-0.67-0.58-0.94C576.31,29.23,576.45,29.5,576.9,30z"/>
		<path class="st1" d="M573.71,32.55c0,0.06,0,0.12,0.08,0.19C573.79,32.67,573.76,32.6,573.71,32.55z"/>
		<path class="st1" d="M568.27,39.22c-0.17-0.42,0-0.58,0-0.89C568.3,38.61,567.77,38.56,568.27,39.22z"/>
		<polygon class="st1" points="583.74,19.4 584.05,20 583.88,19.52 		"/>
		<path class="st1" d="M582.67,21.11c-0.18-0.05-0.13,0.48,0.18,0.65C582.75,21.56,582.68,21.34,582.67,21.11z"/>
		<polygon class="st1" points="576.96,26.07 577.39,26.61 577.13,26.11 		"/>
	</g>
	<g>
		<polygon class="st1" points="599.23,451.7 599.63,451.2 598.77,451.48 		"/>
		<path class="st1" d="M596.82,448.27c-0.76,0.22-1.57,0-2.53,1l1.32-0.36c-0.65,0.78-0.3,1,0.21,1.09l-0.36-0.27
			c0.18,0,0.58-0.51,0.76-0.52c0.11,0.84,1.21,0,0.87,1.21l-0.1,0.05l0.81-0.11c0,0.22-0.38,0.51-0.54,0.6
			c0.68-0.06,1.31-0.21,1.69,0.25c1-1.6-1.93,0.06-1-1.54l0.1-0.05C597.21,449.64,597.58,448.34,596.82,448.27z"/>
		<path class="st1" d="M597.26,450.91h-0.06C597.2,450.91,597.19,450.94,597.26,450.91z"/>
		<path class="st1" d="M582.43,432.05l-0.22,0.18C582.31,432.18,582.41,432.13,582.43,432.05z"/>
		<path class="st1" d="M584.92,439.81c0,0,0,0,0-0.05C584.61,440,584.69,440,584.92,439.81z"/>
		<path class="st1" d="M554.38,404.1l0.2-0.4C554.32,404,554.3,404.1,554.38,404.1z"/>
		<path class="st1" d="M547.76,396.89L547.76,396.89z"/>
		<path class="st1" d="M546.85,404l-0.25,0.27C546.76,404.16,546.83,404.08,546.85,404z"/>
		<path class="st1" d="M544.11,402.28c0.02-0.11,0-0.22-0.06-0.31C544,402.16,544,402.27,544.11,402.28z"/>
		<path class="st1" d="M547.93,396.85h-0.17C547.82,396.86,547.87,396.86,547.93,396.85z"/>
		<path class="st1" d="M549.7,407.89l-0.61,0.76C549.31,408.41,549.52,408.16,549.7,407.89z"/>
		<path class="st1" d="M543,402.26c0.08-0.1,0.12-0.22,0.13-0.35C543,402.06,543,402.2,543,402.26z"/>
		<path class="st1" d="M596.32,447.85c0.09,0.08,0.2,0.13,0.32,0.13C596.61,447.85,596.49,447.82,596.32,447.85z"/>
		<path class="st1" d="M561.55,421.21c-0.11,0.06-0.21,0.14-0.3,0.22C561.38,421.4,561.48,421.32,561.55,421.21z"/>
		<path class="st1" d="M554.35,413.66L554.35,413.66c-0.03,0.04-0.06,0.09-0.08,0.14L554.35,413.66z"/>
		<path class="st1" d="M556.6,415.72c-0.06,0.03-0.12,0.07-0.18,0.12C556.49,415.81,556.55,415.77,556.6,415.72z"/>
		<path class="st1" d="M552,412.72c-0.11,0.04-0.21,0.09-0.31,0.15L552,412.72z"/>
		<path class="st1" d="M551.19,410.45c-0.19,0.28-0.46,0.49-0.78,0.61c0.05,0.72,1,0,0.84,1l0.15-0.52c0.76-0.23,1.34,0.15,0.92,1
			l-0.3,0.15c0.79-0.29,0.17,1.1,0.74,0.76c0.19-0.4,0.47-0.46,0.6-0.9l1.19,0.08l-0.88,1h0.64c0.28-0.44,0.14,0.74,1-0.11
			c-0.15,0.52-0.78,0.61-1.21,0.89c0.46-0.07,0.08,0.34,0.78,0l-0.62,1l1.06-0.08c-0.1,0.05-0.12,0.14-0.22,0.19
			c0.9-0.45,0.16,1,1.62,0.09c-0.05,0.03-0.11,0.07-0.15,0.12c0.79-0.47,0.71,0.37,0.71,0.65c0.41,0.09,0.88-0.66,1.23-1
			c0.52,0.94,0.34,0.66,1.91,0.33c-0.65,1.36-2.07,1.17-2.32,2.34c0.52-0.4,1.21-0.51,1.83-0.31c0.13,0.84,0.1,1.7-0.11,2.52
			l0.63-0.69l0.83,0.11l-1.23,0.68c0.3-0.14,1-0.32,1.44-0.48c1.06-0.08-1.18,1.7,0.21,1.09l-0.18,0.24
			c0.64-0.38,0.77,0.13,1.32,0.31l-1,0.71v-0.42c-0.7,0.94,0.53,0.26,0.71,0.54c0.53,0,1.11-0.85,1.49-1c0.05,0.12,0.43,0,0.25,0.32
			c0,0.47-1,1-1.4,1.29c1.05-0.67,1-0.49,1.76-0.43c-0.39,0.43-0.6,0.58-0.73,0.6c0.32-0.06,0.62-0.22,0.86-0.44l-0.35,0.63
			c-0.24,1.16,2-1.09,2.33-0.26c-0.61,0.3,0.59,0.38,0.21,1.09c-0.33-0.06-1.15,1.31-1.78,1.7c0.13,0.76,1.18-0.81,1.74-0.64
			l-1.21,0.9c0.81-0.1,0.66-0.48,1.34-0.44c-0.4,0.2-0.12,0.43-0.68,0.56c0.36,0.57,0.33,0.36,0.62,0.89l1-1
			c0.25,0-0.15,0.52-0.3,0.74c-0.07,0-0.12-0.16-0.25,0c-0.73,1,0.76-0.23,0.13,0.75c0.28-0.36,0.68-0.85,0.91-0.74
			c-0.68,0.56-0.32,0.83-0.58,1.1c0.33-0.53,0.56,0.17,1.27-0.48c-0.28,0.66-0.56,0.43-0.91,0.75c1-0.62,0.79,0.58,1.4,0.28
			l-0.14,0.16c0.69-0.27,1.15,0,2.26-0.32l-0.73,0.44c0.16,0.67,1.49-1,1.82-0.6c-0.91,0.74,0.64,0.5-0.45,1.26
			c0.71-0.16,1.38-0.44,2-0.82c-0.27,0.65-1.51,0.75-1.48,1.25l0.73-0.14l-0.4,0.5c0.35-0.32,0.63-0.09,0.89-0.36
			c-0.36,0.52-0.75,1.03-1.17,1.51c0.35,0,0.09,0.8,0.72,0.48l-0.25,0.28c1.18-0.81,0.76,0.37,1.89-0.57l-0.45,0.67
			c0.38,0.19,1.39-0.91,1.77-1c0.15,0.07,0.4,0.1,0.43,0.31c-1,0.29-0.63,1-0.92,1.42c0.34,0.33,0.86,0.38,1.26,0.12
			c-0.71,0.35-1,0.89-1.39,0.62c-0.85,1.16,0.72,0.24,0.92,0.73l-0.48,0.47c0.82,0.19,1.65-0.59,2.68-1.18
			c-0.4,0.49-0.89,0.89-1.46,1.17c0,0.68,0.89,0.83,1.2,1.27c-0.17,0.38-0.51,0.66-0.92,0.74c0.83-0.05,0.76,1,2,0.2
			c-0.51,0.31-0.11,0.42-0.17,0.76c0.15-0.16,0.32-0.3,0.5-0.41c0.66-0.17,1.57,0,1.48,0.62l-0.41,0.2
			c0.47,0.81,2.53-0.66,2.47,0.79c-0.1,0.35-1,0.71-0.7,0.94c0.5-0.24,1.25-1.07,1.36-0.52l-0.71,0.64l0.91-0.44
			c0.45-0.67-0.11-0.85,0.78-1.21c-0.35,0.92,0.88-0.36,0.49,0.73c-0.4,0.15-0.77,0.35-1.12,0.6c-0.06,1.54,1.7,0.4,1.59,2
			c0.91-0.15,1.5,0.23,2.25,0c-0.59,0.62-1.26,1.16-2,1.59c0.23,0.41,1.92-0.95,1.14,0.26c1.09-0.76,1.48,0.32,2.86-0.89
			c-0.25,0.27,0.33,0.36-0.73,0.73c0.86,0-0.57,1.7-0.36,1.9s0.7-0.95,1-0.71c0,0.08-0.15,0.22-0.18,0.31l0.41-0.2
			c-0.2,0.39-0.76,0.52-1.11,0.84c0.08,0.64,1.34-0.14,1.85,0.21l-0.3,0.15l0.38,0.48h-0.1l0.81-0.1l-0.35,0.32
			c0.17,0,0.4-0.2,0.55-0.13l-0.45,0.38c0.47-0.42,1.15-0.52,1.72-0.26l-0.15,0.22l1.32-0.35c-0.2,0.7-1.32,0.65-0.51,0.85l-1,0.71
			c0.69,0,0.29,0.53,0.82,0.49c0.32-0.54,0.09-0.65,0.6-0.89c-0.7,1.24,0.69,0.2,1.35,0.08c-0.15-0.12-0.23-0.22-0.82,0.17
			c-0.13-0.16,0.4-0.49,0.35-0.62l-0.68,0.26l0.53-0.63l-0.81,0.1c0.7-0.64-0.24-0.41,0.62-1c-0.53,0-0.18-0.58-1.09-0.13
			c0.25-0.57,0.76-0.22,0.65-0.47c-1.39-0.49-2.53-1.5-3.18-2.82l0.4-0.2c-0.4,0.2-0.78,0.31-1.09,0.46
			c0.38-0.71,0.42-2.07-0.84-1.3c0-0.08,0.23-0.18,0.33-0.23c-0.46-0.22-0.34-1.55-0.93-1.93c-1.29,0.86,0-1.4-1.7-0.13l0.41-0.2
			c-0.25,0.57-1.26,0.77-1.69,1.06c0.83-1.08,0.73-0.73,1.45-1.76l-0.14,0.52l0.75-0.82c-2.65,1.38-0.2-2.07-2.06-1
			c0.1-0.05,0.22-0.18,0.32-0.23c0.2-0.7-1,0.11-1.44,0.19c0.33-0.32,0.73-0.57,1.16-0.73c-0.13-0.75-2-0.45-1.81-1.56
			c-0.7,0.35-0.65,0.77-1.23,1c0.03-0.44,0.35-0.8,0.78-0.9c0.57-1.4-2-0.79-1.77-2.34c-0.93,0.24-1,0.71-1.89,0.57
			c0.5-0.25,1.17-1.4,1.53-1.13l0.45-0.38c-0.31-0.78-1.21-1.17-1.99-0.85c-0.16,0.06-0.31,0.16-0.44,0.27
			c0.85-0.87,0.07-0.26,0.34-0.92c-0.17,0-0.12,0.14-0.14,0.23c-0.94,0.53-0.26-0.33-0.51-0.35l0.2-0.1l-0.91,0.15
			c0.06-0.26,0.19-0.5,0.37-0.7l-0.6,0.59c-0.21-0.2,0.68-0.85,0.27-0.95l-0.4,0.5c0.12-0.44-0.76-0.08-0.13-0.76
			c0.12-0.14,0.1,0,0.17,0c0.68-1.16-0.94-0.36-0.82-1.09l-0.9,1c-0.61,0,0-0.38,0.38-0.7c-0.21-0.2,0.07-0.56-0.09-0.93
			c-0.38,0.11-0.43,0.28-0.75,0.52v-0.5l0.7-0.35c-1.84,1-0.87-1.21-2.45-0.21c0.12-0.43,0.72-0.43,0.8-0.69
			c0.14-1.12-2-0.19-1.71-1.32c0-1.36-1.4-1.47-1.66-2.68l-0.26,0.27l-0.31-0.74c-0.73,0.44-0.81-0.19-1.72,0.26
			c0.22-0.22,0.46-0.41,0.71-0.59c-0.31-0.15-0.84-0.11-0.61-0.59l0.3-0.15c-0.34-0.66-1-1.37-1.76-1.14
			c-0.23-0.11,0.25-0.57,0.52-0.93c-0.25-0.32-0.71-0.25-1.36-0.07c0.06-0.23,0.15-0.45,0.27-0.66l-0.75,0.52
			c0-0.21,0.5-0.54,0.57-0.8c-1.21,0.3-1-0.9-1.4-1.17l-0.28,0.36c-0.38,0.11-0.18-0.59,0.3-0.75c-0.23-1-1.92,0.06-2.59-0.95
			c1-1.27-1.09-0.43,0.09-1.84c-0.69,0-0.39-0.77-1.4-0.27c0.13-0.14,0.15-0.23,0.23-0.19c0.35-0.62-0.49-0.73-1.17-0.76l0.37-0.41
			c-1,0.71-1.34-0.16-2.32,0.55c0.17-0.18,0.39-0.32,0.63-0.39c0.62-1-0.71,0.06-0.76-0.36c0.22-0.19,0.4-0.5,0.6-0.6
			c0.14-1.71-2.57-1.34-3-3c-0.25-0.32-0.79,1-1.1,0.55c0.32-0.53,1.05-0.67,1-1.09c-0.71,0.35-0.66,0.17-0.84-0.11
			c0.33-0.24,0.48-0.46,0.84-0.49c0.22-0.48-1.24,0.09-0.8-0.87c-0.18,0.2-0.4,0.36-0.65,0.47c-1.14,0.34-0.14-1.65-0.59-1.27
			c0,0-0.26,0-0.23,0.18c-0.13-0.16-0.21-0.49,0.25-0.86c-0.31,0.14-0.73,0.43-0.89,0.36l0.56-0.42c-0.17,0-0.56,0.26-0.68,0.26
			l-0.2,0.4c0.24-0.57-1.07,0.07-0.11-0.84h0.07l0.12-0.73c-0.5,0.25-1,0.5-1.08,0.16c0.9-1-0.31-0.74-0.47-1.1l0.35-0.33
			c-0.68,0.26-1-0.48-1.06-0.22c-0.21-0.24-0.19-0.61,0.05-0.82c0.04-0.03,0.08-0.06,0.12-0.08c-0.36,0-0.69-0.33-1.34,0.14
			l0.5-1.14c-1.42,1-0.22-1.09-1.52,0.15c0-0.38,0.35-0.62,0.45-1c-0.89,0.37-1,0-1.2-0.37l0.13-0.14
			c-0.16-0.37-1.12-0.05-1.55-0.35l0.9-1.05c-0.33-0.06-1.13,0.64-1.11,0.25c0.11-0.19,0.2-0.2,0.3-0.2c-0.37,0-0.36-0.48-0.26-0.86
			c-1,0.41-0.93-0.06-1.94,0.44c0.65-1.06,0.71-0.05,1.33-1c0.07-0.85-0.82-0.79-1.68-0.81c0.17-0.2,0.36-0.37,0.58-0.51
			c0,0-3.24,1.42-4,2.51c-0.75,0.52-1.26,0.77-1.42,1.67c0.5-0.25,1.31-0.35,0.66,0.42l0.7-0.65c0.81,0.2-1.36,1.42-0.74,2l0.1-0.35
			c0.15,0.08,0.68-0.26,0.58,0.09s-0.33,0.23-0.53,0.33l1.42-0.4c-0.28,0.33-0.62,0.6-1,0.8c0.48,0.43,1.15-1.32,1.44-0.49
			c-0.2,0.4-0.46,0.37-0.76,0.52c-0.32,0.83,0.39,0.49,1,0.39c-0.61,0.6-0.71,0.36-0.88,1c0.27-0.36,0.78-0.9,1-0.79
			c-0.7,0.52-0.2,0.45-0.19,0.77c0.16-0.24,0.38-0.43,0.64-0.55c0.18,0,0,0.29,0.16,0.37l0.4-0.8c0.86-0.27,0.13,0.76,0.08,1.23
			c-0.09,0.08-0.2,0.12-0.32,0.12c0,0.48-0.28,1.19,0.53,1l-0.1,0.05c1.14,0,0.85-1.17,2.05-1.09c0.08,0.34-2.09,1.85-0.9,1.64
			c0.3-0.74,1.56-0.92,2.06-0.88l-1.45,0.88c0.09,0.12,0.61,0,0.55,0.17l0.25-0.28c1-1,0.21,0.5,1,0.1c-1,0.59-1.93,1.3-2.77,2.11
			c0.93-0.53,1.84-1,2-0.49l-1.34,0.74c0.23,0.7,2.33-0.26,3.59-0.73c-0.88,0.66-1,1.09-1.83,1.58l0.6,0.29l-1,0.71
			c1-0.67,0.65,0.12,1.76-1c-0.2,0.1-0.33,0.23-0.38,0.11c0.35-0.32,1.13-0.93,1.31-0.65c-0.12,0.44-0.53,0.34-0.8,0.7
			c0.6-0.3-0.13,0.43,0.35,0.27l0.35-0.62c0.76-0.53,0.28,0.23,0.76,0.07c-0.46,0.09-0.78,0.52-1.1,1l0.07-0.1
			c0.15,0.08,0.76-0.22,0.46,0.22l-1,0.8l0.84-0.48c-0.11,0.28-0.33,0.49-0.61,0.59c0,1.07,1.94-1.93,1.77-0.43
			c-0.35,0.33-0.66,0.48-0.63,0.09c-0.58,0.51-0.86,0.87-0.88,1.26c-0.04,0.03-0.07,0.06-0.1,0.1c0.34,0.59,1.09,0.79,1.68,0.45
			C551.17,410.46,551.18,410.46,551.19,410.45z"/>
		<path class="st1" d="M549.61,409.94c-0.18-0.2-0.34-0.36-0.53-0.31C548.94,409.84,549.05,410.51,549.61,409.94z"/>
		<path class="st1" d="M578,436.91h-0.16H578z"/>
		<path class="st1" d="M579.75,438.15c0.06-0.08,0.11-0.18,0.12-0.28C579.69,438,579.57,438.2,579.75,438.15z"/>
		<path class="st1" d="M563.9,423.17L563.9,423.17z"/>
		<path class="st1" d="M572.05,432c0.37-0.11,0.71-0.3,1-0.56C572.85,431.39,572.57,431.52,572.05,432z"/>
		<path class="st1" d="M569.58,428.73c-0.07,0.02-0.13,0.05-0.19,0.08C569.46,428.8,569.53,428.78,569.58,428.73z"/>
		<path class="st1" d="M563,423.16c0.42-0.16,0.58,0,0.89,0C563.62,423.21,563.68,422.68,563,423.16z"/>
		<polygon class="st1" points="582.54,439 581.93,439.3 582.41,439.14 		"/>
		<path class="st1" d="M580.86,437.9c0-0.18-0.48-0.14-0.66,0.17C580.4,437.96,580.63,437.9,580.86,437.9z"/>
		<polygon class="st1" points="576,432.1 575.45,432.52 575.95,432.27 		"/>
	</g>
	<g>
		<polygon class="st1" points="4.66,454.74 5.17,455.13 4.88,454.28 		"/>
		<path class="st1" d="M8.05,452.27c-0.24-0.75-0.06-1.57-1-2.51l0.38,1.31c-0.78-0.64-1-0.28-1.09,0.23l0.27-0.36
			c0,0.17,0.52,0.57,0.54,0.74c-0.84,0.13,0,1.22-1.2,0.9v-0.1l0.12,0.8c-0.22,0-0.51-0.36-0.6-0.53c0.07,0.69,0.23,1.31-0.23,1.7
			c1.62,0.94-0.09-1.93,1.53-1v0.1C6.69,452.68,8,453,8.05,452.27z"/>
		<path class="st1" d="M5.42,452.75v-0.06C5.42,452.69,5.38,452.69,5.42,452.75z"/>
		<path class="st1" d="M24,437.58l-0.19-0.22C23.86,437.46,23.91,437.56,24,437.58z"/>
		<path class="st1" d="M16.28,440.22L16.28,440.22C16.08,439.9,16.13,440,16.28,440.22z"/>
		<path class="st1" d="M51.43,409l0.4,0.19C51.53,409,51.43,408.94,51.43,409z"/>
		<path class="st1" d="M58.52,402.27L58.52,402.27z"/>
		<path class="st1" d="M51.37,401.49l-0.28-0.24C51.23,401.41,51.31,401.48,51.37,401.49z"/>
		<path class="st1" d="M53.05,398.72c0.11,0.02,0.22-0.01,0.31-0.06C53.17,398.56,53.06,398.6,53.05,398.72z"/>
		<path class="st1" d="M58.56,402.45c-0.01-0.06-0.01-0.12,0-0.18C58.55,402.33,58.55,402.39,58.56,402.45z"/>
		<path class="st1" d="M47.55,404.41l-0.77-0.59C47.02,404.04,47.28,404.24,47.55,404.41z"/>
		<path class="st1" d="M53.05,397.63c0.11,0.07,0.23,0.11,0.36,0.12C53.26,397.64,53.11,397.58,53.05,397.63z"/>
		<path class="st1" d="M8.45,451.76c-0.07,0.09-0.11,0.2-0.12,0.32C8.46,452.05,8.49,451.93,8.45,451.76z"/>
		<path class="st1" d="M34.45,416.51c-0.06-0.11-0.14-0.21-0.22-0.3C34.26,416.34,34.34,416.44,34.45,416.51z"/>
		<path class="st1" d="M41.87,409.17L41.87,409.17c-0.04-0.03-0.09-0.06-0.14-0.08L41.87,409.17z"/>
		<path class="st1" d="M39.85,411.45l-0.12-0.17C39.76,411.34,39.8,411.4,39.85,411.45z"/>
		<path class="st1" d="M42.77,406.82c-0.05-0.1-0.1-0.2-0.16-0.3L42.77,406.82z"/>
		<path class="st1" d="M45,406c-0.28-0.19-0.5-0.46-0.63-0.77c-0.71,0.07,0,1-1,0.86l0.53,0.14c0.24,0.75-0.14,1.34-1,0.94
			l-0.15-0.3c0.3,0.79-1.11,0.19-0.75,0.75c0.4,0.19,0.47,0.47,0.91,0.59l-0.06,1.19l-1-0.86v0.64c0.46,0.28-0.73,0.16,0.14,1
			c-0.53-0.13-0.63-0.76-0.92-1.18c0.08,0.45-0.33,0.08,0,0.78l-1-0.61l0.09,1.06c0-0.1-0.13-0.12-0.19-0.22
			c0.47,0.9-1,0.18-0.06,1.62c-0.03-0.05-0.07-0.11-0.12-0.15c0.48,0.79-0.36,0.72-0.63,0.73c-0.09,0.41,0.67,0.87,1,1.21
			c-0.93,0.54-0.65,0.35-0.29,1.91c-1.38-0.62-1.21-2-2.38-2.27c0.39,0.52,0.52,1.19,0.34,1.82c-0.84,0.15-1.69,0.13-2.52-0.06
			l0.7,0.62l-0.09,0.83L35.27,415c0.15,0.3,0.34,1,0.51,1.43c0.1,1.06-1.72-1.14-1.08,0.23c-0.09-0.05-0.17-0.11-0.25-0.17
			c0.39,0.63-0.11,0.77-0.28,1.32l-0.73-1l0.42-0.06c-1-0.69-0.25,0.53-0.53,0.72c0.05,0.53,0.87,1.09,1,1.47
			c-0.13,0.05,0,0.43-0.32,0.26s-1-1-1.32-1.38c0.69,1,0.52,1,0.46,1.76c-0.43-0.39-0.58-0.59-0.61-0.73
			c0.07,0.32,0.23,0.62,0.46,0.86l-0.63-0.34c-1.17-0.22,1.12,2,0.3,2.32c-0.31-0.6-0.37,0.59-1.08,0.23
			c0.05-0.33-1.34-1.13-1.74-1.75c-0.75,0.15,0.83,1.17,0.67,1.73l-0.92-1.19c0.12,0.81,0.49,0.64,0.47,1.33
			c-0.21-0.4-0.44-0.12-0.58-0.67c-0.28,0.23-0.57,0.44-0.88,0.63l1,1c0,0.25-0.52-0.14-0.75-0.29c0-0.07,0.16-0.13,0-0.25
			c-1-0.71,0.24,0.76-0.75,0.15c0.37,0.27,0.87,0.66,0.76,0.89c-0.57-0.67-0.83-0.31-1.11-0.55c0.54,0.31-0.16,0.56,0.5,1.25
			c-0.66-0.26-0.43-0.55-0.76-0.89c0.64,0.94-0.57,0.8-0.26,1.4l-0.16-0.14c0.28,0.69,0.06,1.15,0.36,2.26l-0.45-0.72
			c-0.67,0.17,1,1.47,0.64,1.81c-0.77-0.9-0.5,0.64-1.28-0.43c0.18,0.71,0.47,1.38,0.86,2c-0.66-0.27-0.77-1.5-1.28-1.46l0.15,0.72
			l-0.5-0.39c0.33,0.35,0.1,0.64,0.38,0.88c-0.52-0.36-1.01-0.74-1.48-1.16c0,0.35-0.8,0.11-0.48,0.73l-0.27-0.25
			c0.83,1.17-0.36,0.77,0.6,1.89l-0.68-0.44c-0.18,0.39,0.93,1.37,1.05,1.75c-0.07,0.15-0.09,0.41-0.3,0.44c-0.31-1-1-0.61-1.44-0.9
			c-0.33,0.34-0.37,0.87-0.1,1.26c-0.36-0.7-0.9-1-0.63-1.37c-1.19-0.83-0.24,0.71-0.73,0.93l-0.47-0.47
			c-0.18,0.82,0.62,1.63,1.23,2.65c-0.5-0.38-0.92-0.87-1.2-1.44c-0.68,0-0.81,0.92-1.25,1.23c-0.38-0.16-0.66-0.5-0.75-0.91
			c0.06,0.83-1,0.78-0.16,2.05c-0.32-0.51-0.43-0.11-0.77-0.16c0.16,0.14,0.31,0.31,0.42,0.5c0.18,0.65,0.06,1.57-0.59,1.48
			l-0.21-0.4c-0.8,0.48,0.71,2.52-0.75,2.48c-0.34-0.09-0.72-1-0.95-0.69c0.26,0.51,1.09,1.24,0.55,1.36l-0.66-0.69l0.47,0.9
			c0.67,0.43,0.84-0.13,1.21,0.75c-0.92-0.33,0.38,0.87-0.72,0.5c-0.15-0.4-0.36-0.77-0.62-1.1c-1.54,0-0.36,1.7-2,1.62
			c0.16,0.91-0.21,1.5,0,2.26c-0.63-0.59-1.18-1.26-1.63-2c-0.41,0.24,1,1.9-0.24,1.15c0.78,1.07-0.29,1.48,0.94,2.84
			c-0.27-0.25-0.35,0.34-0.74-0.72c0,0.86-1.71-0.53-1.9-0.33s1,0.69,0.72,1c-0.08,0-0.22-0.14-0.31-0.17l0.21,0.4
			c-0.4-0.19-0.54-0.74-0.87-1.09c-0.63,0.09,0.17,1.34-0.17,1.85l-0.15-0.29l-0.48,0.39l-0.05-0.1l0.12,0.8l-0.33-0.34
			c0,0.17,0.21,0.4,0.13,0.55l-0.38-0.44c0.42,0.46,0.54,1.13,0.29,1.71l-0.23-0.14l0.38,1.3c-0.7-0.18-0.67-1.3-0.86-0.48l-0.72-1
			c0,0.69-0.53,0.29-0.48,0.82c0.54,0.32,0.65,0.09,0.9,0.59c-1.25-0.68-0.19,0.69-0.06,1.35c0.12-0.15,0.22-0.24-0.18-0.82
			c0.16-0.13,0.5,0.4,0.63,0.34l-0.28-0.67l0.64,0.51l-0.11-0.81c0.66,0.7,0.4-0.23,1,0.61c-0.05-0.53,0.58-0.19,0.11-1.09
			c0.57,0.24,0.24,0.75,0.48,0.64c0.47-1.4,1.46-2.56,2.77-3.24l0.2,0.41c-0.2-0.41-0.32-0.78-0.48-1.08
			c0.72,0.36,2.08,0.37,1.28-0.87c0.09,0,0.19,0.22,0.24,0.32c0.22-0.46,1.54-0.37,1.92-1c-0.89-1.27,1.39-0.06,0.09-1.7l0.21,0.4
			c-0.57-0.24-0.8-1.24-1.09-1.67c1.09,0.81,0.74,0.72,1.79,1.42l-0.52-0.13l0.83,0.73c-1.43-2.62,2.06-0.23,1-2.07
			c0.05,0.1,0.19,0.22,0.24,0.32c0.7,0.18-0.13-1-0.22-1.44c0.33,0.32,0.58,0.71,0.75,1.14c0.75-0.14,0.41-2,1.53-1.83
			c-0.37-0.7-0.78-0.64-1-1.22c0.44,0.02,0.81,0.33,0.92,0.76c1.41,0.55,0.75-2,2.3-1.81c-0.26-0.93-0.73-1-0.6-1.88
			c0.26,0.5,1.43,1.15,1.16,1.51l0.38,0.45c0.6-0.45,1.44-1,0.54-2.45c0.89,0.84,0.26,0.07,0.93,0.33c0-0.17-0.14-0.12-0.23-0.14
			c-0.55-0.93,0.32-0.26,0.33-0.52l0.11,0.2l-0.17-0.91c0.26,0.06,0.51,0.19,0.71,0.37l-0.6-0.6c0.19-0.2,0.87,0.67,1,0.26
			l-0.51-0.39c0.44,0.11,0.06-0.77,0.75-0.15c0.14,0.12,0.05,0.1,0,0.18c1.17,0.65,0.34-0.95,1.07-0.84l-1.06-0.89
			c0-0.6,0.38,0,0.72,0.37c0.19-0.21,0.55,0.06,0.92-0.11c-0.12-0.37-0.29-0.42-0.54-0.74h0.51l0.36,0.7c-1-1.82,1.2-0.89,0.16-2.46
			c0.43,0.11,0.45,0.72,0.71,0.79c1.12,0.12,0.15-2,1.28-1.73c1.37,0,1.45-1.43,2.65-1.72l-0.27-0.24l0.73-0.33
			c-0.45-0.72,0.18-0.81-0.29-1.71c0.24,0.21,0.46,0.44,0.66,0.69c0.15-0.31,0.1-0.84,0.58-0.62l0.16,0.29
			c0.65-0.34,1.35-1,1.11-1.77c0.11-0.23,0.58,0.24,0.94,0.5c0.31-0.26,0.23-0.71,0.05-1.36c0.23,0.05,0.45,0.14,0.66,0.26
			l-0.54-0.75c0.21,0,0.56,0.49,0.82,0.56c-0.33-1.2,0.88-1.06,1.14-1.42l-0.36-0.27c-0.12-0.38,0.58-0.19,0.75,0.28
			c1-0.25-0.1-1.92,0.9-2.6c1.29,1,0.41-1.1,1.84,0.05c0-0.69,0.77-0.4,0.25-1.4c0.14,0.12,0.22,0.14,0.19,0.22
			c0.63,0.34,0.72-0.5,0.74-1.18l0.42,0.37c-0.73-1,0.13-1.35-0.6-2.32c0.19,0.17,0.33,0.39,0.4,0.63c1,0.6-0.07-0.71,0.35-0.77
			c0.19,0.22,0.51,0.39,0.61,0.59c1.71,0.1,1.29-2.6,2.95-3c0.32-0.26-1-0.78-0.57-1.1c0.55,0.32,0.7,1.05,1.12,1
			c-0.37-0.7-0.19-0.65,0.09-0.83c0.24,0.32,0.47,0.46,0.5,0.82c0.49,0.21-0.11-1.24,0.86-0.81c-0.2-0.18-0.37-0.39-0.48-0.64
			c-0.36-1.14,1.64-0.18,1.26-0.62c0,0,0-0.26-0.19-0.22c0.16-0.13,0.49-0.22,0.87,0.23c-0.16-0.3-0.45-0.73-0.38-0.88l0.43,0.55
			c0-0.17-0.27-0.56-0.27-0.68l-0.4-0.19c0.57,0.23-0.1-1.07,0.84-0.13v0.08l0.73,0.11c-0.26-0.5-0.51-1-0.18-1.08
			c1.06,0.88,0.74-0.33,1.1-0.49l0.33,0.34c-0.27-0.67,0.46-1,0.2-1.07c0.24-0.22,0.62-0.19,0.83,0.05
			c0.03,0.03,0.06,0.07,0.08,0.11c0-0.36,0.32-0.7-0.17-1.34l1.15,0.48c-1-1.4,1.09-0.23-0.18-1.52c0.38,0,0.63,0.34,1,0.43
			c-0.38-0.88,0-1,0.35-1.2l0.14,0.12c0.37-0.16,0-1.11,0.33-1.55l1,0.88c0.06-0.33-0.65-1.12-0.27-1.1c0.2,0.1,0.21,0.19,0.21,0.29
			c0-0.37,0.48-0.37,0.86-0.27c-0.43-1,0-0.94-0.48-1.94c1.08,0.63,0.06,0.71,1.06,1.32c0.85,0,0.77-0.84,0.78-1.7
			c0.2,0.17,0.37,0.36,0.52,0.57c0,0-1.48-3.21-2.58-4c-0.54-0.74-0.8-1.24-1.7-1.39c0.26,0.49,0.37,1.3-0.41,0.66l0.66,0.69
			c-0.18,0.82-1.44-1.32-2-0.7l0.35,0.09c-0.07,0.16,0.27,0.68-0.08,0.59s-0.24-0.33-0.34-0.53l0.43,1.41
			c-0.34-0.27-0.62-0.61-0.82-1c-0.42,0.49,1.34,1.13,0.52,1.43c-0.4-0.19-0.39-0.45-0.54-0.75c-0.84-0.3-0.48,0.4-0.37,1
			c-0.61-0.6-0.37-0.7-1-0.86c0.37,0.26,0.92,0.76,0.82,1c-0.54-0.69-0.46-0.19-0.78-0.18c0.24,0.16,0.44,0.38,0.57,0.64
			c0,0.18-0.3,0-0.37,0.16l0.8,0.39c0.29,0.85-0.75,0.14-1.23,0.1c-0.07-0.09-0.12-0.2-0.13-0.32c-0.47,0-1.19-0.26-0.95,0.55
			l-0.05-0.1c0.06,1.14,1.18,0.83,1.12,2c-0.33,0.08-1.89-2.06-1.65-0.87c0.75,0.28,0.95,1.54,0.91,2.05l-0.9-1.44
			c-0.12,0.1,0,0.61-0.16,0.55l0.28,0.25c1,1-0.49,0.22-0.08,1c-0.62-0.95-1.35-1.83-2.17-2.61c0.55,0.92,1,1.82,0.52,2l-0.76-1.33
			c-0.7,0.25,0.3,2.33,0.8,3.58c-0.67-0.87-1.11-1-1.61-1.81l-0.28,0.62l-0.73-1c0.69,1-0.11,0.66,1,1.75
			c-0.1-0.2-0.24-0.33-0.12-0.38c0.33,0.35,1,1.11,0.68,1.3c-0.44-0.12-0.35-0.52-0.71-0.79c0.31,0.6-0.44-0.12-0.27,0.36l0.63,0.34
			c0.54,0.74-0.23,0.28-0.06,0.76c-0.1-0.46-0.53-0.77-1-1.09l0.1,0.07c-0.07,0.16,0.24,0.76-0.21,0.46l-0.82-1l0.5,0.82
			c-0.28-0.1-0.5-0.32-0.6-0.6c-1.07,0,2,1.9,0.46,1.77c-0.33-0.35-0.49-0.65-0.11-0.64c-0.52-0.56-0.88-0.83-1.27-0.85l-0.1-0.1
			C45.14,404.7,44.64,405.12,45,406z"/>
		<path class="st1" d="M45.5,404.36c0.2-0.18,0.35-0.34,0.3-0.54C45.59,403.69,44.92,403.81,45.5,404.36z"/>
		<path class="st1" d="M19.06,433.24c0-0.05,0-0.11,0-0.16V433.24z"/>
		<path class="st1" d="M17.85,435c0.08,0.06,0.18,0.11,0.28,0.12C18,435,17.8,434.84,17.85,435z"/>
		<path class="st1" d="M32.53,418.9L32.53,418.9z"/>
		<path class="st1" d="M23.89,427.2c0.13,0.35,0.33,0.67,0.59,0.94C24.48,428,24.35,427.72,23.89,427.2z"/>
		<path class="st1" d="M27.08,424.67c-0.02-0.06-0.05-0.12-0.08-0.18C27,424.56,27.03,424.62,27.08,424.67z"/>
		<path class="st1" d="M32.52,418c0.18,0.41,0,0.57,0,0.89C32.49,418.61,33,418.66,32.52,418z"/>
		<polygon class="st1" points="17.05,437.82 16.74,437.22 16.91,437.7 		"/>
		<path class="st1" d="M18.12,436.12c0.18,0.05,0.13-0.49-0.18-0.65C18.05,435.67,18.11,435.89,18.12,436.12z"/>
		<polygon class="st1" points="23.83,431.16 23.4,430.61 23.66,431.11 		"/>
	</g>
</g>
<g id="email_icon">
	<g id="lVQYz8.tif">
		<path class="st1" d="M297.07,131.58c30,0,60-0.08,90,0c21.23,0.07,29.38,8,29.43,28.64c0.09,38.67,0.09,77.35,0,116.05
			c-0.05,20.53-8.26,28.42-29.63,28.45c-60,0.07-120,0.07-180,0c-21.23,0-29.37-8-29.42-28.63c-0.09-38.67-0.09-77.35,0-116.06
			c0.06-20.52,8.27-28.38,29.63-28.44C237.06,131.51,267.07,131.58,297.07,131.58z M200.14,153.11c-2.56,18.06-2.51,18,10.62,28
			c20.87,16,41.53,32.18,62.53,48c19.71,14.89,27.61,14.89,47.36,0c21-15.79,41.26-32.53,62.69-47.74
			c10.59-7.52,14.09-15.82,10.34-28.26H200.14z M199.71,283.17h194v-84.25c-18.63,14.21-35.87,26.85-52.53,40.19
			c-35.85,28.7-51.06,28.91-87.28,0.75c-17.37-13.51-35-26.68-54.18-41.25L199.71,283.17z"/>
	</g>
</g>
</svg>
