<?xml version="1.0" encoding="utf-8"?>
<!-- Generator: Adobe Illustrator 24.1.0, SVG Export Plug-In . SVG Version: 6.00 Build 0)  -->
<svg version="1.1" xmlns="http://www.w3.org/2000/svg" xmlns:xlink="http://www.w3.org/1999/xlink" x="0px" y="0px"
	 viewBox="0 0 286.21 321.58" style="enable-background:new 0 0 286.21 321.58;" xml:space="preserve">
<style type="text/css">
	.st6{fill:#FFCD05;}
	.st7{fill:#FFFFFF;}
</style>
<g id="github_x5F_frame">
	<g>
		<rect x="4.4" y="4.78" class="st6" width="278.26" height="313.04"/>
		<g>
			<g>
				<g>
					<g>
						<path d="M0.73,250.11C0.72,250.61,0.75,250.86,0.73,250.11L0.73,250.11z"/>
						<path d="M147.07,0.38c0.15,0,0.23,0,0.38,0c0.28-0.1,0.53-0.19,0.78-0.25L147.07,0.38z"/>
						<path d="M209.48,1c0.15,0.01,0.25,0.02,0.38,0.03C209.83,0.97,209.91,0.91,209.48,1z"/>
						<path d="M0.93,3.27C0.93,4.2,0.95,4.73,0.98,5.12C0.96,4.58,0.94,4.01,0.93,3.27z"/>
						<path d="M51.05,320.96c0,0-0.16,0.01-0.27,0.01c0.22,0.02,0.44,0.04,0.67,0.06L51.05,320.96z"/>
						<path d="M49.79,321.13c-1.38-0.07,0.38-0.14,0.98-0.16c-1.52-0.14-3.04-0.15-4.58-0.08C46.2,321.04,49.11,321.02,49.79,321.13
							z"/>
						<path d="M258.51,320.53l-0.62,0.06C258.15,320.58,258.34,320.56,258.51,320.53z"/>
						<path d="M9.4,8.89C9.33,8.9,9.26,8.9,9.19,8.9L9.16,8.91C9.14,8.92,9.12,8.92,9.1,8.93C9.19,8.93,9.11,8.92,9.4,8.89z"/>
						<path d="M225.76,320.38l-0.36,0.24C225.72,320.52,225.8,320.45,225.76,320.38z"/>
						<path d="M148.23,0.13l0.45-0.1C148.53,0.05,148.39,0.09,148.23,0.13z"/>
						<path d="M267.14,1.16c0.02,0.08,0.15,0.14,0.31,0.19c0.07,0,0.13,0,0.16,0L267.14,1.16z"/>
						<path d="M282.39,279.92c0.03-0.02,0.06-0.07,0.1-0.15l-0.17-1.16C282.32,279.21,282.35,279.64,282.39,279.92z"/>
						<path d="M285.22,68.36c0.03,0.07,0.05,0.26,0.09,0.27c0.08-1.35,0.1-4.92,0.09-9.48l-0.3-0.28L285.22,68.36z"/>
						<path d="M278.21,154.86l0.61-8.43c0.28,27.06-0.33,39.69,0.16,62.85l-0.13-1.28c-0.14,3.37,1.22,5.27-0.44,42.53h-0.06
							c0.01,1.29,0.13,1.28-0.03,3.87l0.37-6.44c0.15,3.86,0.44,7.23,0.48,12.37c-0.07,1.09-0.19,1.47-0.29,1.57l0.1,12.61
							l-0.39,3.87c0.21,3.86,1.04,2.1,0.58,12.41c0.57-3.89,0.34,5.12,0.63,3.84c-0.07,0.52-0.18,1.7-0.27,2.65
							c0.07,6.13,0.23,17.68,0.52,20.54c0,0,1.2-24,1.82-30.45c-0.16,8.64,0.07,2.28,0.26,0.57l-0.14-0.57
							c0.14-5.17,0.5-5.17,0.6-7.76c-0.03,0-0.06,0.08-0.1,0.15l0.05,0.33c-0.06,0.24-0.11,0.1-0.14-0.18
							c-0.08,0.06-0.14-0.18-0.12-1.58l0.04,0.27c-0.05-2.16,0-5.89,0.03-7.52l0.3-0.03c-0.57-3.83,0.88-25.78,0.9-30.92
							c0.38-5.17-0.09-11.59,0.1-18.05c0.1-10.29,0.44-5.15,0.7-10.31c0.19-6.45-0.35,1.31-0.37-1.28l0.42-7.73
							c0.04,4.49,0.22,2.06,0.33,1.23c0.05-6.68,0.6-17.22,0-19.28c0.29-9.02,0.53-9.04,0.56-12.9c-0.11,1.3-0.21,3.87-0.33,3.89
							c0.27-3.61-0.07-1.73-0.12-0.25c-0.26-5.51,1.1-28.59,0.44-29.75h0.12c-0.49-1.28-0.97,0.77-1.24-3.07l0.22-2.57l-0.21-3.87
							c0.16-2.59,0.29-1.32,0.35-1.32c-0.23-6.3,0.04-15.08,0.11-22.71l-1.34,8.08c0.31-6.44,0.94-18.04,0.51-19.33l0.45-3.87
							c0.86-12.9-0.37-9.01-0.11-14.16l0.49-6.48l-0.01,6.45c0.25-6.45,0.41-9.03,0.73-14.17l-0.01-0.06
							c-0.02,0.35-0.04,0.58-0.07,0.63l-0.01-0.9c-0.24-0.78-0.41-4.14-0.4-8.69c0.07-6.45-0.29-11.5,0.23-21.8l-0.5-2.57l0.3-7.73
							h0.4c0.04,7.58,0.1,21.84,0.15,31.58l0.18,0.17c0-5.78-0.18-12.35-0.14-16.16c0.08-1.86,0.5-6.62,0.77-3.17l-0.39-3.57
							c0-8.05-0.01-12.76-0.01-17.06c0.06-5.28,0.12-10.06,0.21-17.94c-1.52-0.02-3.45-0.05-5.7-0.08c-1.63-0.03-3.5-0.06-5.54-0.1
							l1.75,0.2c-3.99,0.12-7.97,0.23-9.08-0.09c-12.08-0.07-24.59-0.32-32.44-0.82L233.29,1c-2.55-0.03-6.38-0.74-7.62-0.08
							l-5.45,0.21c-3.49-0.04-5.62,0.23-9.59-0.04v0c-0.01,0-0.02,0-0.02,0c-0.24-0.02-0.5-0.04-0.75-0.06
							c0,0.01,0.02,0.03,0.04,0.04c-7.89-0.21,0.08,0.42-8.96,0.15c-2.9-0.33-3.21,0.6-7.61,0.49l-4.42-0.68
							c-7.98-0.39-9.34,0.29-20.9,0.29c-5.55-0.24-8.23-0.82-4.56-1.33c-5.05,0.62-2.3,0.4-9.01,0.7c-1.03-0.25-0.32-0.31,1.16-0.54
							c-5.96-0.3-3.67,0.23-8.17,0.22c-1.3,0.48-2.81,1.24-4.27,1.28l1.74,0.15c-4.75,0.26-9.95,0.38-15.48,0.14l0.21-0.24
							l-5.88,0.12l-0.37-0.31l-8.4,0.1l1.15,0.08c-1.97,0.04-8.45,0.15-12.15-0.01l0.13-0.17c-10.45-0.53-19.06,0.17-31.3,0.22
							l1.61-0.35c-4.17-0.35-1.14,0.54-6.11,0.36l-0.25-0.43c-4.37,0.57-5.65-0.12-8.67-0.33l1.41,0.56l-5.68-0.12
							c-6.25-0.19-3.84-0.71-2.92-1.01l-4.26,0.44l-0.83-0.5c-3.11,0.58-3.11-0.09-8.56,0.22c-0.45-0.19,0.93-0.3-0.92-0.38
							l-8.99,0.7l5.42-0.31l-0.66,0.73c-5.64,0.55-7.65-0.08-11.68,0.12l2.78-0.22C17.95,1.4,17.6,1.1,13.89,0.93
							c1.15,0.13,2.91,0.34,0.25,0.43c-1.95,0.04-1.06-0.26-2.91-0.34c-0.09,0.1-0.35,0.18-0.74,0.26c-0.2,0.04-0.42,0.07-0.68,0.11
							C9.68,1.41,9.55,1.43,9.41,1.44L9.18,1.46C9.06,1.47,8.93,1.48,8.8,1.48c-2.09,0.1-4.72,0.16-7.55,0.14
							c-0.01,1.42-0.03,2.86-0.08,4.3C1.09,5.8,1.03,5.62,0.98,5.12C1.03,6.06,1.06,6.78,1.1,7.67c0.01,0.44,0.02,0.92,0.02,1.48
							c0,0.22-0.01,0.46-0.01,0.72c-0.01,0.2-0.02,0.42-0.03,0.65L0.8,9.97C0.71,9.75,0.62,9.68,0.53,9.28
							C0.55,9.6,0.57,9.71,0.6,9.87l0.06,0.46l0.13,0.91l0.26,1.83c-0.15,2.44,0.24,6-0.12,5.68l-0.11-1.39L0.69,35.84l-0.43,0.26
							c0.59,1.83-0.23,10.06,0.51,9.46c-0.4,3.49,0.28,13.72-0.55,11.67c-0.06,12.14,0.74,18.7,0.33,33.45
							c-0.71,5.26-0.48,19.66-0.55,29.13c0.3,18.51,0.56,30.48,0.79,49.4c-0.99,11.38,0.34,28.39-0.22,40.63l0.39,3.35
							c-0.62,8.14,0.14,20.57-0.47,31.99c0.17,2.8,0.23,4.27,0.24,4.92c0.02-0.52,0.09-1.31,0.34-1.55
							c-0.18,3.26,0.04,9.86-0.45,9.39l-0.05-0.83c-0.5-0.48,0.23,9.9-0.2,13.54l0.53-2l-0.09,6.18l-0.1-1.65
							c0.42,9.48,0.48,17.12,0.43,24.15c-0.04,3.52-0.09,6.88-0.13,10.25c-0.02,1.68-0.04,3.37-0.07,5.07
							c-0.01,2.85-0.03,5.73-0.04,8.68c2.52,0,5.09,0,7.73-0.01c1.6-0.02,3.24-0.04,4.93-0.06c3.22-0.06,6.64-0.16,10.34-0.31
							c-3.34,0.58,4.97-0.31,5.3,0.33c6.35,0.8,11.77-0.17,16.98-0.39c0-0.03,0.06-0.07,0.36-0.12l9.11,0.08
							c-5.44,0.8,6.56-0.67,1.56,0.02c23.75,0.6,54.74-0.01,82.23,0.27l-1.21-0.21c6.97,0.04,15.64-0.21,20.93,0.12
							c5.29,0.33,11.57-0.52,13.62-0.56c5.8-0.36,11.07,0.35,8.58,0.32c6.2-0.1,12.03-0.83,20.63-0.52
							c2.94,0.68,23.47-0.67,23.73,0.1l0.09-0.06c11.02,0.54,21.41-0.38,33.28,0.11c0,0-0.23,0.06-0.63,0.11l24.15-2.33l-6.88-2.56
							l-20.93-2.08l-56.73,0.45l-45.28-0.81l-110.2,0.28l-7.87,0.58c-4.64-0.22-9.56-0.33-14.65-0.39
							c-2.55-0.01-5.14-0.03-7.76-0.05c-1.08,0-2.16,0-3.25,0l-0.5,0.01l-0.01-0.33l-0.01-0.17l0-0.09l0-0.59
							c-0.01-1.8-0.02-3.6-0.03-5.4c-0.01-3.6-0.03-7.2-0.04-10.78c-0.01-7.15,0.05-14.18,0.25-20.84l-0.5-0.48
							c-0.03-6.57,0.28-6.13,0.37-7.75C8.51,206.03,7.84,143.05,8.47,88C8.8,82.7,8.61,66.55,8.96,62.39
							c-0.3-8.94-0.46-18.14-0.52-27.35c-0.02-4.6-0.03-9.21-0.05-13.78c0.01-4.04,0.02-8.04,0.03-11.99l0.05,0.12L8.43,8.81
							l0.84-0.06c0.36,0.04,0.4,0.1,0.13,0.14c9.51-0.44,24.49,0,36.14,0.17l-0.68,0.05c67.94,0.09,131.02-0.84,198.41-0.14
							c6.22,0.16,12.64,0.25,19.22,0.28c3.29,0.01,6.62,0.02,9.98,0.03c1.68,0,3.37,0,5.07-0.01l0.38,0l0.08,0l0.17-0.01l0.02,0.25
							c0.01,1.03,0.01,2.07,0.02,3.11c0.01,2.63,0.03,5.28,0.04,7.93c0.02,5.31,0.04,10.67,0.06,16.06
							c0.02,10.77-0.02,21.66-0.22,32.49C277.6,75.71,277.98,148.43,278.21,154.86z"/>
						<path d="M278.88,261.89l0-0.28C278.66,261.63,278.74,262.04,278.88,261.89z"/>
						<path d="M284.61,111.69c0,0.16,0,0.32-0.01,0.47l0.3-1.79L284.61,111.69z"/>
						<path d="M284.78,207.9c0.07-4.32,0.01-4.52-0.07-3.92C284.7,205.55,284.72,206.92,284.78,207.9z"/>
						<path d="M279.28,297.21c-0.02,2.27,0.11,1.41,0.25,0.07c-0.02-2.32-0.04-3.93-0.04-3.93
							C279.42,294.62,279.35,295.91,279.28,297.21z"/>
						<path d="M282.12,287.95l0.17,0.71C282.25,287.32,282.19,287.37,282.12,287.95z"/>
					</g>
				</g>
			</g>
		</g>
	</g>
	<g>
		<rect x="23.72" y="25.4" class="st6" width="239.63" height="271.8"/>
		<g>
			<g>
				<g>
					<g>
						<path d="M263.37,271.44c-0.01,0.51-0.03,1.3-0.05,1.94C263.3,271.54,263.31,270.64,263.37,271.44z"/>
						<path d="M263.14,297.21c-0.01-6.66-0.01-17.2,0.18-23.83C263.38,279.28,263.68,295.19,263.14,297.21z"/>
						<path d="M264.24,270.26l-0.16,8.28C263.94,273.69,264.19,274.58,264.24,270.26z"/>
						<polygon points="263.74,273.27 263.54,272.84 263.73,268.42 						"/>
						<path d="M87.92,26.98c0.86,0.09,1.39,0.18,0.99,0.3L87.92,26.98z"/>
						<path d="M68.74,26.08c-1.72-0.02-2.93-0.04-3.96-0.05C65.97,26.01,66.96,26.03,68.74,26.08z"/>
						<path d="M105.35,26.9l-3.41,0.03C103.02,26.9,104.22,26.88,105.35,26.9z"/>
						<path d="M262.61,80.24c-0.14,3.17-0.27,6.17-0.36,8.45C262.09,82.52,262.42,81.99,262.61,80.24z"/>
						<path d="M21.51,68.54l0.16,0.82C21.6,70.26,21.53,70.7,21.51,68.54z"/>
						<path d="M64.14,23.43c0.08,0.09-0.1,0.16-0.45,0.21c-0.33-0.01-0.67-0.03-0.99-0.04L64.14,23.43z"/>
						<path d="M118.85,26.57c0.05,0,0.13-0.01,0.19-0.02l2.77,0.1C120.32,26.69,119.38,26.66,118.85,26.57z"/>
						<path d="M21.29,95.46c-0.09,1.19-0.2,2.35-0.35,3.35C21.01,96.22,21.17,95,21.29,95.46z"/>
						<path d="M64.31,26.03c-0.04,0,0,0-0.04-0.01c0.14,0,0.37,0,0.51,0.01C64.61,26.03,64.49,26.03,64.31,26.03z"/>
						<path d="M91.85,23.6c-1.46-0.03-2.83-0.05-4.4-0.08C89.32,23.48,90.87,23.53,91.85,23.6z"/>
						<path d="M262.61,80.24c0.04-0.9,0.08-1.78,0.12-2.68C262.73,78.82,262.68,79.6,262.61,80.24z"/>
						<path d="M263.01,249.17c0-2.68,0.11-3.31,0.23-3.82C263.18,246.83,263.11,248.14,263.01,249.17z"/>
						<path d="M256.79,296.17l1.07,0C257.41,296.19,257.06,296.18,256.79,296.17z"/>
						<path d="M154.22,295.75c-0.48-0.04-0.99-0.08-1.36-0.13C153.74,295.58,154.23,295.65,154.22,295.75z"/>
						<path d="M59.74,299.61c6.7-0.23,13.62,0.24,19.45,0.27l-1.99-0.2l5.88,0.16l-0.07-0.28c9.72,0.13,21.78-0.16,25.34,0.29
							l-1.14-0.45l10.31,0.36l-5.9-0.31c11.58-0.09,29.17,0.26,31.65,0.25l-1.04-0.17c1.89-0.09,3.39,0.02,5.37,0.08l-1.52-0.25
							c17.45,0.07,22.22-0.5,41.7-0.24c5.31-0.06-2.94-0.08-3.03-0.22c2.9-0.2,9.72-0.01,11.2,0.1c-1.54-0.39-9.75-0.27-3.52-0.59
							c4.43,0.19-3.02-0.37,4.77-0.29l3.05,0.51c4.34-0.09,0.87-0.4,7.72-0.35c7.83,0.22-9.58,0.57,3.03,0.65
							c6.32-0.03,13.29-1.17,25.53-0.9c10.56-0.26-5.56-0.79,9.05-0.66l-9.35-0.33c2.42-0.14,0.89-0.4,7.22-0.29
							c2,0.2,5.92,0.45,9.34,0.47c-13.69-0.38,12-0.58-0.74-1.07l4.75,0.02c-0.59-0.02-0.74-0.07-0.43-0.11l6.31-0.03
							c-3.89-0.11-13.15-0.16-8.85-0.53l9.14-0.09c-2.44-0.28,0.91-0.4,0.38-0.62l-26.89-0.54c1.06,0.17,4.93,0.28,3.49,0.45
							c-7.18,0.15-5.86-0.3-12.6-0.07l2.98,0.22c-0.54-0.08-1.48-0.11-0.01-0.14c2.36-0.14,3.4,0.02,3.42,0.17
							c-2.36,0.28-9.17,0.09-11.19-0.1c-8.73,0.04-1.8,0.51-3.72,0.6c-4.52-0.48-14.58,0.01-19.99-0.21l3.47,0.31
							c-6.64,0.37-12.59,0.07-16.49-0.04l1.51,0.25c-9.25-0.05-13.84,0.8-20.88-0.09l0.98,0.17c-3.8,0.08-9.56,0.27-13.19,0
							c-0.08,0.11-0.73,0.24-2.27,0.27c-2.06-0.35-6-0.08-11.59-0.02c3.71,0.09,2.53,0.54,6.44,0.65c-8.63,0.46-7.91-0.5-15.16-0.49
							c-4.35,0.23,3.9,0.25,4.94,0.42c-11.19-0.24-23,1.04-30.07,0.14l4.81-0.29c-4.45-0.19-6.86-0.19-6.32-0.11
							c1.43-0.03,1.92,0.06,2.42,0.14c-13.44,0.46-21.02-0.66-34.59-0.48c1.01,0.17,2.95,0.22,3.03,0.37
							c-6.25,0.18-6.08-0.87-16.17-0.52l1.98,0.2c-3.36,0.12-5.85-0.16-5.4-0.22c-0.26,0.76-21.36-0.04-28.39,0.96
							c-0.87-0.06-2.06-0.15-3.45-0.25c0.03-0.6,0.07-1.25,0.1-1.92c0.03-0.83,0.06-1.69,0.09-2.56c0.04-1.84,0.08-3.73,0.12-5.53
							c0.05-3.61,0.05-6.85-0.04-8.56c-0.46-6.2-0.5,5.49-0.93,3.19c0-4.86,0.42-7.41,0.27-14.65c0.42-0.12,0.86,14.31,1.1,0.69
							l-0.23-1.91c0.03,1.41,0.12,3.35,0.06,5.33c-0.25,3.94-0.28-2.36-0.4-3.27l0.13-14.62c0.45-1.07,0.35,7.68,0.46,8.58
							c-0.1-11.57-0.76-25.5-0.46-36.26l-0.17,1.02c0.38-13.72-0.83-8.01-0.1-18.92c-0.12-5.76-0.48,2.08-0.52-6.63
							c0-2.46,0.17-1.02,0.23-0.58c0.16-10.7-0.43-4.71-0.01-14.58l-0.48,2.13c0.33-11.76,1.17-24.09,0.96-34.26
							c-0.37,0.61-0.33,6.9-0.61,9.4c0.67-13.77,0.08-33.03,0.44-45.76c0.31,3.8,0.73-6.03,0.99,2.13
							c-0.48,2.11-0.16,5.93-0.22,10.3c1.04-7.06-0.51-29.5,0.4-31.66l-0.37-1.86c0.05-1.95,0.33-6.91,0.45-3.49l-0.24-14.04
							c-0.28,4.93-0.92,15.33-0.52,18.59c-0.39,3.99-0.26-5.75-0.71-2.22c0.61-9.4-0.26-5.77-0.13-15.51
							c0.53,4.4,0.72-9.68,0.98-9.24c-0.1-3.18,0.15-10.26,0.33-13c0.05-5.63-0.38-18.54-0.2-27.57c-0.17,3.42-0.39,8.83-0.73,8.43
							c0.1-2.21,0.14-4.54,0.12-6.41c-0.01-0.94-0.04-1.76-0.1-2.41c-0.02-0.16-0.03-0.31-0.04-0.45c-0.02-0.12-0.03-0.2-0.05-0.3
							c-0.04-0.17-0.08-0.32-0.13-0.42c-0.02,0.44-0.04,0.85-0.06,1.24c-0.02,0.44-0.03,0.86-0.05,1.25
							c-0.02,0.79-0.04,1.49-0.06,2.11c-0.03,1.24-0.02,2.17,0,2.89c0.04,1.43,0.17,2.02,0.3,2.56c0.26,1.08,0.55,1.97,0.32,9.09
							c-0.45,3.52-0.56,7.42-0.69,14.75c-0.26-3.34-0.37-1.87-0.68-3.24c0.45-4.22,0.5-9.63,0.47-15.4
							c-0.02-2.88-0.04-5.86-0.05-8.82c-0.01-2.93,0-5.97,0.08-8.62c0.7,0.02,1.39,0.05,2.07,0.07c4.84,0.28,1.2,0.88,12.38,0.98
							l-9.62,0.29c10.58-0.26,2.49,0.28,11.23,0.39l-3.48-0.31c5.35-0.06,7.31-0.01,10.27,0.22l-4.53-0.48
							c2.88-0.06,8.22-0.12,8.29,0.16c0.74-0.12,1-0.21,1-0.29c0.56,0.08,1.92,0.13,5.3,0.11c-1.98-0.05-3.4-0.02-3.45-0.17
							c12.87,0.11,3.01-0.52,10.98-0.47c-1.26-0.11,1.01-0.25,3.86-0.31c-0.19,0.75,15.61,0.85,19.78,1.27l-0.05-0.01l10.76,0.3
							c-2.18-0.06,0.17-0.27,3.3-0.35l-0.51,0c3.42-0.12-4.07-0.82,6.19-0.6l5.39,0.22c-0.96-0.03-0.04-0.14,0.47-0.2l5.55,0.2
							c8.49-0.7,16.03,0.4,26.02,0.05c-2.88,0.06-7.27,0.01-5.39-0.22c1.94-0.09,4.86,0,6.36,0.11l-0.5-0.08l19.04,0.46
							c-1.55-0.25-12.2-0.27-7.44-0.56c2.82-0.34,8.28,0.02,11.7,0.05c-0.44,0.2-6.74,0.37-0.37,0.48c0.78-0.1,6.84-0.3,3.98-0.44
							c6.52,0.2,16,0.32,21.83,0.68c1.85-0.09-1.06-0.17-2.03-0.2l-0.47,0.06c-3.93-0.11-0.6-0.51-8.32-0.3
							c-0.65-0.65,11.12-0.18,17.89-0.27l-10.79-0.44c18.18-0.89,42.71,0.07,60.72,0.09c-5.28,0.2-9.7,0.01-9.07,0.52
							c5.59,0.12,8.02,0.16,10.45,0.17c2.14,0.02,4.28,0.03,9.2,0.06l-0.5-0.03c0.23-0.01,0.47-0.03,0.72-0.04
							c0.02,0.38,0.03,0.79,0.03,1.21c0,0.62,0,1.26,0,1.9c-0.02,1.51-0.03,3.03-0.05,4.48c-0.03,2.91-0.02,5.56,0.19,7.32
							c0.28-2.49-0.26-8.19,0.3-8.33l-0.04,14.08c0.17-2.21,0.18-5.73,0.16-9.37c-0.01-1.82-0.03-3.67-0.04-5.4
							c0-0.86-0.01-1.7-0.01-2.49c0.01-0.75,0.01-1.45,0.01-2.08c-0.01-0.73-0.02-0.72-0.03-0.33c-0.01,0.47-0.04,1.42-0.07,2.42
							c-0.06,2.2-0.17,4.65-0.35,3.73c0.01-1.72,0.02-3.27,0.02-4.67c0.01-0.54,0.02-1.06,0.02-1.55c0.01-0.4,0.02-0.78,0.03-1.14
							c-1.21-0.05-2.24-0.09-3.18-0.13c-1.26-0.05-2.38-0.12-3.44-0.19c-2.13-0.14-4.04-0.32-6.43-0.51
							c-3.94-0.39,5.74-0.4,8.18-0.4c1.8,0.13,3.87,0.24,5.77,0.33c-0.04,0.9-0.08,1.83-0.12,2.79c-0.03,1.02-0.06,2.08-0.1,3.15
							c-0.06,2.16-0.1,4.41-0.12,6.75c-0.05,4.67-0.03,9.65,0.08,14.76l0.43,7.16c-0.39,6.45-1.16,3.71-1.06,15.36l0.31-3.48
							c0.12,2.55,0.16,4.23,0.16,5.46c0.25-5.01,0.51-10.4,0.74-14.94c0.66,6.63-0.32,19.04-0.46,28.79
							c0.08-0.51,0.11-3.91,0.28-4.93c0.16,14.54-0.62,29.77-0.73,40.99c0.29,4.75,0.19-9.33,0.62-7.01
							c-0.16,5.9,0.21,12.57-0.19,14.15c0.56-2.58,0.04,13.57,0.57,2.27c0.25,21.28-0.27,44.71-0.59,66.21
							c0.17-1.04,0.31-1.04,0.42-0.14c-0.01-7.28,0.15-17.97,0.55-22.01c0.29,4.78-0.39,11.31-0.22,12.69
							c0.14-2.44,0.14-7.29,0.42-7.37c0.32,6.23-0.13,9.72-0.19,14.11l-0.14-2.38c-0.38,13.67-0.98,7.54-0.83,22.06
							c0.34,5.26,0.28-0.05,0.71-0.14c-0.17,3.42,0.3,14.44-0.15,18l-0.04-8.79c-0.12,6.15-0.12,11.97-0.27,16.23
							c0.09-0.44,0.18-0.8,0.22-2.1c-0.14,4.89-0.1,11.16-0.38,13.66l0.45,1.37c-0.2-2.92-0.24-11.63,0.02-13.1
							c0.4,0.84,0.15,9.65,0.18,13.51c0.13-17.02,0.83-17.23,0.54-31.65l-0.14,2.43c-0.34-8.97,0.22-18.21,0.21-26.06
							c0.09,2.21,0.26,2.66,0.33,1.62c-0.35-17.38-0.09-34.47-0.3-54.28l0.45-5.96l-0.34-0.37c-0.15-9.69,0.48-2.1,0.45-8.35
							c0,2.38-0.05,1.95-0.14,2.43c0.39-11.25-0.32-6.25-0.21-12.56c-0.36,3-0.13,12.17-0.61,9.35c0.39-11.22,0.17-28.68,0.99-30.32
							c-0.33-20.84,0.18-46.67,0.25-64.18c-0.14-2.39-0.11,1.49-0.23,0.57c0.13-1.94,0.17-4.61,0.15-7.46
							c-0.04-3.41-0.08-7.02-0.12-10.17c-2.73,0.03-5.15,0.05-6.89,0.07c-1.32,0-2.13-0.03-2.15-0.13
							c-3.35,0.12-4.75,0.43-5.66,0.54c-4.44-0.2-9.77-0.3-15.41-0.36l4.13,0.12l-0.45,0.06l-5.86-0.17l0.22-0.03
							c-14.06-0.12-30.3-0.02-43.05-0.47c7.35,0.28-1.85,0.51,1.62,0.68c-6.48-0.67-22.02-0.69-34.63-0.62
							c0.05,0.14-0.92,0.25,0.56,0.37l-7.31-0.28l0.97,0.17c-13.09,0.12-27.33-0.63-35.97-0.31c5.34,0.08,5.37,0.22,5.91,0.45
							c-9.38-0.02-18.22-0.02-29.17-0.23c0.59,0.04,0.97,0.09,0.99,0.14c-2.87,0.06-6.32-0.11-9.26-0.19l-0.4,0.34
							c-5.6-0.16-12.84,0.02-19.5-0.25c-2.61,0.37-16.13-0.35-23.82-0.19c-2.94-0.08,6.41,0.39-1.84,0.37
							c-1.17-0.74-10.7-0.02-11.36-0.81l-5.23,0.12l0.09,3.79l0.04,1.68l0.04,1.06l-0.4,1.59c0.74,6.13-0.33,9.33-0.1,18.45
							c0.09-0.48,0.11-1.46,0.17-0.99c-0.08,2.95-0.13,9.74-0.34,4.48c0,4.86-0.18,21.4,0.24,13.98c-0.23,0.54-0.03-6.26,0.05-9.2
							c0.34,0.39,0.21,7.69,0.57,9.5c-0.04,0.24-0.1,1.2-0.15,1.89l0.21,1.04c-0.37,9.13-0.1,18.41-0.59,25.06
							c0.1,0.39,0.19,1.99,0.16,5.12l-0.42,0.13l0.01,9.71l0.62-4.55c0.12,10.65-0.58,18.15-0.68,26.9
							c0.71,2.25-0.27,17.08,0.36,24.66l0.19-6.84c-0.13,14.61,0.3,16.94,0.06,30.56c-0.24-11.56-0.09-11.63-0.68-28.46
							c0.3,16.9-0.4,29.2,0.01,44.68c0.17-1.03,0.28-4.92,0.45-1.13c-0.37,3.02,0.01,14.58-0.41,12.29c0.14,4.81,0.54,5.64,0.6,8.58
							l-0.52,16.13l0.08-0.49c0.41,11.29,0.37,21.96,0.21,32.53c-0.1,5.28-0.19,10.54-0.29,15.84c-0.04,2.65-0.09,5.31-0.13,7.99
							c-0.02,1.34-0.03,2.68-0.05,4.03c-0.01,2.31-0.02,4.63-0.03,6.96c3.29,0,6.6,0.01,9.95,0.01c2.37-0.02,4.77-0.04,7.19-0.07
							l-0.53-0.23l6.89,0.33c-5.4-0.22,2.34-0.28,2.76-0.48l17.63,0.49C65.1,299.97,64.06,299.52,59.74,299.61z M21.51,101.1
							l0.03-4.17c-0.02-0.84-0.03-1.7,0.02-2.65l-0.02,2.65C21.6,99.07,21.78,100.65,21.51,101.1z M264.74,94.8
							c-0.2,2.01-0.06-2.9-0.09-4.29l-0.05,6.8C264.71,98.24,264.71,95.78,264.74,94.8z M24.25,100.86l0.28,2.33l-0.22,2.98
							L24.25,100.86z M24.28,160.08l0.16-5.9l0.06,0.49l-0.16,5.84L24.28,160.08z M21.99,225.87c0.02-0.37,0.04-0.72,0.06-1.14
							C22.03,225.11,22.01,225.5,21.99,225.87c-0.2,4.56,0.3,6.37-0.19,10.08C21.38,231.4,21.81,228.48,21.99,225.87z M21.98,121.83
							c0.06-1.98,0.08-2.95,0.05-4.39c-0.17,1.03-0.42,4.99-0.48,2.09c0.2-2.02,0.25-8.79,0.53-8.89
							C21.78,116.53,22.57,120.7,21.98,121.83z M66.7,23.85l-1.48,0.03l5.43,0.22L66.7,23.85z M92.01,24.14
							c3.01,0.36,10.76,0.3,16.11,0.38c1.39-0.31-4.05-0.67-10.35-0.64C90.39,23.6,94.98,24.36,92.01,24.14z M22.53,167.31l0.25-1.5
							l0.03,1.41l0.16-5.85c0.35,7.69-0.3,13.18-0.41,17.11C22.59,175.05,23.21,165.67,22.53,167.31z M145.97,24.32
							c5.4,0.22,15.13,0.5,14.24,0.75c0.34-0.48-7.47-0.7-9.9-0.7C148.89,24.4,147.88,24.37,145.97,24.32z M145.68,25.22
							c-7.83-0.22-8.36-0.44-14.34-0.89c7.75-0.2,9.86,0.42,8.94,0.67c5.4,0.22,4.35-0.09,7.24-0.15L145.68,25.22z M137.55,23.87
							l-3.19,0.07c-3.77,0.2-4.55,0.75-9.84,0.2l9.84-0.2C135.21,23.89,136.25,23.86,137.55,23.87z M203.36,23.9l-3.21-0.17
							C203.32,23.75,203.68,23.82,203.36,23.9l2.68,0.14C199.06,24.21,202.65,24.04,203.36,23.9z M153.17,24.03l-9.25-0.05
							C144.46,24.2,150.23,24.09,153.17,24.03z M201.3,24.32c-3.9,0.03-14.06,0.1-12.64,0.07C189.57,24.14,198.82,24.18,201.3,24.32
							z M263.76,167.42l0.02-5.83l0.34,2.82L263.76,167.42z M263.5,99.04l0.17,1.44l-0.03,3.39L263.5,99.04z M263.47,35.99
							c0.07,0.3,0.17,0.14,0.25-0.38c0.03-0.96,0.07-1.8,0.14-2.19c0,0.86-0.06,1.69-0.14,2.19c-0.08,2.53-0.03,6.29,0.07,8
							c0.17-1.01,0.14-4.91,0.25-6.41c0.4,5.76-0.8,18.71,0.35,15.02c-0.14,2.44-0.44,10.79-0.64,7.91
							C263.81,53.53,263.69,41.01,263.47,35.99c-0.06-0.29-0.11-0.84-0.12-1.98C263.4,34.35,263.44,35.1,263.47,35.99z
							 M188.97,25.52c-2.38-0.03-3.42-0.06-3.89-0.1c-2.05-0.09-3.61-0.21-3-0.37c4.98,0.14,1.8,0.27,3,0.37
							C186.33,25.47,187.68,25.51,188.97,25.52z M173.95,25.59l7.8,0.22l-3.93-0.25l11.76,0.47
							C182.83,26.26,174.99,25.9,173.95,25.59z M171.2,25.81l-1.61-0.28l2.46,0.28L171.2,25.81l0.37,0.06l-13.14-0.16L171.2,25.81z
							 M36.96,25.26c-4.92,0.95,11.62,0.68,14.19,1.14c0.55-0.32,5.53-0.82-7.3-0.8c11.09-0.32,6.95,0.62,13.55-0.18
							c-5.31,0.06-11.71-0.19-12.66-0.22l6.26-0.03C47.45,24.57,41.35,25.45,36.96,25.26z M23.73,79.63l-0.02,8.24l0.08-7.8
							L23.73,79.63z M23.99,282.99c0.11-0.29,0.27,2.21,0.35,5.11c0.04,1.45,0.06,2.99,0.04,4.33c-0.01,0.67-0.03,1.29-0.06,1.82
							c-0.03,0.42-0.07,0.79-0.12,1.08c-0.02-2.6-0.04-5.32-0.06-7.55C24.11,285.48,24.08,283.68,23.99,282.99z M96.89,297
							l-9.26-0.19c1.78-0.51,8.27,0.02,12.61-0.07C101.75,296.99,98.33,296.83,96.89,297z M157.1,297l2.94,0.08l-3.1-0.51L157.1,297
							z M153.05,296.33c1.86-0.23-4.47-0.34-5.96-0.31L153.05,296.33z M207.3,295.88l-3.86,0.03l3.49,0.45L207.3,295.88z
							 M201.15,296.41c-0.91-0.32-0.52-0.76-9.41-0.54c-0.37,0.34,2.05,0.34-1.25,0.74c2.93,0.08,5.32-0.06,6.78-0.09
							c-1.99-0.06-4.35,0.09-4.89-0.14C195.7,296.25,199.1,296.29,201.15,296.41c0.31,0.12,0.8,0.22,1.97,0.27
							C203.1,296.57,202.34,296.48,201.15,296.41z M168.96,296.77c-1.17,0.04-2.19,0.09-2.65,0.14l-0.54-0.09
							C166.98,296.68,168.02,296.71,168.96,296.77c1.29-0.04,2.78-0.08,4.32-0.12c0.99-0.29-5.1-0.48-6.7-0.64
							c2.9,0.08,5.4,0.36,9.24,0.19c-0.51-0.08-0.02-0.14-2.44-0.14l5.3-0.06c6.07,0.4,0.27,0.52-5.39,0.65
							c-0.18,0.06-0.61,0.13-1.68,0.2C170.7,296.89,169.86,296.82,168.96,296.77z M211.55,297.41l-2.9-0.08
							c-1.49-0.11-0.54-0.23-1.06-0.31C210.99,297.04,215.43,297.23,211.55,297.41z M37.29,297.5c1.93-0.09-2.53-0.42-6.86-0.33
							l2.3-0.43c0.11,0.28,8.81,0.25,9.79,0.27C44.06,297.41,40.67,297.25,37.29,297.5z M23.41,108.32
							c0.54-1.58,0.21-12.67,0.35-15.12C23.88,98.97,24.01,112.08,23.41,108.32z M23.19,89.1c0.01-3.03-0.04-3.9,0.23-3.58
							c0.11-1.47-0.03-3.87,0.08-5.35C23.74,86.07,23.31,85.7,23.19,89.1c-0.01,0.79-0.01,1.69-0.02,2.82
							C23.15,90.69,23.17,89.84,23.19,89.1z M23.16,207.43l-0.39,4.03l0.03,6.3L23.16,207.43z M22.46,275.12
							c0.23-0.52,0.23,6.72,0.12,8.22c0.3-0.46,0.26-5.31,0.29-9.17c0.02-0.49,0.04-1.3,0.04-2.54c-0.01,0.76-0.02,1.59-0.04,2.54
							c-0.07,1.45-0.22,0.44-0.33,0.44l-0.09-1.92l-0.08,5.34L22.46,275.12z M120.65,298.79c4.32-0.23,4.83-0.15,7.74-0.06
							C127.46,298.84,123.59,298.87,120.65,298.79z M22.2,239.24c0.15,7.28,0.45-3.5,0.6,1.28l-0.03-3.81
							c0.32,6.19-0.34,4.42-0.25,8.77l-0.06-2.91c-0.29-2.3-0.19,4.46-0.42,5.01C21.92,244.18,22.14,236.35,22.2,239.24z
							 M127.49,298.98c7.21-0.29,5.93,0.31,10.3,0.36C132.05,299.6,132.89,299.06,127.49,298.98z M21.33,285.11l-0.06-0.46
							l-0.17,5.85l0.06,0.47L21.33,285.11z"/>
						<path d="M136.44,296c1.78-0.04,2.95-0.03,3.92-0.01C139.12,296.01,137.81,296.02,136.44,296z"/>
						<path d="M25.22,71.44c-0.08-0.16-0.12-0.79-0.14-1.63C25.12,69.92,25.17,70.32,25.22,71.44z"/>
						<path d="M25.4,57.35c0-0.18,0-0.37,0-0.54c0.01-0.12,0.02-0.3,0.03-0.44L25.4,57.35z"/>
						<path d="M262.64,244.91c-0.36,3.02-0.06-2.91-0.06-5.34C262.58,242,262.83,242.94,262.64,244.91z"/>
						<path d="M263.24,225.82c-0.11,1.44-0.18,3.49-0.21,5.99C263.02,230.24,263.06,228.52,263.24,225.82z"/>
						<path d="M263.09,241.4c-0.08-3.72-0.09-6.96-0.06-9.59C263.05,234.26,263.19,236.33,263.09,241.4z"/>
						<path d="M263.14,174.37c-0.22,3-0.11,8.77-0.11,8.77c-0.21-12.58-0.42,2.53-0.59,3.58
							C262.52,178.9,262.81,178.85,263.14,174.37z"/>
						<path d="M263.26,157.72c0,1.29,0.01,2.53,0.04,3.49C263.24,159.99,263.24,158.84,263.26,157.72z"/>
						<path d="M263.04,153.04c0.05-4.35,0.31-5.89,0.5-7.88c0.18,5.27-0.22,8.64-0.28,12.56
							C263.25,154.63,263.28,151.61,263.04,153.04z"/>
						<path d="M256.82,26.93c1,0.03,3.41,0.03,3.47,0.17L253,27.11C250.08,27.02,255.36,26.96,256.82,26.93z"/>
						<path d="M229.94,26.25c-5.82-0.02-2.79,0.34-5.74,0.26l0.33-0.48L229.94,26.25z"/>
						<path d="M233.18,23.81l1.72,0.05c-0.65-0.01-1.28-0.01-1.96-0.02L233.18,23.81z"/>
						<path d="M201.9,26.73l4.03,0.53C201.04,27.12,200.97,26.7,201.9,26.73z"/>
						<polygon points="179.69,27.09 183.11,27.25 172.41,27.09 						"/>
						<polygon points="152.92,26.83 151.97,26.94 144.64,26.81 						"/>
						<path d="M24.7,187.6c-0.45,1.11-0.26-10.57-0.38-13.97C24.89,175.95,24.13,182.94,24.7,187.6z"/>
						<path d="M126.28,296.21l-11.16-0.1C123.77,295.93,117.53,296.1,126.28,296.21z"/>
					</g>
				</g>
			</g>
		</g>
	</g>
	<g>
		<rect x="30.49" y="33.04" class="st7" width="226.09" height="256.52"/>
		<g>
			<g>
				<g>
					<g>
						<path d="M255.91,289.56c0.09,0.51,0.28,0.22,0.24-1.18l-0.33-0.99L255.91,289.56z"/>
						<path d="M256.52,280.15c-0.16-1.65-0.44-3.55-0.75-2.48c0.32,1.63,0.19,2.03,0.56,3.78c0.04,1.4-0.11,2.45-0.23,2.21
							c0.08,0.5-0.07,2.18,0.14,2.93c0.26-1.82,0.27-4.13,0.05-6.54C256.38,279.52,256.46,280.03,256.52,280.15z"/>
						<path d="M257.04,143.26l-0.04,0.88C257.02,143.91,257.03,143.6,257.04,143.26z"/>
						<path d="M257.22,58.45c0.01,0.65,0.04,0.92,0.07,0.95C257.27,58.8,257.25,58.31,257.22,58.45z"/>
						<path d="M257.59,43.98c-0.01,0.31-0.02,0.57-0.02,0.85C257.59,44.5,257.61,44.18,257.59,43.98z"/>
						<path d="M257.04,143.26l0.1-2.27C257.04,140.84,257.06,142.16,257.04,143.26z"/>
						<path d="M255.73,261.27c0.02,0.47,0.05,0.87,0.09,1.23c-0.01-0.39-0.02-0.77-0.04-1.16
							C255.76,261.32,255.74,261.31,255.73,261.27z"/>
						<path d="M257.31,180.65l0,0.69c0.04,0.2,0.08,0.39,0.13,0.57L257.31,180.65z"/>
						<path d="M257.36,209.34c0.01-0.65-0.27-0.87-0.39-1.12c0.12,0.37,0.17,0.85,0.19,1.42
							C257.21,209.65,257.28,209.56,257.36,209.34z"/>
						<path d="M256.86,254.84l0.04,0.81C256.89,255.44,256.88,255.08,256.86,254.84z"/>
						<path d="M257.37,160.11c0.04-0.05,0.08-0.15,0.1-0.26C257.43,159.85,257.4,159.96,257.37,160.11z"/>
						<path d="M223.32,288.24c-0.02,0.02,0.01,0.03,0,0.05C223.49,288.27,223.54,288.25,223.32,288.24z"/>
						<path d="M256.58,289.64l-0.46,0.02c-0.05,0.05-0.1,0.11-0.1,0.16L256.58,289.64z"/>
						<path d="M241.01,31.67c0.05,0,0.07,0,0.12,0.01C241.82,31.65,241.43,31.65,241.01,31.67z"/>
						<path d="M29.33,65.8c0.25-2.76,0.32,4.49,0.6,0.34C29.82,66.52,29.49,62.36,29.33,65.8z"/>
						<path d="M255.76,260.53c0-0.39,0-0.78,0-1.18C255.75,259.89,255.75,260.25,255.76,260.53z"/>
						<path d="M29.93,66.13L29.93,66.13l0.03-0.43C29.95,65.88,29.94,65.98,29.93,66.13z"/>
						<path d="M179.95,31.84c0.12,0.05,0.37,0.09,0.62,0.12C180.55,31.94,180.41,31.9,179.95,31.84z"/>
						<path d="M225.44,32.24l-1.13-0.04C224.76,32.23,225.12,32.24,225.44,32.24z"/>
						<path d="M156.33,32.24c-0.61-0.02-0.82-0.06-1.66-0.02c0.08,0.01,0.15,0.02,0.25,0.03C155.23,32.21,155.63,32.19,156.33,32.24
							z"/>
						<path d="M131.75,32.24c0.13,0.02,0.3,0.04,0.45,0.06c0.24,0,0.53-0.01,0.78-0.02L131.75,32.24z"/>
						<path d="M148.61,288.38c0.54,0.08,0.87,0.17,1.13,0.25C149.37,288.43,152.98,288.36,148.61,288.38z"/>
						<path d="M255.88,261.26c-0.07-0.14-0.11-0.35-0.12-0.73c0.01,0.28,0.01,0.55,0.02,0.82
							C255.82,261.42,255.86,261.43,255.88,261.26z"/>
						<path d="M155.33,34.46l-3.91-0.04C152.52,34.44,153.94,34.46,155.33,34.46z"/>
						<path d="M31.63,231.33l0.03,0.9C31.67,231.88,31.67,231.56,31.63,231.33z"/>
						<path d="M139.84,34.46c-0.7-0.1-1.44-0.16-2.2-0.19c-0.16,0.02-0.35,0.04-0.45,0.07L139.84,34.46z"/>
						<path d="M149.75,288.64C149.74,288.63,149.74,288.63,149.75,288.64C149.74,288.63,149.74,288.63,149.75,288.64z"/>
						<path d="M175.48,287.97c-3.72-0.01-1.75,0.36-2.54,0.57c-4.44,0.1-2.06-0.27-3.57-0.46c-2.77,0.1-4.9,0.44-6.97,0.42
							c-0.15-0.06-0.56-0.08-0.09-0.16c-2.93,0.29-8.7,0.01-12.12,0.38c-0.25-0.03-0.38-0.06-0.45-0.09
							c0.55,0.18,0.64,0.37,0.52,0.51c-1.67,0.01-3.1,0.23-3.72-0.01c1.02,0.01,1.11-0.09,1.59-0.17l-1.75,0.1
							c-1.57-0.35,2.39-0.12,2.39-0.38c-3.41,0.11-7.38,0.4-9.99,0.3c-0.55-0.34,6.11-0.11,2.62-0.42l4.04,0.13
							c-3.09-0.54,2.46,0.04-0.38-0.54c-5.32-0.1-5.95,0.17-11.25,0.07c-1.19,0.19,0.39,0.28-0.8,0.47
							c-7.54,0.34-5.94-0.85-11.48-0.4c-1.44,0.23-1.99,0.66-5.94,0.43l1.35-0.38c-5.15-0.04-2.94,0.55-8.33,0.29
							c0.96-0.15,4.05-0.13,3.27-0.17c-3.49-0.3-2.47,0.22-5.16,0.22l-0.56-0.34c-5.48,0.11-11.52,0.24-17.59,0.36
							c0.34-0.1,1.38-0.21-0.04-0.31c-7.66,0.17-16.35-0.04-23.73-0.24l-2.82,0.29c-0.66,0-1.22-0.13-0.51-0.19
							c-2.88-0.11-0.15,0.19-1.53,0.3c-1.64,0.02-2.16-0.17-1.13-0.26c-5.08,0.25-14.47,0.54-19.82,0.22l1.04-0.09
							c-2.08-0.06-3.26,0.09-4.4,0.22c-0.57,0.07-1.13,0.13-1.79,0.15c-0.33,0.01-0.68,0.02-1.08,0.01c-0.2-0.01-0.4-0.01-0.62-0.02
							c-0.15-0.01-0.25-0.02-0.37-0.04c0.15-0.02,0.22-0.03,0.42-0.05c-0.28-0.01-0.56-0.01-0.85-0.02
							c0.01-0.79,0.01-1.58,0.02-2.38l0-3.26c0-2.17,0-4.32,0-6.41c0.01-4.18,0.06-8.1,0.27-11.33c-0.42-1.31,0.19-8.95-0.4-9.53
							c0.29-5.17,0.4-3.69,0.59-10.96c0.03-1.94-0.37-2.9-0.43-5.3l0.31-0.06l-0.32-3.26l0.37-1.74l-0.08-2.25
							c-0.02,0.9-0.14,1.91-0.23,1.77c-0.14-3.52,0.21-8.58,0.37-8.67L31.55,217c0.12,0.18,0.17,1.58,0.25,2.68
							c-0.31-4.44,0.32-0.81,0.04-4.88c-0.07,0.55-0.18-0.3-0.25-0.39c0.19-2.03,0.19-6.65,0.11-10.07l0.21,0.66
							c0.05-6.18-0.1-13.02-0.1-19.95c-0.1,2.49-0.47,1.91-0.5-0.12l0.33-0.81c-0.2-1.31-0.12,2.12-0.37-0.57
							c0.04-2.59,0.37-1.74,0.48-0.25l-0.11-3.15c0.1-0.18,0.15,0.55,0.27,0.75c-0.2-1.29,0.33-5.43-0.02-7.3l0.1-0.18
							c0-6.93-0.11-10.07-0.13-15.71c-0.28-0.11-0.22-2.32-0.45-4c0.09-4.15,0.31-8.75,0.29-13.75c-0.14-3.51-0.24-1.03-0.41-2.6
							c0.26-0.26,0.23-5.25,0.42-2.66c-0.04-6-0.05-7.66-0.26-15.25c-0.11,0.82-0.15,1.75-0.24,1.27c-0.04-1.38,0.11-3.13,0.23-2.93
							l0.03,0.36c-0.38-8.51,0.75-19.65,0.21-26.43l0.03,0.38l-0.28-7.03c0.04-3.23,0.19,1.94,0.35-0.45
							c-0.43-7.58,0.06-11.98-0.22-18.23c0.76-4.83-0.05-17.16,0.43-23.68l-0.18,0.38c-0.17-1.69,0.1-2.04,0.14-3.28
							c-0.14,0.18-0.16,1.83-0.26,0.78c-0.02-2.1-0.04-4.23-0.05-6.39c2.62,0.02,5.27,0.04,7.94,0.05c3.05,0.04,6.11,0.09,9.18,0.13
							c6.14,0.1,12.29,0.19,18.34,0.29c5.36,0.05,3.04-0.92,9.79-0.5l-1.92,0.33c10.81-0.4,22.11,0.01,32.69-0.32
							c-0.63,0.08-0.65,0.18-1.68,0.17c2.24,0.24,8.27,0.01,8.3-0.18c1.65,0.02,0.38,0.18,1.4,0.28c2.24,0.14,5.63-0.31,6.82-0.07
							c0.2,0.04-0.63,0.08-1.04,0.1c1.46-0.12,6.81,0.03,5.41-0.25c3.97,0.13,7.6-0.12,10.77,0.04c2.07-0.31,6.8,0.15,7.46-0.29
							c-0.28,0.45,6.96,0.36,9.48,0.15c-0.84,0.14,2.18,0.14,1.2,0.33c2.87-0.01,5.49-0.09,4.99-0.32
							c5.28,0.54,10.61-0.44,13.59,0.26c8.51-0.24,16.39-0.41,24.05-0.51c-0.28,0.45-8.47,0.04-8.14,0.52
							c7.27-0.19,11.46-0.57,18.66-0.46c1.87,0.06-1.06,0.2-1.69,0.27c7.26-0.19,14.04,0.04,20.49-0.2
							c-0.02,0.04-0.71,0.09-1.37,0.12c1.27-0.01,2.96,0.07,2.82-0.14l-1.24,0.06c-2.03-0.3,5.06-0.62,5.28-0.78
							c-2.16,0.59,6.38,0.15,2.95,0.89c0.84-0.04,1.89-0.14,1.7-0.27c1.24,0.04,1.64,0.12,0.38,0.28c4.56-0.11,2.94-0.33,7.07-0.32
							c-0.01,0.1-0.85,0.14-1.28,0.25c2.09-0.19,4.19-0.39,7.68-0.3c-0.21,0.06,0.2,0.14-0.85,0.14c1.03-0.02,2-0.03,2.95-0.05
							c0.43-0.02,0.85-0.03,1.27-0.04c0.26-0.02,0.51-0.03,0.76-0.05l0.05,0.7l0.01,0.19l0.01,0.32l0.03,0.65
							c0.03,0.86,0.06,1.74,0.09,2.64c0.04,1.8,0.05,3.71-0.01,5.87c-0.43-1.94-0.14,2.24-0.52,2.59l0.11,3.54l0.18-1.42
							c-0.01,3.1,0.27,5.84,0.14,8.5l-0.15-2.3l0.07,5.81l0.14-3.29c0.19,3.13,0.47-0.34,0.37,3.79c-0.04-0.84,0,3.1-0.22,4.71
							l0-0.01c0.12,1.53,0.24,3.11,0.15,5.4c-0.12,0.6-0.41-0.48-0.49-0.09c0.31,1.51,0.09,7.26,0.42,9.17
							c-0.08-0.64-0.27-0.67-0.31-0.46l0.25,1.27c-0.08,1.44-0.12,1.65-0.28,1.41c-0.05,4.32,0.47-1.37,0.27,3.75
							c-0.02-0.4-0.06-0.21-0.1-1.05c-0.11,5.15,0.16,9.94,0.04,14.67c-0.38,1.4-0.09-4.13-0.41-2.53
							c0.07,6.82,0.45,14.12,0.36,20.71l0.04-1.23c0.53,0.91-0.26,4.91-0.01,8.25c-0.04-0.82-0.29-1.07-0.24-0.85
							c-0.09,4.52,0.13,9.24,0.3,16.08l-0.14-0.85c-0.12,2.66-0.07,7.01-0.13,9.89c0.14,0.85,0.11,2.5,0.31,1.5
							c-0.78,8.87,0.42,16.92-0.23,24.79c0-0.94-0.12-2.24-0.12-1.49l0.13,6.7c0.23-0.53,0.14-0.88,0.32-2.29
							c0.14,0.85,0.24,2.74,0.24,4.4c-0.15-3.01-0.37,0.03-0.5,1.33c0.07-0.22,0.15,0.23,0.22,0.12c-0.41,3.5,0.46,0.59,0.19,5.37
							l-0.12-0.25c0.06,1.79,0.22,3.44,0.19,5.37c-0.27,0.8-0.12-1.9-0.34-2.03c0.02,2.71,0.51,5.35,0.24,7.8
							c-0.07-1.15-0.08-2.81-0.15-3.96c-0.31,2.67-0.23,2.98-0.28,4.96l0.01-0.2l-0.14,4.59l0.08-1.17c0.7,3.39,0.13,6.9,0.58,11.47
							c-0.43-4.44-0.25-0.73-0.55-1.07c-0.08,1.17-0.18,2.94-0.26,2.43c0.24,2.16-0.19,3.6,0.16,6.65c-0.1,0.14-0.01,2.31-0.25,1.82
							c0.08,2.81,0.17-0.66,0.29-0.43c0.33,4.33-0.4,10.17,0.05,16.39c0.19,5.37,0.52,6.36,0.68,11.34
							c-0.16,1.68-0.36-1.38-0.36-1.38c-0.14,2.71-0.12,4.75-0.01,7.31c-0.09-0.52-0.16,0.02-0.27,0.79
							c0.03,2.05,0.36,1.37,0.21,4.08c-0.11-0.46-0.28-1.06-0.39-2.05c0.12,2.42,0.24,4.8,0.36,7.3c-0.17,0.66-0.26-1.51-0.37-2.39
							c0.08,2.81,0.15,7.29,0.42,8.15l0.1-1.8c0.01,1.02-0.23,0.53-0.28-0.23c-0.21-2.41,0.09-3.48,0.19-3.61l0.06,1.78
							c0.57-1.83-0.09-7.16-0.06-10.74l0.42,1.49l-0.35-3.68c0.11-0.78,0.34-1.32,0.4,0.45c0.21-2.57-0.15-2.28,0.08-4.49
							c0.04-0.24,0.06-0.13,0.07,0.09l-0.12-2.51c0.09,0.49,0.29-0.42,0.23,1.13c0.24-4.51-0.31-7.27,0-8.97l0.03,0.38
							c-0.14-6.26-0.31-0.6-0.66-5.3l0.75-3.16l-0.31-0.62c0.01-0.65,0.03-1.92,0.16-1.69c-0.21-2.4-0.13,0.41-0.33-0.98
							c0.28-3.11-0.13-8.57,0.36-9.27c-0.23-1.11-0.18,2.97-0.34-0.35c0.52-0.95-0.09-3.83,0.15-6.67c0.27,0.87,0.13,3.56,0.37,0.72
							c-0.46-1.71,0.1-5.53,0.01-7.92c-0.36-0.11-0.15-5.21-0.27-9.22c0.12,0.25,0.2-7.56,0.33-11.3l0.06,0.11
							c-0.37-0.72-0.3-4.58-0.37-7.38c0.22,0.11,0.31,0.62,0.4,2.14l0-2.64c-0.12-0.62-0.18-1.45-0.22-3.16l0.27,0.66
							c-0.02-3.51-0.32-7.07-0.14-11.59c-0.26-0.25-0.71,3.59-0.88-1.18c0.14-0.18,0.38-0.35,0.43,0.9
							c-0.02-0.41-0.11-1.46-0.06-2.29l0.23,1.91c0.1-2.06-0.19-1.08-0.17-2.72c0.2,0.03,0.14-1.22,0.3-0.98
							c0.02,0.42-0.08,1.44,0,2.07c0.04-1.86,0.15-4.1,0.3-4.84c-0.11,0.16-0.27,0-0.29-1.36c-0.01-3.51,0.24-1.2,0.34-3.25
							c-0.14-0.85,0.01-3.09-0.29-3.15c0-1.03,0.14-1.22,0.22-1.61c-0.13-1.82-0.04-8.49-0.35-6.44l-0.02,0.47
							c0-0.09-0.01-0.19-0.01-0.3c0,0.01,0,0,0,0.01v-0.01c-0.29-5.96,0.17-12.37,0.04-18.29l0.1,0.01
							c-0.11-3.53-0.07-7.85-0.28-10.37c0-1.04,0.18-2.46,0.3-2.02c-0.07-2.7-0.19-3-0.02-6.9c0.17,2.71,0.15-0.94,0.13,2.78
							c0.09-3.5,0.24-4.3-0.03-8.06c0.25,1.28,0.32-2.64,0.24-4.3l-0.18,2.46c-0.04-1.87-0.01-3.51,0.01-5.17l0.33,0.9
							c0.4-7.17-0.69-12.93-0.01-18.39c-0.23-1.9-0.16,3.9-0.44,2.2c0.04-3.3,0.52-6.74,0.52-7.77c0.18-4.52-0.49-4.22-0.36-8.94
							c-0.12,0.6-0.44,1.18-0.55-2.36c0.04-3.3,0.5-4.06,0.59-1.97c0.01,0.79-0.03,1.17-0.07,1.14c0.04,1.07,0.09,2.47,0.22,1.16
							l-0.12-0.43c0.12-1.64,0.11-6.18,0.3-5.11c-0.11-2.49-0.19-1.07-0.26,0.78c0.17-4.23,0.01-6.62,0.12-10.97
							c-0.07,0.69-0.2,1.33-0.2,0.64c0.15-6.39-0.23-2.81-0.28-7.15c0.18-2.46,0.43,0.88,0.28-3.48c0.02-0.46,0.04-0.82,0.05-1.1
							c0.02-0.3,0.04-0.52,0.05-0.65c0.04-0.27,0.08-0.24,0.11,0.01c0.04,0.24,0.07,0.68,0.11,1.19c0.01,0.13,0.02,0.25,0.02,0.38
							l0.02,0.23c0.01,0.15,0.03,0.3,0.04,0.43l-0.03-0.59c-0.01-0.31-0.01-0.62-0.02-0.93c-0.01-0.65-0.01-1.29-0.02-1.91
							c-0.64,0-1.26,0-1.87,0c-0.48-0.01-0.96-0.02-1.42-0.02c-0.69-0.03-1.35-0.06-1.98-0.08c-1.25-0.06-2.34-0.14-3.25-0.15
							l2.09-0.1c-1.25,0.06-2.28,0.06-3.32,0.05l1.19,0.24c-1.23-0.04-2.27-0.04-2.25-0.14c-1.27,0.16,0.97,0.39-1.54,0.61
							c-1.64-0.12-4.99,0.13-5.55-0.19c5.15,0.11-0.57-0.32,3.79-0.37c-0.84,0.04-1.87,0.04-3.1-0.01
							c-0.18-0.04,0.17-0.07,0.51-0.08c-4.93-0.28-2.27,0.36-7.37,0.35c0.65-0.18-1.18-0.34-2.02-0.3c2.06,0,0.98,0.3-0.9,0.43
							c-3.28-0.14-3.56,0.1-5.28,0.09l1.96,0.07c-0.66,0.18-2.3,0.15-4.58,0.21c-0.2-0.14,2.07-0.1,1.26-0.16
							c-2.54,0.31-5.73-0.32-9.26-0.11c-1.64-0.12-0.16-0.33-1.6-0.41c-3.96,0.23-4.29-0.24-8.46-0.05c1.2,0.24,1.41,0.18-1.52,0.41
							l6.85-0.17l-4.39,0.35c2.07,0,4.36-0.15,5.6-0.11c-2.09,0.19-1.88,0.14-0.89,0.33c-2.83-0.36-5.61,0.21-8.87-0.03l0.1-0.59
							c-4.91-0.26-8.73,0.3-15.11,0.15l2.05,0.1c-0.86,0.23-3.94,0.03-6.01,0.13c0.19-0.2-1.1-0.27-1.98-0.39
							c0.11,0.15-4.67-0.01-5.25,0.38l-2.85-0.26c-5.15-0.11-5.88,0.56-10.83,0.5c1.49-0.21-0.76-0.35,2.56-0.51
							c-1.65,0-3.14-0.04-3.17,0.1c-0.97-0.12-4.58,0.27-6.11,0.08c-0.7,0.09-0.92,0.29-2.78,0.28c-0.2-0.04,0.01-0.1,0.01-0.1
							c-0.01,0.1-2.91,0.13-1.28,0.35c-5.09-0.62-14.24,0.04-18.67-0.48c-3.61,0.07-7.96,0.13-11.23,0.14
							c0.21-0.06,0.01-0.1,0.63-0.08c-4.52-0.18-2.78,0.57-7.92,0.36c-2.63-0.32,2.73-0.17,1.09-0.29
							c-0.71-0.65-6.21,0.09-9.67-0.29l0.84-0.04c-2.64-0.22-6.45,0.25-10.77,0.2c0,0,0.21-0.06,0.03-0.1
							c-2.96,0.33-8.55,0.44-12.71,0.53c1.29-0.25,1.89-0.13,1.1-0.39c-1.86,0.04,0.55,0.41-3.17,0.49
							c-1.21-0.14-3.89-0.26-4.25-0.54l3.51-0.01c-1.8-0.36-4.54,0.01-6.39-0.05l0.24-0.16c-5.38,0.05-5.45,0.44-11.23,0.42
							l0.6,0.12c-3.16,0.39-2.65-0.22-5.8,0.07l-0.95-0.39c-2.08,0.1-7.3,0.38-11.04,0.46c2.12-0.29,6.49-0.44,9.2-0.62
							c-2.07,0-7.02,0.03-8.1,0.22c0.83-0.04,1.88-0.13,2.7-0.07c-2.53,0.31-5.87,0.46-9.99,0.46c0.24-0.25-0.83-0.36-2.47-0.41
							c-0.82-0.01-1.79-0.03-2.81-0.05c-1.28-0.01-2.63-0.02-3.94-0.03c-0.01,0.83-0.02,1.64-0.03,2.41
							c-0.02,0.52-0.04,1.02-0.05,1.47c-0.05,0.92-0.11,1.69-0.22,2.2c0.28,7.28-0.12,14.45-0.08,22.93
							c0.6-3.01,0.02,2.48,0.63,1.96c0.04,1.98,0.03,2.73-0.01,2.91l-0.37,5.99c-0.18,1.42-0.13-1.88-0.27-1.7
							c-0.05,4.33-0.26,1.82-0.42,4.68c0.22-0.59,0.31,1.5,0.23,3.97l0.28-3.47c0.33,6.05-0.51,5.23-0.19,11.32L29,84.98
							c0.11,3.13,0,11.54,0.49,14.6c-0.07,0.55-0.24,1.28-0.28-0.09c-0.07,7.47,0.52,16.64,0.22,22.45l-0.15-0.57
							c0.04,1.39,0.28,2.43,0.13,4.17c-0.06-0.09-0.15-0.56-0.16,0.08c0.05,0.74,0.26,3.7,0.17,5.55l-0.17-1.58
							c-0.2,7.29,0.41,11.19,0.51,17.3c-0.44-0.02-0.58,5.72-0.65,8.58l-0.06-0.1c-0.05,8.49,0.36,14.42,0.54,22.28
							c-0.48,4.88-0.2,16.53-0.47,24.37c0.08-1.2,0.34,0.2,0.39,1.59c-0.09,1.84,0.31,5.09-0.1,4.8l0.01-0.66
							c-0.4,1.39-0.29,5.17-0.3,8.12l0.53,0.49c-0.77,7.72,0.28,20.24-0.41,24.46c0.13,1.86,0.13,4.17,0.26,6.02l-0.28-0.1
							c-0.07,5.17-0.11,7.74-0.04,14.13l-0.2-1.3c-0.02,3.6,0.82,4.55,0.83,7.87l-0.42,1c0.01,6.28-0.36,12.64,0.02,18.85
							c-0.06-0.1-0.18-0.29-0.2-1.3c-0.01,1.17-0.03,2.96-0.05,4.9c1.31,0.01,2.68,0.02,3.97,0.03c0.86,0,1.67,0,2.35-0.02
							c1.36-0.04,2.19-0.14,1.81-0.35c0.07,0.38,6.48,0.04,9.88-0.13l-0.53,0.28c2.86-0.36,2.96-0.45,6.95-0.55
							c0.95,0.04,0.83,0.22-0.43,0.15c3.16,0.15,2.46-0.26,6.29-0.12l-1.43,0.18c3.25,0.02,2.99-0.07,4.78-0.28
							c2.04-0.11,6.16,0.07,6.64,0.32c0.44-0.15,2.22-0.36,4.13-0.29c0.26,0.1-0.44,0.15-0.79,0.18c5.43,0.19,8.08-0.32,11.82-0.05
							c0.08,0.09,0.32,0.14,0.63,0.17c-4.32-0.01-7.79-0.02-7.47-0.04c0,0.26,3.49,0.3,0.71,0.66c2.8-0.19,7.58-0.61,10.98-0.49
							c0.16,0.02,0.33,0.05,0.45,0.09l-0.35,0.03c0.78,0.03,1.49,0,2.15-0.04c1.08,0.04,1.77,0.07,2.81,0.08
							c0.4,0.21,4,0.11,5.74,0.13c-0.14-0.28,2.13-0.24,0-0.47c0.28,0.02-0.33,0.03-1.48,0.05c-0.26,0.01-0.57,0.01-0.74,0.03
							c0.03-0.01,0.07-0.02,0.12-0.02c-1.14,0-2.63,0.01-4.32,0.02c1.37-0.14,2.81-0.26,4.73-0.11c0.89-0.18,1.87-0.37,2.43-0.45
							c2.38,0.39,6.96,0.6,7.6,0.85c5.31-0.16,12.5-0.1,15.84-0.63c1.51-0.07,1.74,0.15,2.3,0.23c-0.87,0.05-1.91,0.04-2.38,0.12
							c3.02-0.14,8.94-0.05,9.66-0.42c3.8,0.17-2.14,0.34,3.09,0.28l-0.71,0.11c10.28,0.59,16.71-0.94,28.11-0.18
							c-0.79-0.05-1.18-0.07-1.35-0.13c13,0.33,26.78-0.31,39.6,0.22c3.65,0.11,4.04-0.13,6.26-0.31l0.79,0.3l3.8-0.35
							c5.39-0.26,9.34,0.74,16.17,0.26l-0.88-0.2c2.45,0.04,7.77-0.12,7.36,0.11c0.25-0.04,0.8-0.21,1.76-0.11l0.07,0.16l6.02-0.27
							c4.67,0.11-0.73,0.63,6.08,0.66c2.53-0.06,7.21-0.46,6.26-0.57c-1.02-0.01-2.61-0.1-2.69-0.26l2.32-0.08
							c0.42-0.47,2.2-0.94-3.49-1.27l-3.96,0.28l-1.28-0.23l3.34-0.01c-1.89-0.21-3.09-0.02-4.43,0.1c-0.32-0.12-0.87-0.2-1.66-0.25
							l-3.89,0.44c-0.47-0.18,1.74-0.36-0.87-0.46c-1.82,0.21,1.75,0.41-1.27,0.54c-1.9-0.21-1.34-0.38-3.57-0.2
							c-0.31-0.12,0.16-0.2,1.04-0.25c-1.98,0.14-5.24,0.06-6.26,0.31c-1.98-0.26-6.69,0.07-6.49-0.37
							c-0.62,0.11-3.49,0.35-5.31,0.36c3.32-0.53-6.81-0.03-5.93-0.6c-2.46,0.47-8.89,0.21-13.24,0.47
							c0.24-0.04,0.72-0.11,1.11-0.09c-2.45-0.04-3.17-0.18-4.74-0.27c-0.31,0.39-4.13,0.48-6.19,0.72
							c-3.01-0.38,1.83-0.46,0.88-0.82c0.15,0.32-5.22,0.32-4.2,0.58c-2.3-0.23-1.98-0.11-3.17-0.44c-0.4,0.49-2.14,0.08-4.05,0.38
							c-3.33-0.24-0.86-0.46-4.51-0.31C172.23,288.14,175.48,287.97,175.48,287.97z M88.56,288.82L88.56,288.82
							c0.75-0.01,1.39-0.02,1.79-0.02C89.98,288.8,89.46,288.8,88.56,288.82z M81.25,288.82c0.89,0,2,0.01,3.17,0.01
							c0.26,0.1-0.02,0.2-0.76,0.19C84.06,288.96,82.34,288.9,81.25,288.82z M96.7,290.77c-1.16,0.04-1.54-0.02-1.7-0.07
							c0.55-0.01,1.18-0.02,2.02-0.03c0.03-0.01,0.1-0.03,0.14-0.03C97.05,290.68,96.92,290.73,96.7,290.77z"/>
						<path d="M98.78,290.4c0.17-0.01,0.26-0.01,0.48-0.02c-0.24-0.02-0.46-0.04-0.69-0.06c-0.14,0.03-0.28,0.06-0.41,0.09
							C98.37,290.4,98.59,290.4,98.78,290.4z"/>
						<path d="M256.99,144.3l0.01-0.15c-0.01,0.13-0.02,0.25-0.04,0.32C256.97,144.37,256.98,144.37,256.99,144.3z"/>
						<polygon points="31.77,239.46 31.7,239.47 31.76,240.11 						"/>
						<path d="M256.03,184.53c-0.02,0.08-0.05,0.23-0.07,0.53C255.98,185.04,256,184.81,256.03,184.53z"/>
						<path d="M255.97,201.91l-0.1,2.46C255.92,203.3,255.95,202.53,255.97,201.91z"/>
						<path d="M255.83,215.27c0.05,0.17,0.09,0.22,0.12,0.26c0-0.01,0-0.02,0-0.03L255.83,215.27z"/>
						<path d="M226.36,34.12c-0.18,0-0.36,0.01-0.52,0.01C224.63,34.19,225.46,34.17,226.36,34.12z"/>
						<path d="M256.15,66.05c-0.05-0.67-0.1-1.33-0.13-2.03C256,65.14,255.99,66.01,256.15,66.05z"/>
						<path d="M155.76,34.46C155.77,34.46,155.76,34.46,155.76,34.46c-0.14,0-0.28,0-0.43,0L155.76,34.46z"/>
						<path d="M256.03,61.07c-0.06,1.13-0.04,2.07,0,2.94C256.04,63.09,256.07,62,256.03,61.07z"/>
						<path d="M255.7,273.18l-0.01,0.64c0.02-0.01,0.03,0.03,0.05,0.08L255.7,273.18z"/>
						<path d="M255.73,273.9l0.03,0.71C255.77,274.29,255.76,274.01,255.73,273.9z"/>
						<path d="M255.84,276.12l-0.07-1.5C255.77,275.14,255.76,275.78,255.84,276.12z"/>
						<path d="M255.83,255.5l-0.1-0.2C255.75,255.4,255.78,255.47,255.83,255.5z"/>
						<path d="M255.8,250.12c-0.02,1.28-0.22,3.22-0.15,5.01l0.08,0.17C255.58,254.45,255.97,251.34,255.8,250.12z"/>
						<path d="M257.06,227.68l-0.08,4.5c0.11-0.79,0.25-1.82,0.28,0.23C257.58,226.74,257.02,233.59,257.06,227.68z"/>
						<path d="M257.22,213.72c0.05,2.42,0.16-0.03,0.22,0.1C257.34,212.28,257.31,211.91,257.22,213.72z"/>
						<path d="M257.22,112.79l0.26,0.24C257.44,111.17,257.38,113.01,257.22,112.79z"/>
						<polygon points="255.9,93.5 255.74,95.31 255.97,96.17 						"/>
						<polygon points="257.72,82.1 257.76,82.91 257.66,79.8 						"/>
						<path d="M136.12,31.99l0.56,0.32C137.95,32.25,138.21,31.9,136.12,31.99z"/>
						<path d="M62.94,32.31c-0.8-0.16-2.86-0.26-4.12-0.1C60.47,32.23,62.11,32.35,62.94,32.31z"/>
						<polygon points="29.25,220.05 29.14,218.58 29.23,221.36 						"/>
					</g>
				</g>
			</g>
		</g>
	</g>
</g>
<g id="github">
	<g id="_x31_kWURV.tif">
		<g>
			<path d="M148.37,59.88c4,0.55,8.03,0.97,12.01,1.66c19.97,3.5,36.74,13.01,50.53,27.69c13.87,14.77,22.1,32.35,24.18,52.53
				c3.19,30.91-6.9,57.05-29.29,78.47c-9.18,8.78-20.02,14.87-31.96,19.08c-1.91,0.67-4.02,1.17-5.54-0.35
				c-1.01-1.01-1.75-2.75-1.78-4.18c-0.17-8.18-0.03-16.37-0.1-24.56c-0.05-5.67-0.84-11.16-4.65-15.73
				c-0.36-0.43-0.72-0.84-1.08-1.27c-0.04-0.04-0.02-0.13-0.04-0.27c3.6-0.69,7.24-1.21,10.8-2.1c9.45-2.37,17.83-6.6,23.53-14.88
				c3.71-5.39,5.59-11.54,6.52-17.96c1.09-7.52,1.32-15.03-1.04-22.41c-1.36-4.24-3.46-8.08-6.41-11.42
				c-0.93-1.05-1.13-1.96-0.67-3.35c2.45-7.37,1.5-14.61-1.25-21.69c-0.19-0.48-1.02-1.07-1.49-1.02c-2.41,0.25-4.99,0.23-7.15,1.15
				c-5.18,2.21-10.19,4.83-15.2,7.42c-1.18,0.61-2.15,1-3.49,0.64c-8.38-2.22-16.93-3.09-25.55-2.45
				c-5.47,0.4-10.91,1.45-16.34,2.36c-1.59,0.27-2.84,0.22-4.26-0.73c-5.66-3.79-11.79-6.63-18.45-8.2
				c-0.07-0.02-0.13-0.05-0.2-0.07c-3.97-0.88-5.04-0.27-6.13,3.56c-1.88,6.58-2.37,13.16-0.04,19.77c0.2,0.57,0.03,1.55-0.36,1.99
				c-8.2,9.3-9.49,20.32-8.21,32.05c0.61,5.62,2.06,10.97,4.44,16.06c4.85,10.36,13.69,15.73,24.2,18.76
				c4.05,1.17,8.28,1.73,12.64,2.61c-3.15,3.27-4.88,7.13-5.54,11.51c-0.07,0.45-0.74,0.99-1.25,1.17
				c-10.29,3.75-19.2,2.64-25.25-7.49c-3.25-5.43-7.71-9.23-14.17-9.99c-1.41-0.17-2.94,0.69-4.41,1.08c0.78,1.17,1.3,2.78,2.4,3.44
				c6.12,3.68,9.25,9.44,11.9,15.74c2.44,5.79,7.41,8.54,13.32,9.68c5.6,1.08,11.24,1.24,17.15-0.19c0,3.29-0.01,6.35,0,9.4
				c0.01,2.52,0.07,5.04,0.04,7.56c-0.04,3.68-2.61,5.89-6.1,4.68c-4.8-1.65-9.63-3.43-14.06-5.86
				c-26.85-14.68-42.85-37.24-48.17-67.36c-0.41-2.33-0.65-4.68-0.97-7.02c0-4.76,0-9.52,0-14.27c0.49-3.3,0.89-6.62,1.5-9.89
				c2.9-15.62,9.37-29.63,19.57-41.8c14.22-16.97,32.15-27.85,54.04-31.85c4.04-0.74,8.14-1.13,12.2-1.69
				C141.94,59.88,145.15,59.88,148.37,59.88z"/>
		</g>
	</g>
	<g>
	</g>
	<g>
	</g>
	<g>
	</g>
	<g>
	</g>
	<g>
	</g>
	<g>
	</g>
</g>
</svg>
