<?xml version="1.0" encoding="utf-8"?>
<!-- Generator: Adobe Illustrator 24.1.0, SVG Export Plug-In . SVG Version: 6.00 Build 0)  -->
<svg version="1.1" id="Layer_1" xmlns="http://www.w3.org/2000/svg" xmlns:xlink="http://www.w3.org/1999/xlink" x="0px" y="0px"
	 viewBox="0 0 412.8 416.25" style="enable-background:new 0 0 412.8 416.25;" xml:space="preserve">
<style type="text/css">
	.st0{fill:#FFCD05;}
	.st1{fill:#231F20;}
	.st2{fill:#FFFFFF;}
</style>
<g id="Layer_1_1_">
	<g>
		<rect x="3.11" y="4" class="st0" width="405.15" height="409.62"/>
		<g>
			<path class="st1" d="M409.42,155.88c-0.02-0.32,0.01-0.64,0.07-0.95c0-0.59,0-1.15,0-1.75L409.42,155.88z"/>
			<path class="st1" d="M412.06,319.37v0.29c0.02-0.26,0.05-0.52,0.09-0.78C412.09,318.58,412.09,318.58,412.06,319.37z"/>
			<path class="st1" d="M411.41,278.2c0-0.72,0.06-1.43,0.09-2.07C411.47,276.16,411.44,277,411.41,278.2z"/>
			<path class="st1" d="M409.26,178.36c0-1.82,0.08-3.68,0.13-5.59C409.25,174.63,409.21,176.5,409.26,178.36z"/>
			<path class="st1" d="M411.29,283.75c0-1.47,0.08-3.81,0.12-5.55C411.35,279.89,411.31,281.75,411.29,283.75z"/>
			<path class="st1" d="M412.11,397c0-1.12,0.05-2.35,0.08-3.68c0-0.09,0-0.3-0.06-0.28L412.11,397z"/>
			<path class="st1" d="M398.71,410.62c-3.67,0-4.28,0.11-3.75,0.19S396.71,410.69,398.71,410.62z"/>
			<path class="st1" d="M308.86,410.61l1.92-0.06C310.14,410.53,309.5,410.55,308.86,410.61z"/>
			<path class="st1" d="M360.5,412c0.22,0.05,0.45,0.08,0.68,0.09C361.51,412.05,361.37,412,360.5,412z"/>
			<path class="st1" d="M0.43,141.92l-0.09,2.17C0.39,143.72,0.41,142.91,0.43,141.92z"/>
			<path class="st1" d="M0,23.57L0,23.57z"/>
			<path class="st1" d="M0,20.06L0,20.06z"/>
			<path class="st1" d="M411.61,400.77c0.15,2.87,0.21,10,0.41,10.16l0.09-13.95C412,401.93,411.74,404.47,411.61,400.77z"/>
			<path class="st1" d="M7.32,404.56c0-4.53,0-6.8-0.09-7.93c0,2.73,0.06,5.53,0.08,8.16L7.32,404.56z"/>
			<path class="st1" d="M5.53,300.87v0.4V300.87z"/>
			<path class="st1" d="M7.52,409.2h0.06l0,0l0,0H7.52z"/>
			<path class="st1" d="M408.64,132.66c0-0.64,0-1.17,0-2C408.62,131.55,408.63,132.15,408.64,132.66z"/>
			<path class="st1" d="M5.25,307.76l0.28-6.89l-0.15-3.1C5.16,296.5,5.18,304.43,5.25,307.76z"/>
			<path class="st1" d="M7.52,409.2c0,0-0.09,0-0.13-0.08c0-1.28,0-2.74-0.08-4.33l-0.15,3.75v0.85c-0.01,0.04-0.01,0.09,0,0.13
				c0.16,0,0.16-0.13,0.2-0.2C7.41,409.27,7.46,409.23,7.52,409.2z"/>
			<path class="st1" d="M406.56,411.45c-4.26-0.16,10.57-0.42,1.7-0.48l-8.77,0.36c1.45-0.17-3.53-0.37-4.53-0.52
				c-3.51,0.33,11.26,0.55,0.92,1c-2.4,0.2-10.25,0.16-14.22,0.11c8.86,0.07-0.23,0.31-3.78,0.43c-5.45-0.13-14.17-0.07-16.7-0.29
				c-0.83,0.08-5.05,0.13-7.95,0.09l-0.28-0.11c-6.51,0.1,2.21,0.11,0.55,0.22c-4.71,0-12.09-0.2-19.77-0.18
				c7.68,0,14.07-0.17,19.57-0.3c-14-0.19,2.47-0.57,5.59-0.86c-11.25,0.14-15.56,0.34-24.75,0.53c-11.19-0.23,0.87-0.82,3.69-0.85
				c-10.22,0.16-20.93,0.52-26.41,0.65c7.61-0.44,6.3-0.58,13.15-0.94c-4.6-0.18-9.2-0.11-13.79,0.23c2.29,0,5.82-0.07,6.65,0
				c-9.74,0-8.08,0.64-13.15,0.94c-7.21-0.18-20.93-0.27-20-0.67l0.09,0.43c-8.44,0.1-4.38-0.22-5.69-0.36
				c-3.15,0.29,0.78,0.71-13.45,0.82c2.18-0.68-12.69-0.06-12.3-0.68c-6.64,0-9.67,0.39-16.59,0.32
				c-7.66-0.35,10.48-0.85,14.61-0.74c9.6,0-1.27,0.28,2.58,0.28l9.19-0.19c-5.12-0.13-15.17-0.28-13.94-0.57
				c-9.35,0.13,7.52,0.3-2.73,0.46l-6.18-0.16c-10.22,0.17,2.15,0.48-11.19,0.57c8.93-0.31-14.47,0-13.67-0.46
				c-0.53,0.57-23.9,0.08-26.67,0.54l7.06,0.13l-1.57-0.25c7.68,0,14.07-0.17,22-0.08c-6.24,0.21,2.13,0.48-5.13,0.66
				c-13.64,0.35-3.64-0.3-5.56-0.3l-10.85,0.31l7.37,0.24c-8.45,0.1-20,0.13-31.66,0.1c-17.23-0.34,2.11-0.32-10.23-0.64
				c-5.52,0.13-4.18,0.27-12,0.23c4.23,0.16,7.54-0.07,10.48-0.05c3.79,0.36-14,0.17-13.24,0.51c-3.22-0.14-2.6-0.28-0.07-0.43
				c-13.19,0.14-25.88,0.09-30.83-0.36l-5.69,0.44c-22.58-0.15,15.44-0.4-3.56-0.67c-7.83,0-15.54,0-19,0.15h6.78
				c-5.19,0.23-4.79,0.4-13.09,0.56c-5.9,0-2.74-0.33-9.86-0.09c-18-0.25-5.52-0.67-2.65-1.07c-13.12-0.23,6.64-0.84-2.23-0.65
				l2.39,0.1l-13.61,0.58c12.77,0.48,5.06-0.45,10.12,0h7.6c-2.39,0.25-20,0.07-21.56,0.35c-0.15-0.14,1.74-0.48,9.66-0.5
				l-4.74-0.53c-4.58-0.06-7.61,0.3-10.12,0.06c-6.83-0.35,10-0.55-6.78-0.69c-17.94-0.12-16.84,0.55-29,0.46
				c1.25,0.12,4.28,0.11,8.08,0.12c-4,0.18,3,0.33-3.66,0.47c-0.89-0.08-2.28-0.15-4-0.19H7.83H7.36H6.69v-0.83v-11.93
				c0.19,2.57,0.39-3.73,0.5-0.65c0-5-0.11-9.57-0.27-11.69c-0.27,20-0.31-19.33-0.67-3.82c0-15.55,0.35-18.54,0.54-28.19
				c0.11,0.64,0.23,17.9,0.38,4.12c-0.38-15.85-0.53,2.83-1-9.49l-0.14,10c-0.46,1.25-0.12-17.26-0.22-19.82
				c0.12-6.15,0.13,8.57,0.45,2.56c0.1-9.18-0.19-13.8,0-19.66c0.32,5.71,0.19,2.07,0.47,8.57c0-21.55,0.37,1.1,0.57-15.35
				c-0.06-5.23-0.34-1.91-0.27-10.33c-0.34,4.92-0.45,4.3-0.46,17.91c-0.49-4.76,0.12-17.91-0.18-27.41c0,7.61-0.1,2.38,0,10.63
				c-0.41,1.11-0.48,4.16-0.86-3.35c0.11,8.85,0.55,12.68,0.43,25.35c-0.41,3.49-0.32-15.53-0.87-15.69
				c-0.27-6.3,0-21.63,0.16-28.62c-0.34-12.29-0.35-27.38-0.84-36.79c0.16-8.89-0.31-31.07-0.17-47.84
				c0.25-2.56,0.16-20.59,0.43-10.29c-0.08-1.46-0.13-15.37-0.35-11.73c0.08,1.43,0,3,0,6L4.07,179c0.13-8.09-0.26-17.14-0.08-24.89
				c0.24-2.53,0.16,14.57,0.44,9.35C4,156,3.79,125.59,4,115.92c0.06-6.49,0.43-7.26,0.48-10L4.42,95c0.12-1.28,0.27-1.44,0.42-3.47
				c0.09-5.38,0-9-0.11-12.37c0.24-14.25,0.55-6.64,0.8,0.66l-0.12,8c0.17,5.88,0.1,14.28,0.44,9.35c0.01-1.8-0.08-3.59-0.26-5.38
				l0.19-4.73c-0.15-4.76-0.23-17.91-0.49-16.5c0.19-9.64,0-20.73,0.17-29.28c-0.17,5.87-0.28-1.58-0.49,0.15L4.89,51.79
				C4.82,43.55,4.62,31.67,4.8,23.91c0.17,0.95,0.22,1.26,0.39-2.68C5,26.77,4.89,6.82,4.6,18.84c0.09,4.43,0.13,8.55,0.1,14.28
				c-0.36,3.76-0.41-5.26-0.61-10.32c0-4.3-0.14-11.5-0.22-18l7.7-0.1c5.38,0.08,7,0.49,16.16,0.25C16,4.56,38.81,4.33,41.84,4
				c8.88,0.16,14.41-0.3,21.53,0C59.74,4.13,46.1,4.12,42.62,4.39c-0.49,0.25,3,0.67-10.46,0.81c16.18,0.13,9.51-0.22,17-0.33h-5.54
				c2.52-0.1-2.24-0.3,2.68-0.3c19,0.09,22.33,0.36,35.17,0.69c-2.86-0.19,3-0.36,6-0.38c12.35,0.24-0.16,0.55,7.41,0.93
				c4.3-0.24,12.7-0.17,9.86-0.35c4.89,0,2.35,0.09,5.84,0.17c3.16-0.22,6.83-0.34,13.61-0.34c-0.61,0.12-1.56,0.28-8.06,0.22
				c7.29,0.1,10,0.48,6.8,0.7L111,6.06c-5.4,0.26,11.07,0.11,10.61,0.37c-5.23,0.06-9.18-0.1-12.52,0c3.34,0.27,13.61,0,19.64,0
				c9.5,0,6,0.31,6.17,0.46c16.16-0.44-18.68-0.5-3.63-0.91c5.7-0.32,20.11-0.27,30.25-0.34c-8.71-0.36,1-0.51,11.42-0.63
				c-13.62,0-3.49-0.42-19.49-0.18l-0.31-0.29l21.7,0.13c-0.68,0.13-1.38,0.19-2.07,0.2l20.29-0.13L191,4.88
				c12.5,0,27.87,0.25,35.33,0.14c-6,0-11.25-0.26-4.92-0.34c3.65-0.12,10.3-0.26,16-0.24c3,0.33,24.55,0.32,10.92,0.66
				c17.58-0.17,11.09-0.23,27.89-0.44L265,4.75c-1.42-0.26,7.93-0.71-2.85-0.87c12.67-0.17,4.59-0.64,21.56-0.7
				c6.88,0.16-2.06,0.53-11.58,0.6c4.79,0,9.16,0.17,14.11,0c3.63,0.21-9,0.38-8.55,0.47c8.72,0-0.17-0.14,8.06-0.22
				c14.42-0.3,9.19,0.45,23,0.26c-3,0-8.38-0.07-4.76-0.2c18.53,0,10.31-0.26,23.76-0.4c7.61,0.38,4.28,0.8,16.45,0.89h-6.8
				c4.75,0.2,10.13,0.28,15.05,0.27l28.18-0.47l27.79-0.51c0.07,5.34,0.15,10.9,0.23,16.72l-0.1-9.34c0.14-3.17,0.17,7.79,0.31,7.63
				l-0.17,5.84c0.28,1.6,0.27-13.14,0.53-9.65c0,0.79,0,2.7,0,3.81l0.08-5.4c-0.09,12.2,0.41,21.87,0,31.05
				c-0.05-23.77-0.81-3.64-0.95-26.92c0.11,12.33-0.3,2.19-0.42,3.46c-0.06,6.5,0.21,3.18,0.12,10.48
				c-0.2-0.17-0.38-15.86-0.53-8.89c0.31,0.8,0.25,7.28,0.46,10.44c-0.08,5.39-0.2-0.13-0.3,2.24c0,3,0.15,4.75,0.11,7.44l-0.19-2
				c-0.27,15,0.29,4.58,0.21,21.68c0.25,0.48,0.2-4.76,0.14-11.87c0.57-3.62,0.61,22,1.22,20.6c0.1,16.17-0.24-4.27-0.39,9.5
				c-0.38,7.59-0.41-10.14-0.68-13.64l-0.24,14.28c-0.49-4.77-0.33-13.64-0.78-16.17c0,10.61,0.1,9.35,0.27,20.13
				c0.38-17.43,0.31,7.59,0.79-2.38c-0.13,8.07-0.23,5.54-0.23,17.25c-0.11-7.43-0.4-0.29-0.41-10.13
				c0.11,15.83,0.08,11.55,0.18,27.38c0.35,4.93,0.45-16,0.71,3c0,4.12-0.13,3.31-0.13,0.9c-0.14,13.6,0.43-2.79,0.61,5.75
				c0,5.94-0.1,8.08-0.18,5.63c0.2,8.91,0.43,4,0.5,9.91l0.05-2.7c0.1,2.53,0.59-4.42,0.61,8.41c0,9.36-0.19,6.42-0.31,6.65
				c0.12,7.27,0,12.86-0.1,17.84c0.07-0.5,0.14,0.06,0.14,2.26c0.11,12.36-0.29,7.11-0.34,11.71c-0.18,17.61,0.64-2.19,0.66,17.44
				l0.11-22.81c0.16,0.95,0.42,1.44,0.42-3.47c-0.26-0.47-0.48-8.56-0.44-16.17c0.3-2.2,0.33,20.44,0.65,7.61c0,4.59,0,11,0,16.64
				c-0.31-5.71-0.06,18.22-0.41,8.38c0.08,24.88-0.14,28.52,0.09,51.33c-0.19-2.06-0.69-16.63-0.55-28.51l0.18-1
				c-0.21-14.88-0.2,11.59-0.5,8.89c0.48,18.36-0.23,40.69,0,63.17c0.16-3.95,0.25,0.5,0.42,1.46c0-9-0.11-7.46,0.1-14.1
				c0.22,1.26,0.14,6.66,0.3,9.51c0.24,2.36,0-6.81,0.13-10c0.13,8.58,0.16,7.77,0.37,12.85c-0.2,4.75-0.31,4.1-0.53,7.76
				c0,21.22,0.4,18.84,0.31,35.95c0.05-9.49-0.25,4.45-0.17-5.86v5.71c-0.35-14.74-0.34-40.08-0.93-37.56
				c0.05,12,0.39,20.77,0.4,35.48l-0.11-0.62c0,10.63,0.14-0.16,0.24,2.36c0.2,11.89-0.56,15.38-0.14,23.59l0.09-12.16
				c0.24,9.18,0-2.7,0.43-0.5c0.29,16.33,0.1,44.53,0.39,67.66c0.2-6.65,0.21-8.54,0.22-17.27c0.53,4,0.46,7.46,0.91,3.19V385.1
				l0.49-0.16c0,2.9,0,5.78-0.07,8.36c0.31,1.46-0.09,16.1,0.2,16.82v-9c0.25-4.43,0.23,6.2,0.31,12.54c0.32-6,0-19.65,0-32.48
				c-0.18,0.93-0.54-11.88-0.58,0.63c-0.2-0.16-0.3-7.62-0.31-12.54c0.1,2.57,0.54-9.64,0.68,1.93c-0.23-11.09,0-4.92-0.11-17.27
				c0.13,1.73,0-21.55,0.41-20.12c-0.18-3.93-0.62,0.2-0.65-14.12c-0.29,3.48-0.33,19.45-0.64,8.74l0.19,7
				c-0.13,10-0.3-2.72-0.42,10.3c0-3.82-0.15-11.58,0.06-13.31c-0.62,3.34-0.3-19.33-0.76-20c0.19-2.86,0.21-6.66,0.15-13.82
				c0.17,1,0.33-3,0.45,2.57c0,4.59,0,7.92-0.12,13c0.62-2.81,0.19-18.5,0.32-30.38c-0.05,1.66-0.11,2.13-0.19-1.15
				c0.09-7.26,0.2-23.27,0.49-18.68l-0.08-36.59c0.14-0.16,0.06,5.22,0.11,7.46v-20.47c0.2-4.77,0.2,6.95,0.39,9v-14.73l0.19,2.06
				c-0.12-3.63-0.18-20.6,0.13-24.71c-0.1-16.14-0.73-15.85-0.45-37.7c0.31,0.8,0.11,12.36,0.31,17.43
				c0.11-4.27-0.11-17.27,0.19-19.48c-0.18-15.68-0.74-14-1-21.55c0-12.82,0.26-1.42,0.35-1.92c0-3.79-0.56-10-0.14-13.44
				c-0.22-6.18-0.49-9.67-0.6-0.49c0-6.81-0.14-16.48-0.28-18.2c0.46,5.52,0.18-7.78,0.56-8.55c0.08-10.32,0.19-33.12-0.31-42.78
				l0.5,2.86l-0.05-12c0.3-9,0.32,10.62,0.35,16.64V1.92c0.04,1.62-0.02,3.24-0.16,4.86c-0.17,0.58-0.24,1.19-0.2,1.79
				c-0.06-2.29-0.09-4.89-0.1-7.55h-15.93c-1.27-0.11-0.63-0.22,3.44-0.26l-10.07,0.07c0.8-0.31-4.13-0.31,5.87-0.52l-9.35,0.1
				c-10.31-0.08,0.46-0.26,3-0.36L372.14,0c-5.85,0.17,3.32,0.27-7.92,0.36C349.18,0.09,330,0.19,312.89,0.11l12,0.29
				c-10.3-0.08-8.23,0.42-11.41,0.63C304,1,291.19,1,283.12,0.88c9.18-0.24,5.39-0.6-3.16-0.82c-19.32,0-14.58,0.51-25.35,0.68
				C263,0.12,241.13,0.53,243,0.2l-74.58,0.23c0.5,0.09,7.77,0.19,3.32,0.28c-9.32,0.1-13.76-0.15-15-0.28
				c-12.05,0.06-19,0.26-23,0.44c5.23-0.06,5.71,0,4.74,0.19c-12,0.06-8.7-0.36-20.11-0.07C115.36,0.66,131.06,0.83,130,0.5
				c-10.63,0-17.29,0.12-25,0.28c-1.85-0.21,7-0.05,1.17-0.22L57.54,1l-3.32-0.24C46.3,0.78,41.07,0.84,37.43,1
				c-4.28-0.14-0.94-0.21,3.17-0.25C30,0.73,17,1,11,1c1-0.17,6,0,7.78-0.16H11.1L0,0.92c0.05,5.58,0.1,11.06,0.14,16
				c0,4,0,7.53-0.12,10.28c0-1.13,0-2.43,0-3.62c0.07,19.7,0.14,36.87,0.22,58.27c-0.33,19.62,0.42,6.33,0.39,25.65
				c-0.75,0.13,0,26.28-0.18,34.43l0.11-2.59c0.29,9.51,0,22.66-0.18,29.31c0,14.4,0,36,0.27,50.36l-0.15-2.86
				c0.19,11.89,0,19.32,0.16,31.23c-0.06-0.32-0.15-4.77-0.2-0.16c-0.11,27.57,0,55.41,0,83.24c0.05,28.66,0.1,57.31,0.16,85.66h9
				c109.46,0.16,245.76,0.27,353.48-0.32C363.14,415.8,414.24,412.71,406.56,411.45z"/>
			<path class="st1" d="M408.21,121.28L408.21,121.28z"/>
			<path class="st1" d="M268.5,3.79L268.5,3.79z"/>
			<path class="st1" d="M49.12,4.83h4.59H49.12z"/>
			<path class="st1" d="M5.38,291c0.21-1.74,0.6,7.31,0.78-0.46c0-27.23-0.83-11.58-0.78-39.61l-0.24,14.24
				c0.38-0.76,0.58,9.21,0.62,20.13l-0.28,3.33c-0.06-1.87-0.13-3.86-0.2-5.94C5.24,286.78,5.46,286,5.38,291z"/>
			<path class="st1" d="M5.29,281.64v0.67V281.64z"/>
		</g>
	</g>
	<g>
		<rect x="20.52" y="17.52" class="st0" width="370.33" height="382.6"/>
		<g>
			<path class="st1" d="M392,161.93c-0.01-0.3,0.01-0.59,0.07-0.88c0-0.54,0-1.06,0-1.62L392,161.93z"/>
			<path class="st1" d="M394.65,313v0.26c0.01-0.24,0.04-0.48,0.08-0.72C394.69,312.29,394.69,312.29,394.65,313z"/>
			<path class="st1" d="M394,275c0-0.67,0.06-1.33,0.09-1.92C394.06,273.08,394,273.88,394,275z"/>
			<path class="st1" d="M391.85,182.71c0-1.69,0.09-3.4,0.13-5.17C391.84,179.26,391.8,180.99,391.85,182.71z"/>
			<path class="st1" d="M393.88,280.09c0-1.35,0.09-3.51,0.12-5.12C393.94,276.53,393.9,278.25,393.88,280.09z"/>
			<path class="st1" d="M394.7,384.73c0-1,0.05-2.17,0.08-3.4c0-0.08,0-0.28-0.06-0.26L394.7,384.73z"/>
			<path class="st1" d="M382,397.11c-3.38,0-3.95,0.1-3.46,0.19C379.16,397.24,380.18,397.18,382,397.11z"/>
			<path class="st1" d="M299,397.1l1.77-0.06C300.18,397.02,299.59,397.04,299,397.1z"/>
			<path class="st1" d="M346.72,398.46c0.21,0.06,0.42,0.09,0.63,0.1C347.65,398.53,347.52,398.5,346.72,398.46z"/>
			<path class="st1" d="M17.84,145l-0.09,2C17.8,146.63,17.82,145.88,17.84,145z"/>
			<path class="st1" d="M17.41,35.59L17.41,35.59z"/>
			<path class="st1" d="M17.41,32.35L17.41,32.35z"/>
			<path class="st1" d="M394.2,388.23c0.16,2.65,0.21,9.24,0.41,9.39l0.09-12.89C394.55,389.31,394.33,391.65,394.2,388.23z"/>
			<path class="st1" d="M24.73,387.67c0-4.18-0.05-6.29-0.09-7.33c0,2.52,0.06,5.11,0.08,7.54L24.73,387.67z"/>
			<path class="st1" d="M22.94,291.85v0.37V291.85z"/>
			<path class="st1" d="M24.93,395.15v0.37c0,0.09,0,0.08,0,0.08H25c0,0,0,0.06,0-0.07s0-0.37,0-0.46S25,395,24.93,395.15z"/>
			<path class="st1" d="M391.23,140.47c0-0.59,0-1.08,0-1.84C391.21,139.45,391.22,140,391.23,140.47z"/>
			<path class="st1" d="M22.65,298.22l0.29-6.37L22.79,289C22.56,287.81,22.58,295.14,22.65,298.22z"/>
			<path class="st1" d="M24.93,395.15c-0.11-1.67-0.17-4.22-0.21-7.27l-0.15,3.47c0,2.1,0,3.49,0,4.25c0,0.08,0.06,0.09,0.1,0.08
				l0.11-0.06c0,0,0,0,0.06,0L24.93,395.15z"/>
			<path class="st1" d="M389.28,397.94c-3.94-0.16,9.77-0.42,1.57-0.48l-8.1,0.35c1.34-0.16-3.27-0.36-4.19-0.51
				c-3.25,0.33,10.4,0.55,0.85,1c-2.22,0.21-9.47,0.17-13.14,0.12c8.19,0.06-0.21,0.31-3.5,0.43c-5-0.14-13.09-0.07-15.42-0.29
				c-0.77,0.08-4.68,0.12-7.35,0.09l-0.26-0.11c-6,0.1,2,0.11,0.51,0.22c-4.36,0-11.17-0.2-18.27-0.18c7.1,0,13-0.17,18.08-0.3
				c-12.94-0.2,2.28-0.57,5.17-0.86c-10.4,0.13-14.38,0.34-22.88,0.53c-10.33-0.23,0.81-0.82,3.42-0.86
				c-9.45,0.17-19.34,0.53-24.41,0.65c7-0.44,5.82-0.58,12.16-0.93c-4.25-0.19-8.51-0.11-12.75,0.23c2.12-0.05,5.38-0.07,6.15,0
				c-9,0-7.47,0.64-12.16,0.94c-6.66-0.19-19.34-0.27-18.49-0.67l0.09,0.43c-7.8,0.1-4.06-0.22-5.27-0.36
				c-2.91,0.29,0.73,0.71-12.43,0.82c2-0.68-11.72-0.06-11.35-0.68c-6.15,0-8.94,0.39-15.34,0.32c-7.07-0.36,9.68-0.85,13.5-0.74
				c8.88,0-1.17,0.28,2.39,0.28l8.49-0.19c-4.74-0.13-14-0.28-12.88-0.57c-8.64,0.13,6.95,0.3-2.52,0.46l-5.71-0.16
				c-9.45,0.17,2,0.48-10.34,0.56c8.24-0.3-13.38,0-12.64-0.45c-0.49,0.57-22.09,0.08-24.65,0.54l6.53,0.13l-1.45-0.26
				c7.1,0,13-0.17,20.34-0.07c-5.76,0.21,2,0.48-4.73,0.66c-12.6,0.34-3.36-0.3-5.14-0.3l-10,0.31l6.81,0.24
				c-7.81,0.1-18.47,0.13-29.25,0.09c-15.93-0.33,1.95-0.31-9.46-0.63c-5.1,0.13-3.86,0.27-11.09,0.23c3.9,0.16,7-0.08,9.68-0.05
				c3.5,0.36-13,0.17-12.24,0.51c-3-0.14-2.4-0.28-0.06-0.43c-12.19,0.14-23.91,0.09-28.49-0.36l-5.26,0.44
				c-20.86-0.15,14.27-0.4-3.29-0.67c-7.24,0-14.36,0-17.52,0.15h6.27c-4.8,0.24-4.43,0.41-12.1,0.57c-5.46,0-2.53-0.33-9.12-0.09
				c-16.62-0.25-5.1-0.67-2.44-1.07c-12.13-0.23,6.13-0.84-2.07-0.65l2.21,0.1L63.14,397c11.8,0.49,4.67-0.44,9.35,0h7
				c-2.21,0.24-18.45,0.07-19.92,0.35c-0.14-0.14,1.61-0.48,8.93-0.5l-4.38-0.54c-4.23,0-7,0.31-9.36,0.07
				c-6.31-0.35,9.22-0.55-6.26-0.69c-8.29-0.06-12.18,0.07-15.41,0.22c-1.61,0.07-3.05,0.14-4.8,0.18l-2.91,0.06h-0.83
				c0,0.06,0.18,0.08,0.39,0.1h4.21c-3.67,0.18,2.77,0.33-3.39,0.47h-0.43c-0.12,0.02-0.24,0.02-0.36,0l-0.29-0.06
				c-0.22-0.04-0.44-0.07-0.66-0.09c0-0.32,0.02-0.65,0.06-1c0-1.49,0-3.08,0-4.69c0-3.36,0-6.85,0-10c0.19,2.36,0.39-3.45,0.5-0.61
				c-0.05-4.6-0.11-8.84-0.27-10.8c-0.27,18.44-0.31-17.86-0.67-3.53c0-14.37,0.35-17.13,0.54-26.05c0.11,0.59,0.23,16.54,0.38,3.8
				c-0.38-14.64-0.53,2.62-1-8.77l-0.13,9.21c-0.47,1.16-0.12-15.95-0.22-18.32c0.12-5.68,0.13,7.92,0.45,2.37
				c0.1-8.49-0.19-12.76,0-18.17c0.31,5.28,0.19,1.91,0.47,7.92c0-19.91,0.37,1,0.57-14.19c-0.06-4.82-0.34-1.75-0.27-9.54
				c-0.34,4.55-0.45,4-0.46,16.55c-0.49-4.39,0.12-16.55-0.18-25.33c0,7-0.1,2.2,0,9.82c-0.42,1-0.48,3.85-0.86-3.09
				c0.11,8.18,0.55,11.72,0.43,23.43c-0.42,3.22-0.32-14.36-0.87-14.5c-0.27-5.82,0-20,0.16-26.45c-0.34-11.36-0.35-25.3-0.84-34
				c0.16-8.21-0.31-28.71-0.17-44.21c0.25-2.37,0.16-19,0.43-9.51c-0.08-1.34-0.13-14.2-0.35-10.84c0.08,1.32,0,2.78,0,5.55
				l-0.3-2.47c0.12-7.47-0.26-15.83-0.08-23c0.24-2.34,0.16,13.46,0.44,8.64c-0.45-6.89-0.64-35-0.45-43.92
				c0.06-6,0.43-6.71,0.47-9.22v-10.08c0.12-1.19,0.27-1.34,0.42-3.22c0.09-5,0-8.35-0.11-11.43c0.24-13.16,0.55-6.13,0.8,0.62
				L22.81,95c0.18,5.42,0.11,13.19,0.45,8.63c0.01-1.67-0.08-3.34-0.26-5l0.19-4.37C23,89.94,23,77.78,22.7,79.08
				c0.19-8.91,0-19.15,0.17-27.06c-0.17,5.43-0.28-1.46-0.49,0.15l-0.08,9.5c-0.07-7.61-0.27-18.59-0.09-25.76
				c0.17,0.88,0.22,1.17,0.39-2.47c-0.23,5.11-0.31-13.32-0.59-2.22c0.09,4.1,0.12,7.91,0.1,13.2c-0.37,3.47-0.41-4.86-0.61-9.54
				c-0.05-4-0.14-10.59-0.22-16.6l7-0.11c5,0.08,6.44,0.49,14.94,0.25c-10.83-0.35,10.24-0.58,13-0.94c8.2,0.16,13.31-0.3,19.89,0
				c-3.35,0.13-16,0.12-19.17,0.39c-0.45,0.26,2.78,0.68-9.67,0.81c15,0.13,8.79-0.22,15.68-0.32h-5.13c2.33-0.1-2.06-0.3,2.48-0.3
				c17.56,0.09,20.64,0.37,32.5,0.69c-2.64-0.19,2.77-0.36,5.57-0.37c11.41,0.23-0.15,0.54,6.85,0.92c4-0.24,11.73-0.17,9.1-0.35
				c4.52,0,2.18,0.1,5.41,0.17c2.92-0.21,6.3-0.34,12.57-0.33c-0.56,0.11-1.44,0.27-7.45,0.21c6.74,0.1,9.2,0.48,6.28,0.7l-11-0.15
				c-5,0.26,10.24,0.11,9.82,0.37c-4.84,0.06-8.49-0.1-11.57,0c3.08,0.27,12.57,0,18.14,0c8.78,0.05,5.56,0.32,5.7,0.46
				c14.94-0.44-17.26-0.49-3.35-0.91c5.27-0.31,18.59-0.27,27.95-0.34c-8-0.35,0.9-0.51,10.56-0.63c-12.59,0-3.22-0.42-18-0.18
				L159.2,18l20.05,0.14c-0.63,0.12-1.28,0.18-1.92,0.19l18.76-0.13l-1.91,0.19c11.56,0,25.76,0.25,32.65,0.14
				c-5.57,0-10.39-0.25-4.55-0.34c3.38-0.12,9.53-0.26,14.79-0.23c2.78,0.33,22.69,0.32,10.1,0.65c16.24-0.17,10.24-0.23,25.77-0.43
				l-10.4,0.08c-1.31-0.26,7.33-0.7-2.63-0.87c11.71-0.17,4.24-0.64,19.92-0.7c6.36,0.16-1.9,0.54-10.7,0.6c4.43,0,8.46,0.17,13,0
				c3.35,0.22-8.35,0.38-7.9,0.47c8.05,0-0.16-0.14,7.45-0.22c13.32-0.3,8.49,0.45,21.23,0.26c-2.79,0-7.75-0.07-4.4-0.2
				c17.13,0,9.53-0.26,22-0.4c7,0.39,3.95,0.8,15.2,0.89h-6.27c4.38,0.2,9.36,0.28,13.9,0.28l24.09-0.44l23.5-0.47
				c0.1,6.21,0.21,12.64,0.31,19.45l-0.09-8.63c0.13-2.93,0.16,7.2,0.3,7.05l-0.17,5.4c0.28,1.47,0.27-12.14,0.54-8.92
				c0,0.73-0.05,2.5,0,3.52l0.08-5c-0.09,11.28,0.41,20.21,0,28.7c0-22-0.81-3.37-0.95-24.88c0.11,11.39-0.3,2-0.42,3.19
				c-0.06,6,0.21,3,0.12,9.69c-0.2-0.16-0.38-14.66-0.53-8.21c0.31,0.73,0.25,6.72,0.46,9.64c-0.08,5-0.2-0.12-0.29,2.07
				c0,2.77,0.14,4.39,0.1,6.87l-0.19-1.88c-0.27,13.88,0.29,4.23,0.21,20c0.26,0.45,0.2-4.39,0.15-11c0.56-3.34,0.6,20.35,1.21,19
				c0.1,14.93-0.23-4-0.39,8.77c-0.38,7-0.41-9.36-0.68-12.6L390.4,93c-0.49-4.41-0.33-12.61-0.78-15c0,9.81,0.1,8.64,0.28,18.6
				c0.37-16.1,0.3,7,0.78-2.19c-0.12,7.45-0.23,5.11-0.23,15.94c-0.1-6.87-0.4-0.28-0.41-9.37c0.11,14.63,0.08,10.68,0.18,25.31
				c0.35,4.56,0.46-14.78,0.71,2.81c0,3.8-0.13,3.06-0.13,0.83c-0.14,12.56,0.43-2.58,0.61,5.31c0,5.49-0.09,7.47-0.18,5.2
				c0.2,8.24,0.43,3.68,0.51,9.16v-2.5c0.1,2.34,0.59-4.08,0.62,7.77c0,8.66-0.2,5.94-0.32,6.15c0.12,6.72,0,11.88-0.1,16.49
				c0.07-0.46,0.14,0.05,0.14,2.09c0.11,11.42-0.29,6.57-0.34,10.82c-0.17,16.27,0.64-2,0.66,16.12l0.11-21.08
				c0.17,0.88,0.42,1.33,0.42-3.21c-0.26-0.43-0.48-7.91-0.44-14.95c0.3-2,0.33,18.9,0.65,7c-0.05,4.24,0,10.12,0,15.37
				c-0.32-5.27-0.06,16.84-0.42,7.75c0.08,23-0.14,26.35,0.1,47.43c-0.2-1.9-0.7-15.36-0.55-26.34l0.17-0.9
				c-0.21-13.75-0.2,10.71-0.5,8.22c0.48,17-0.23,37.6-0.05,58.37c0.16-3.65,0.26,0.47,0.42,1.35c0-8.35-0.11-6.89,0.1-13
				c0.22,1.17,0.14,6.15,0.3,8.79c0.24,2.19,0-6.3,0.13-9.24c0.13,7.92,0.17,7.18,0.37,11.88c-0.2,4.38-0.31,3.79-0.53,7.16
				c0,19.61,0.4,17.42,0.31,33.23c0-8.77-0.25,4.11-0.17-5.42v5.28c-0.36-13.62-0.35-37-0.94-34.71c0.06,11.13,0.39,19.19,0.4,32.79
				l-0.11-0.58c0,9.82,0.14-0.15,0.25,2.18c0.2,11-0.57,14.21-0.15,21.81l0.09-11.25c0.24,8.49,0-2.49,0.43-0.45
				c0.3,15.08,0.1,41.15,0.39,62.51c0.2-6.14,0.21-7.89,0.23-15.95c0.52,3.65,0.45,6.89,0.9,2.95v-9.82l0.49-0.14
				c0,2.68,0,5.34-0.07,7.72c0.31,1.35-0.09,14.88,0.2,15.55v-8.35c0.25-4.09,0.23,5.73,0.31,11.58c0.32-5.56,0-18.15,0-30
				c-0.18,0.85-0.54-11-0.58,0.57c-0.19-0.14-0.3-7-0.31-11.58c0.11,2.37,0.54-8.91,0.68,1.78c-0.23-10.25,0-4.55-0.11-16
				c0.13,1.6,0-19.92,0.41-18.59c-0.18-3.63-0.62,0.19-0.64-13.05c-0.3,3.21-0.34,18-0.65,8.07l0.19,6.44
				c-0.13,9.22-0.3-2.52-0.42,9.52c0-3.54-0.14-10.71,0.07-12.31c-0.62,3.09-0.31-17.85-0.77-18.44c0.19-2.64,0.21-6.15,0.16-12.77
				c0.16,0.91,0.33-2.75,0.44,2.38c-0.05,4.24,0,7.32-0.12,12c0.62-2.6,0.19-17.1,0.32-28.08c-0.05,1.54-0.1,2-0.19-1.06
				c0.09-6.71,0.2-21.5,0.49-17.26L394.1,228c0.15-0.15,0.06,4.82,0.11,6.89V216c0.2-4.4,0.2,6.42,0.39,8.33v-13.62l0.19,1.91
				c-0.12-3.35-0.18-19,0.13-22.83c-0.1-14.92-0.73-14.65-0.45-34.84c0.31,0.74,0.11,11.42,0.32,16.1c0.1-3.94-0.12-16,0.18-18
				c-0.18-14.49-0.74-12.9-1-19.92c0-11.85,0.26-1.31,0.35-1.78c0-3.5-0.55-9.22-0.13-12.42c-0.23-5.71-0.5-8.93-0.6-0.45
				c0-6.29-0.15-15.22-0.29-16.82c0.46,5.1,0.18-7.19,0.56-7.9c0.08-9.53,0.19-30.61-0.31-39.53l0.51,2.64L394,45.72
				c0.3-8.32,0.32,9.81,0.35,15.37V22.3c-0.1,4-0.21,1.61-0.36,3.5c0-0.61,0-1.25-0.06-1.91s0-1.43,0-2.18c0-2.32,0-4.75,0-7.17
				h-10.75c-1.15-0.12-0.62-0.23,3.27-0.27l-9.4,0.07c0.74-0.31-3.81-0.31,5.43-0.52l-8.64,0.1c-9.53-0.08,0.42-0.25,2.77-0.36
				l-15.07-0.05c-5.41,0.17,3.07,0.28-7.32,0.36c-13.9-0.27-31.63-0.16-47.43-0.25l11.13,0.29c-9.53-0.08-7.62,0.42-10.55,0.63
				c-8.79,0-20.64,0-28.09-0.15c8.48-0.24,5-0.6-2.93-0.81c-17.85,0-13.47,0.5-23.42,0.67c7.75-0.61-12.45-0.2-10.7-0.54L173.28,14
				c0.46,0.09,7.18,0.18,3.07,0.27c-8.61,0.1-12.71-0.15-13.89-0.27c-11.13,0.05-17.55,0.25-21.23,0.43c4.84-0.06,5.28,0,4.38,0.19
				c-11.11,0.06-8-0.35-18.58-0.07c-2.78-0.33,11.72-0.16,10.7-0.48c-9.82,0-16,0.11-23.14,0.28c-1.62-0.21,6.58-0.06,1.16-0.23
				L70.82,14.6l-3.07-0.27c-7.32,0-12.15,0.07-15.51,0.2c-4-0.11-0.87-0.18,2.93-0.21c-9.81,0-21.82,0.2-27.39,0.22
				c0.89-0.16,5.57,0,7.19-0.16h-7.1l-10.43,0.08c0,5.24,0.1,10.38,0.14,15c0,3.68,0,7-0.12,9.49c0-1-0.05-2.24-0.05-3.35
				c0.07,18.21,0.14,34.08,0.21,53.86c-0.32,18.13,0.43,5.84,0.4,23.7c-0.75,0.12-0.05,24.29-0.18,31.81l0.1-2.39
				c0.3,8.79,0,20.94-0.17,27.09c0,13.3,0,33.22,0.27,46.53l-0.16-2.64c0.2,11,0,17.85,0.17,28.86c-0.06-0.3-0.15-4.41-0.2-0.15
				c-0.11,26.16-0.05,52.58,0,79c0.04,13.2,0.08,26.38,0.12,39.55c0,14,0,27.94,0,41.81h3.08l165.32,0.12
				c56.58,0,113-0.15,162.73-0.44C349.16,402.29,396.38,399.19,389.28,397.94z"/>
			<path class="st1" d="M390.8,130c0-0.47,0-0.89,0-1.43C390.81,129.07,390.8,129.52,390.8,130z"/>
			<path class="st1" d="M265.77,17.3L265.77,17.3z"/>
			<path class="st1" d="M63,18.35h4.24H63z"/>
			<path class="st1" d="M22.79,282.7c0.21-1.61,0.6,6.75,0.78-0.42c0-25.16-0.83-10.71-0.78-36.61l-0.24,13.16
				c0.37-0.7,0.58,8.51,0.62,18.6l-0.28,3.08l-0.2-5.49C22.65,278.83,22.87,278.11,22.79,282.7z"/>
			<path class="st1" d="M22.7,274.08v0.62V274.08z"/>
		</g>
	</g>
	<g>
		<rect x="41.1" y="40.98" class="st2" width="329.18" height="335.66"/>
		<g>
			<path class="st1" d="M372.6,166.33c0-0.59,0.08-0.74,0.14-0.78c0-0.48,0-0.94-0.05-1.43L372.6,166.33z"/>
			<path class="st1" d="M377.88,299.74V300c0.02-0.22,0.08-0.43,0.17-0.63C378,299.09,378,299.09,377.88,299.74z"/>
			<path class="st1" d="M376.58,266.14c0.05-0.59,0.11-1.17,0.18-1.69C376.63,265,376.57,265.57,376.58,266.14z"/>
			<path class="st1" d="M372.27,184.67c0.09-1.49,0.18-3,0.27-4.56C372.26,181.61,372.17,183.14,372.27,184.67z"/>
			<path class="st1" d="M376.34,270.66c0.09-1.19,0.16-3.1,0.24-4.52C376.46,267.52,376.38,269,376.34,270.66z"/>
			<path class="st1" d="M378,363.06c0.06-0.91,0.12-1.91,0.17-3c0-0.07-0.07-0.25-0.12-0.23L378,363.06z"/>
			<path class="st1" d="M362.48,370.63c-3,0.08-3.49,0.21-3.05,0.38C360.44,370.82,361.46,370.69,362.48,370.63z"/>
			<path class="st1" d="M289.17,370.61c0.55,0,1.09-0.07,1.57-0.12C289.61,370.54,288.85,370.59,289.17,370.61z"/>
			<path class="st1" d="M331.31,373.34c0.16,0.11,0.35,0.18,0.55,0.2C332.13,373.49,332,373.42,331.31,373.34z"/>
			<path class="st1" d="M35.73,153.52l-0.18,1.77C35.66,154.71,35.72,154.11,35.73,153.52z"/>
			<path class="st1" d="M34.87,57L34.87,57z"/>
			<path class="st1" d="M34.87,54.08v2C34.88,55.22,34.89,54.46,34.87,54.08z"/>
			<path class="st1" d="M377,366.15c0.32,2.35,0.42,8.16,0.82,8.29l0.18-11.38C377.68,367.11,377.24,369.17,377,366.15z"/>
			<path class="st1" d="M49.51,367.62c0-1.75,0-3.07-0.07-4.06s-0.06-1.74-0.1-2.2l0.07,3.36v1.67v0.82v0.4l0,0L49.51,367.62z"/>
			<path class="st1" d="M45.93,283.22v0.33v-0.52V283.22z"/>
			<path class="st1" d="M49.91,367.78c0.07-0.04,0.14-0.09,0.2-0.15C50.04,367.67,49.97,367.72,49.91,367.78z"/>
			<path class="st1" d="M371,147.38l-0.08-1.62C371,146.48,371,147,371,147.38z"/>
			<path class="st1" d="M45.36,288.85l0.57-5.63l-0.3-2.52C45.18,279.66,45.22,286.13,45.36,288.85z"/>
			<path class="st1" d="M49.91,367.78c-0.21,0.12-0.33,0-0.41-0.14c-0.12,0.09-0.23,0.2-0.31,0.33
				C49.22,368.75,49.65,367.93,49.91,367.78z"/>
			<path class="st1" d="M368.89,372.3c-3.48-0.32,8.63-0.84,1.39-1l-7.16,0.72c1.19-0.34-2.88-0.74-3.69-1
				c-2.87,0.67,9.18,1.1,0.74,2c-2,0.4-8.36,0.32-11.6,0.23c7.23,0.13-0.18,0.62-3.08,0.86c-4.45-0.28-11.57-0.14-13.63-0.58
				c-2.16,0.2-4.33,0.26-6.49,0.17l-0.22-0.22c-5.32,0.2,1.8,0.22,0.44,0.45c-3.84,0.08-9.86-0.4-16.13-0.37
				c6.27,0,11.49-0.34,16-0.59c-11.43-0.4,2-1.14,4.57-1.73c-9.19,0.28-12.7,0.69-20.21,1.07c-9.12-0.46,0.72-1.65,3-1.72
				c-8.34,0.33-17.08,1.06-21.56,1.31c6.21-0.88,5.14-1.16,10.74-1.87c-6.69-0.51-8.05,0.11-11.25,0.45c1.8-0.13,3.62-0.13,5.42,0
				c-8-0.07-6.59,1.28-10.73,1.87c-5.88-0.36-17.08-0.53-16.33-1.33l0.08,0.85c-6.89,0.2-3.58-0.44-4.65-0.71
				c-2.57,0.58,0.64,1.41-11,1.64c1.78-1.37-10.36-0.12-10-1.37c-5.42,0.09-7.89,0.78-13.54,0.64c-6.24-0.7,8.55-1.69,11.92-1.48
				c7.84,0-1,0.57,2.11,0.56l7.5-0.38c-4.18-0.26-12.38-0.56-11.37-1.13c-7.63,0.26,6.13,0.59-2.23,0.92l-5-0.32
				c-8.35,0.33,1.75,1-9.13,1.13c7.28-0.61-11.81,0-11.16-0.91c-0.43,1.14-19.5,0.16-21.77,1.08l5.77,0.25l-1.29-0.5
				c6.28,0,11.49-0.34,18-0.15c-5.09,0.42,1.75,0.95-4.18,1.32c-11.13,0.69-3-0.61-4.54-0.6l-8.85,0.62l6,0.47
				c-6.9,0.21-16.31,0.26-25.83,0.2c-14.07-0.67,1.72-0.64-8.35-1.27c-4.5,0.25-3.41,0.53-9.8,0.45c3.45,0.33,6.15-0.14,8.55-0.1
				c3.09,0.72-11.46,0.34-10.8,1c-2.63-0.27-2.13-0.56-0.06-0.85c-10.76,0.28-21.11,0.17-25.15-0.72l-4.65,0.88
				c-18.42-0.31,12.6-0.81-2.9-1.35c-5.16-0.16-10.33-0.06-15.48,0.31h5.54c-4.23,0.48-3.91,0.82-10.68,1.14
				c-4.82-0.09-2.24-0.67-8-0.19c-14.68-0.49-4.51-1.34-2.16-2.14c-10.71-0.46,5.41-1.67-1.82-1.3l2,0.2l-11.29,1.24
				c10.43,1,4.13-0.9,8.26,0.07l6.2,0.07c-2,0.49-16.29,0.15-17.59,0.71c-0.12-0.29,1.42-1,7.88-1l-3.87-1.07
				c-3.73-0.11-6.2,0.61-8.26,0.12c-5.57-0.69,8.14-1.1-5.53-1.38c-4.54-0.14-9.08,0-13.6,0.44c-1.42,0.14-2.7,0.28-4.24,0.38
				c-0.27,0.1-0.56,0.14-0.84,0.1c0,0.12,0.11,0.17,0.28,0.2c0.1,0.01,0.21,0.01,0.31,0c0.18,0,0,0,1,0
				c-0.27,0.02-0.53,0.06-0.79,0.13c-0.01,0.04-0.01,0.09,0,0.13c-0.01,0.04-0.01,0.08,0,0.12c0,0,0,0.08,0.14,0.12
				s0.27,0.15,0,0.23c-0.05,0-0.1,0.02-0.14,0.05c-0.02,0.05-0.06,0.1-0.11,0.13c-0.14,0.05-0.28,0.08-0.43,0.11
				c-0.37-0.32-0.83-0.51-1.31-0.56c0.07-0.51,0.1-1.03,0.11-1.55c0-2.06,0-4.15,0-6.07c0.4,2.09,0.79-3,1-0.54
				c0-3.19-0.18-6.37-0.55-9.54c-0.54,16.29-0.61-15.77-1.34-3.11c0-12.69,0.7-15.13,1.08-23c0.22,0.52,0.45,14.6,0.76,3.35
				c-0.76-12.93-1.06,2.32-2-7.74l-0.27,8.13c-0.93,1-0.23-14.09-0.44-16.18c0.24-5,0.26,7,0.9,2.09c0.2-7.49-0.39-11.26,0-16
				c0.63,4.66,0.38,1.69,1,7c0-17.57,0.73,0.9,1.12-12.52c-0.12-4.27-0.67-1.55-0.53-8.42c-0.67,4-0.9,3.5-0.92,14.61
				c-1-3.89,0.24-14.61-0.36-22.37c-0.07,6.21-0.2,1.94,0,8.67c-0.82,0.91-1,3.4-1.72-2.73c0.23,7.22,1.11,10.35,0.88,20.69
				c-0.84,2.84-0.65-12.68-1.74-12.8c-0.55-5.15-0.09-17.66,0.31-23.36c-0.68-10-0.7-22.34-1.68-30c0.32-7.25-0.61-25.36-0.33-39
				c0.48-2.09,0.31-16.8,0.85-8.39c-0.16-1.19-0.26-12.55-0.69-9.58c0.15,1.17,0,2.45,0,4.9l-0.6-2.18c0.25-6.6-0.52-14-0.16-20.31
				c0.48-2.07,0.32,11.89,0.88,7.63c-0.9-6.08-1.29-30.89-0.91-38.78c0.12-5.3,0.88-5.93,1-8.14l-0.06-8.91
				c0.33-0.93,0.61-1.87,0.83-2.83c0.1-3.37,0.03-6.74-0.22-10.1c0.48-11.62,1.1-5.41,1.6,0.54l-0.25,6.57
				c0.34,4.79,0.2,11.65,0.88,7.62c0.02-1.48-0.15-2.96-0.52-4.39l0.39-3.86c-0.3-3.88-0.45-14.61-1-13.46
				c0.38-7.87-0.09-16.91,0.34-23.9c-0.34,4.8-0.56-1.29-1,0.13L44.66,80c-0.15-6.71-0.55-16.41-0.19-22.75
				c0.34,0.78,0.45,1,0.77-2.18c-0.22,2.26-0.38-0.68-0.54-3c0.01-0.72-0.09-1.44-0.27-2.14c-0.11-0.17-0.22,0.71-0.37,3.15
				c0.19,3.61,0.26,7,0.21,11.65c-0.73,3.07-0.81-4.29-1.22-8.42L42.62,42.5l5.68-0.21c0.48,0,0.91,0.05,1.31,0.09l1.24,0.12
				l2.57,0.28c2.58,0.21,5.18,0.21,7.76,0c-9.56-0.69,9-1.15,11.52-1.87c7.24,0.32,11.75-0.6,17.56,0c-3,0.25-14.09,0.23-16.93,0.77
				c-0.4,0.51,2.46,1.35-8.53,1.62c13.2,0.26,7.76-0.44,13.84-0.65l-4.53,0.07c2.06-0.2-1.82-0.59,2.19-0.6
				c15.5,0.19,18.23,0.73,28.7,1.38c-2.34-0.37,2.45-0.72,4.91-0.75c10.08,0.47-0.13,1.09,6,1.85c3.51-0.47,10.36-0.33,8-0.7
				c4,0,1.92,0.19,4.77,0.34c3.68-0.54,7.39-0.77,11.11-0.67c-0.5,0.23-1.28,0.56-6.58,0.44c5.95,0.19,8.12,1,5.55,1.39l-9.69-0.29
				c-4.4,0.52,9,0.22,8.66,0.73c-4.27,0.12-7.49-0.2-10.21-0.06c2.72,0.55,11.1,0,16,0c7.76,0.09,4.91,0.63,5,0.92
				c13.19-0.87-15.24-1-3-1.81c4.65-0.64,16.42-0.55,24.69-0.68c-7.11-0.72,0.79-1,9.32-1.27c-11.12,0-2.85-0.83-15.9-0.36
				L163.37,42c5.56,0,12.14,0.26,17.7,0.28c-1.15,0.15,0.14,0.28-1.69,0.38l16.56-0.26l-1.68,0.38c10.21,0.06,22.75,0.5,28.83,0.29
				c-4.92,0-9.17-0.51-4-0.68c3-0.25,8.41-0.53,13.06-0.48c2.45,0.66,20,0.65,8.92,1.31c14.34-0.34,9-0.46,22.75-0.87l-9.18,0.18
				c-1.15-0.53,6.47-1.42-2.32-1.75c10.34-0.34,3.74-1.28,17.59-1.39c5.61,0.32-1.68,1.07-9.45,1.2c3.83,0.2,7.68,0.2,11.51,0
				c3,0.43-7.37,0.77-7,0.94c7.12,0-0.13-0.28,6.58-0.43c11.77-0.61,7.5,0.89,18.75,0.51c-2.46,0-6.84-0.14-3.88-0.39
				c15.12,0,8.41-0.53,19.39-0.8c6.21,0.76,3.49,1.59,13.42,1.77h-5.54c4.08,0.39,8.18,0.57,12.28,0.54
				c7.82-0.25,15.12-0.57,22.33-0.91l10.81-0.51l11.24-0.49c0.1,2.45,0.19,4.93,0.29,7.47s0.16,5.08,0.24,7.72l-0.19-7.74
				c0.13-1.43,0.21,0.3,0.29,2.31c-0.01,1.34,0.1,2.68,0.32,4l-0.34,4.77c0.55,1.3,0.53-10.72,1.07-7.88
				c-0.06,1.04-0.06,2.07,0,3.11l0.16-4.41c-0.17,10,0.82,17.85-0.07,25.34c-0.11-19.39-1.63-3-1.91-22
				c0.22,10.07-0.6,1.79-0.84,2.83c-0.12,5.3,0.43,2.6,0.24,8.55c-0.4-0.14-0.76-12.94-1.06-7.25c0.62,0.64,0.5,5.94,0.93,8.52
				c-0.17,4.39-0.4-0.12-0.6,1.82c0,2.44,0.3,3.88,0.22,6.07l-0.38-1.67c-0.55,12.27,0.58,3.74,0.42,17.69
				c0.51,0.39,0.39-3.88,0.28-9.69c1.13-2.95,1.22,18,2.44,16.82c0.19,13.19-0.47-3.49-0.78,7.75c-0.76,6.19-0.82-8.28-1.36-11.13
				l-0.48,11.65c-1-3.89-0.67-11.13-1.57-13.2c0,8.66,0.2,7.63,0.55,16.43c0.75-14.22,0.62,6.19,1.57-1.94
				c-0.25,6.58-0.45,4.52-0.45,14.08c-0.22-6.07-0.8-0.25-0.82-8.28c0.07,12.93,0.29,9.43,0.36,22.35c0.7,4,0.9-13,1.41,2.48
				c0,3.36-0.26,2.7-0.26,0.73c-0.27,11.1,0.87-2.27,1.22,4.7c0.09,4.85-0.18,6.59-0.35,4.59c0.39,7.27,0.85,3.25,1,8.08l0.09-2.2
				c0.2,2.07,1.19-3.6,1.24,6.86c0,7.64-0.4,5.25-0.63,5.43c0.19,4.85,0.12,9.71-0.2,14.56c0.13-0.41,0.27,0,0.27,1.85
				c0.23,10.08-0.58,5.8-0.68,9.55c-0.35,14.37,1.28-1.79,1.32,14.23l0.22-18.61c0.34,0.78,0.85,1.18,0.84-2.84
				c-0.51-0.37-0.95-7-0.87-13.19c0.59-1.8,0.65,16.68,1.3,6.21c-0.11,3.75,0.06,8.94,0,13.58c-0.64-4.66-0.13,14.86-0.83,6.84
				c0.16,20.3-0.28,23.27,0.18,41.88c-0.92-7.72-1.29-15.49-1.09-23.26l0.35-0.8c-0.43-12.13-0.4,9.46-1,7.26
				c1,15-0.45,33.2-0.1,51.55c0.33-3.23,0.51,0.41,0.85,1.18c-0.09-7.37-0.22-6.08,0.19-11.49c0.45,1,0.28,5.42,0.6,7.75
				c0.49,1.93,0-5.56,0.27-8.16c0.06,3.51,0.31,7.01,0.73,10.49c-0.39,3.87-0.61,3.35-1,6.33c-0.09,17.32,0.79,15.38,0.62,29.34
				c0.1-7.75-0.5,3.63-0.34-4.79l-0.06,4.66c-0.71-12-0.69-32.7-1.87-30.64c0.12,9.82,0.78,16.94,0.8,29l-0.22-0.51
				c-0.05,8.67,0.29-0.13,0.49,1.92c0.4,9.7-1.12,12.55-0.29,19.26l0.18-9.93c0.48,7.49,0.09-2.2,0.87-0.4
				c0.58,13.32,0.19,36.33,0.77,55.2c0.41-5.42,0.42-7,0.45-14.09c1.05,3.22,0.91,6.09,1.81,2.61v-8.67l1-0.13
				c0,2.37,0,4.72-0.13,6.82c0.61,1.19-0.18,13.14,0.4,13.73l-0.08-7.37c0.5-3.62,0.45,5.05,0.62,10.23c0.63-4.92,0-16-0.08-26.5
				c-0.36,0.76-1.09-9.69-1.16,0.51c-0.4-0.13-0.61-6.21-0.62-10.23c0.2,2.09,1.07-7.87,1.36,1.57c-0.47-9.05,0-4-0.23-14.09
				c0.27,1.42,0-17.59,0.82-16.42c-0.36-3.2-1.24,0.17-1.28-11.52c-0.59,2.84-0.67,15.87-1.3,7.13l0.39,5.68
				c-0.27,8.14-0.61-2.22-0.85,8.41c0-3.12-0.29-9.45,0.13-10.87c-1.23,2.73-0.61-15.76-1.52-16.28c0.37-2.34,0.41-5.43,0.3-11.28
				c0.34,0.8,0.67-2.42,0.9,2.1c-0.1,3.75,0,6.46-0.24,10.6c1.23-2.3,0.38-15.1,0.64-24.8c-0.1,1.36-0.22,1.75-0.39-0.93
				c0.18-5.93,0.4-19,1-15.24l-0.15-29.86c0.28-0.13,0.12,4.26,0.21,6.08v-16.66c0.39-3.89,0.39,5.67,0.77,7.35v-12l0.38,1.68
				c-0.25-3-0.37-16.81,0.25-20.16c-0.19-13.18-1.45-12.93-0.9-30.77c0.63,0.66,0.23,10.09,0.64,14.22
				c0.21-3.48-0.24-14.08,0.36-15.89c-0.36-12.79-1.47-11.38-2.08-17.59c-0.05-10.46,0.53-1.15,0.7-1.56c0-3.09-1.1-8.14-0.27-11
				c-0.45-5-1-7.89-1.2-0.39c0-5.56-0.29-13.45-0.56-14.86c0.92,4.5,0.36-6.35,1.11-7c0.16-8.42,0.38-27-0.61-34.91l1,2.33
				l-0.11-9.83c0.61-7.35,0.65,8.66,0.7,13.58c0-6.66,0-12.22,0.06-17.62c0-7.13,0-14-0.05-22c-0.11,3.16-0.21,3.82-0.33,4.1
				s-0.24,0.18-0.39,1.66c-0.16-2.54-0.21-5.41-0.23-8.43c-5.06,0-10.39-0.07-14.84,0c-0.64-0.12-0.68-0.24-0.29-0.33
				c0.2-0.04,0.41-0.07,0.62-0.07l1.1-0.06c0.87,0,2-0.06,3.45-0.08l-10.35,0.13c0.65-0.62-3.37-0.61,4.79-1l-7.63,0.19
				c-8.42-0.15,0.38-0.51,2.44-0.71l-13.3-0.1c-4.77,0.34,2.71,0.54-6.46,0.72c-12.28-0.55-27.93-0.34-41.89-0.5l9.83,0.57
				c-8.41-0.15-6.72,0.84-9.31,1.27c-7.77-0.1-18.23,0-24.81-0.3c7.49-0.48,4.4-1.21-2.58-1.64c-15.77-0.07-11.9,1-20.69,1.36
				c6.85-1.24-11-0.42-9.44-1.09c-20,0.05-40.19,0.49-60.88,0.47c0.4,0.18,6.34,0.37,2.7,0.55c-7.6,0.2-11.22-0.3-12.26-0.55
				c-9.83,0.12-15.5,0.51-18.75,0.87c4.28-0.12,4.66,0,3.87,0.39c-9.81,0.11-7.1-0.72-16.41-0.14c-2.45-0.66,10.36-0.33,9.45-1
				c-8.67,0-14.11,0.24-20.43,0.56c-1.43-0.42,5.81-0.1,1-0.45l-39.68,1l-2.59-0.6c-6.46,0-10.73,0.16-13.7,0.41
				c-3.49-0.21-0.77-0.35,2.59-0.42c-4.33,0-9.15,0.07-13.5,0.18l-6,0.17l-2.9,0.06H45.8c0.61-0.11,1.22-0.16,1.84-0.16h1.44h1.41
				c1.14,0.04,2.28-0.01,3.41-0.14h-3.13h-5L34.9,34.77c0.1,5.82,0.19,11.55,0.28,16.7c0.09,2.81,0.03,5.63-0.18,8.43
				c-0.09-0.92-0.11-2-0.11-2.95c0,16.08,0.37,30.08,0.43,47.55c-0.65,16,0.86,5.16,0.78,20.93c-1.48,0.1-0.08,21.44-0.35,28.09
				l0.21-2.11c0.41,7.97,0.3,15.96-0.34,23.92c-0.09,11.75-0.07,29.34,0.53,41.09l-0.31-2.33c0.4,9.7-0.08,15.76,0.32,25.48
				c-0.11-0.27-0.29-3.89-0.4-0.13c-0.21,22.73-0.09,45.69,0.07,68.63c0.08,11.48,0.16,22.94,0.23,34.38
				c0,5.72,0.05,11.44,0.08,17.13v22h6.09l73.2,0.21h74.36c50-0.05,99.74-0.29,143.69-0.89C333.46,381,375.16,374.81,368.89,372.3z"
				/>
			<path class="st1" d="M370.17,138.09v-1.26C370.18,137.31,370.17,137.71,370.17,138.09z"/>
			<path class="st1" d="M257.65,40.56h3C259.64,40.53,258.67,40.53,257.65,40.56z"/>
			<path class="st1" d="M78.64,42.64h3.74C80.76,42.59,79.59,42.61,78.64,42.64z"/>
			<path class="st1" d="M45.64,275.15c0.42-1.42,1.19,6,1.55-0.38c0-22.22-1.66-9.45-1.56-32.32l-0.48,11.62
				c0.75-0.62,1.17,7.51,1.23,16.42l-0.55,2.73c-0.16-1.53-0.29-3.16-0.41-4.85C45.36,271.73,45.79,271.09,45.64,275.15z"/>
			<path class="st1" d="M45.44,267.53v0.55v0.29V267.53z"/>
		</g>
	</g>
</g>
<g id="Layer_2_1_">
	<g id="XaoLGw.tif">
		<g>
			<path d="M97.37,86.66H313.6c0.24,0.18,0.49,0.32,0.77,0.43c7.24,1.76,13.28,8.92,13.27,16.64c-0.07,70.05-0.07,140.1,0,210.14
				c0,8.53-8.14,16.67-16.58,16.67c-70.25,0-140.5,0-210.75,0c-6.3,0-11.07-3.1-14.26-8.42c-1.23-2.05-1.82-4.49-2.7-6.75V101.9
				c0.18-0.23,0.33-0.48,0.43-0.76c0.58-4.54,3.11-8.61,6.93-11.14C92.86,88.76,95.09,87.64,97.37,86.66z M291.51,294.45
				c0-0.74,0.09-1.26,0.09-1.79c0-21.26,0-42.52,0-63.78c0-9.17-0.66-18.28-3.26-27.13c-3.05-10.35-8.82-18.52-19.07-22.84
				c-8.83-3.6-18.48-4.71-27.9-3.19c-11.26,1.59-20.31,7-26.62,16.63c-0.3,0.46-0.64,0.9-1,1.35l-0.46-0.12v-15.36h-34.5V294.4H215
				v-2.5c0-18.72,0-37.44,0-56.16c-0.01-3.6,0.27-7.2,0.84-10.76c1.63-9.56,6.39-16.6,17.56-17.74c10.15-1,18.09,2.49,20.44,13.57
				c0.97,4.7,1.46,9.49,1.48,14.29c0.17,19,0.07,38,0.07,57v2.39L291.51,294.45z M119.83,178.15v116.26h36V178.15H119.83z
				 M137.91,120.21c-11.6-0.03-21.03,9.34-21.06,20.94s9.34,21.03,20.94,21.06c11.38,0,20.91-9.19,21-20.35
				C158.93,129.69,149.87,120.3,137.91,120.21z"/>
			<path class="st2" d="M83.33,315.33c0.88,2.26,1.47,4.7,2.7,6.75c3.19,5.32,8,8.42,14.26,8.42c70.25,0.04,140.5,0.04,210.75,0
				c8.44,0,16.58-8.14,16.58-16.67c-0.04-70.04-0.04-140.09,0-210.14c0-7.72-6-14.88-13.27-16.64c-0.28-0.11-0.53-0.25-0.77-0.43
				h14.45V331H83.33V315.33z"/>
			<path class="st2" d="M97.37,86.66c-2.28,0.98-4.51,2.1-6.66,3.34c-3.82,2.52-6.35,6.57-6.95,11.1c-0.1,0.28-0.25,0.53-0.43,0.76
				v-15.2H97.37z"/>
			<path class="st2" d="M291.51,294.45h-36.14v-2.39c0-19,0.1-38-0.07-57c-0.02-4.8-0.51-9.59-1.48-14.29
				c-2.35-11.08-10.29-14.61-20.44-13.57c-11.17,1.14-15.93,8.18-17.56,17.74c-0.57,3.56-0.85,7.16-0.84,10.76
				c-0.08,18.72,0,37.44,0,56.16v2.5h-36.16V178.22h34.5v15.36l0.46,0.12c0.32-0.45,0.66-0.89,1-1.35
				c6.31-9.65,15.36-15,26.62-16.63c9.42-1.52,19.07-0.41,27.9,3.19c10.25,4.32,16,12.49,19.07,22.84c2.6,8.85,3.25,18,3.26,27.13
				c0,21.26,0,42.52,0,63.78C291.6,293.19,291.55,293.71,291.51,294.45z"/>
			<path class="st2" d="M119.83,178.15h36v116.26h-36V178.15z"/>
			<path class="st2" d="M137.91,120.21c12,0.09,21,9.48,20.9,21.66c-0.11,11.16-9.64,20.39-21,20.35
				c-11.6-0.03-20.97-9.46-20.94-21.06s9.46-20.97,21.06-20.94L137.91,120.21z"/>
		</g>
	</g>
</g>
</svg>
