

<?xml version="1.0" encoding="utf-8"?>
<svg version="1.1" id="Layer_1" xmlns="http://www.w3.org/2000/svg" xmlns:xlink="http://www.w3.org/1999/xlink" x="0px" y="0px"
	 viewBox="0 0 612 792" style="enable-background:new 0 0 612 792;" xml:space="preserve">
<style type="text/css">
	.st0{fill:#FFFFFF;}
	.st1{fill:#94618E;}
	.st2{fill:none;}
</style>
<g>
	
		<rect x="88.39" y="170.65" transform="matrix(3.050823e-03 -1 1 3.050823e-03 -117.3035 643.2077)" class="st0" width="351.09" height="419.57"/>
	<g>
		<g>
			<path d="M467.72,549.68l-0.05,1.4l-0.53-0.02c0.17,0,0.33,0,0.51,0c0.06-8.27,0.12-16.74,0.17-25.29
				c0.13-10.42,0.25-20.93,0.38-31.36c-0.43,9.95-0.85,20.29-1.21,30.74c-0.16,5.23-0.32,10.48-0.49,15.73
				c-0.07,2.6-0.13,5.21-0.2,7.81l-0.14,0.88l-0.61-0.07l-0.27-0.03l-2.54-0.03c-3.46-0.02-6.89-0.03-10.28-0.05
				c-6.79,0-13.43,0.07-19.84,0.22c-12.82,0.3-24.73,0.95-35.07,2.06c-3.91-2.13-49.18-3.26-50.1-2.74
				c-9.4,0.36-18.92,0.65-28.55,0.88c6.63-0.16,13.22-0.31,19.76-0.46c-6.54,0.15-13.13,0.31-19.76,0.46
				c-60.86,1.46-126.95,0.54-195.34-0.49c-13.84-0.16-37.25-0.42-63.2-0.72c0.02-0.38,0.04-0.76,0.06-1.14
				c0.03-2.52,0.05-5.05,0.08-7.58c0.05-5.2,0.11-10.43,0.16-15.63c0.11-10.4,0.22-20.7,0.32-30.44
				c0.22-19.49,0.44-36.79,0.66-48.38c0.09-5.64,0.17-11.24,0.26-16.93c-0.22,9.43-0.22,9.43-0.44,18.86
				c-0.49-23.71-0.98-45.2-1.28-66.01c-0.32,3.66-0.61,4.3-1.06,12.99l0.23-10.61c-0.85-9.67-0.74-31.98-1.08-42.46
				c0.46,2.26,0.57-6,0.66-13.29l-0.31,2.88c0.28-27.66,0-59.76,0.13-84.48c0.01-3.45,0.19-6.03,0.35-7.59l-0.28-23.7
				c0.1,0.31,0.19-0.05,0.26-0.79c0.04-0.37,0.07-0.84,0.1-1.38c0.01-0.25,0.03-0.52,0.04-0.8c0.01-0.12,0.03-0.25,0.04-0.38
				c0.1-1.04,0.16-2.19,0.23-2.65c0.41,0.05,0.52,0.1,0.16,0.16c0.03,0.2,0.07,0.54,0.11,1l-0.09-0.98c0.7-0.07,1.47-0.13,2.29-0.18
				l0.63-0.03l1.59-0.03l3.18-0.04c4.24-0.03,8.46-0.06,12.67-0.09c8.41-0.05,16.71-0.11,24.77-0.44
				c60.44,0.09,124.74-0.18,187.23-1.02l-1.53-0.23c21.88-0.34,41.16-1.5,67.75-1.02c18.99-0.77,45.99-1.12,53.55-2.38
				c21.91-0.11,30.65-0.73,52.14-1c-5.54-0.65,20.87-0.71,10.3-1.23c-14.25-0.94-15.04-0.18-27.13-0.94l0.36,0.22
				c-56.45-1.13-112.97-1.85-170.2-2.32c-38.18,0.42-79.6-0.14-119.3-0.1c-17.42,0.07-35.43,0.14-52.99,0.21
				c-19.38,0.12-38.27,0.25-55.53,0.36c0.03,6.12,0.06,11.74,0.09,17.05c0.04,3.68,0.08,7.15,0.11,10.53
				c0.16,8.75-0.4,15.06-0.72,22.52c0.18,33.72-0.16,76.63,0.07,114.66c0.01-0.71,0.02-1.41,0.03-1.86
				c0.04,20.21-0.66,35.34-0.61,55.07c0.18-0.1,0.18,2.96,0.27,4.45c-0.86,3.42,1.41,116.17,0.9,123.13
				c0.01,1.07,0.03,2.16,0.05,3.26c0.01,1.58,0.02,3.19,0.03,4.81c-0.02,2.22-0.04,4.44-0.07,6.67c3.78,0.04,7.56,0.09,11.35,0.13
				l7.75,0.14c5.05,0.11,10.1,0.22,15.14,0.33c10.07,0.25,20.09,0.49,29.92,0.73c19.67,0.48,38.61,0.89,55.85,0.87
				c7.76-0.37,16.5-0.7,23.04-1.13c6.32,0.38,7.54-0.32,15.16-0.2c19.34,1.76,30.67,1.08,20.68,0.45c15.92-0.18,31.88,0.02,46.02,0
				c6.56-0.11,13.07-0.23,19.69-0.34c5.62-0.12,8.75,0.14,11.58,0.55c14.38-0.2,10.14,0.21,25.2,0.43c3.64,0.6,37.8-0.83,42.06-0.64
				l-2.46,0.08c17.42,0.16,29,1.34,46.03,1.44c9.21,0.08,18.59,0.17,28.04,0.25c11.41,0.05,22.91,0.09,34.39,0.14
				c0.03-16.92,0.07-33.8,0.1-50.24c0.06-14.5,0.12-28.62,0.18-42.01c-0.62-0.44,0.11,9.67-0.72,10.18
				c0.19-25.86,1.04-51.93,1.22-78.02c0.18-4.7,0.51-10.46,0.72-12.61c0.26-8.34-0.28-4.92-0.18-11.03l0.56-0.82
				c-0.43-8.92,0.66-13.04,0.46-21.44c-0.22-0.44-0.25-3.51-0.22-6.5c0.6-0.15-0.01-9.19,0.53-8.76l-0.04-0.09
				c0.02-1.8-0.02-3.08,0.09-5.28c-0.2-3.42-1.73-35.46-1.98-38.93l0.1-1.62c0-4.79-0.44-6.84-0.55-4.04l0.05-5.91l0.04,0.68
				l0.05-5.87c0.06-1.08,0.34-2.31,0.59-0.64c-0.2-3.33-0.3-7.07-0.18-10.4c-0.4,9.26-0.95,20.76-1.58,30.44
				c-0.19-3.98,0.15-11.17,0.09-15.48c0.41-5.15,0.78-15.74,1.07-23.98c-0.03-1.81-0.69-3.06-0.38-7.17c0.47-2,0-4.64,0.34-8.05
				c0.23,3.93,0.11,7.76,0.07,11.74c0.54-0.68,0.4-9.68,0.56-12.82c-0.17-1.47,0.03-9.15-0.1-13.98c0.51,2.1,0.34-3.89,0.63-6.75
				c0.07-3.25-0.13-5.33-0.32-4.01c-0.56-1.05-0.38,12.94-0.96,8.41c0.28-1.19,0.2-7.57,0.19-10.99c-0.31-0.04-0.24,2.34-0.53,0.12
				c0.08-3.82-0.28-7.86,0.05-10.05c0.08,0.72,0.02,2.29,0.01,3.4c0.05-4.97,1.93,26.93,1.77,20.49
				c-0.28,1.67-1.74-28.29-1.77-24.98c-0.16,3.03-0.55-2.17-0.67,0.96l0.36,3.48c-0.13,4.28-0.67,6.04-0.88,4.53
				c0.07-7.18,2.04,20.39,1.75,14.25l-0.15,2.49c-0.19-2.6-0.35-9.55-0.01-12.23c-0.3-0.02-0.4-3.52-0.5-6.43l0.05-1.03
				c-0.15-3-0.06-7.2-0.47-5.25c0,17.61-3.07-11.59-3.29,5.47c0.7-7.15,0.68,2.41,0.74,9.91c-0.23,0.73-0.58,4.06-0.77,9.46
				c0.04,4.67,0.24,2.75,0.41,3.64c-0.16,2.59-0.3,7.54-0.65,6.89c0.41,3.64-0.29,5.82-0.16,10.19c0.18,3.85,0.18-0.26,0.38,2.47
				c-0.08,5.78-0.18,13.88-0.24,18.47c-0.34,1.78-0.94,7.2-1.45,3.25c0.1-8.76,0.83,3.34,0.75-5.78c-0.77,3.92-0.18-8.07-0.75-9.73
				c-0.35,2.91-0.37,8.79-0.29,13.71l0.1-0.99c0.09,4.34,0.22,13.02-0.2,17.71c-0.26-1.11-0.47,0.94-0.53-2.25l-0.07,5.97
				c0.08,0.76,0.17,1.54,0.23-0.18c0.2,2.82,0.07,5.64-0.09,7.8c-0.28,0.65,1.09,31.78,0.92,30.81c0,4.31-0.43,5.35-0.16,9.54
				c0.06,0.11,0.03-2.4-0.03-6.15c-0.08-3.75-0.19-8.73-0.29-13.54c-0.23-9.63-0.48-18.61-0.44-15.76
				c-0.32,3.68,1.26,48.78,0.72,51.46c0.01,3.19,0.06,7.04,0.35,6.29c-0.16,5.39-0.54-1.62-0.82,2.22c0.04,0.09,0.14-0.31,0.13,0.91
				l-0.37,3.69c0.42,8.37-0.2,20.64,0.36,29.4c-0.3-2.54-0.84-5.43-1.1-11.07l0.15-0.99c-0.09-0.8-0.17-5.44-0.46-5.31
				c-0.21,5.35-0.17,9.94,0.1,15.58c-0.08,1.04-0.16,2.26-0.24,3.07c0.04-0.02,0.07-0.11,0.11-0.09c-0.18,1.84-0.21,1.65-0.32,0.97
				c-0.02-0.09-0.04-0.2-0.06-0.39c-0.85,3.36,0.47,21.03,0,30.81c0.11,2.88,0.14,0.27,0.29,3.86c-0.36,9.99-0.64,16.89-0.87,27.34
				c0.35,3.34,0.49,3.6,0.88-0.43l-0.14,7.89c-0.94-7.18-0.96,14.74-1.9,6.82c-0.23,2.31-0.29,7.04-0.14,11.46
				c0.24,0.44,0.63,1.14,0.61,6.7c-0.34,7.74-0.22,5.9-0.55,12.3c-0.32,1.52-0.44-0.84-0.69-0.57c0.37,9.89-0.71,8.63-0.68,17.95
				c0.07,5.84,0.08,17.38,0.63,17.66c-0.01,0.98-0.02,1.84-0.03,2.6c-0.01,0.38-0.02,0.72-0.03,1.05l-0.01,0.23l-0.01,0.09
				c-0.01,0.06-0.01,0.12-0.02,0.17c-0.05,0.44-0.12,0.71-0.2,0.85C468.16,550.09,467.95,549.89,467.72,549.68z"/>
		</g>
	</g>
</g>
<g>
	
		<rect x="100.89" y="186.41" transform="matrix(3.050823e-03 -1 1 3.050823e-03 -117.3035 643.2077)" class="st1" width="326.09" height="388.04"/>
	<g>
		<g>
			<g>
				<path d="M464.29,266.79c-0.01-7.25-1.04,20.14-1.24,4.71c-0.76,10.72,0.13,33.05-0.05,46.59c-1.15,1.58-2.12-10.4-3.06,13.84
					c-0.74,32.41,2.31,4.1,2.33,33.06l0.37-19.82c1.84,19.84,0.45,67.04,0.76,101.04c-1.42,25.49-4.28,48.53-3.83,81.8
					c-0.17-1.83-0.55-10.02-1.16-8.37c-0.28,3.06-0.36,7.28-0.34,11.54c0.01,2.14,0.04,4.22,0.09,6.3c0.06,2.24,0.11,4.34,0.15,6.12
					c0.04,0.64,0.08,1.25,0.11,1.46c-2.91,0.21-4.7,0.4-5.53,0.58c-0.83,0.18-0.71,0.34,0.01,0.5c1.41,0.32,5.31,0.6,7.5,0.91
					c0.18-0.95,0.36-1.26,0.55,0.55c0.16,0.03-0.14,0.11-0.6,0.14c-2.74,0.08-5.46,0.15-8.19,0.22l-1.98,0.06l-1.35,0.06
					c-0.9,0.04-1.81,0.08-2.72,0.12c-3.64,0.16-7.35,0.3-11.24,0.4c-7.79,0.21-16.31,0.24-26.5-0.13l-25.29-2.56
					c-16.98,3.09-43.88-0.07-78.2,0.86c-6.71-1.64-42.25,0.54-48.98-1.11c-16.1-0.01-3.02-4.39-16.09-5.66
					c-22.82-1.1,15.82-0.7-7.01-1.8c24.81-0.57,7.85,4.35,41.13,3.9l-1.63-0.6c13.69-0.9,37.34,1.05,46.74-0.58
					c35.73,0.45-0.61,2.33,16.91,3.71c10.22-1.33,50.65-1.69,52.11-3.72l-27.77-0.06c4.5-0.04,1.03-0.47,2.87-0.64
					c19.17,1.99,69.69-5.73,55.53,0.12c-3.67,0.34-13.47,0.12-16.35,0.77c1.41,1.38,20.43,0.74,34.72,0.92
					c3.15-0.31,6.41-0.64,9.8-0.97c0.85-0.08,1.7-0.17,2.57-0.26l0.65-0.06l0.33-0.03c0.09-0.01,0.12-0.02,0.19-0.03l0.66-0.13
					c0.85-0.17,1.59-0.33,2.23-0.49c-0.1-0.58-0.2-1.16-0.3-1.76c-0.05-0.26-0.09-0.51-0.14-0.77l-0.06-0.36l-0.02-0.09
					c-0.01-0.02-0.01-0.05-0.02-0.16l-0.03-0.49c-0.16-2.63-0.29-5.36-0.37-8.18c-0.17-5.65-0.18-11.72,0.07-18.29
					c0.39-7.96,1.21-3.25,1.6-11.2c-1.35-46.98,1.91-45.04,1.39-94.44c1.79-30.85,0.7-68.62,2.5-99.46
					c-1.24,4.69-0.5-20.46-0.31-26.76c0.57-4.39,1.51-21.39,1.22-33.67c0.01,7.24,0.58,2.84,0.87,7.88
					c-0.51-27.69,1.41-32.74,2.56-34.3C463.12,239.42,465.04,241.6,464.29,266.79z"/>
				<path d="M168.87,546.67c5.53-2.47-46.89-0.95-22.22-3.65c-16.89-0.52-24.6-0.09-34.05,0.61c19.36,0.92-4.71,0.35,5.68,1.49
					c-8.24,0.12-16.44,0.24-24.58,0.36c-4.07,0.05-8.13,0.09-12.18,0.14c-5,0.03-9.98,0.07-14.94,0.1
					c-0.05-12.11-0.11-24.13-0.16-36.06c0-10.99,0-21.91-0.01-32.75c0.04-21.68,0.17-43.07,0.33-64.22
					c1.97-42.9,0.34-80.93-1.37-121.97c0.78-25.31,2.58-8.86,3.88-3.11l0.15-31.78l1.49,32.08c0.96,1.02,1.07-13.37,1.81-21.32
					l-0.22-8.94c4.45,10.56-0.3,63.58,0.91,93.9c-0.2-36.51-1.49,5.67-2.34-9.77l-0.19,11.44c-0.02-10.18-1.21-30.32-1.39-56.66
					c-0.76,73.23,0.8,146.02,2.74,206.17c-0.28-1.75-0.62-6.46-0.96-1.02c-0.08,9.84,0.38,17.84,0.97,24.53
					c0.29,3.34,0.62,6.36,0.93,9.11l0.06,0.51l0.06,0.23c0.04,0.14,0.08,0.29,0.11,0.43c0.07,0.25,0.15,0.5,0.22,0.74
					c0.14,0.44,0.27,0.79,0.38,1.08c0.37-0.08,0.72-0.15,1.06-0.23l-1.03,0.2c-0.17-0.62-0.35-1.41-0.52-2.37
					c-0.16,0.89-0.26,2.01-0.32,3.21c0.74,0.04,1.55,0.05,2.39,0.05c1.46-0.02,2.95-0.03,4.48-0.05c3.73-0.06,7.62-0.17,11.51-0.29
					c7.79-0.25,15.62-0.55,22.43-0.62c17.6,1.2,29.25,2.54,59.05,1.81l-1.02,0.95l24.07,0.57c-5.98,0.15-3.52,0.55-2.27,0.75
					c-1.75,0.27-2.98,0.07-7.21-0.06c-1.52,1.44,10.84,3.46,24.22,4.53c-4.22-0.13-8.43-0.26-11.42-0.18
					c10.92,0.66,48.87,1.83,29.97,3.22C197.61,549.69,198.19,546.42,168.87,546.67z"/>
				<path d="M306.6,540.58c-23.04-0.88,6.55-0.99,1.47-2.02l20.63-0.03C329.29,539.6,308.67,539.63,306.6,540.58z"/>
				<path d="M138.5,211.99c1.98,0.88,16.88,0.51,25.3,0.77c16.67-0.64,20.68-1.67,44.73-1.1c-18.71,2.56,19.78,3.24,36.87,4.92
					c-11.92,0.29-33.83,1.76-52.65,0.36c2.26-0.75-14.63-1.27-23.04-1.53c-12.96,1.25,10.3,3.94-42.35,4.3
					c-9.67-0.46-33.53,0.12-32-1.31c-3.34-0.27-6.58,0.05-9.9,0.27c-1.66,0.11-3.35,0.21-5.08,0.19c-0.87-0.01-1.74-0.04-2.64-0.11
					c-0.25-0.02-0.42-0.04-0.57-0.06l-0.51-0.07c-0.34-0.05-0.7-0.12-1.08-0.19c-1.02-0.2-2.15-0.41-3.38-0.61l31.91-0.81
					c1.21,0.2,3.69,0.61,6.67,0.54c-6.18-1.01,35.58-2.04,14.28-3.84l-44.95-0.06c-0.68-0.05-1.26-0.09-1.74-0.13
					c-0.53-0.05-0.96-0.1-1.29-0.13c-0.88-0.09-1.25-0.18-1.14-0.26c0.06-0.04,0.23-0.09,0.52-0.13c0.15-0.02,0.32-0.04,0.52-0.06
					c0.18-0.02,0.49-0.04,0.61-0.06c0.65-0.08,1.57-0.17,2.7-0.25c4.51-0.31,12.41-0.57,20.5-0.65
					C124.32,213.04,123.07,212.84,138.5,211.99z"/>
				<polygon points="68.59,260.79 68.19,263.24 67.92,223.74 				"/>
				<path d="M285.26,211.88c-7.72,0.42-14.42-0.11-22.11,0.31l-0.92-1.84L285.26,211.88z"/>
				<path d="M74.65,412.45c1.66,10.45,0.68,36.99,2.06,45.72c0.06-7.2-0.35-4.71-0.63-6.47l-0.59,13.89
					C74.37,448.42,74.89,431.55,74.65,412.45z"/>
				<path d="M363.22,212.29c26.32-0.18,31.36-2.17,62.12-1.06c6.68,0.54-8.23,0.9,1.45,1.36c9.65,0.46,11.91-0.29,16.65-0.64
					l-3.72-0.61c7.42,1.22,30.98,2.27,18.74,4.2c-38.48-0.68-56.19,3.71-85.95,1.65l-5.18-1.97l-17.88,0.44
					c-1.22-0.2-0.72-0.68-6.68-0.54c-12.43,0.77,9.16,0.94,8.14,1.9l-34.55,1.08c-4.23-0.13,3.5-0.55,2.26-0.75
					c-16.37-1-26.62,1.82-40.72,0.07l21.38-0.99c-25.82-0.3-45.15-1.22-63.25-1.94C287.65,215.08,316.12,210.19,363.22,212.29z"/>
			</g>
		</g>
	</g>
</g>
<g>
	
		<rect x="182.91" y="279.97" transform="matrix(3.050823e-03 -1 1 3.050823e-03 -114.2134 674.7175)" class="st2" width="196.74" height="229.35"/>
	<path d="M214.1,290.15c0,0.31,0.08,0.55,0.15,0.78c-0.16,0.08-0.47,0.08-0.62,0.08c-0.7,0-1.17-0.63-2.26-0.63
		c-0.86,0-0.39,1.48-1.25,1.48c-0.7,0-1.32-0.47-2.03-0.47c-0.23,0-0.47,0-0.62,0.15l0,0.31c0,1.48,1.16,2.03,1.16,3.51
		c-0.47,0.47-1.64,0.23-2.26,0.23c-1.79-0.01-1.1,1.17-2.42,1.16c-1.48,0-2.17-3.83-4.75-3.84c-1.01,0-2.5,0.23-3.43,0.61
		c-5.08,2.09-10.26,15.18-11.99,19.85c-1.1,3.12-2.75,6.15-2.76,9.51c-0.01,3.2,1.38,7.73,5.28,7.74c0.86,0,1.56-0.23,2.34-0.54
		c1.02-0.39,3.6-2.25,4.14-3.19c0.16-0.31,0.16-0.7,0.31-0.94c0.08-0.16,0.39-0.08,0.55-0.23c0.39-0.39,1.1-2.03,1.49-2.65
		c0.63-0.93,1.8-2.02,1.8-3.27c0-0.16,0-0.39-0.08-0.55c-0.78-0.55-2.65-0.24-3.67-0.25c-0.78,0-2.18-0.24-2.18-1.33
		c0-0.55,0.55-1.09,0.63-1.64c-0.31-0.86-2.03-0.32-2.34-1.18c0.08-1.64,2.58-0.93,3.52-1.78l0-0.23c0-0.7-0.85-1.17-0.85-1.72
		c0-0.31,0.31-0.47,0.55-0.62c0.08-1.09-1.17-0.94-1.16-2.03c0.01-2.81,7.03-2.01,8.74-2c2.96,0.01,5.85-0.61,8.82-0.6
		c0.16,0.23,0.31,0.39,0.31,0.7c0,0.62-0.32,1.17-0.32,1.79c-0.01,1.64,1.25,0.55,1.79,1.25c0,0.08,0,0.23,0,0.31
		c0,0.7-0.7,1.01-0.63,1.79c0.86,0.63,3.04-0.15,3.51,0.87c-0.08,1.95-1.26,3.74-2.04,5.53c-0.55,1.25-1.42,4.36-2.04,5.3
		c-0.16,0.23-0.55,0.39-0.63,0.54c-0.39,0.78-0.71,1.87-1.1,2.73c-1.02,2.18-2.43,4.2-3.92,6.07c-4.7,5.68-12.67,11.43-20.39,11.4
		c-3.35-0.01-6.94-0.96-10.06-2.14c-0.39-0.16-2.02-1.49-2.33-1.8c-1.01-0.94-1.79-1.96-2.33-3.21c-0.16-0.39-0.08-0.78-0.23-1.17
		c-0.39-1.02-0.93-1.88-1.16-2.97c-0.31-1.4-0.46-2.81-0.46-4.21c0.02-5.38,2.31-14.19,4.27-19.41c0.94-2.42,2.2-4.67,3.3-7.01
		c1.02-2.1,1.81-4.99,3.76-6.46l0-0.16c0-0.78,0.55-1.4,0.63-2.18c1.8-1.79,2.74-4.28,4.39-6.15c0.16-0.23,0.47-0.31,0.63-0.54
		c3.76-4.9,10.71-8.16,16.87-8.14c3.35,0.01,6.71,0.72,9.43,2.68c0.47,0.31,0.7,0.86,1.17,1.17c0.47,0.39,1.09,0.47,1.48,0.86
		c1.32,1.17,2.25,2.89,3.19,4.38C215.9,289.06,214.11,288.74,214.1,290.15z M176.38,330.36l0-1.17c-0.16-0.16-0.39-0.31-0.62-0.31
		c-0.47,0-0.86,0.39-0.86,0.86c0,0.23,0.15,0.47,0.31,0.62L176.38,330.36z M196.1,285.96c-0.31-0.08-0.55-0.31-0.94-0.31
		c-0.08,0-0.16,0-0.23,0c-0.23,0.23-0.31,0.54-0.31,0.86s0.08,0.62,0.31,0.86c0.78-0.08,1.17-0.46,1.17-1.24L196.1,285.96z
		 M202.64,314.61c-0.16,0-0.31,0-0.47,0l0,0.16c0,0.55,0.39,0.94,0.86,0.78l0.31-0.08c0-0.16,0.08-0.23,0.08-0.39
		C203.42,314.61,203.03,314.61,202.64,314.61z M208.1,288.18c0-0.62-0.62-1.02-1.25-1.02c-0.31,0-0.55,0-0.78,0.23l-0.08,0.23
		c0,0.62,0.62,0.7,1.09,0.71c0.31,0,0.7,0,1.01,0L208.1,288.18z"/>
	<path d="M253.22,302.36c-1.72,0.62-3.67,0.15-5.31,0.84c0.07,1.33,1.63,1.25,2.33,2.04c0.07,1.25-1.72,1.24-1.72,2.1
		c0,0.7,0.54,1.25,0.54,2.03l0,0.31c-0.55,0.15-1.09,0.15-1.72,0.15c-2.34-0.01-4.6-0.56-6.94-0.57c-2.89-0.01-4.84,0.06-6.56,2.71
		c-0.63,0.93-1.18,1.87-1.18,3.04l0,0.47c0.23,0.16,0.47,0.24,0.78,0.24c0.62,0,1.25-0.23,1.87-0.23s1.17,0.24,1.79,0.24
		c1.64,0,3.28-0.69,4.92-0.69c0.94,0,2.03,0.16,2.65,1.02c0,0.16,0.08,0.31,0.08,0.47c0,1.72-2.19,1.24-2.74,2.49
		c0,1.25,1.79,0.94,1.79,2.03c0,0.94-0.86,1.09-1.49,1.48c0.23,1.01,1.24,1.41,1.24,2.58c0,0.23-0.08,0.39-0.08,0.62
		c-0.86,0.7-2.03,0.7-3.04,0.69c-2.42-0.01-4.91-0.56-7.33-0.57c-0.55,0-1.09,0.07-1.64,0.15c-0.47-0.31-0.62-0.94-1.17-1.17
		c-2.42,1.08-2.28,4.99-3.53,7.01c0.7,1.02,1.71,1.33,2.88,1.33c3.28,0.01,6.55-0.76,9.83-0.75c0.55,0,1.09,0,1.64,0l0,0.23
		c0,1.48-1.72,2.41-1.73,2.96c0,0.78,0.62,1.09,0.54,1.8c-0.78,0.62-2.11,0.54-2.66,1.47c0.31,1.56,3.35,0.24,3.35,1.96
		c0,0.7-1.49,2.49-2.19,2.72c-1.41,0.46-10.77,0.44-13.18,0.43c-1.09,0-2.18-0.01-3.2-0.24c-0.78-0.16-1.48-0.63-2.26-0.63
		c-0.62,0-1.33,0.31-1.95,0.31c-0.31,0-0.47-0.08-0.7-0.24l-0.08-0.31c-0.07-1.64,1.8-1.79,1.8-2.88c0-1.33-1.4-1.02-2.02-1.8
		c0-0.47,0-0.94,0-1.4c0-0.39,0-0.94-0.31-1.25c-1.4,0-2.11,1.16-3.51,1.16c-0.08-0.39-0.08-0.78-0.07-1.17
		c0.02-5.69,8.35-25.25,11.33-30.93c0.94-0.08,1.17,0.86,2.02,0.86c1.01,0,1.87-0.62,2.34-1.47c0-1.17-0.85-1.87-0.85-2.97l0-0.23
		c0.63-0.62,1.56-0.62,2.34-0.54c0.16-0.16,0.23-0.39,0.24-0.62c0-0.39-0.23-0.62-0.23-1.02c0-0.16,0.16-0.31,0.24-0.47
		c3.75-0.85,7.73-0.91,11.63-0.9c3.59,0.01,7.33-0.13,10.92,0.42c0,0.08,0,0.23,0,0.31c0,0.94-1.17,1.17-1.17,1.71
		c0,1.17,1.48,1.1,1.47,2.34L253.22,302.36z M224.03,335.26c-0.16,0-0.31,0.08-0.47,0.08c0,0.16,0,0.23,0,0.39
		c0,0.47,0.31,0.78,0.78,0.78c0.16,0,0.23,0,0.39,0c0-0.16,0.08-0.31,0.08-0.47C224.81,335.58,224.49,335.27,224.03,335.26z
		 M224.44,326.53c-0.23,0.16-0.24,0.55-0.24,0.78c0,0.47,0.23,0.7,0.7,0.7l0.16,0c0.08-0.31,0.16-0.55,0.16-0.86
		C225.22,326.69,224.83,326.53,224.44,326.53z M226.19,340.57l-0.39,0c-0.39,0-0.78,0.15-0.78,0.62l0,0.23l0.39,0.08
		c0.39,0,0.78-0.23,0.78-0.7L226.19,340.57z M228.48,334.11l-0.23,0.08c-0.23,0.31-0.31,0.62-0.31,1.01l0,0.7
		c0.16,0.08,0.39,0.08,0.55,0.08c0.55,0,0.94-0.39,0.94-0.93C229.41,334.5,229.02,334.11,228.48,334.11z M234.88,306.67
		c-1.64,0-1.57,1.79-1.88,2.96c0.08,0.08,0.31,0,0.39,0c1.17,0,1.64-2.02,1.65-2.96L234.88,306.67z M244.72,302.64l-0.39-0.08
		c-0.39,0-0.7,0.23-0.78,0.62c0.39,0.08,0.47,0.55,0.86,0.63c0.08-0.31,0.39-0.62,0.39-0.93
		C244.8,302.8,244.72,302.72,244.72,302.64z"/>
	<path d="M288.16,304.26c0,0.16-0.08,0.23-0.08,0.39c0,1.33,1.56,1.33,1.55,2.5c0,1.01-1.17,1.01-1.18,2.02
		c0,0.55,0.31,0.94,0.31,1.48c0,0.23,0,0.39-0.08,0.62c-0.55,0.15-1.17,0.15-1.72,0.15c-2.42-0.01-3.98-0.71-6.39-0.72
		c-3.9-0.01-2.89,1.94-4.84,2.56v0.23c0,0.39,0.15,0.78,0.15,1.17c0,0.23-0.08,0.39-0.16,0.62c-3.54,9.04-6.69,18.08-9.13,27.51
		c-0.16,0.08-0.39,0.08-0.55,0.08c-0.78,0-1.17-0.71-1.79-0.71c-1.01,0-1.41,2.65-2.97,2.1l-0.23-0.08
		c-0.62-0.86-0.62-2.42-0.93-3.51l-0.31,0c-1.09,0-1.25,1.09-2.27,1.16c-0.54-0.31-0.31-0.86-1.17-0.86c-1.48,0-1.65,2.33-3.52,2.33
		c-0.39-0.39-0.62-0.86-0.62-1.41c0-1.01,0.55-1.79,0.87-2.65c1.81-5.38,3.85-10.75,5.67-16.13c0.47-1.32,0.63-2.73,1.18-4.05
		c1.02-2.57,2.67-4.91,3.22-7.63c-0.39-0.55-1.09-0.63-1.71-0.63c-1.01,0-1.17,0.31-2.19,0.38c-1.17,0.15-2.42,0.23-3.59,0.22
		c-0.78,0-1.56-0.08-2.26-0.24c-0.08-0.16-0.23-0.39-0.23-0.55c0-0.78,1.41-1.48,1.41-2.1c0-0.78-0.7-0.86-0.7-1.48
		c0-0.23,0-0.31,0.08-0.55c1.02-0.7,2.65-0.62,3.52-1.47c0-0.16,0.08-0.23,0.08-0.39c0-0.55-0.39-1.02-0.39-1.56
		c0-0.16,0.08-0.23,0.08-0.39c1.01-0.31,2.34-0.31,3.2-0.85c-0.39-1.72-2.81-1.26-3.82-2.35c0-0.16-0.08-0.31-0.08-0.47
		c0-0.47,0.39-0.86,0.39-1.32c0.55-0.31,1.33-0.31,1.95-0.31c2.5,0.01,4.29,0.4,6.79,0.41c3.82,0.01,7.57-0.29,11.39-0.28
		c1.4,0,2.81,0.01,4.21,0.25c0.62,0.08,1.17,0.47,1.79,0.63c1.56-0.7,3.04-0.93,4.76-0.92c1.17,0,2.34,0.08,3.51,0.32
		c-0.08,1.01-0.86,1.4-0.86,2.34c0,1.09,2.65,0.71,2.65,2.35C291.83,303.41,289.72,303.64,288.16,304.26z M273.88,304.84
		c-1.09,0-2.5,0.46-2.81,1.71c0.39,0.08,0.39,0.62,0.62,0.86c1.64-0.77,3.74,0.17,5.23-1.15
		C276.38,305.24,274.9,304.84,273.88,304.84z M274.02,312.09c-0.16-0.16-0.39-0.31-0.62-0.31c-0.39,0-0.78,0.23-1.17,0.31l0,0.16
		c0,0.39,0.39,0.47,0.7,0.47c0.31,0,1.09-0.15,1.09-0.54L274.02,312.09z"/>
	<path d="M349.67,287.29c-0.79,1.64-1.34,3.35-2.04,4.99c-1.18,2.73-2.43,5.45-3.54,8.18c-0.86,2.1-1.18,4.52-2.98,6.08
		c0,0.16,0.08,0.39,0.08,0.55c0,1.72-1.18,4.05-1.81,5.61c-0.24,0.62-0.63,1.17-0.86,1.79c-0.55,1.32-0.63,2.73-1.18,4.05
		c-0.24,0.62-0.71,1.17-0.94,1.79c-0.71,1.64-1.18,3.27-1.73,4.91c-1.73,5.14-3.62,10.29-5.04,15.51c-0.47,1.71-0.56,4.44-2.9,4.44
		c-0.16,0-0.47-0.08-0.62-0.08c-0.31-0.78-0.7-1.02-0.54-2.03c-0.93-0.63-2.18-0.4-1.79-2.03c-1.87-0.08-1.49,2.34-3.21,2.33
		l-0.31,0c-0.15-0.31-0.15-0.7-0.15-1.01c0-0.86,0.24-1.72,0.24-2.57c0-0.23,0-0.55-0.08-0.78l-0.16,0c-1.48,0-1.73,2.88-3.05,2.88
		c-1.09,0-1.87-0.79-1.87-1.88c0.01-2.18,1.74-6.7,2.45-8.96c1.73-5.38,3.62-11.14,5.67-16.36c0.94-2.42,1.81-4.83,2.91-7.25
		c0.55-1.17,0.63-2.81,1.18-3.82c0.16-0.23,0.47-0.39,0.63-0.62c0.16-0.31,1.1-3.12,1.42-3.74c0.86-2.03,1.42-4.13,2.36-6.15
		c0.86-2.03,2.04-3.89,2.98-5.84c0.79-1.79,1.49-4.21,3.21-5.29h0.16c0.94,0,0.93,0.94,1.63,1.18c1.87-0.38,1.49-3.19,3.75-3.19
		c0.08,0.55,0,1.09,0,1.64c0,0.39,0,1.01,0.31,1.33c0,0.16,0.16,0.31,0.31,0.31c0.31,0,0.7-0.31,0.94-0.31l0.23,0
		c0.94,0,0.54,1.09,1.17,1.41c1.56-0.78,2.9-4.67,4.62-4.67c0.7,0,1.25,0.63,1.56,1.17C352.42,283.24,350.7,285.18,349.67,287.29z
		 M329.11,329.34l-0.94,0l0,0.31c0,0.39,0.15,0.78,0.62,0.86c0.08-0.31,0.31-0.54,0.32-0.94
		C329.11,329.5,329.11,329.42,329.11,329.34z M333.87,303.93l-0.94,0l0,0.31c0,0.39,0.15,0.78,0.62,0.86
		c0.08-0.31,0.31-0.54,0.31-0.94C333.87,304.09,333.87,304.01,333.87,303.93z M336.2,306.28c0-0.94-0.54-1.33-1.48-1.49
		c-0.23,0.23-0.47,0.47-0.47,0.86c0,0.39,0.08,0.78,0.15,1.17c-0.23,0.31-0.39,0.62-0.39,1.01c0,0.39,0.39,0.63,0.7,0.78
		c0.62-0.31,0.24-1.09,0.55-1.48c0.23-0.23,0.86,0,0.94-0.31C336.28,306.67,336.2,306.43,336.2,306.28z"/>
	<path d="M387.21,307.37c-1.41,3.19-2.83,6.31-4.08,9.58c-0.86,2.1-1.57,4.36-2.36,6.47c-0.47,1.25-0.71,2.57-1.18,3.82
		c-0.32,0.86-0.86,1.48-1.18,2.34c-0.87,2.42-1.03,5.15-2.67,7.25c-0.01,2.18-0.48,3.82-1.19,5.85c-0.31-0.08-0.7-0.16-1.09-0.16
		c-0.86,0-1.41,0.78-2.11,1.09c-1.09,0.07-0.93-1.17-1.48-1.8c-0.08,0-0.31-0.08-0.39-0.08c-0.39,0-0.55,0.39-0.94,0.39
		c-1.33,0-0.78-1.17-1.63-1.17c-1.17,0.7-0.56,3.12-2.04,3.5c-1.56-0.32-1.4-2.34-1.71-3.52c-0.69-2.81-1.46-5.7-2.08-8.51
		c-0.31-1.33-0.15-2.96-1.16-4.06c-1.56,0.31-1.57,2.02-2.04,3.19c-1.57,3.74-2.67,7.56-4.09,11.38c-0.08,0-0.23,0-0.31,0
		c-1.09,0-1.01-1.17-2.02-1.18c-0.47,0-0.94,0.31-1.41,0.31c-0.16,0-0.23,0-0.39,0c-0.39-0.39-0.31-1.4-0.31-1.87
		c0-0.39,0.08-0.86-0.23-1.09c-1.95,0.77-1.96,3.43-3.52,4.67c-0.08,0-0.23,0.08-0.31,0.08c-0.86,0-1.01-0.78-1.17-1.49l-0.23-0.08
		c-0.7-0.08-1.25,0.54-1.72,0.54c-0.16,0-0.23-0.16-0.39-0.24c0-0.16-0.08-0.31-0.08-0.47c0.01-2.42,1.65-5.14,2.44-7.4
		c0.47-1.4,0.71-2.96,1.18-4.36c0.63-1.95,1.34-4.21,3.21-5.29l0-0.31c0-0.23,0-0.55,0.31-0.54c0-0.23,0-0.39,0-0.62
		c0-0.78-0.23-1.48-0.3-2.26c0.24-0.78,1.49-2.26,1.49-2.88c0-0.23-0.08-0.55-0.08-0.78c0-0.47,1.02-1.64,1.25-2.18
		c0.79-2.03,1.89-6.31,2.91-7.95c0.55-0.86,0.55,0.08,0.55-1.25c0-0.39,1.33-1.87,1.57-2.49c0.87-2.26,1.03-4.68,2.28-6.78
		c0.86,0.24,1.71,0.86,2.65,0.87c0.39,0,0.78-0.08,1.17-0.23c0.62,0.94,0.46,2.65,1.47,3.2c1.02-1.32,0.64-3.82,1.81-4.99
		c0.93,0.63,2.18,0.94,3.19,1.49c-0.08,1.09-0.01,2.26-0.01,3.35c0,0.39,0.08,0.62,0,1.01c-0.08,0.39-0.31,0.78-0.32,1.17
		c0,0.47,0.47,1.02,0.62,1.48c0.46,1.87,0.53,6.24,0.52,8.27c0,0.55-0.08,1.17-0.08,1.72c0,0.7,0.23,1.48,0.7,2.03l0.16,0
		c1.17,0,0.94-1.32,1.25-2.02c2.28-5.77,4.09-11.77,6.84-17.3c0.16,0,0.23,0,0.39,0c0.86,0,1.25,0.63,1.87,0.63
		c0.7,0,1.17-0.46,1.64-0.46c1.09,0,0.69,2.42,0.69,3.12c0,0.16,0.08,0.39,0.08,0.55c0.08,0,0.23,0.08,0.31,0.08
		c1.25,0,2.04-3.04,2.9-3.89c0.08,0,0.23,0,0.31,0c0.78,0,0.78,0.78,1.4,0.94c0.47-0.31,1.09-0.62,1.72-0.62
		c0.7,0,1.25,0.47,1.24,1.17C391.05,299.81,387.92,305.89,387.21,307.37z M350.54,335.88c-0.23-0.16-0.47-0.31-0.78-0.31
		c-0.62,0-1.17,0.62-1.17,1.24c0,0.39,0.23,0.7,0.54,0.86l0.16,0c0.94,0,1.41-0.54,1.33-1.4L350.54,335.88z M352.03,331.99
		c0-0.39-0.15-0.7-0.54-0.7c-0.47,0-0.94,0.46-0.94,0.93l0,0.16c0.16,0.16,0.55,0.31,0.78,0.31c0.23,0,0.55-0.15,0.7-0.31
		C352.03,332.22,352.03,332.14,352.03,331.99z M357.38,319.52l-0.94,0c0,0.16,0,0.39,0,0.55c0,0.39,0,0.7,0.47,0.7
		c0.16,0,0.31-0.08,0.47-0.08L357.38,319.52z M358.42,308.06l-0.16,0.08l0,1.17l0.16,0c0.31,0,0.7-0.23,0.7-0.62
		S358.74,308.06,358.42,308.06z M360.94,301.98l-0.16,0c-0.55,0-1.02,0.54-1.02,1.09c0,0.39,0.23,0.62,0.54,0.7
		c0.24-0.47,0.63-0.7,0.63-1.32C360.94,302.3,360.94,302.14,360.94,301.98z M364.38,325.71l-1.17,0l-0.08,0.47
		c0,0.47,0.08,1.01,0.7,1.02l0.23,0c0.24-0.31,0.31-0.7,0.32-1.09C364.38,325.94,364.38,325.86,364.38,325.71z M364.93,323.53
		c0-0.39-0.08-0.7-0.31-1.01l-0.86,0c-0.08,0.23-0.16,0.47-0.16,0.7c0,0.55,0.39,0.78,0.93,0.78c0.16,0,0.23-0.08,0.39-0.08
		C364.93,323.76,364.93,323.68,364.93,323.53z M365.53,329.77c0-0.62-0.39-0.94-0.93-1.17c-0.23,0.16-0.47,0.54-0.47,0.86
		c0,0.55,0.47,0.7,0.93,0.7c0.16,0,0.31-0.08,0.47-0.08L365.53,329.77z M369.04,331.26l-0.62,0c-0.39,0-0.86,0-1.17,0.31l0,0.16
		c0,0.39,0.39,0.47,0.7,0.47c0.39,0,1.09-0.23,1.09-0.7C369.04,331.42,369.04,331.34,369.04,331.26z M371.64,323.94
		c-0.62,0-1.72,0.31-1.72,1.09c0,0.86,0.85,1.02,1.56,1.02c0.62,0,1.64-0.31,1.64-1.09C373.12,324.25,372.26,323.94,371.64,323.94z"
		/>
	<path d="M205.04,397.61c0,0.16-0.08,0.23-0.08,0.39c0,1.33,1.56,1.33,1.55,2.5c0,1.01-1.17,1.01-1.18,2.03
		c0,0.55,0.31,0.94,0.31,1.48c0,0.23,0,0.39-0.08,0.62c-0.55,0.15-1.17,0.15-1.72,0.15c-2.42-0.01-3.98-0.71-6.39-0.72
		c-3.9-0.01-2.89,1.94-4.84,2.56l0,0.23c0,0.39,0.15,0.78,0.15,1.17c0,0.23-0.08,0.39-0.16,0.62c-3.54,9.04-6.69,18.08-9.13,27.51
		c-0.16,0.08-0.39,0.08-0.55,0.08c-0.78,0-1.17-0.71-1.79-0.71c-1.01,0-1.41,2.65-2.97,2.1l-0.23-0.08
		c-0.62-0.86-0.62-2.42-0.93-3.51l-0.31,0c-1.09,0-1.25,1.09-2.27,1.16c-0.55-0.31-0.31-0.86-1.17-0.86c-1.48,0-1.65,2.33-3.52,2.33
		c-0.39-0.39-0.62-0.86-0.62-1.41c0-1.01,0.55-1.79,0.87-2.65c1.81-5.38,3.85-10.75,5.67-16.13c0.47-1.33,0.63-2.73,1.18-4.05
		c1.02-2.57,2.67-4.91,3.22-7.63c-0.39-0.55-1.09-0.63-1.71-0.63c-1.01,0-1.17,0.31-2.19,0.38c-1.17,0.15-2.42,0.23-3.59,0.22
		c-0.78,0-1.56-0.08-2.26-0.24c-0.08-0.16-0.23-0.39-0.23-0.55c0-0.78,1.41-1.48,1.41-2.1c0-0.78-0.7-0.86-0.7-1.48
		c0-0.23,0-0.31,0.08-0.55c1.02-0.7,2.65-0.62,3.51-1.47c0-0.16,0.08-0.23,0.08-0.39c0-0.55-0.39-1.02-0.39-1.56
		c0-0.16,0.08-0.23,0.08-0.39c1.01-0.31,2.34-0.3,3.2-0.85c-0.38-1.72-2.8-1.26-3.81-2.35c0-0.16-0.08-0.31-0.08-0.47
		c0-0.47,0.39-0.86,0.39-1.33c0.55-0.31,1.33-0.31,1.95-0.31c2.5,0.01,4.29,0.4,6.78,0.41c3.82,0.01,7.57-0.29,11.39-0.28
		c1.4,0,2.81,0.01,4.21,0.25c0.62,0.08,1.17,0.47,1.79,0.63c1.56-0.7,3.04-0.93,4.76-0.92c1.17,0,2.34,0.08,3.51,0.32
		c-0.08,1.01-0.86,1.4-0.87,2.34c0,1.09,2.65,0.71,2.65,2.35C208.71,396.76,206.6,396.99,205.04,397.61z M190.76,398.19
		c-1.09,0-2.5,0.46-2.81,1.71c0.39,0.08,0.39,0.62,0.62,0.86c1.64-0.78,3.74,0.17,5.23-1.15
		C193.26,398.58,191.78,398.19,190.76,398.19z M190.9,405.44c-0.16-0.16-0.39-0.31-0.62-0.31c-0.39,0-0.78,0.23-1.17,0.31l0,0.16
		c0,0.39,0.39,0.47,0.7,0.47c0.31,0,1.09-0.15,1.09-0.54V405.44z"/>
	<path d="M243.08,404.67c-0.03,8.58-3.33,17.93-8.58,24.7c-0.55,0.7-1.1,1.71-1.8,2.33c-0.39,0.39-1.02,0.47-1.48,0.85
		c-0.47,0.31-0.63,0.86-1.1,1.17c-3.36,2.49-7.73,3.56-11.87,3.55c-1.4,0-3.59-0.17-4.83-0.72c-3.66-1.65-4.99-1.96-6.77-5.87
		c-0.54-1.25-1.47-2.89-1.47-4.29c0-1.09,0.32-2.18,0.32-3.28c0-0.7-0.54-1.33-0.54-2.03c0-0.7,0.24-1.4,0.32-2.11
		c0.56-3.67,2.13-7.09,3.54-10.52c0.47-1.09,0.71-2.18,1.18-3.2c1.65-3.5,4.23-6.46,6.74-9.34c3.13-3.58,8.29-5.59,12.89-6.36
		l0.16-0.08c0.47-0.23,1.09,0.16,1.56,0.32c0,0.7-0.16,1.4-0.16,2.11c0,0.47,0.15,0.86,0.46,1.17c0.07,1.09-1.17,0.93-1.18,1.95
		c0,0.16,0,0.23,0,0.39c1.17,0.94,2.49,2.04,4.13,2.04c0.94,0,0.4-2.34,0.87-2.96c0.31,0.08,0.62,0.24,0.94,0.24
		c1.56,0,0.71-2.26,1.72-2.8c2.65,0.32,4.97,8.28,4.96,10.62L243.08,404.67z M228.82,401.66c-4.84-0.01-9.15,9.1-10.34,13
		c-0.63,2.1-1.18,4.52-1.19,6.7c-0.01,1.95,0.45,4.45,2.87,4.46c1.79,0.01,2.58-1.55,3.67-1.55c0.31,0,0.62,0.08,0.94,0.08
		c0.16,0,0.23,0,0.39,0c0-0.16-0.08-0.39-0.08-0.55c0-0.62,0.24-1.17,0.4-1.79c2.82-3.42,4-7.79,4.95-12
		c0.4-1.64,0.87-3.35,0.87-5.07C231.31,403.3,230.69,401.66,228.82,401.66z M219.14,430.18c-0.47,0-0.78,0.39-0.78,0.86
		s0.31,0.86,0.78,0.86c0.47,0,0.78-0.39,0.78-0.86S219.6,430.18,219.14,430.18z M223.97,430.97c0-1.09-0.62-2.26-1.63-1.72
		l-0.16,0.08c-0.23,0.23-0.31,0.78-0.32,1.17c0,0.39,0.08,0.94,0.31,1.17l0.55,0c0.39,0,0.94,0,1.25-0.31L223.97,430.97z"/>
	<path d="M288.81,397.86c-1.1,2.42-2.35,4.75-3.22,7.24c-0.16,0.47-0.16,1.17-0.32,1.48c-0.24,0.39-0.7,0.47-0.86,0.86
		c-0.31,0.62-0.32,2.18-0.55,2.96c-0.24,0.78-0.63,1.56-0.94,2.34c-1.89,5.14-3.62,10.36-5.59,15.51c-0.39,1.01-0.79,2.96-1.49,3.74
		c-0.16,0.16-0.47,0.16-0.55,0.31c-0.47,0.54-0.63,1.17-1.18,1.71c-2.27,2.33-5.94,3.02-9.06,3.25c-0.55,0.08-1.17,0.15-1.72,0.15
		c-0.55,0-1.09-0.16-1.56-0.47c-0.62,0-1.33,0.15-1.72,0.62c-3.74-0.64-7.8,0.05-11.39-1.21c0-0.16-0.08-0.31-0.08-0.47
		c0-1.09,1.1-1.17,0.94-2.49c0.7-0.39,1.64-0.85,1.64-1.79c0-0.31-0.08-0.62-0.15-0.86c-0.23-0.16-0.47-0.31-0.78-0.32
		c-0.7,0-1.25,0.62-1.95,0.62l-0.23,0c-0.23-0.78-0.54-1.17-0.54-2.03c-0.16,0-0.31-0.08-0.47-0.08c-0.62,0-1.17,0.39-1.79,0.38
		c-0.31,0-0.47-0.16-0.7-0.31l0-0.55c0.01-1.64,0.48-3.2,0.87-4.76c2.68-9.82,6.38-19.17,10.07-28.6c0.39-1.01,1.26-3.74,2.04-4.36
		c0.47-0.39,1.17-0.62,1.8-0.62l0.23,0c0.54,0.94,0.3,2.96,0.3,4.06c0,0.62,0,1.25,0.31,1.79c2.11-0.15,1.88-2.49,3.21-3.5
		c0.31,0.16,0.78,0.31,1.17,0.32c1.33,0,1.8-1.63,2.66-2.33c1.09,0,1.01,1.25,1.16,2.03c0.08,0,0.23,0,0.31,0
		c0.62,0,1.17-0.31,1.79-0.31c0.16,0,0.39,0,0.55,0c-0.01,1.95-1.49,3.35-2.35,4.98c-0.86,1.64-1.57,3.35-2.36,4.99
		c-1.02,2.26-2.12,4.6-2.98,6.93c-0.39,1.09-0.71,2.57-1.18,3.58c-0.16,0.31-1.17,1.17-1.49,1.71l0,0.31
		c-0.01,3.28-1.97,6.08-2.06,9.35c0.39,1.09,1.79,1.25,2.8,1.26c1.17,0,2.58-0.23,3.67-0.61c0.55-1.64,1.18-3.51,2.59-4.67
		c0-0.55-0.31-0.94-0.31-1.48c0-0.23,4.32-11.14,4.8-12.31c1.1-2.73,2.43-5.45,3.53-8.18c0.86-2.18,1.18-4.68,2.91-6.39
		c1.64-0.07,1.08,2.5,2.18,2.5c0.7,0,1.1-1.56,1.96-1.55c0.23,0,0.39,0.08,0.54,0.24c0.08,0.23,0.08,0.39,0.08,0.62
		c0,0.78-0.4,1.48-0.4,2.26c0,0.31,0.08,0.7,0.31,0.94l0.16,0c1.17,0,1.25-1.32,1.64-2.1c0.31-0.54,1.26-2.49,1.88-2.49
		s1.17,0.94,1.63,1.33c0.62-0.16,1.02-0.86,1.64-0.85c0.23,0,0.55,0.16,0.7,0.31C290.54,394.59,289.6,396.23,288.81,397.86z
		 M256.49,433.1c-0.08,0-0.16,0-0.23,0c0,0.31,0,0.7,0,1.01c0,0.47,0.07,1.09,0.62,1.09c0.24-0.54,0.47-1.17,0.55-1.79
		C257.11,433.34,256.88,433.1,256.49,433.1z M262.04,427.58c-0.08,0-0.16,0-0.23,0c-0.23,0.23-0.31,0.62-0.31,0.94
		c0,0.39,0.23,0.86,0.7,0.86c0.08,0,0.16,0,0.23,0c0.23-0.23,0.31-0.62,0.32-0.93C262.74,428.05,262.51,427.58,262.04,427.58z"/>
	<path d="M320.57,394.99c0,0.7,0.54,1.33,0.54,2.03c0,0.23-0.08,0.47-0.24,0.62c-0.23,0-0.55,0-0.78,0c-1.17,0-2.02-1.18-3.35-1.18
		c-0.23,0.16-0.31,0.39-0.31,0.7c0,0.78,0.7,1.41,0.69,2.42c0,0.86-1.41,0.46-1.8,0.93s-0.4,1.71-0.63,2.34
		c-1.25-0.24-2.49-0.63-3.74-0.64c-1.64,0-1.72,0.54-2.97,1.24c-0.47,0.23-1.02,0.23-1.48,0.54c-1.64,1.09-2.04,3.58-3.84,4.67
		c-0.56,4.13-2.91,7.79-2.92,12c-0.01,2.34,0.38,2.5,1.47,4.37l0.23,0c0.16,0,0.31,0.16,0.31,0.31c0.31,0.08,0.7,0.08,1.01,0.08
		c1.4,0,2.89-0.46,4.29-0.69c0.94-0.15,1.33-1.01,1.95-1.01c0.23,0,0.47,0.08,0.62,0.16c0,0.08,0.08,0.23,0.08,0.31
		c0,0.7-0.63,0.93-0.63,1.95c0,0.78,1.17,0.55,1.17,1.25c0,1.33-2.03,1.4-2.66,2.33c0.15,1.25,2.18,0.94,2.96,1.49
		c0,0.7-0.63,1.09-0.63,1.48c0,1.01,1.48,1.02,1.48,2.03c-0.01,2.11-9.29,3.64-11.09,3.63c-9.67-0.03-13.32-7.29-13.29-16.03
		c0.01-2.42,0.02-5.23,0.73-7.56c0.16-0.47,0.47-0.78,0.63-1.17c0.63-1.87,0.71-3.98,1.42-5.85l0.63-0.62
		c0.24-0.7,0.24-1.4,0.55-2.03c0.39-0.78,1.1-1.32,1.49-2.02c0.47-0.78,0.63-1.64,1.18-2.34c0.23-0.31,0.63-0.54,0.86-0.85
		c0.23-0.39,0.39-0.78,0.63-1.17c0.86-1.09,2.42-1.55,3.21-2.64c0.24-0.31,0.32-0.93,0.63-1.17c0.23-0.23,0.55-0.15,0.86-0.31
		c2.73-1.63,5.79-5.05,9.14-5.04c0.55,0,1.01,0.16,1.56,0.16c0.86,0,1.72-0.62,2.58-0.62c3.51,0.01,4.29,0.79,7.17,2.36
		c0.54,0.31,2.1,0.71,2.1,1.49C322.36,394.22,320.57,394.14,320.57,394.99z M292.4,421.82c-0.16,0.23-0.47,0.47-0.47,0.78
		c0,0.23,0.08,0.47,0.15,0.7c0.08,0,0.16,0,0.23,0c0.39,0,0.7-0.39,0.7-0.78C293.02,422.21,292.79,421.82,292.4,421.82z
		 M293.58,419.48l-1.17,0c0,0.16,0,0.39,0,0.55c0,0.55,0.31,0.94,0.85,0.94c0.16,0,0.23,0,0.31,0L293.58,419.48z M300.18,429.1
		l-0.16,0.08c-0.16,0.31-0.47,0.7-0.47,1.09c0,0.23,0.08,0.39,0.15,0.62c0.16,0.08,0.23,0.08,0.39,0.08c0.55,0,0.78-0.47,0.78-0.93
		C300.88,429.57,300.65,429.1,300.18,429.1z M304.8,397.83c-0.24,0.31-0.31,0.78-0.32,1.17c0,0.7,0.31,1.56,1.09,1.56
		c0.08,0,0.31-0.08,0.39-0.08c0.16-0.23,0.24-0.54,0.24-0.86C306.2,398.85,305.66,397.84,304.8,397.83z"/>
	<path d="M367.3,390.77c0,1.64-0.71,2.49-1.8,3.58c-0.79,2.96-2.51,5.61-3.54,8.49c-2.52,6.78-5.35,13.4-7.63,20.18
		c-0.87,2.49-1.58,5.07-2.36,7.56c-0.24,0.78-0.63,1.56-0.87,2.34c-0.32,1.4,0.07,2.96-0.95,4.13c-2.26,0.07-1.79-2.73-2.33-4.14
		c-1.95,0.7-1.34,3.82-3.21,4.67c-1.64-0.16-1.55-2.27-1.47-3.51h-0.16c-1.79-0.01-1.18,2.96-2.43,2.96c-1.01,0-0.85-1.41-1.16-2.03
		l-0.23,0c-1.01,0-1.56,1.01-2.26,1.01c-0.16,0-0.31-0.08-0.47-0.16c0-0.16,0-0.39,0-0.55c0.01-2.11,4.33-12.78,5.35-15.27
		c-0.08-0.62-0.47-0.78-1.01-0.78c-0.62,0-1.33,0.23-1.95,0.23c-1.48,0.07-2.96,0.07-4.37,0.53c-1.17,0.93-1.33,2.8-1.81,4.13
		c-0.47,1.4-1.02,2.65-1.42,4.05c-0.79,2.88-0.88,6.47-2.37,9.12l-1.79-0.01c-0.47-0.62-0.23-2.26-0.22-3.04
		c0-0.16-0.08-0.31-0.08-0.47c-0.08-0.08-0.16-0.08-0.31-0.08c-0.7,0-0.94,0.93-1.33,0.93c-0.39,0-0.62-0.7-0.62-1.02
		c0-0.78,0.32-1.4,0.32-2.18c0-0.47-0.23-1.25-0.85-1.25s-0.55,1.09-0.71,1.48c-0.55,1.4-1.41,2.96-2.35,4.13
		c-0.16,0-0.23,0.08-0.39,0.08c-0.86,0-0.7-1.25-1.32-1.25c-1.56,0-1.72,1.48-2.97,1.47h-0.23c-0.08-0.39-0.15-0.78-0.15-1.17
		c0.01-1.79,1.02-3.35,1.58-4.99c3.46-9.9,6.69-19.87,10.62-29.53c0.79-1.87,1.57-3.66,2.36-5.53c0.79-1.79,1.42-3.74,2.67-5.3
		c1.25-0.15,0.93,1.8,1.79,1.8c1.33,0,1.25-1.79,2.74-1.79h0.16c0.47,0.47,0.31,1.72,0.3,2.34c0,0.39,0,0.86,0.31,1.17
		c1.87-0.7,1.96-1.4,2.89-2.8c0.47-0.7,1.49-1.01,1.49-2.02l0.86,0c0.62,1.25,0.7,1.17,0.62,2.5c0.16,0.23,0.23,0.47,0.54,0.47
		c0.39,0,0.78-0.31,1.25-0.31c0.23,0,0.39,0,0.55,0.16c-0.87,2.96-2.83,5.45-4.16,8.18c-0.71,1.4-1.02,2.96-1.73,4.36
		c-0.63,1.32-1.8,2.57-1.81,4.13l0,0.31c0.15,0.47,0.54,0.62,1.01,0.63c0.62,0,1.33-0.31,1.95-0.38c0.86-0.08,3.04,0.09,3.75-0.22
		c1.33-0.62,1.65-3.12,2.12-4.44c0.55-1.56,1.41-2.88,2.04-4.36c0.71-1.64,2.91-7.71,3.85-8.73c0.08-0.16,0.31-0.23,0.47-0.23
		c0.55,0,0.62,1.09,1.56,1.1c1.17,0,1.02-1.79,2.35-1.79c0.08,0,0.23,0,0.31,0c0.23,0.31,0.23,0.7,0.23,1.09
		c0,1.09-0.48,2.18-0.48,3.27c0,0.47,0.08,0.94,0.46,1.25c1.8-0.77,1.96-3.11,3.52-4.12c0.94,0,1.09,0.86,1.48,1.49
		c1.72-0.23,1.57-2.34,3.44-2.33l0.39,0L367.3,390.77z M330.52,405.4l-0.16,0c-0.24,0.31-0.31,0.7-0.32,1.09
		c0,0.16,0.08,0.23,0.08,0.39c0.08,0,0.16,0,0.23,0c0.47,0,0.7-0.54,0.71-0.93C331.06,405.63,330.83,405.4,330.52,405.4z
		 M332.71,401.9h-0.08c-0.39,0-0.78,0.08-1.09,0.31l0,0.08c0,0.39,0.31,0.62,0.31,1.09h0.23c0.62,0,0.78-0.54,0.71-1.01
		L332.71,401.9z M345.82,426.51c-0.23,0.16-0.47,0.54-0.47,0.86c0,0.55,0.54,0.78,1.09,0.86c0.16-0.16,0.23-0.39,0.24-0.62
		C346.68,427.13,346.29,426.59,345.82,426.51z M346.73,409.27h-0.16c-0.31,0-0.78,0-1.01,0.23l0,0.16c0,0.62,0.47,0.7,0.93,1.02
		c0.24-0.31,0.31-0.62,0.32-1.01C346.81,409.51,346.73,409.43,346.73,409.27z M351.68,421.85c-0.31,0-0.47-0.31-0.78-0.32h-0.08
		c-0.31,0.23-0.55,0.7-0.55,1.09c0,0.47,0.31,0.7,0.78,0.71c0.16,0,0.16,0,0.31,0v-0.16c0-0.39,0.39-0.62,0.39-1.01
		C351.76,422.08,351.68,421.92,351.68,421.85z"/>
</g>
<g>
</g>
<g>
</g>
<g>
</g>
<g>
</g>
<g>
</g>
<g>
</g>
</svg>
