<?xml version="1.0" encoding="utf-8"?>
<!-- Generator: Adobe Illustrator 24.1.0, SVG Export Plug-In . SVG Version: 6.00 Build 0)  -->
<svg version="1.1" id="get_x5F_in_x5F_touch" xmlns="http://www.w3.org/2000/svg" xmlns:xlink="http://www.w3.org/1999/xlink"
	 x="0px" y="0px" viewBox="0 0 433.33 364.11" style="enable-background:new 0 0 433.33 364.11;" xml:space="preserve">
<style type="text/css">
	.st0{fill:#FFFFFF;}
	.st1{fill:#231F20;}
	.st2{fill:#94618E;}
</style>
<g>
	
		<rect x="39.93" y="-27.81" transform="matrix(2.967024e-03 -1 1 2.967024e-03 32.8591 396.9086)" class="st0" width="351.09" height="419.57"/>
	<path class="st1" d="M419.28,351.24v1.4h-0.53h0.51c0.06-8.27,0.12-16.75,0.18-25.29c0.12-10.42,0.25-20.93,0.38-31.36
		c-0.43,9.95-0.86,20.29-1.22,30.74c-0.16,5.23-0.32,10.48-0.48,15.73c-0.07,2.61-0.13,5.21-0.2,7.81l-0.13,0.88l-0.61-0.07h-0.28
		h-2.53L404,351c-6.78,0-13.42,0.07-19.83,0.22c-12.82,0.3-24.73,0.95-35.07,2.06c-3.88-2.18-49.1-3.28-50.1-2.78
		c-9.4,0.36-18.92,0.65-28.55,0.88l19.75-0.46l-19.75,0.46c-60.86,1.46-127,0.54-195.34-0.49l-63.2-0.72L12,349l0.08-7.58
		c0.05-5.2,0.1-10.43,0.15-15.63c0.11-10.4,0.22-20.69,0.33-30.44c0.21-19.49,0.44-36.78,0.66-48.38l0.26-16.93L13,248.93
		c-0.5-23.71-1-45.2-1.28-66c-0.32,3.66-0.61,4.3-1.06,13l0.23-10.61c-0.85-9.68-0.74-32-1.08-42.46c0.46,2.25,0.57-6,0.66-13.29
		l-0.31,2.88c0.28-27.65,0-59.76,0.13-84.48c0-3.44,0.19-6,0.35-7.58l-0.28-23.7c0.1,0.3,0.19-0.05,0.26-0.79
		c0-0.38,0.07-0.85,0.1-1.38v-0.8v-0.38c0.1-1,0.17-2.2,0.24-2.66c0.41,0.05,0.52,0.1,0.16,0.16c0,0.21,0.07,0.54,0.11,1l-0.1-1
		c0.7-0.07,1.48-0.13,2.29-0.18h0.63h1.59h3.18l12.67-0.09c8.4,0,16.71-0.1,24.76-0.44c60.45,0.09,124.75-0.18,187.23-1l-1.53-0.24
		c21.88-0.34,41.16-1.5,67.76-1c19-0.77,46-1.12,53.55-2.39c21.91-0.11,30.65-0.73,52.14-1c-5.54-0.65,20.87-0.71,10.3-1.23
		c-14.25-0.94-15-0.18-27.13-0.94l0.36,0.22C342.6,1.3,286.07,0.58,228.85,0.1C190.67,0.53,149.25,0,109.55,0l-53,0.21L1,0.57
		c0,6.12,0.06,11.74,0.09,17.05L1.2,28.15c0.19,8.75-0.37,15.06-0.69,22.52c0.19,33.71-0.16,76.62,0.07,114.66v-1.87
		C0.65,183.67,0,198.8,0,218.54c0.18-0.1,0.19,3,0.28,4.44c-0.86,3.43,1.4,116.17,0.9,123.13v3.26v4.82l-0.06,6.67l11.35,0.13
		l7.75,0.14l15.14,0.33l29.92,0.74c19.66,0.48,38.61,0.88,55.85,0.86c7.76-0.37,16.5-0.69,23-1.12c6.32,0.38,7.54-0.32,15.16-0.2
		c19.33,1.76,30.67,1.08,20.68,0.45c15.92-0.18,31.89,0,46,0l19.68-0.34c3.87-0.16,7.74,0.03,11.58,0.55
		c14.38-0.2,10.14,0.21,25.21,0.43c3.64,0.6,37.79-0.83,42.05-0.64l-2.46,0.08c17.42,0.16,29,1.34,46,1.45l28,0.25l34.39,0.14
		c0-16.93,0.07-33.8,0.1-50.24c0.07-14.5,0.13-28.62,0.18-42c-0.62-0.44,0.11,9.67-0.71,10.18c0.18-25.86,1-51.93,1.22-78
		c0.18-4.7,0.51-10.46,0.71-12.6c0.26-8.34-0.28-4.93-0.18-11l0.57-0.82c-0.44-8.93,0.66-13,0.45-21.45
		c-0.25-2.15-0.32-4.32-0.22-6.49c0.6-0.15,0-9.19,0.53-8.76v-0.09c0-1.8,0-3.07,0.09-5.27c-0.2-3.42-1.74-35.46-2-38.93l0.1-1.62
		c0-4.79-0.43-6.84-0.55-4L431,87v0.68l0.05-5.87c0.06-1.09,0.34-2.31,0.59-0.64c-0.19-3.33-0.29-7.07-0.18-10.4
		c-0.39,9.26-0.95,20.76-1.58,30.44c-0.19-4,0.15-11.17,0.1-15.48c0.4-5.15,0.77-15.74,1.07-24c0-1.81-0.69-3.06-0.39-7.17
		c0.47-2,0-4.64,0.34-8c0.24,3.92,0.11,7.76,0.08,11.74c0.54-0.68,0.4-9.68,0.56-12.82c-0.17-1.48,0-9.15-0.1-14
		c0.51,2.1,0.34-3.89,0.63-6.75c0.07-3.25-0.13-5.34-0.32-4c-0.56-1.05-0.38,13-1,8.41c0.28-1.19,0.21-7.56,0.19-11
		c-0.31,0-0.24,2.34-0.53,0.12c0.08-3.82-0.28-7.86,0-10c0.08,0.72,0,2.29,0,3.41c0-5,1.93,26.92,1.77,20.49
		c-0.28,1.67-1.74-28.29-1.77-25c-0.16,3-0.55-2.17-0.67,1l0.36,3.48c-0.12,4.28-0.67,6-0.88,4.53c0.07-7.18,2,20.39,1.75,14.25
		l-0.07,2.4c-0.26-4.07-0.26-8.16,0-12.23c-0.31,0-0.4-3.52-0.51-6.43l0.06-1c-0.15-3-0.06-7.19-0.47-5.24
		c0,17.6-3.06-11.59-3.29,5.46c0.69-7.15,0.68,2.41,0.74,9.91c-0.5,3.13-0.76,6.29-0.77,9.46c0,4.68,0.23,2.76,0.4,3.65
		c-0.16,2.59-0.3,7.54-0.65,6.89c0.41,3.65-0.29,5.82-0.16,10.19c0.19,3.85,0.19-0.26,0.38,2.47c-0.07,5.78-0.18,13.88-0.24,18.48
		c-0.34,1.78-0.94,7.19-1.45,3.25c0.1-8.76,0.83,3.34,0.75-5.78c-0.77,3.92-0.18-8.07-0.75-9.73c-0.34,4.56-0.44,9.14-0.3,13.72
		l0.11-1c0.08,4.34,0.22,13-0.21,17.71c-0.26-1.1-0.46,1-0.52-2.24l-0.07,6c0.08,0.76,0.17,1.54,0.23-0.18
		c0.16,2.6,0.13,5.21-0.09,7.8c-0.28,0.65,1.09,31.78,0.92,30.82c0,4.3-0.43,5.34-0.16,9.54c0.06,0.11,0-2.41,0-6.15
		s-0.19-8.73-0.29-13.55c-0.23-9.63-0.48-18.6-0.45-15.76c-0.32,3.68,1.27,48.78,0.72,51.46c0,3.19,0.06,7,0.35,6.29
		c-0.15,5.39-0.54-1.62-0.82,2.22c0.05,0.09,0.14-0.31,0.13,0.91l-0.37,3.69c0.42,8.37-0.2,20.64,0.36,29.4
		c-0.3-2.54-0.84-5.43-1.1-11.07l0.15-1c-0.08-0.8-0.17-5.44-0.45-5.31c-0.21,5.35-0.17,9.94,0.09,15.58
		c-0.08,1-0.16,2.25-0.24,3.06c0,0,0.07-0.1,0.11-0.08c-0.18,1.84-0.21,1.64-0.32,1c-0.03-0.13-0.05-0.26-0.06-0.39
		c-0.85,3.36,0.46,21,0,30.81c0.11,2.89,0.14,0.28,0.29,3.86c-0.36,10-0.64,16.89-0.86,27.34c0.35,3.34,0.49,3.6,0.88-0.43
		l-0.14,7.9c-0.94-7.19-1,14.74-1.9,6.82c-0.25,3.81-0.3,7.64-0.14,11.46c0.24,0.44,0.62,1.14,0.6,6.7
		c-0.34,7.74-0.22,5.9-0.55,12.31c-0.32,1.51-0.43-0.84-0.68-0.57c0.37,9.89-0.72,8.63-0.68,18c0.07,5.84,0.07,17.38,0.62,17.66
		c0,1,0,1.85,0,2.6v1v0.49c-0.01,0.29-0.08,0.58-0.2,0.85C419.72,351.65,419.51,351.45,419.28,351.24z"/>
</g>
<g>
	
		<rect x="52.42" y="-12.04" transform="matrix(2.967024e-03 -1 1 2.967024e-03 32.8542 396.9036)" class="st2" width="326.09" height="388.04"/>
	<g>
		<path class="st1" d="M415.85,68.35c0-7.25-1,20.14-1.24,4.71c-0.76,10.71,0.12,33.05-0.06,46.58c-1.15,1.58-2.12-10.4-3.05,13.84
			c-0.74,32.42,2.3,4.11,2.33,33.06l0.37-19.82c1.84,19.84,0.44,67,0.76,101c-1.42,25.49-4.28,48.52-3.83,81.8
			c-0.17-1.83-0.55-10-1.16-8.37c-0.28,3.05-0.36,7.28-0.34,11.54c0,2.14,0.05,4.22,0.09,6.3c0.06,2.24,0.11,4.33,0.15,6.11
			c0,0.64,0.08,1.25,0.12,1.46c-1.85,0.1-3.7,0.29-5.53,0.59c-0.83,0.18-0.71,0.34,0,0.5c1.41,0.32,5.3,0.6,7.5,0.91
			c0.17-1,0.35-1.26,0.55,0.55c0.16,0-0.14,0.11-0.6,0.14l-8.19,0.23l-2,0.06l-1.35,0.06l-2.73,0.12c-3.64,0.15-7.35,0.3-11.24,0.4
			c-7.79,0.21-16.31,0.24-26.5-0.13l-25.29-2.55c-17,3.09-43.88-0.07-78.21,0.86c-6.7-1.64-42.25,0.53-49-1.11
			c-16.11,0-3-4.39-16.09-5.66c-22.82-1.1,15.82-0.7-7-1.8c24.81-0.57,7.85,4.35,41.13,3.9l-1.63-0.61
			c13.69-0.89,37.34,1.06,46.74-0.57c35.73,0.45-0.61,2.32,16.91,3.71c10.23-1.33,50.65-1.69,52.12-3.72l-27.77-0.06
			c4.5,0,1-0.47,2.86-0.64c19.18,2,69.7-5.73,55.53,0.12c-3.68,0.34-13.47,0.12-16.36,0.76c1.42,1.38,20.43,0.75,34.72,0.93l9.8-1
			l2.57-0.26l0.65-0.06h0.32h0.19l0.66-0.12c0.85-0.17,1.59-0.34,2.23-0.49l-0.3-1.77l-0.13-0.77l-0.07-0.36v-0.09
			c-0.01-0.05-0.01-0.11,0-0.16v-0.49c-0.16-2.63-0.29-5.36-0.37-8.18c-0.18-5.66-0.19-11.72,0.06-18.3c0.4-8,1.21-3.24,1.6-11.2
			c-1.35-47,1.91-45,1.39-94.44c1.79-30.84,0.7-68.62,2.5-99.46c-1.24,4.69-0.5-20.46-0.31-26.76c0.99-11.18,1.39-22.41,1.2-33.64
			c0,7.24,0.58,2.84,0.87,7.88c-0.5-27.69,1.41-32.74,2.56-34.3C414.67,41,416.6,43.16,415.85,68.35z"/>
		<path class="st1" d="M120.43,348.23c5.53-2.47-46.89-0.94-22.22-3.65c-11.34-0.48-22.69-0.28-34,0.61
			c19.36,0.92-4.72,0.35,5.67,1.49L45.25,347l-12.18,0.13l-14.94,0.1C18.04,335.15,18,323.14,18,311.21c0-10.99,0-21.9,0-32.74
			c0.05-21.69,0.17-43.1,0.34-64.22c2-42.9,0.34-80.93-1.37-122c0.77-25.31,2.58-8.86,3.88-3.11L21,57.39l1.49,32.08
			c1,1,1.07-13.37,1.81-21.32L24,59.21c4.45,10.56-0.3,63.58,0.91,93.91c-0.2-36.51-1.49,5.66-2.34-9.77l-0.18,11.43
			c0-10.18-1.22-30.32-1.4-56.66c-0.76,73.23,0.8,146,2.74,206.17c-0.27-1.75-0.62-6.46-0.95-1c-0.08,9.85,0.38,17.85,1,24.53
			c0.29,3.35,0.62,6.36,0.93,9.12l0.05,0.51l0.06,0.23l0.12,0.42l0.21,0.74c0.15,0.44,0.28,0.79,0.39,1.08l1.06-0.23l-1,0.2
			c-0.17-0.62-0.35-1.41-0.52-2.38c-0.18,1.06-0.28,2.13-0.32,3.21c0.74,0,1.55,0.05,2.39,0.05l4.49-0.05
			c3.73-0.06,7.61-0.17,11.51-0.29c7.78-0.24,15.62-0.55,22.42-0.62c17.6,1.2,29.26,2.55,59.05,1.82l-1,0.95l24.07,0.57
			c-6,0.15-3.52,0.56-2.27,0.76c-1.75,0.27-3,0.07-7.2-0.06c-1.53,1.44,10.83,3.46,24.21,4.53c-4.21-0.12-8.43-0.26-11.42-0.18
			c10.92,0.66,48.87,1.82,30,3.22C149.16,351.25,149.75,348,120.43,348.23z"/>
		<path class="st1" d="M258.16,342.13c-23.05-0.87,6.54-1,1.46-2h20.64C280.85,341.16,260.23,341.19,258.16,342.13z"/>
		<path class="st1" d="M90.06,13.55c2,0.89,16.89,0.52,25.3,0.78c16.67-0.65,20.69-1.67,44.73-1.1
			c-18.71,2.55,19.78,3.24,36.87,4.92c-11.92,0.29-33.83,1.76-52.66,0.36c2.26-0.75-14.62-1.27-23-1.53
			c-13,1.25,10.3,3.94-42.34,4.3c-9.67-0.46-33.53,0.13-32-1.31c-3.31-0.16-6.62-0.06-9.91,0.27c-1.66,0.12-3.35,0.21-5.08,0.2
			c-0.86,0-1.74,0-2.63-0.11c-0.25,0-0.42,0-0.58,0l-0.5-0.08c-0.34-0.05-0.7-0.11-1.08-0.19c-1-0.2-2.15-0.41-3.39-0.61l31.91-0.81
			c2.2,0.4,4.43,0.58,6.67,0.54c-6.18-1,35.59-2,14.29-3.85l-44.95-0.06l-1.75-0.12L28.63,15c-0.88-0.09-1.25-0.18-1.13-0.27
			c0.16-0.07,0.34-0.12,0.52-0.13l0.51-0.06c0.18,0,0.49,0,0.62-0.07c0.65-0.08,1.57-0.16,2.69-0.24c4.52-0.32,12.41-0.57,20.5-0.65
			C75.88,14.6,74.63,14.4,90.06,13.55z"/>
		<polygon class="st1" points="20.15,62.35 19.75,64.8 19.48,25.29 		"/>
		<path class="st1" d="M236.82,13.44c-7.72,0.42-14.42-0.11-22.11,0.31l-0.93-1.84L236.82,13.44z"/>
		<path class="st1" d="M26.21,214c1.66,10.46,0.68,37,2.06,45.72c0.06-7.2-0.35-4.71-0.63-6.47l-0.59,13.89
			C25.93,250,26.45,233.11,26.21,214z"/>
		<path class="st1" d="M314.77,13.85c26.33-0.18,31.36-2.17,62.13-1.06c6.68,0.53-8.24,0.9,1.45,1.36s11.91-0.29,16.64-0.64
			l-3.71-0.61c7.41,1.22,31,2.27,18.74,4.2c-38.49-0.69-56.19,3.71-85.95,1.65l-5.18-2L301,17.22c-1.22-0.2-0.72-0.68-6.68-0.54
			c-12.44,0.78,9.15,0.94,8.14,1.9l-34.55,1.08c-4.22-0.13,3.5-0.55,2.26-0.75c-16.37-1-26.62,1.82-40.72,0.07l21.38-1
			c-25.82-0.29-45.15-1.21-63.25-1.93C239.21,16.64,267.68,11.75,314.77,13.85z"/>
	</g>
</g>
<g>
	<path class="st1" d="M165.66,91.71c0.01,0.27,0.06,0.53,0.16,0.78c-0.2,0.06-0.42,0.08-0.63,0.07c-0.7,0-1.17-0.62-2.26-0.63
		c-0.86,0-0.39,1.48-1.25,1.48c-0.7,0-1.33-0.47-2-0.47c-0.22-0.04-0.44,0.02-0.62,0.15v0.31c0,1.48,1.16,2,1.16,3.52
		c-0.47,0.46-1.64,0.22-2.27,0.22c-1.79,0-1.09,1.17-2.42,1.17s-2.17-3.83-4.74-3.84c-1.17,0.01-2.34,0.22-3.44,0.61
		c-5.08,2.09-10.26,15.18-12,19.86c-1.11,3.11-2.75,6.15-2.76,9.51c0,3.19,1.38,7.72,5.28,7.73c0.81-0.02,1.61-0.2,2.34-0.54
		c1.58-0.76,2.99-1.85,4.14-3.18c0.16-0.31,0.16-0.7,0.32-0.94s0.39-0.07,0.55-0.23c0.54-0.86,1.04-1.74,1.49-2.65
		c0.62-0.93,1.8-2,1.8-3.27c0.01-0.18-0.01-0.37-0.08-0.54c-0.78-0.55-2.65-0.24-3.66-0.25c-0.78,0-2.19-0.24-2.18-1.33
		c0-0.55,0.55-1.09,0.63-1.64c-0.31-0.86-2-0.31-2.34-1.17c0.08-1.64,2.58-0.93,3.52-1.79v-0.23c0-0.7-0.86-1.17-0.86-1.72
		c0-0.31,0.32-0.47,0.55-0.62c0.08-1.09-1.17-0.94-1.16-2c0-2.81,7-2,8.74-2c3,0,5.85-0.61,8.82-0.6c0.18,0.19,0.29,0.44,0.31,0.7
		c0,0.62-0.32,1.17-0.32,1.79c0,1.64,1.24,0.55,1.79,1.26v0.31c0,0.7-0.71,1-0.63,1.79c0.85,0.63,3-0.15,3.51,0.87
		c-0.09,2-1.26,3.74-2,5.53c-0.55,1.25-1.42,4.37-2,5.3c-0.16,0.23-0.55,0.39-0.63,0.54c-0.39,0.78-0.71,1.87-1.1,2.73
		c-1.06,2.17-2.38,4.21-3.92,6.07c-4.7,5.68-12.67,11.43-20.39,11.41c-3.45-0.12-6.86-0.85-10.06-2.14
		c-0.83-0.53-1.61-1.13-2.33-1.8c-1-0.89-1.79-1.99-2.33-3.21c-0.16-0.39-0.08-0.78-0.23-1.17c-0.47-0.97-0.86-1.97-1.16-3
		c-0.31-1.39-0.46-2.8-0.46-4.22c0-5.38,2.31-14.19,4.27-19.41c1-2.41,2.2-4.67,3.3-7c1-2.1,1.81-5,3.76-6.46v-0.16
		c0-0.78,0.55-1.4,0.63-2.18c1.8-1.79,2.75-4.28,4.39-6.15c0.16-0.23,0.47-0.31,0.63-0.54c4.16-5.05,10.33-8.02,16.87-8.14
		c3.35-0.12,6.64,0.82,9.43,2.68c0.47,0.31,0.7,0.86,1.17,1.17s1.09,0.48,1.48,0.87c1.26,1.3,2.33,2.77,3.18,4.37
		C167.46,90.62,165.67,90.3,165.66,91.71z M127.94,131.92v-1.17c-0.17-0.18-0.39-0.29-0.63-0.31c-0.47-0.01-0.85,0.37-0.86,0.84
		c0,0,0,0.01,0,0.01c0.02,0.24,0.13,0.46,0.31,0.63L127.94,131.92z M147.66,87.52c-0.32-0.08-0.55-0.32-0.94-0.32h-0.23
		c-0.22,0.23-0.33,0.54-0.32,0.86c-0.01,0.32,0.1,0.62,0.31,0.86c0.63,0.03,1.16-0.46,1.18-1.09c0-0.05,0-0.1,0-0.16L147.66,87.52z
		 M154.2,116.17h-0.47v0.16c0,0.55,0.39,0.94,0.86,0.78l0.31-0.07c0-0.16,0.08-0.24,0.08-0.39
		C155,116.17,154.59,116.17,154.2,116.17z M159.66,89.74c-0.07-0.61-0.62-1.06-1.24-1c-0.28-0.04-0.56,0.05-0.78,0.23l-0.08,0.24
		c0,0.62,0.62,0.7,1.09,0.7h1L159.66,89.74z"/>
	<path class="st1" d="M204.78,103.92c-1.72,0.62-3.67,0.14-5.31,0.84c0.08,1.32,1.64,1.25,2.34,2c0.07,1.25-1.72,1.25-1.72,2.1
		s0.54,1.25,0.53,2v0.32c-0.56,0.13-1.14,0.18-1.71,0.15c-2.34,0-4.6-0.56-6.94-0.57c-2.89,0-4.84,0.06-6.56,2.71
		c-0.69,0.86-1.1,1.9-1.18,3V117c0.23,0.15,0.5,0.24,0.77,0.23c0.63,0,1.25-0.23,1.88-0.23s1.17,0.24,1.79,0.24
		c1.64,0,3.28-0.69,4.92-0.68c0.99-0.11,1.98,0.26,2.65,1c0,0.16,0.07,0.31,0.07,0.47c0,1.71-2.18,1.24-2.73,2.49
		c0,1.24,1.79,0.94,1.78,2c0,0.93-0.86,1.09-1.48,1.48c0.23,1,1.24,1.4,1.24,2.57c0,0.24-0.08,0.39-0.08,0.63
		c-0.89,0.56-1.95,0.81-3,0.69c-2.42,0-4.91-0.56-7.33-0.57c-0.55,0.02-1.1,0.07-1.64,0.15c-0.46-0.31-0.62-0.93-1.16-1.17
		c-2.42,1.08-2.28,5-3.53,7c0.66,0.92,1.75,1.43,2.88,1.33c3.27,0,6.55-0.76,9.83-0.75h1.64v0.23c0,1.48-1.73,2.42-1.73,3
		c0,0.78,0.62,1.1,0.54,1.8c-0.78,0.62-2.11,0.54-2.66,1.47c0.31,1.56,3.36,0.25,3.35,2c-0.38,1.14-1.16,2.11-2.19,2.73
		c-1.41,0.46-10.77,0.43-13.18,0.42c-1.07,0.04-2.15-0.04-3.2-0.24c-0.73-0.28-1.49-0.49-2.26-0.63c-0.63,0-1.33,0.31-1.95,0.3
		c-0.25,0.01-0.5-0.07-0.7-0.23l-0.08-0.31c-0.07-1.64,1.8-1.79,1.8-2.88c0-1.33-1.4-1-2-1.8v-1.41c0.06-0.44-0.05-0.88-0.3-1.25
		c-1.41,0-2.11,1.17-3.52,1.16c-0.06-0.39-0.08-0.78-0.07-1.17c0-5.69,8.34-25.25,11.32-30.93c0.94-0.08,1.17,0.86,2,0.86
		c0.99-0.02,1.89-0.59,2.34-1.47c0-1.17-0.85-1.88-0.84-3v-0.23c0.66-0.52,1.52-0.72,2.34-0.54c0.15-0.17,0.23-0.39,0.23-0.62
		c0-0.4-0.23-0.63-0.23-1c0-0.16,0.16-0.31,0.24-0.47c3.83-0.73,7.73-1.03,11.62-0.9c3.65-0.13,7.3,0.01,10.92,0.43v0.31
		c0,0.93-1.17,1.16-1.17,1.71c0,1.17,1.48,1.1,1.47,2.34L204.78,103.92z M175.58,136.82c-0.15,0-0.31,0.08-0.46,0.08v0.39
		c-0.03,0.4,0.26,0.75,0.66,0.78c0.04,0,0.08,0,0.11,0h0.39c0-0.15,0.08-0.31,0.08-0.46c0.03-0.41-0.28-0.76-0.69-0.79
		C175.64,136.82,175.61,136.82,175.58,136.82z M176,128.09c-0.23,0.15-0.23,0.54-0.23,0.78c-0.05,0.33,0.17,0.65,0.5,0.7
		c0.06,0.01,0.13,0.01,0.2,0h0.15c0.09-0.28,0.15-0.57,0.16-0.86C176.78,128.25,176.39,128.09,176,128.09L176,128.09z
		 M177.75,142.09h-0.39c-0.39,0-0.78,0.16-0.78,0.62V143l0.39,0.08c0.39,0.04,0.74-0.25,0.78-0.64c0-0.02,0-0.04,0-0.06V142.09z
		 M180.03,135.63l-0.23,0.07c-0.21,0.29-0.32,0.64-0.31,1v0.7c0.18,0.07,0.36,0.09,0.55,0.08c0.52,0.05,0.98-0.32,1.03-0.84
		s-0.32-0.98-0.84-1.03c-0.06-0.01-0.13-0.01-0.19,0L180.03,135.63z M186.44,108.19c-1.64,0-1.57,1.79-1.88,3
		c0.07,0.08,0.31,0,0.39,0c1.17,0,1.64-2,1.64-3H186.44z M196.28,104.19l-0.39-0.08c-0.38-0.02-0.71,0.25-0.78,0.62
		c0.39,0.08,0.46,0.55,0.85,0.63c0.08-0.31,0.39-0.62,0.39-0.93C196.35,104.36,196.28,104.28,196.28,104.19L196.28,104.19z"/>
	<path class="st1" d="M239.72,105.82c0,0.15-0.08,0.23-0.08,0.39c0,1.32,1.56,1.33,1.55,2.5c0,1-1.17,1-1.17,2
		c0,0.55,0.3,0.94,0.3,1.49c0.01,0.21-0.01,0.42-0.08,0.62c-0.56,0.12-1.14,0.17-1.71,0.15c-2.42,0-4-0.71-6.4-0.72
		c-3.9,0-2.89,1.94-4.84,2.56v0.23c0,0.39,0.15,0.78,0.15,1.17c-0.02,0.22-0.07,0.43-0.16,0.63c-3.59,8.98-6.64,18.16-9.13,27.5
		c-0.18,0.07-0.36,0.09-0.55,0.08c-0.78,0-1.16-0.71-1.79-0.71c-1,0-1.41,2.65-3,2.1l-0.23-0.08c-0.62-0.86-0.62-2.42-0.93-3.51
		h-0.31c-1.09,0-1.25,1.08-2.27,1.16c-0.54-0.31-0.3-0.86-1.16-0.86c-1.49,0-1.65,2.33-3.52,2.33c-0.39-0.37-0.61-0.88-0.62-1.41
		c0.12-0.93,0.42-1.83,0.87-2.65c1.81-5.37,3.85-10.75,5.66-16.13c0.47-1.32,0.63-2.73,1.18-4.05c1-2.57,2.67-4.91,3.23-7.63
		c-0.44-0.48-1.08-0.71-1.72-0.63c-0.73,0.08-1.46,0.21-2.18,0.38c-1.19,0.15-2.39,0.23-3.59,0.22c-0.76,0-1.52-0.08-2.26-0.24
		c-0.11-0.17-0.2-0.35-0.24-0.55c0-0.78,1.41-1.47,1.41-2.1c0-0.78-0.7-0.86-0.69-1.48c-0.01-0.19,0.01-0.37,0.08-0.55
		c1-0.7,2.65-0.61,3.51-1.47c0-0.15,0.08-0.23,0.08-0.39c0-0.54-0.39-1-0.39-1.56c0-0.16,0.08-0.23,0.08-0.39
		c1-0.31,2.34-0.3,3.2-0.85c-0.38-1.71-2.8-1.25-3.81-2.35c0-0.15-0.08-0.31-0.08-0.47c0-0.47,0.4-0.85,0.4-1.32
		c0.63-0.27,1.32-0.37,2-0.31c2.49,0,4.29,0.4,6.78,0.41c3.82,0,7.57-0.29,11.39-0.28c1.41-0.03,2.82,0.05,4.21,0.25
		c0.61,0.17,1.21,0.38,1.8,0.63c1.5-0.66,3.12-0.97,4.76-0.92c1.18-0.01,2.35,0.09,3.51,0.32c-0.08,1-0.87,1.4-0.87,2.34
		c0,1.09,2.65,0.71,2.65,2.35C243.39,105,241.28,105.2,239.72,105.82z M225.44,106.4c-1.09,0-2.5,0.46-2.81,1.71
		c0.39,0.07,0.39,0.62,0.62,0.86c1.64-0.78,3.74,0.16,5.23-1.16C227.77,106.86,226.63,106.33,225.44,106.4z M225.58,113.65
		c-0.17-0.18-0.39-0.29-0.63-0.31c-0.4,0.07-0.79,0.17-1.17,0.31v0.15c0,0.39,0.39,0.47,0.7,0.47s1.09-0.15,1.1-0.54V113.65z"/>
	<path class="st1" d="M301.23,88.84c-0.78,1.64-1.33,3.35-2,5c-1.18,2.73-2.43,5.45-3.54,8.18c-0.86,2.1-1.18,4.52-3,6.07
		c0,0.16,0.08,0.4,0.08,0.55c0,1.72-1.18,4.05-1.81,5.61c-0.24,0.62-0.63,1.17-0.87,1.79c-0.55,1.33-0.63,2.73-1.18,4.06
		c-0.24,0.62-0.7,1.16-0.94,1.79c-0.71,1.63-1.18,3.27-1.73,4.91c-1.73,5.14-3.62,10.28-5,15.5c-0.47,1.72-0.56,4.45-2.9,4.44
		c-0.16,0-0.47-0.08-0.62-0.08c-0.31-0.78-0.7-1-0.54-2c-0.94-0.63-2.19-0.4-1.79-2c-1.87-0.09-1.49,2.33-3.21,2.33h-0.31
		c-0.12-0.32-0.17-0.66-0.15-1c0-0.86,0.24-1.71,0.24-2.57c0.01-0.26-0.01-0.53-0.08-0.78h-0.15c-1.48,0-1.73,2.88-3.05,2.88
		c-1,0.03-1.84-0.76-1.87-1.77c0-0.04,0-0.07,0-0.11c0-2.19,1.74-6.71,2.45-9c1.73-5.37,3.62-11.14,5.66-16.36
		c0.95-2.41,1.81-4.83,2.91-7.24c0.55-1.17,0.63-2.81,1.18-3.82c0.16-0.24,0.47-0.39,0.63-0.63s1.1-3.11,1.41-3.74
		c0.87-2,1.42-4.13,2.36-6.15s2-3.89,3-5.84c0.79-1.79,1.5-4.21,3.22-5.3h0.15c0.94,0,0.94,0.94,1.64,1.18
		c1.87-0.38,1.49-3.19,3.75-3.19c0.04,0.55,0.04,1.09,0,1.64c-0.06,0.47,0.05,0.94,0.31,1.33c0.01,0.17,0.14,0.3,0.31,0.31
		c0.31,0,0.7-0.31,0.93-0.31h0.24c0.93,0,0.54,1.1,1.16,1.41c1.57-0.78,2.9-4.67,4.62-4.67c0.69,0.09,1.28,0.54,1.56,1.18
		C304,84.8,302.25,86.74,301.23,88.84z M280.67,130.9h-0.94v0.31c-0.06,0.41,0.22,0.78,0.62,0.86c0.08-0.31,0.32-0.54,0.32-0.93
		V130.9z M285.43,105.49h-0.94v0.31c-0.06,0.41,0.22,0.78,0.62,0.86c0.08-0.31,0.31-0.55,0.31-0.94
		C285.43,105.64,285.43,105.57,285.43,105.49L285.43,105.49z M287.76,107.84c0-0.94-0.54-1.33-1.48-1.49
		c-0.27,0.21-0.44,0.52-0.47,0.86c0.02,0.39,0.07,0.79,0.15,1.17c-0.24,0.28-0.38,0.63-0.39,1c0,0.39,0.39,0.62,0.7,0.78
		c0.62-0.31,0.24-1.09,0.55-1.48c0.23-0.23,0.86,0,0.94-0.31C287.84,108.23,287.76,108,287.76,107.84z"/>
	<path class="st1" d="M338.77,108.93c-1.42,3.19-2.83,6.31-4.09,9.58c-0.86,2.1-1.57,4.36-2.36,6.47c-0.47,1.24-0.71,2.57-1.18,3.82
		c-0.31,0.85-0.86,1.47-1.18,2.33c-0.86,2.42-1,5.15-2.67,7.25c-0.04,2-0.44,3.98-1.19,5.84c-0.36-0.09-0.72-0.14-1.09-0.15
		c-0.86,0-1.41,0.77-2.11,1.08c-1.09,0.08-0.93-1.17-1.48-1.8c-0.07,0-0.31-0.08-0.39-0.08c-0.39,0-0.54,0.39-0.93,0.39
		c-1.33,0-0.78-1.17-1.64-1.17c-1.17,0.69-0.55,3.11-2,3.5c-1.56-0.32-1.39-2.35-1.7-3.52c-0.69-2.81-1.47-5.69-2.08-8.5
		c-0.31-1.33-0.15-3-1.16-4.06c-1.56,0.3-1.57,2-2,3.19c-1.57,3.74-2.67,7.56-4.09,11.37H305c-1.09,0-1-1.17-2-1.17
		c-0.47,0-0.94,0.31-1.41,0.3h-0.39c-0.39-0.39-0.31-1.4-0.31-1.87s0.08-0.86-0.23-1.09c-1.95,0.77-2,3.42-3.52,4.67
		c-0.08,0-0.24,0.07-0.31,0.07c-0.86,0-1-0.78-1.17-1.48l-0.23-0.08c-0.7-0.08-1.25,0.54-1.72,0.54c-0.16,0-0.23-0.16-0.39-0.24
		c0-0.15-0.08-0.31-0.08-0.46c0-2.42,1.66-5.15,2.44-7.41c0.48-1.4,0.72-3,1.19-4.36c0.63-1.95,1.34-4.21,3.21-5.3v-0.31
		c0-0.23,0-0.54,0.32-0.54v-0.63c-0.06-0.76-0.17-1.51-0.31-2.26c0.24-0.78,1.49-2.26,1.49-2.88c0-0.23-0.07-0.55-0.07-0.78
		c0-0.47,1-1.64,1.25-2.18c0.79-2,1.89-6.31,2.91-8c0.55-0.86,0.55,0.08,0.55-1.25c0-0.39,1.33-1.86,1.57-2.49
		c0.87-2.26,1-4.67,2.28-6.78c0.84,0.41,1.73,0.7,2.65,0.87c0.4,0,0.8-0.08,1.17-0.23c0.63,0.94,0.46,2.65,1.48,3.2
		c1-1.32,0.63-3.82,1.81-5c0.93,0.63,2.18,1,3.19,1.5c-0.08,1.09,0,2.26,0,3.35c0.04,0.33,0.04,0.67,0,1
		c-0.14,0.38-0.25,0.77-0.32,1.17c0,0.47,0.47,1,0.62,1.49c0.41,2.74,0.59,5.5,0.52,8.27c0,0.54-0.08,1.17-0.08,1.71
		c0,0.73,0.24,1.43,0.69,2h0.2c1.17,0,0.94-1.33,1.25-2c2.28-5.76,4.1-11.77,6.84-17.3h0.39c0.86,0,1.25,0.62,1.87,0.63
		s1.17-0.47,1.64-0.47c1.09,0,0.7,2.42,0.69,3.12c0,0.16,0.08,0.39,0.08,0.55c0.08,0,0.24,0.08,0.31,0.08c1.25,0,2-3,2.9-3.89h0.31
		c0.78,0,0.78,0.78,1.4,0.94c0.5-0.36,1.1-0.58,1.72-0.62c0.64-0.04,1.2,0.44,1.25,1.09c0,0.03,0,0.06,0,0.08
		C342.61,101.37,339.48,107.45,338.77,108.93z M302.1,137.44c-0.22-0.18-0.5-0.29-0.78-0.31c-0.65,0.05-1.16,0.59-1.18,1.24
		c0.01,0.37,0.22,0.7,0.55,0.86h0.15c0.64,0.1,1.24-0.35,1.34-0.99c0.02-0.13,0.02-0.27-0.01-0.41L302.1,137.44z M303.59,133.55
		c0-0.39-0.15-0.71-0.54-0.71c-0.51,0.03-0.91,0.43-0.94,0.94v0.15c0.22,0.19,0.49,0.3,0.78,0.32c0.26-0.02,0.51-0.13,0.7-0.31
		V133.55z M308.93,121.08H308v0.55c0,0.39,0,0.7,0.46,0.7c0.16,0,0.31-0.08,0.47-0.08V121.08z M310,109.62l-0.15,0.08v1.17H310
		c0.36,0.01,0.67-0.26,0.7-0.62C310.67,109.89,310.36,109.61,310,109.62z M312.52,103.54h-0.16c-0.56,0.06-0.99,0.53-1,1.09
		c-0.01,0.34,0.22,0.64,0.55,0.71c0.23-0.47,0.62-0.7,0.63-1.33L312.52,103.54z M315.95,127.27h-1.17l-0.07,0.47
		c0,0.47,0.07,1,0.69,1h0.24c0.22-0.32,0.33-0.7,0.31-1.09L315.95,127.27z M316.51,125.08c0.01-0.36-0.1-0.71-0.31-1h-0.86
		c-0.09,0.22-0.15,0.46-0.16,0.7c0,0.54,0.39,0.78,0.94,0.78c0.15,0,0.23-0.08,0.39-0.08L316.51,125.08z M317.11,131.33
		c0-0.63-0.38-0.94-0.93-1.18c-0.27,0.21-0.44,0.52-0.47,0.86c0,0.55,0.47,0.7,0.93,0.71c0.16,0,0.32-0.08,0.47-0.08V131.33z
		 M320.62,132.82H320c-0.42-0.06-0.84,0.05-1.17,0.31v0.15c0,0.39,0.39,0.47,0.7,0.47s1.1-0.23,1.1-0.7L320.62,132.82z
		 M323.22,125.49c-0.63,0-1.72,0.31-1.72,1.09s0.85,1,1.55,1s1.64-0.31,1.64-1.09s-0.87-0.99-1.49-1L323.22,125.49z"/>
	<path class="st1" d="M156.6,199.17c0,0.15-0.08,0.23-0.08,0.38c0,1.33,1.56,1.34,1.55,2.51c0,1-1.17,1-1.17,2
		c0,0.55,0.3,0.94,0.3,1.48c0.01,0.21-0.01,0.43-0.08,0.63c-0.56,0.12-1.14,0.17-1.71,0.15c-2.42,0-4-0.72-6.4-0.72
		c-3.9,0-2.89,1.94-4.84,2.56v0.23c0,0.39,0.15,0.78,0.15,1.17c-0.02,0.21-0.07,0.42-0.16,0.62c-3.6,8.99-6.66,18.18-9.16,27.53
		c-0.18,0.07-0.36,0.09-0.55,0.08c-0.78,0-1.16-0.71-1.79-0.71c-1,0-1.41,2.65-3,2.1l-0.23-0.08c-0.62-0.86-0.62-2.42-0.93-3.51
		h-0.31c-1.09,0-1.25,1.09-2.27,1.17c-0.54-0.32-0.31-0.86-1.16-0.86c-1.49,0-1.65,2.33-3.52,2.33c-0.39-0.37-0.61-0.88-0.62-1.41
		c0.12-0.93,0.42-1.83,0.87-2.65c1.81-5.38,3.85-10.75,5.66-16.13c0.47-1.32,0.63-2.73,1.18-4.05c1-2.57,2.67-4.91,3.23-7.64
		c-0.44-0.48-1.08-0.71-1.72-0.63c-0.73,0.09-1.46,0.22-2.18,0.39c-1.19,0.15-2.39,0.22-3.59,0.22c-0.76,0-1.52-0.08-2.26-0.24
		c-0.11-0.17-0.19-0.35-0.24-0.55c0-0.78,1.41-1.47,1.41-2.1c0-0.78-0.7-0.86-0.69-1.48c-0.01-0.19,0.01-0.37,0.08-0.55
		c1-0.7,2.65-0.61,3.51-1.47c0-0.16,0.08-0.23,0.08-0.39c0-0.55-0.39-1-0.39-1.56c0-0.16,0.08-0.24,0.08-0.39
		c1-0.31,2.34-0.31,3.2-0.85c-0.38-1.72-2.8-1.26-3.81-2.35c0-0.16-0.08-0.31-0.08-0.47c0-0.47,0.4-0.86,0.4-1.32
		c0.63-0.27,1.32-0.38,2-0.31c2.49,0,4.29,0.4,6.78,0.41c3.83,0,7.57-0.29,11.39-0.28c1.41-0.03,2.82,0.05,4.21,0.25
		c0.61,0.17,1.21,0.38,1.8,0.63c1.5-0.66,3.12-0.97,4.76-0.92c1.18-0.01,2.35,0.09,3.51,0.32c-0.08,1-0.87,1.4-0.87,2.34
		c0,1.09,2.65,0.71,2.65,2.35C160.27,198.32,158.16,198.55,156.6,199.17z M142.32,199.75c-1.09,0-2.5,0.46-2.81,1.7
		c0.39,0.08,0.39,0.63,0.62,0.86c1.64-0.77,3.74,0.17,5.23-1.15C144.65,200.21,143.51,199.68,142.32,199.75z M142.46,207
		c-0.17-0.18-0.39-0.29-0.63-0.31c-0.4,0.07-0.79,0.17-1.17,0.31v0.15c0,0.39,0.39,0.47,0.7,0.47s1.09-0.15,1.1-0.54V207z"/>
	<path class="st1" d="M194.64,206.22c-0.18,8.94-3.18,17.59-8.58,24.71c-0.53,0.83-1.13,1.61-1.8,2.33c-0.39,0.39-1,0.46-1.48,0.85
		s-0.63,0.86-1.1,1.17c-3.48,2.41-7.64,3.65-11.87,3.55c-1.64,0.05-3.28-0.2-4.83-0.72c-3.66-1.64-5-2-6.77-5.87
		c-0.54-1.25-1.47-2.89-1.47-4.29c0-1.09,0.32-2.18,0.32-3.28c0-0.7-0.54-1.32-0.53-2c0.06-0.71,0.17-1.41,0.31-2.1
		c0.56-3.67,2.13-7.09,3.55-10.52c0.47-1.09,0.7-2.18,1.18-3.2c1.64-3.5,4.23-6.46,6.73-9.33c3.13-3.58,8.29-5.6,12.89-6.36
		l0.16-0.08c0.47-0.23,1.09,0.16,1.56,0.32c0,0.7-0.16,1.4-0.17,2.1c-0.01,0.44,0.16,0.86,0.47,1.17c0.07,1.1-1.17,0.94-1.18,2V197
		c1.17,0.94,2.49,2,4.13,2c0.94,0,0.4-2.34,0.87-3c0.3,0.12,0.61,0.2,0.93,0.24c1.56,0,0.71-2.26,1.73-2.81
		c2.65,0.32,5,8.29,5,10.63L194.64,206.22z M180.37,203.22c-4.83,0-9.15,9.09-10.33,13c-0.7,2.17-1.1,4.43-1.19,6.71
		c0,2,0.45,4.44,2.87,4.45c1.79,0,2.58-1.55,3.67-1.55c0.31,0,0.63,0.08,0.94,0.08h0.39c0-0.15-0.08-0.39-0.08-0.54
		c0.06-0.61,0.19-1.21,0.4-1.79c2.82-3.43,4-7.79,5-12c0.49-1.65,0.78-3.35,0.87-5.07C182.87,204.86,182.25,203.22,180.37,203.22z
		 M170.69,231.74c-0.44,0-0.79,0.36-0.78,0.8c0,0.02,0,0.03,0,0.05c0.04,0.43,0.42,0.75,0.85,0.71s0.75-0.42,0.71-0.85
		C171.43,232.05,171.09,231.74,170.69,231.74z M175.53,232.53c0-1.09-0.62-2.26-1.64-1.72l-0.15,0.08
		c-0.24,0.34-0.35,0.76-0.32,1.17c-0.03,0.41,0.08,0.82,0.31,1.17h0.55c0.44,0.05,0.89-0.06,1.25-0.31V232.53z"/>
	<path class="st1" d="M240.37,199.42c-1.1,2.42-2.36,4.75-3.22,7.25c-0.16,0.46-0.16,1.17-0.32,1.48s-0.7,0.46-0.86,0.85
		c-0.24,0.99-0.42,1.99-0.55,3c-0.24,0.77-0.63,1.55-0.95,2.33c-1.88,5.14-3.62,10.37-5.58,15.51c-0.4,1-0.79,3-1.5,3.74
		c-0.15,0.15-0.46,0.15-0.54,0.31c-0.47,0.54-0.63,1.17-1.18,1.71c-2.27,2.33-5.94,3-9.06,3.25c-0.57,0.08-1.14,0.13-1.71,0.15
		c-0.55,0-1.1-0.16-1.56-0.47c-0.64-0.05-1.26,0.17-1.72,0.62c-3.74-0.64-7.8,0-11.38-1.21c0-0.16-0.08-0.31-0.08-0.47
		c0-1.09,1.09-1.16,0.94-2.49c0.71-0.39,1.64-0.85,1.65-1.79c-0.01-0.29-0.06-0.58-0.16-0.86c-0.22-0.19-0.49-0.29-0.78-0.31
		c-0.7,0-1.25,0.62-1.95,0.61h-0.23c-0.29-0.63-0.48-1.31-0.54-2c-0.16,0-0.31-0.08-0.47-0.08c-0.62,0-1.17,0.38-1.79,0.38
		c-0.26-0.02-0.51-0.13-0.71-0.31V230c0.09-1.62,0.38-3.22,0.87-4.76c2.68-9.82,6.38-19.17,10.07-28.59c0.39-1,1.26-3.74,2-4.36
		c0.51-0.4,1.15-0.62,1.8-0.62h0.23c0.54,0.93,0.3,3,0.3,4.05c-0.06,0.62,0.05,1.24,0.31,1.8c2.1-0.15,1.88-2.49,3.21-3.5
		c0.36,0.19,0.76,0.29,1.17,0.31c1.32,0,1.79-1.63,2.65-2.33c1.1,0,1,1.25,1.17,2h0.31c0.62,0,1.17-0.3,1.8-0.3h0.54
		c0,1.95-1.49,3.35-2.35,5s-1.57,3.35-2.36,5c-1,2.26-2.12,4.6-3,6.93c-0.4,1.1-0.71,2.58-1.19,3.59c-0.15,0.31-1.17,1.17-1.48,1.71
		v0.31c0,3.28-2,6.08-2.06,9.36c0.39,1.09,1.79,1.25,2.8,1.25c1.25,0,2.49-0.21,3.67-0.61c0.55-1.64,1.18-3.51,2.59-4.67
		c0-0.55-0.31-0.94-0.31-1.48c0-0.24,4.33-11.15,4.8-12.32c1.1-2.72,2.43-5.45,3.53-8.17c0.87-2.19,1.19-4.68,2.91-6.39
		c1.64-0.08,1.08,2.5,2.18,2.5c0.7,0,1.09-1.56,2-1.55c0.21-0.01,0.41,0.08,0.55,0.23c0.06,0.2,0.08,0.42,0.07,0.63
		c0,0.78-0.39,1.48-0.39,2.26c-0.02,0.34,0.08,0.67,0.3,0.93H235c1.17,0,1.25-1.32,1.64-2.1c0.32-0.54,1.26-2.49,1.88-2.49
		s1.17,0.94,1.64,1.33c0.62-0.15,1-0.85,1.64-0.85c0.26,0.02,0.51,0.14,0.7,0.32C241.97,196.16,241.26,197.83,240.37,199.42z
		 M208.05,234.66h-0.24v1c0,0.47,0.07,1.09,0.62,1.1c0.27-0.56,0.46-1.15,0.57-1.76C208.67,234.89,208.44,234.66,208.05,234.66
		L208.05,234.66z M213.6,229.14h-0.23c-0.22,0.26-0.34,0.59-0.32,0.93c-0.04,0.43,0.27,0.81,0.7,0.86H214
		c0.22-0.26,0.33-0.59,0.31-0.93C214.35,229.57,214.03,229.18,213.6,229.14L213.6,229.14z"/>
	<path class="st1" d="M272.12,196.55c0,0.71,0.55,1.33,0.54,2c0.01,0.23-0.08,0.46-0.23,0.63h-0.78c-1.17,0-2-1.17-3.35-1.18
		c-0.23,0.16-0.35,0.43-0.32,0.7c0,0.79,0.7,1.41,0.7,2.43c0,0.85-1.41,0.46-1.8,0.93s-0.39,1.71-0.63,2.33
		c-1.23-0.32-2.48-0.53-3.74-0.63c-1.64,0-1.72,0.54-3,1.24c-0.51,0.14-1,0.32-1.48,0.54c-1.65,1.09-2,3.58-3.84,4.67
		c-0.56,4.13-2.91,7.79-2.92,12c0,2.34,0.38,2.5,1.47,4.37H253c0.17,0.01,0.31,0.15,0.31,0.32c0.33,0.07,0.66,0.09,1,0.08
		c1.45-0.12,2.89-0.35,4.3-0.69c0.93-0.15,1.33-1,1.95-1c0.22,0.01,0.43,0.06,0.62,0.16c0,0.08,0.08,0.23,0.08,0.31
		c0,0.7-0.63,0.94-0.63,1.95c0,0.78,1.17,0.55,1.17,1.25c0,1.33-2,1.4-2.66,2.33c0.15,1.25,2.18,0.95,3,1.49
		c0,0.71-0.63,1.1-0.63,1.49c0,1,1.48,1,1.47,2c0,2.1-9.29,3.64-11.08,3.63c-9.68,0-13.32-7.29-13.29-16
		c-0.12-2.54,0.13-5.09,0.72-7.57c0.16-0.46,0.47-0.77,0.63-1.16c0.63-1.87,0.71-4,1.42-5.85l0.63-0.62c0.14-0.68,0.32-1.35,0.55-2
		c0.39-0.78,1.1-1.32,1.49-2c0.34-0.8,0.74-1.58,1.18-2.34c0.23-0.31,0.62-0.54,0.86-0.85s0.39-0.78,0.62-1.17
		c0.86-1.09,2.43-1.55,3.21-2.64c0.23-0.32,0.31-0.94,0.63-1.17s0.54-0.16,0.86-0.31c2.73-1.63,5.78-5.05,9.14-5
		c0.54,0,1,0.15,1.56,0.16c0.86,0,1.72-0.62,2.57-0.62c3.51,0,4.29,0.79,7.17,2.36c0.55,0.32,2.11,0.71,2.1,1.49
		C273.92,195.78,272.13,195.7,272.12,196.55z M244,223.38c-0.16,0.23-0.47,0.47-0.47,0.78c0.02,0.24,0.07,0.48,0.15,0.7h0.24
		c0.4-0.04,0.71-0.38,0.7-0.78C244.63,223.72,244.36,223.41,244,223.38z M245.18,221.04H244v0.55c-0.06,0.46,0.27,0.87,0.72,0.92
		c0.04,0.01,0.08,0.01,0.13,0.01h0.31L245.18,221.04z M251.78,230.66l-0.16,0.08c-0.23,0.33-0.39,0.7-0.47,1.09
		c0.02,0.21,0.07,0.42,0.16,0.62c0.12,0.06,0.25,0.09,0.38,0.08c0.55,0,0.79-0.47,0.79-0.94s-0.27-0.93-0.74-0.93H251.78z
		 M256.4,199.39c-0.23,0.35-0.34,0.76-0.32,1.17c0,0.7,0.31,1.56,1.09,1.56c0.08,0,0.31-0.07,0.39-0.07
		c0.16-0.26,0.24-0.56,0.24-0.86c-0.04-0.78-0.58-1.8-1.44-1.8H256.4z"/>
	<path class="st1" d="M318.86,192.33c-0.03,1.41-0.69,2.72-1.81,3.58c-0.78,3-2.51,5.61-3.53,8.49c-2.52,6.78-5.35,13.4-7.63,20.18
		c-0.86,2.5-1.57,5.07-2.36,7.56c-0.24,0.78-0.63,1.56-0.87,2.34c-0.31,1.4,0.07,3-1,4.13c-2.26,0.07-1.78-2.73-2.32-4.14
		c-2,0.7-1.34,3.82-3.22,4.67c-1.63-0.16-1.55-2.27-1.47-3.52h-0.15c-1.8,0-1.18,3-2.43,3c-1,0-0.85-1.41-1.16-2h-0.24
		c-1,0-1.56,1-2.26,1c-0.17-0.02-0.33-0.07-0.47-0.16v-0.55c0-2.1,4.33-12.78,5.35-15.27c-0.07-0.62-0.46-0.78-1-0.78
		s-1.33,0.23-1.95,0.22c-1.47-0.02-2.94,0.16-4.37,0.54c-1.17,0.93-1.34,2.8-1.81,4.13s-1,2.65-1.41,4.05
		c-0.79,2.88-0.88,6.47-2.37,9.12h-1.8c-0.46-0.62-0.22-2.26-0.22-3c0-0.16-0.08-0.31-0.08-0.47s-0.15-0.08-0.31-0.08
		c-0.7,0-0.94,0.93-1.33,0.93s-0.62-0.7-0.62-1c0-0.78,0.32-1.41,0.32-2.19c0-0.46-0.23-1.24-0.85-1.25s-0.55,1.09-0.71,1.48
		c-0.58,1.48-1.37,2.87-2.35,4.13c-0.16,0-0.24,0.08-0.39,0.08c-0.86,0-0.7-1.25-1.33-1.25c-1.56,0-1.72,1.47-3,1.47h-0.23
		c-0.09-0.38-0.14-0.78-0.15-1.17c0-1.8,1-3.35,1.57-5c3.47-9.9,6.69-19.87,10.62-29.53c0.79-1.87,1.58-3.66,2.36-5.53
		c0.66-1.87,1.55-3.66,2.67-5.3c1.25-0.15,0.93,1.8,1.79,1.8c1.32,0,1.25-1.79,2.73-1.78h0.16c0.47,0.46,0.31,1.71,0.3,2.34
		c-0.05,0.42,0.06,0.84,0.31,1.17c1.88-0.7,2-1.4,2.9-2.8c0.47-0.7,1.48-1,1.49-2h0.85c0.54,0.71,0.76,1.62,0.62,2.5
		c0.16,0.23,0.23,0.46,0.55,0.46s0.78-0.31,1.24-0.3c0.2-0.03,0.4,0.02,0.55,0.16c-0.87,3-2.83,5.45-4.16,8.17
		c-0.71,1.4-1,3-1.73,4.37s-1.8,2.56-1.81,4.12v0.32c0.16,0.4,0.57,0.65,1,0.62c0.66-0.08,1.31-0.21,1.95-0.38
		c0.86-0.08,3,0.09,3.74-0.22c1.33-0.62,1.65-3.12,2.12-4.44c0.55-1.56,1.41-2.88,2-4.36c0.71-1.64,2.91-7.72,3.85-8.73
		c0.11-0.15,0.28-0.24,0.47-0.23c0.55,0,0.62,1.09,1.56,1.09c1.17,0,1-1.79,2.34-1.78h0.32c0.19,0.33,0.27,0.71,0.23,1.09
		c0,1.09-0.48,2.18-0.48,3.27c-0.05,0.47,0.12,0.93,0.46,1.25c1.8-0.77,2-3.11,3.52-4.12c0.94,0,1.09,0.86,1.48,1.49
		c1.72-0.23,1.57-2.34,3.44-2.33h0.39L318.86,192.33z M282.07,207h-0.15c-0.22,0.32-0.33,0.7-0.32,1.09c0,0.16,0.08,0.23,0.08,0.39
		h0.23c0.47,0,0.71-0.54,0.71-0.93c0.01-0.29-0.22-0.54-0.51-0.55C282.1,207,282.08,207,282.07,207z M284.27,203.5h-0.08
		c-0.39-0.02-0.77,0.08-1.09,0.3v0.08c0,0.39,0.31,0.63,0.31,1.09h0.23c0.63,0,0.78-0.54,0.71-1L284.27,203.5z M297.38,228.11
		c-0.27,0.2-0.45,0.51-0.47,0.85c0,0.55,0.54,0.78,1.09,0.86c0.15-0.17,0.23-0.39,0.23-0.62c0.01-0.53-0.34-0.99-0.85-1.13V228.11z
		 M298.29,210.87h-0.16c-0.35-0.04-0.7,0.04-1,0.23v0.16c0,0.62,0.46,0.7,0.93,1c0.21-0.29,0.32-0.64,0.31-1
		c0-0.2-0.08-0.26-0.08-0.43V210.87z M303.24,223.44c-0.31,0-0.46-0.31-0.78-0.31h-0.07c-0.33,0.27-0.53,0.66-0.55,1.09
		c0,0.47,0.31,0.7,0.77,0.7h0.32v-0.16c0-0.39,0.39-0.62,0.39-1c0-0.12-0.08-0.28-0.08-0.36L303.24,223.44z"/>
</g>
</svg>
