<?xml version="1.0" encoding="utf-8"?>

<svg version="1.1" id="Layer_1" xmlns="http://www.w3.org/2000/svg" xmlns:xlink="http://www.w3.org/1999/xlink" x="0px" y="0px"
	 viewBox="0 0 612 792" style="enable-background:new 0 0 612 792;" xml:space="preserve">
<style type="text/css">
	.st0{fill:#FFFFFF;}
	.st1{fill:#49274A;}
	.st2{fill:none;}
</style>
<g>
	<rect x="129.74" y="184.59" class="st0" width="351.09" height="419.57"/>
	<g>
		<g>
			<path d="M473.99,190.14l1.4,0.05l-0.02,0.53c0-0.17,0-0.33,0-0.51c-8.27-0.04-16.74-0.07-25.29-0.11
				c-10.42-0.1-20.93-0.2-31.36-0.3c9.95,0.4,20.29,0.8,30.74,1.13c5.23,0.15,10.48,0.3,15.74,0.44c2.6,0.06,5.21,0.12,7.81,0.17
				l0.88,0.13l-0.07,0.61l-0.02,0.27l-0.02,2.54c-0.01,3.46-0.02,6.89-0.02,10.28c0.02,6.79,0.1,13.43,0.27,19.84
				c0.34,12.82,1.01,24.72,2.15,35.06c-2.12,3.91-3.13,49.19-2.61,50.11c0.38,9.4,0.7,18.92,0.96,28.55
				c-0.17-6.62-0.34-13.21-0.52-19.75c0.17,6.54,0.34,13.13,0.52,19.75c1.62,60.85,0.87,126.95,0.03,195.34
				c-0.12,13.84-0.33,37.26-0.55,63.2c-0.38-0.02-0.76-0.04-1.14-0.05c-2.52-0.02-5.05-0.04-7.58-0.06
				c-5.2-0.04-10.43-0.08-15.63-0.12c-10.4-0.08-20.7-0.17-30.44-0.24c-19.49-0.17-36.79-0.34-48.38-0.53
				c-5.64-0.07-11.24-0.14-16.93-0.22c9.43,0.19,9.43,0.19,18.86,0.39c-23.71,0.56-45.2,1.1-66,1.45c3.66,0.31,4.3,0.6,13,1.02
				l-10.61-0.21c-9.67,0.88-31.97,0.83-42.46,1.2c2.25-0.46-6.01-0.56-13.29-0.63l2.88,0.31c-27.66-0.2-59.76,0.16-84.48,0.09
				c-3.45,0-6.03-0.17-7.59-0.33l-23.7,0.35c0.31-0.1-0.05-0.19-0.79-0.26c-0.37-0.04-0.84-0.07-1.38-0.1
				c-0.25-0.01-0.52-0.03-0.8-0.04c-0.12-0.01-0.25-0.02-0.38-0.04c-1.04-0.1-2.19-0.16-2.66-0.23c0.05-0.41,0.1-0.52,0.16-0.16
				c0.2-0.03,0.54-0.07,1-0.11l-0.98,0.1c-0.07-0.7-0.13-1.47-0.18-2.29l-0.03-0.63l-0.03-1.59l-0.05-3.18
				c-0.04-4.23-0.08-8.46-0.12-12.67c-0.07-8.41-0.15-16.71-0.51-24.77c-0.07-60.44-0.51-124.74-1.52-187.22l-0.23,1.53
				c-0.4-21.88-1.61-41.15-1.2-67.75c-0.82-18.98-1.24-45.99-2.53-53.55c-0.17-21.91-0.81-30.65-1.14-52.14
				c-0.64,5.54-0.76-20.87-1.26-10.3c-0.9,14.26-0.14,15.04-0.86,27.14l0.21-0.36c-0.98,56.45-1.55,112.98-1.87,170.2
				c0.53,38.18,0.07,79.6,0.21,119.3c0.11,17.42,0.23,35.43,0.35,52.99c0.18,19.38,0.35,38.27,0.5,55.53
				c6.12-0.05,11.74-0.09,17.05-0.13c3.68-0.05,7.15-0.09,10.53-0.14c8.75-0.18,15.06,0.36,22.52,0.66
				c33.72-0.27,76.63-0.04,114.66-0.37c-0.71-0.01-1.41-0.02-1.86-0.02c20.21-0.1,35.34,0.56,55.07,0.46
				c-0.1-0.18,2.96-0.19,4.45-0.29c3.43,0.85,116.17-1.71,123.13-1.23c1.07-0.02,2.16-0.04,3.26-0.05c1.58-0.01,3.19-0.03,4.81-0.04
				c2.22,0.02,4.44,0.03,6.67,0.05c0.03-3.78,0.07-7.56,0.1-11.35l0.12-7.75c0.1-5.05,0.19-10.1,0.29-15.14
				c0.22-10.07,0.44-20.09,0.66-29.92c0.43-19.67,0.78-38.61,0.72-55.86c-0.4-7.76-0.74-16.5-1.19-23.04
				c0.37-6.32-0.34-7.54-0.24-15.16c1.71-19.34,1-30.67,0.4-20.68c-0.22-15.92-0.07-31.88-0.12-46.02
				c-0.13-6.56-0.26-13.07-0.39-19.69c-0.14-5.62,0.11-8.75,0.52-11.58c-0.23-14.37,0.18-10.14,0.36-25.21
				c0.6-3.64-0.93-37.8-0.75-42.06l0.09,2.46c0.11-17.42,1.26-29,1.32-46.03c0.06-9.21,0.12-18.59,0.18-28.04
				c0.02-11.41,0.03-22.91,0.05-34.39c-16.92,0.01-33.8,0.02-50.24,0.03c-14.5-0.02-28.62-0.05-42.01-0.07
				c-0.44,0.62,9.67-0.13,10.18,0.69c-25.86-0.12-51.93-0.9-78.03-1.02c-4.7-0.17-10.46-0.48-12.61-0.68
				c-8.34-0.24-4.92,0.29-11.03,0.21l-0.82-0.56c-8.92,0.46-13.04-0.63-21.44-0.4c-0.44,0.23-3.51,0.25-6.49,0.24
				c-0.15-0.6-9.19,0.04-8.76-0.51l-0.09,0.04c-1.8-0.01-3.08,0.03-5.28-0.08c-3.41,0.21-35.45,1.83-38.92,2.08l-1.62-0.1
				c-4.79,0.02-6.84,0.46-4.04,0.57l-5.91-0.04l0.68-0.04l-5.88-0.04c-1.08-0.05-2.31-0.33-0.64-0.59
				c-3.33,0.21-7.07,0.32-10.4,0.21c9.26,0.37,20.76,0.9,30.44,1.5c-3.98,0.2-11.17-0.12-15.48-0.05
				c-5.15-0.4-15.74-0.73-23.98-1.01c-1.81,0.03-3.06,0.7-7.17,0.4c-2-0.46-4.64,0.01-8.06-0.32c3.93-0.24,7.76-0.13,11.74-0.11
				c-0.68-0.54-9.68-0.37-12.82-0.53c-1.47,0.17-9.15-0.01-13.97,0.14c2.1-0.52-3.89-0.33-6.75-0.61c-3.25-0.06-5.33,0.14-4.01,0.33
				c-1.05,0.57,12.94,0.34,8.41,0.94c-1.19-0.27-7.57-0.18-10.99-0.16c-0.04,0.31,2.34,0.24,0.12,0.53
				c-3.82-0.07-7.86,0.3-10.05-0.02c0.71-0.08,2.29-0.03,3.4-0.02c-4.97-0.03,26.92-2,20.49-1.83c1.67,0.27-28.29,1.82-24.98,1.84
				c3.03,0.15-2.17,0.56,0.97,0.67l3.48-0.37c4.28,0.12,6.04,0.66,4.53,0.87c-7.18-0.05,20.38-2.1,14.25-1.79l2.49,0.15
				c-2.6,0.2-9.55,0.37-12.23,0.05c-0.02,0.3-3.52,0.41-6.43,0.52l-1.03-0.05c-3,0.15-7.2,0.08-5.25,0.48
				c17.61-0.04-11.58,3.1,5.47,3.28c-7.16-0.68,2.41-0.69,9.91-0.76c0.73,0.23,4.07,0.57,9.46,0.74c4.67-0.05,2.75-0.25,3.64-0.42
				c2.59,0.15,7.54,0.28,6.89,0.64c3.64-0.42,5.82,0.27,10.19,0.13c3.85-0.19-0.26-0.18,2.47-0.39c5.78,0.06,13.88,0.15,18.48,0.19
				c1.78,0.33,7.2,0.92,3.25,1.44c-8.76-0.07,3.34-0.84-5.78-0.73c3.93,0.76-8.07,0.2-9.73,0.78c2.91,0.34,8.79,0.35,13.71,0.26
				l-0.99-0.1c4.34-0.1,13.02-0.25,17.71,0.16c-1.11,0.27,0.94,0.47-2.24,0.53l5.97,0.05c0.76-0.08,1.54-0.17-0.18-0.23
				c2.82-0.21,5.64-0.09,7.8,0.07c0.65,0.28,31.78-1.17,30.81-1c4.31-0.01,5.35,0.42,9.54,0.13c0.11-0.06-2.4-0.03-6.15,0.05
				c-3.75,0.09-8.73,0.21-13.54,0.33c-9.63,0.25-18.6,0.53-15.76,0.48c3.68,0.31,48.78-1.39,51.45-0.85
				c3.19-0.02,7.04-0.08,6.29-0.36c5.39,0.14-1.61,0.55,2.22,0.81c0.09-0.04-0.31-0.14,0.91-0.13l3.69,0.36
				c8.37-0.44,20.64,0.14,29.4-0.44c-2.54,0.31-5.43,0.85-11.07,1.13l-0.99-0.15c-0.8,0.09-5.44,0.18-5.31,0.47
				c5.36,0.19,9.94,0.14,15.58-0.14c1.04,0.08,2.26,0.16,3.07,0.23c-0.02-0.04-0.11-0.07-0.09-0.11c1.84,0.18,1.65,0.21,0.97,0.32
				c-0.09,0.02-0.2,0.04-0.39,0.06c3.36,0.84,21.03-0.52,30.81-0.08c2.88-0.12,0.27-0.14,3.86-0.3c10,0.34,16.89,0.59,27.34,0.79
				c3.34-0.36,3.6-0.5-0.43-0.88l7.89,0.12c-7.18,0.96,14.74,0.92,6.83,1.88c2.31,0.22,7.04,0.27,11.46,0.11
				c0.44-0.24,1.14-0.63,6.7-0.63c7.74,0.32,5.9,0.21,12.3,0.52c1.52,0.31-0.84,0.44-0.56,0.69c9.89-0.4,8.63,0.69,17.95,0.63
				c5.84-0.09,17.38-0.12,17.66-0.67c0.98,0.01,1.84,0.02,2.6,0.03c0.38,0.01,0.72,0.02,1.05,0.03l0.23,0.01l0.09,0.01
				c0.06,0.01,0.12,0.01,0.17,0.02c0.44,0.05,0.71,0.12,0.85,0.2C474.4,189.7,474.2,189.92,473.99,190.14z"/>
		</g>
	</g>
</g>
<g>
	<rect x="142.24" y="200.35" class="st1" width="326.09" height="388.04"/>
	<g>
		<g>
			<g>
				<path d="M191.11,194.32c-7.25,0.03,20.14,0.98,4.71,1.23c10.72,0.73,33.05-0.21,46.59-0.07c1.58,1.15-10.4,2.15,13.85,3.02
					c32.42,0.65,4.1-2.32,33.05-2.42l-19.82-0.31c19.83-1.89,67.04-0.62,101.04-1.03c25.49,1.35,48.54,4.16,81.81,3.61
					c-1.83,0.18-10.02,0.58-8.37,1.18c3.06,0.27,7.28,0.34,11.54,0.31c2.14-0.02,4.22-0.05,6.3-0.1c2.24-0.06,4.34-0.12,6.12-0.17
					c0.64-0.04,1.25-0.08,1.46-0.12c0.22,2.91,0.42,4.7,0.6,5.53c0.18,0.83,0.35,0.71,0.5-0.01c0.31-1.41,0.59-5.31,0.89-7.5
					c-0.95-0.17-1.26-0.35,0.55-0.55c0.03-0.16,0.11,0.14,0.14,0.6c0.08,2.74,0.16,5.46,0.25,8.19l0.06,1.98l0.06,1.35
					c0.04,0.9,0.08,1.81,0.13,2.72c0.17,3.64,0.32,7.35,0.43,11.24c0.23,7.79,0.29,16.31-0.06,26.5l-2.49,25.3
					c3.14,16.97,0.05,43.88,1.07,78.2c-1.62,6.71,0.65,42.25-0.98,48.98c0.03,16.1-4.38,3.04-5.62,16.1
					c-1.04,22.82-0.74-15.82-1.78,7.02c-0.63-24.81,4.33-7.86,3.79-41.14l-0.6,1.63c-0.93-13.69,0.96-37.34-0.7-46.74
					c0.36-35.73,2.33,0.61,3.67-16.92c-1.36-10.22-1.83-50.65-3.86-52.1l0.01,27.77c-0.05-4.5-0.48-1.03-0.65-2.86
					c1.94-19.18-5.92-69.68-0.03-55.53c0.35,3.67,0.16,13.47,0.81,16.35c1.38-1.42,0.69-20.43,0.83-34.72
					c-0.32-3.15-0.65-6.4-1-9.79c-0.09-0.85-0.17-1.7-0.26-2.57l-0.07-0.65l-0.03-0.33c-0.01-0.09-0.02-0.12-0.03-0.19l-0.13-0.66
					c-0.17-0.85-0.34-1.59-0.5-2.23c-0.58,0.1-1.16,0.2-1.76,0.3c-0.26,0.05-0.51,0.09-0.77,0.14l-0.36,0.07l-0.09,0.02
					c-0.02,0.01-0.05,0.01-0.16,0.02l-0.49,0.03c-2.63,0.16-5.36,0.3-8.18,0.39c-5.65,0.19-11.72,0.22-18.29-0.02
					c-7.96-0.37-3.25-1.2-11.21-1.57c-46.97,1.48-45.05-1.79-94.44-1.14c-30.85-1.71-68.63-0.52-99.47-2.24
					c4.7,1.23-20.46,0.55-26.75,0.38c-4.39-0.56-21.4-1.46-33.68-1.13c7.24-0.03,2.84-0.59,7.88-0.89
					c-27.69,0.58-32.75-1.32-34.3-2.47C163.75,195.57,165.92,193.64,191.11,194.32z"/>
				<path d="M471.77,489c-2.48-5.52-0.82,46.89-3.59,22.23c-0.47,16.89-0.03,24.6,0.7,34.05c0.87-19.36,0.36,4.71,1.48-5.68
					c0.14,8.24,0.28,16.44,0.42,24.58c0.06,4.07,0.11,8.13,0.17,12.18c0.05,5,0.09,9.98,0.14,14.94
					c-12.11,0.09-24.13,0.17-36.06,0.25c-10.99,0.03-21.91,0.06-32.75,0.09c-21.68,0.01-43.07-0.06-64.22-0.16
					c-42.9-1.86-80.93-0.12-121.96,1.69c-25.31-0.71-8.86-2.56-3.12-3.87l-31.78-0.07l32.08-1.57c1.02-0.96-13.37-1.03-21.32-1.75
					l-8.94,0.24c10.54-4.48,63.58,0.13,93.9-1.16c-36.5,0.29,5.67,1.47-9.76,2.36l11.44,0.16c-10.18,0.04-30.32,1.29-56.66,1.54
					c73.23,0.57,146.02-1.18,206.16-3.29c-1.75,0.28-6.45,0.64-1.01,0.96c9.84,0.05,17.84-0.43,24.53-1.04
					c3.34-0.3,6.36-0.64,9.11-0.95l0.51-0.06l0.23-0.06c0.14-0.04,0.29-0.08,0.43-0.12c0.25-0.08,0.5-0.15,0.74-0.22
					c0.44-0.14,0.79-0.27,1.08-0.39c-0.08-0.37-0.16-0.72-0.23-1.06l0.2,1.03c-0.62,0.18-1.41,0.35-2.37,0.53
					c0.89,0.16,2.01,0.26,3.21,0.31c0.03-0.74,0.05-1.55,0.04-2.39c-0.02-1.46-0.04-2.95-0.06-4.48c-0.07-3.73-0.19-7.61-0.32-11.51
					c-0.27-7.79-0.59-15.62-0.68-22.43c1.15-17.6,2.47-29.26,1.66-59.05l0.96,1.01l0.51-24.07c0.16,5.98,0.56,3.52,0.76,2.26
					c0.28,1.75,0.08,2.98-0.04,7.21c1.44,1.52,3.43-10.84,4.47-24.23c-0.12,4.22-0.24,8.43-0.15,11.42
					c0.63-10.92,1.7-48.88,3.14-29.98C474.72,460.26,471.44,459.68,471.77,489z"/>
				<path d="M465.31,351.29c-0.81,23.04-1-6.55-2.03-1.46l-0.08-20.63C464.28,328.59,464.36,349.22,465.31,351.29z"/>
				<path d="M137.18,520.25c0.88-1.98,0.47-16.88,0.71-25.3c-0.69-16.66-1.73-20.68-1.22-44.73c2.61,18.7,3.19-19.78,4.82-36.88
					c0.32,11.92,1.85,33.83,0.5,52.65c-0.76-2.26-1.23,14.63-1.47,23.04c1.28,12.95,3.91-10.31,4.41,42.33
					c-0.43,9.67,0.21,33.53-1.23,32c-0.26,3.34,0.06,6.58,0.3,9.9c0.12,1.66,0.22,3.35,0.21,5.08c0,0.87-0.03,1.74-0.1,2.64
					c-0.02,0.25-0.04,0.42-0.06,0.57l-0.07,0.51c-0.05,0.34-0.12,0.7-0.19,1.08c-0.2,1.02-0.4,2.15-0.6,3.38l-0.89-31.91
					c0.2-1.21,0.6-3.69,0.52-6.67c-1,6.19-2.13-35.58-3.88-14.27l0.06,44.95c-0.05,0.68-0.09,1.26-0.12,1.74
					c-0.05,0.53-0.09,0.96-0.13,1.29c-0.09,0.88-0.17,1.25-0.26,1.14c-0.04-0.06-0.09-0.23-0.13-0.52
					c-0.02-0.15-0.04-0.32-0.07-0.52c-0.02-0.18-0.04-0.49-0.07-0.61c-0.09-0.65-0.17-1.57-0.25-2.7c-0.33-4.51-0.6-12.41-0.7-20.5
					C138.26,534.43,138.06,535.68,137.18,520.25z"/>
				<polygon points="186.16,590.03 188.61,590.43 149.1,590.81 				"/>
				<path d="M136.67,373.49c0.44,7.72-0.07,14.42,0.37,22.11l-1.84,0.93L136.67,373.49z"/>
				<path d="M337.8,583.57c10.45-1.68,36.98-0.78,45.71-2.18c-7.2-0.04-4.71,0.36-6.47,0.64l13.89,0.55
					C373.77,583.76,356.9,583.28,337.8,583.57z"/>
				<path d="M136.88,295.54c-0.25-26.32-2.25-31.35-1.23-62.12c0.52-6.68,0.92,8.23,1.36-1.46c0.44-9.65-0.32-11.91-0.69-16.65
					l-0.6,3.72c1.2-7.42,2.19-30.99,4.15-18.75c-0.58,38.49,3.86,56.18,1.88,85.95l-1.96,5.18l0.49,17.88
					c-0.2,1.22-0.68,0.72-0.52,6.68c0.81,12.43,0.92-9.16,1.88-8.15l1.17,34.54c-0.12,4.23-0.56-3.5-0.76-2.26
					c-0.95,16.37,1.89,26.62,0.18,40.72l-1.05-21.38c-0.23,25.82-1.1,45.15-1.77,63.25C139.87,371.1,134.9,342.64,136.88,295.54z"/>
			</g>
		</g>
	</g>
</g>
<g>
	<rect x="173.36" y="396.3" class="st2" width="328.26" height="48.91"/>
	<path class="st0" d="M184.68,432.25c-0.52,1.88-0.98,3.29-1.37,4.25c-0.4,0.96-1,1.96-1.79,2.99c-0.61-0.09-1.03-0.02-1.27,0.21
		c-0.24,0.23-0.49,0.44-0.77,0.63c-0.42,0.09-0.73,0.09-0.91,0c-0.19-0.09-0.35-0.2-0.49-0.32c-0.14-0.12-0.32-0.24-0.53-0.35
		c-0.21-0.12-0.53-0.18-0.95-0.18c-0.09-0.37-0.2-0.73-0.32-1.05c-0.12-0.33-0.43-0.45-0.95-0.35c0.09-0.38,0.12-0.69,0.07-0.95
		c-0.05-0.26-0.11-0.49-0.18-0.7c-0.07-0.21-0.13-0.42-0.18-0.63c-0.05-0.21-0.02-0.48,0.07-0.81c-0.24,0-0.42-0.16-0.56-0.49
		c-0.14-0.33-0.31-0.66-0.49-0.98c0.14-0.84,0.28-1.64,0.42-2.39c0.14-0.75,0.32-1.45,0.53-2.11c0.21-0.66,0.39-1.31,0.53-1.97
		c0.14-0.66,0.07-1.34-0.21-2.04c0.19,0.14,0.33,0.11,0.42-0.11c0.09-0.21,0.16-0.49,0.21-0.84c0.05-0.35,0.07-0.7,0.07-1.05
		s-0.02-0.64-0.07-0.88c0.47-1.22,0.86-2.47,1.16-3.76c0.3-1.29,0.59-2.57,0.85-3.83c0.26-1.27,0.53-2.51,0.81-3.73
		c0.28-1.22,0.66-2.34,1.13-3.38c0.52-0.09,1.09-0.03,1.72,0.18s1.02,0.48,1.16,0.81c1.22-0.94,2.3-2.07,3.24-3.41
		c0.94-1.34,1.9-2.64,2.88-3.9c0.98-1.26,2.08-2.39,3.27-3.37c1.2-0.98,2.71-1.57,4.54-1.76c0.94,0.7,1.98,1.42,3.13,2.15
		c1.15,0.73,2.1,1.68,2.85,2.85c0.37,0.19,0.69,0.39,0.95,0.6c0.26,0.21,0.57,0.43,0.95,0.67v0.84c0.56,0.52,1.02,1.11,1.37,1.79
		c0.35,0.68,0.67,1.41,0.95,2.18c0.28,0.77,0.56,1.55,0.84,2.32c0.28,0.77,0.61,1.51,0.98,2.22c-0.09,0.24-0.14,0.43-0.14,0.6
		c0,0.17,0.04,0.34,0.1,0.53c0.07,0.19,0.13,0.38,0.18,0.56c0.05,0.19,0.05,0.45,0,0.77c-0.14,2.06-0.81,3.73-2.01,4.99
		c-1.2,1.26-2.64,2.31-4.33,3.13c-1.69,0.82-3.49,1.51-5.42,2.07c-1.92,0.56-3.66,1.17-5.2,1.83c0,0.19,0.08,0.28,0.25,0.28
		c0.16,0,0.22,0.12,0.18,0.35c1.12,0.7,2.01,1.27,2.67,1.69c0.66,0.42,1.28,0.77,1.86,1.06c0.59,0.28,1.22,0.53,1.9,0.74
		c0.68,0.21,1.63,0.46,2.85,0.74c1.22,0.28,2.17,0.5,2.85,0.67c0.68,0.17,1.3,0.31,1.86,0.42s1.14,0.21,1.72,0.28
		c0.59,0.07,1.42,0.15,2.5,0.25c0.42,0.42,0.78,0.93,1.09,1.51c0.3,0.59,0.5,1.17,0.6,1.76c0.09,0.59,0.12,1.15,0.07,1.69
		c-0.05,0.54-0.21,0.97-0.49,1.3c0.05,0.14,0.15,0.2,0.32,0.18c0.16-0.02,0.34-0.01,0.53,0.04c-0.28,0.19-0.52,0.42-0.7,0.7
		c-0.19,0.28-0.38,0.56-0.56,0.84c-0.19,0.28-0.4,0.53-0.63,0.74c-0.24,0.21-0.56,0.34-0.98,0.39c-1.45,0.56-3.28,0.6-5.48,0.1
		c-2.2-0.49-4.99-1.4-8.37-2.71c-1.69-0.66-3.06-1.23-4.11-1.72c-1.05-0.49-1.97-0.98-2.74-1.48c-0.77-0.49-1.48-1.02-2.11-1.58
		C186.33,433.72,185.57,433.05,184.68,432.25z M194.75,408.13c-0.52,0.75-1.09,1.43-1.72,2.04c-0.63,0.61-1.24,1.23-1.83,1.86
		c-0.59,0.63-1.11,1.34-1.58,2.11c-0.47,0.77-0.8,1.68-0.99,2.71c1.64-0.19,3.35-0.64,5.13-1.37c1.78-0.72,3.47-1.42,5.06-2.07
		c-0.19-1.45-0.69-2.62-1.51-3.52C196.49,409,195.64,408.42,194.75,408.13z"/>
	<path class="st0" d="M251.56,400c0.05,0.33,0.06,0.57,0.04,0.74c-0.02,0.17-0.05,0.32-0.07,0.46c-0.02,0.14-0.04,0.29-0.04,0.46
		c0,0.17,0.05,0.41,0.14,0.74c-0.98,1.59-2.12,2.68-3.41,3.27c-1.29,0.59-2.68,1.01-4.18,1.26c-1.5,0.26-3.04,0.53-4.61,0.81
		c-1.57,0.28-3.13,0.89-4.68,1.83c-0.61-0.23-1.16-0.23-1.65,0c-0.49,0.24-1.21,0.3-2.14,0.21c-0.28,0.28-0.63,0.48-1.06,0.6
		c-0.42,0.12-0.84,0.25-1.27,0.39c0.19,0.42,0.27,0.86,0.25,1.3c-0.02,0.45,0.03,0.81,0.18,1.09c1.64,0.14,3.46,0.12,5.45-0.07
		c1.99-0.19,3.95-0.3,5.87-0.35c0.05,0.24,0.02,0.39-0.07,0.46c-0.09,0.07-0.12,0.2-0.07,0.39c0.33,0.24,0.66,0.53,0.98,0.88
		c0.33,0.35,0.66,0.69,0.98,1.02c0.33,0.33,0.67,0.6,1.02,0.81c0.35,0.21,0.76,0.29,1.23,0.25c0.19,0.38,0.32,0.79,0.39,1.23
		c0.07,0.45,0.01,0.9-0.18,1.37c-0.75,0.52-1.5,1.04-2.25,1.58c-0.75,0.54-1.54,1.02-2.36,1.44c-0.82,0.42-1.69,0.76-2.6,1.02
		c-0.91,0.26-1.93,0.36-3.06,0.31c-0.24,0-0.41,0-0.53,0c-0.12,0-0.27-0.07-0.46-0.21c-0.38,0.24-0.9,0.31-1.58,0.21
		c-0.68-0.09-1.21-0.02-1.58,0.21c-0.52-0.23-1.14-0.34-1.86-0.32c-0.73,0.02-1.37-0.06-1.93-0.25c-0.75,0.98-1.43,2.04-2.04,3.16
		c-0.61,1.12-1.15,2.32-1.62,3.58c1.59,0.24,2.92,0.33,3.97,0.28c1.05-0.04,2.05-0.13,2.99-0.25c0.94-0.12,1.9-0.23,2.88-0.35
		c0.98-0.12,2.23-0.15,3.73-0.1c0.94-0.51,2.05-0.85,3.34-1.02c1.29-0.16,2.47-0.43,3.55-0.81c0.37,0.14,0.7,0.39,0.98,0.74
		c0.28,0.35,0.55,0.68,0.81,0.99c0.26,0.31,0.53,0.58,0.81,0.81c0.28,0.24,0.63,0.33,1.05,0.28c0.19,0.19,0.32,0.41,0.39,0.67
		c0.07,0.26,0.13,0.5,0.18,0.74c0.05,0.24,0.13,0.43,0.25,0.6c0.12,0.17,0.32,0.22,0.6,0.18c-0.7,1.55-1.51,2.73-2.43,3.55
		c-0.91,0.82-1.96,1.44-3.13,1.86c-1.17,0.42-2.47,0.75-3.9,0.98c-1.43,0.24-3.01,0.52-4.75,0.84c-0.42,0.09-0.77,0.08-1.05-0.04
		c-0.28-0.12-0.61-0.18-0.98-0.18c-1.08,0.23-2.37,0.44-3.87,0.63c-1.5,0.19-3.02,0.25-4.57,0.21c-1.55-0.05-3.02-0.25-4.43-0.6
		c-1.41-0.35-2.56-0.97-3.44-1.86c-0.38-0.33-0.62-0.71-0.74-1.16c-0.12-0.44-0.43-0.78-0.95-1.02c-0.05-0.61-0.14-1.29-0.28-2.04
		c-0.14-0.75-0.28-1.54-0.42-2.36c-0.14-0.82-0.25-1.63-0.32-2.43c-0.07-0.8-0.03-1.52,0.11-2.18c0.14-0.7,0.43-1.33,0.88-1.9
		c0.45-0.56,0.6-1.17,0.46-1.83c0.23-0.05,0.37-0.18,0.42-0.39c0.05-0.21,0.23-0.29,0.56-0.25c0.28-0.84,0.59-1.64,0.92-2.39
		c0.33-0.75,0.67-1.48,1.02-2.18c0.35-0.7,0.7-1.42,1.06-2.14c0.35-0.73,0.69-1.54,1.02-2.43c-0.66-0.61-1.14-1.28-1.44-2
		c-0.31-0.73-0.53-1.45-0.67-2.18c-0.14-0.73-0.26-1.48-0.35-2.25c-0.09-0.77-0.26-1.56-0.49-2.36c0.47-0.7,1.04-1.28,1.72-1.72
		c0.68-0.45,1.42-0.81,2.22-1.09c0.8-0.28,1.66-0.51,2.6-0.7c0.94-0.19,1.92-0.4,2.95-0.63c1.87-0.61,3.55-1.08,5.03-1.4
		c1.48-0.33,2.93-0.6,4.36-0.81c1.43-0.21,2.92-0.41,4.46-0.6s3.31-0.47,5.27-0.84c0.42,0.42,0.82,0.63,1.19,0.63
		c0.19-0.42,0.41-0.55,0.67-0.39c0.26,0.17,0.36,0.04,0.32-0.39c0.47,0.8,1.06,1.47,1.79,2.01
		C249.86,399.17,250.67,399.63,251.56,400z"/>
	<path class="st0" d="M251,407.95c0.33-0.98,0.86-1.83,1.58-2.53c0.73-0.7,1.52-1.3,2.39-1.79c0.87-0.49,1.77-0.9,2.71-1.23
		c0.94-0.33,1.83-0.61,2.67-0.84c1.87-0.79,3.88-1.56,6.01-2.28c2.13-0.73,4.31-1.37,6.54-1.93c2.23-0.56,4.51-0.92,6.86-1.09
		c2.34-0.16,4.8,0.13,7.38,0.88c0.14,0.47,0.35,0.92,0.63,1.34c0.28,0.42,0.57,0.84,0.88,1.27c0.3,0.42,0.57,0.83,0.81,1.23
		c0.23,0.4,0.37,0.81,0.42,1.23c0.47,0.42,0.84,0.88,1.12,1.37c0.28,0.49,0.33,1.14,0.14,1.93c-0.47,0.38-0.93,0.71-1.37,1.02
		c-0.45,0.3-0.93,0.57-1.44,0.81c-1.73-0.42-3.49-0.56-5.27-0.42c-1.78,0.14-3.38,0.26-4.78,0.35c-0.42-0.42-0.93-0.63-1.51-0.63
		c-0.59,0-1.2,0.09-1.83,0.28c-0.63,0.19-1.27,0.38-1.9,0.56c-0.63,0.19-1.23,0.23-1.79,0.14c-0.47,0.38-1.04,0.62-1.72,0.74
		c-0.68,0.12-1.42,0.22-2.21,0.32c-0.05,0.24,0,0.39,0.14,0.46c0.14,0.07,0.16,0.22,0.07,0.46c0.28,0.33,0.64,0.56,1.09,0.7
		c0.44,0.14,0.91,0.28,1.41,0.42c0.49,0.14,0.92,0.32,1.3,0.53c0.37,0.21,0.63,0.55,0.77,1.02c0.7,0,1.31,0.17,1.83,0.49
		c0.52,0.33,0.94,0.73,1.27,1.2c0.33,0.47,0.57,0.97,0.74,1.51c0.16,0.54,0.25,1.02,0.25,1.44c0.14,0.38,0.3,0.54,0.49,0.49
		c0.19-0.05,0.4,0.05,0.63,0.28c0.14,0.61,0.49,1.23,1.05,1.86c0.56,0.63,1.01,1.33,1.33,2.07c0.09,1.17,0.16,2.21,0.21,3.13
		c0.05,0.91-0.12,1.84-0.49,2.78c-0.7,1.73-1.68,3.28-2.92,4.64c-1.24,1.36-2.65,2.57-4.22,3.62c-1.57,1.05-3.25,1.96-5.03,2.71
		c-1.78,0.75-3.52,1.38-5.2,1.9c-0.19-0.05-0.38-0.05-0.56,0c-0.19,0.05-0.24-0.07-0.14-0.35c-0.38,0.33-0.79,0.54-1.23,0.63
		c-0.45,0.09-0.93,0.13-1.44,0.11c-0.52-0.03-1.04-0.06-1.58-0.11c-0.54-0.05-1.04-0.03-1.51,0.07c-0.33-0.33-0.62-0.65-0.88-0.95
		c-0.26-0.3-0.46-0.69-0.6-1.16c-0.24,0-0.34-0.12-0.32-0.35c0.02-0.23-0.06-0.35-0.25-0.35c0.28-0.47,0.41-0.74,0.39-0.81
		c-0.02-0.07-0.09-0.13-0.21-0.18c-0.12-0.05-0.22-0.11-0.32-0.18c-0.09-0.07-0.12-0.18-0.07-0.32c0.19-0.37,0.26-0.81,0.21-1.3
		c-0.05-0.49-0.09-1-0.14-1.51c-0.05-0.51-0.01-1.01,0.11-1.48c0.12-0.47,0.46-0.84,1.02-1.12c1.59,0.19,3.1,0.13,4.54-0.17
		c1.43-0.3,2.78-0.74,4.04-1.3c1.27-0.56,2.47-1.17,3.62-1.83c1.15-0.66,2.29-1.24,3.41-1.76c0.14-0.42,0.34-0.77,0.6-1.05
		c0.26-0.28,0.53-0.54,0.81-0.77c0.28-0.23,0.54-0.49,0.77-0.77c0.23-0.28,0.4-0.63,0.49-1.05c0.05-0.33-0.03-0.53-0.25-0.6
		s-0.32-0.25-0.32-0.53l-0.77-0.21c-0.89-0.52-1.9-0.95-3.02-1.3c-1.12-0.35-2.09-0.74-2.88-1.16c-0.52,0.28-1,0.35-1.44,0.21
		c-0.45-0.14-1.02-0.28-1.72-0.42c-1.59-0.09-3.13-0.26-4.61-0.49c-1.48-0.23-2.89-0.66-4.25-1.27c-0.09-0.23-0.21-0.44-0.35-0.63
		c-0.14-0.19-0.4-0.23-0.77-0.14c-0.28-0.38-0.56-0.74-0.84-1.09c-0.28-0.35-0.54-0.74-0.77-1.16c0.09-0.56,0.16-1.04,0.21-1.44
		c0.05-0.4-0.09-0.78-0.42-1.16c0.19-0.61,0.33-1.1,0.42-1.48C251.09,409.05,251.09,408.56,251,407.95z"/>
	<path class="st0" d="M324.76,399.61c0.09,1.03,0.26,1.92,0.49,2.67c0.23,0.75,0.49,1.48,0.77,2.18c0.23,0.66,0.46,1.3,0.67,1.93
		s0.36,1.4,0.46,2.29c-0.38,1.22-0.65,2.34-0.81,3.38c-0.17,1.03-0.34,2.11-0.53,3.23c-0.75,1.64-1.48,3.09-2.18,4.36
		c-0.7,1.27-1.27,2.37-1.69,3.3c-0.24,0.24-0.43,0.5-0.6,0.81c-0.17,0.31-0.34,0.62-0.53,0.95c-0.09,0.14-0.21,0.35-0.35,0.63
		c-0.14,0.28-0.26,0.47-0.35,0.56l-1.41-0.49l-0.28,1.76l-0.98,0.28l-0.7,0.84c-0.89,1.55-1.83,2.85-2.81,3.9
		c-0.98,1.05-2.1,1.99-3.34,2.81c-1.24,0.82-2.65,1.58-4.22,2.28c-1.57,0.7-3.34,1.47-5.31,2.32c-0.8-0.09-1.49-0.15-2.07-0.18
		c-0.59-0.02-1.14-0.06-1.65-0.11c-0.89,0-1.99-0.07-3.3-0.21c-0.14-0.37-0.35-0.63-0.63-0.77s-0.54-0.21-0.77-0.21
		c-0.8-0.38-1.4-0.93-1.79-1.65c-0.4-0.73-0.79-1.51-1.16-2.36c-0.24-0.52-0.47-1-0.7-1.44c-0.24-0.44-0.49-0.9-0.77-1.37l1.2-0.35
		l-1.55-1.69c-0.09-0.14-0.21-0.27-0.35-0.39c-0.14-0.12-0.26-0.25-0.35-0.39l-0.07-1.12c-0.14-3.23-0.2-6.2-0.17-8.89
		c0.02-2.69,0.39-5.1,1.09-7.21v-0.77c0.14-1.03,0.28-1.89,0.42-2.57c0.14-0.68,0.26-1.32,0.35-1.93c0.14-1.03,0.35-1.99,0.63-2.88
		c0.66-0.14,1.15-0.41,1.48-0.81c0.33-0.4,0.61-0.76,0.84-1.09c0.66-0.04,1.1,0.05,1.34,0.28c0.23,0.24,0.47,0.61,0.7,1.12
		c0.23,0.42,0.53,0.89,0.88,1.41c0.35,0.52,0.88,0.91,1.58,1.2c0.09,0.38,0.22,0.76,0.39,1.16c0.16,0.4,0.34,0.83,0.53,1.3
		c0.37,0.8,0.71,1.63,1.02,2.5c0.3,0.87,0.48,1.7,0.53,2.5c-0.47,0.89-0.83,1.92-1.09,3.09c-0.26,1.17-0.42,2.36-0.49,3.55
		s-0.05,2.34,0.07,3.45c0.12,1.1,0.32,2.03,0.6,2.78l0.42,0.91l1.2-0.14c1.41-0.37,2.68-0.78,3.83-1.23
		c1.15-0.44,2.22-0.97,3.2-1.58c0.98-0.61,1.92-1.32,2.81-2.14c0.89-0.82,1.83-1.77,2.81-2.85c0.99-1.08,1.84-2.31,2.57-3.69
		c0.73-1.38,1.34-2.82,1.83-4.32c0.49-1.5,0.87-2.99,1.13-4.46c0.26-1.48,0.43-2.87,0.53-4.18c0.8-0.28,1.2-0.84,1.2-1.69
		l-0.14-0.77c-0.19-0.28-0.19-0.61,0-0.98c0.28-0.89,0.94-1.57,1.97-2.04c0.75,0.47,1.42,0.98,2,1.55
		C323.69,398.48,324.24,399.05,324.76,399.61z"/>
	<path class="st0" d="M374.03,438.37c-0.47,0.24-0.9,0.45-1.3,0.63c-0.4,0.19-0.86,0.28-1.37,0.28c-1.83-1.36-2.78-3.73-2.84-7.1
		c-0.07-3.38,0.65-7.66,2.15-12.87c0.23-0.14,0.35-0.42,0.35-0.84l-0.63-0.7c-0.19,0-0.36,0.02-0.53,0.07
		c-0.17,0.05-0.29,0.21-0.39,0.49c-1.22,0.89-2.56,1.82-4.01,2.78c-1.45,0.96-2.97,1.85-4.54,2.67c-1.57,0.82-3.17,1.49-4.78,2
		c-1.62,0.52-3.2,0.77-4.75,0.77c-3.94,0-6.89-1.99-8.86-5.98l-0.56-1.05l-0.56,0.91c-0.14,0.19-0.35,0.58-0.63,1.16
		c-0.28,0.59-0.56,1.25-0.84,2c-0.28,0.75-0.53,1.51-0.74,2.28s-0.29,1.44-0.25,2c-0.42,0.42-0.87,0.91-1.34,1.48
		c-0.47,0.56-0.82,1.19-1.06,1.9c-0.09,0.38-0.05,0.73,0.14,1.05c-0.09,0.42-0.31,0.75-0.63,0.98c-0.19,0.24-0.39,0.46-0.6,0.67
		c-0.21,0.21-0.39,0.43-0.53,0.67c-0.09,0.24-0.15,0.47-0.18,0.7c-0.02,0.24-0.06,0.47-0.11,0.7c0,0.33-0.05,0.63-0.14,0.91
		c-0.8,1.64-1.43,2.71-1.9,3.2c-0.47,0.49-1.1,0.74-1.9,0.74c-0.38,0-0.98-0.07-1.83-0.21c-0.61-0.66-1.16-1.56-1.65-2.71
		c-0.49-1.15-0.87-2.38-1.12-3.69c-0.26-1.31-0.37-2.64-0.35-3.97c0.02-1.34,0.25-2.5,0.67-3.48c0-0.05,0.19-0.51,0.56-1.41
		c0.38-0.89,0.86-2.04,1.44-3.44c0.59-1.41,1.25-2.96,2.01-4.67c0.75-1.71,1.5-3.38,2.25-4.99c0.75-1.62,1.46-3.1,2.15-4.46
		c0.68-1.36,1.25-2.39,1.72-3.09c0.38-0.56,0.71-1.09,1.02-1.58c0.3-0.49,0.6-0.97,0.88-1.44c0.84-1.45,1.65-2.66,2.43-3.62
		c0.77-0.96,1.91-1.72,3.41-2.28c1.03,0.42,1.78,0.92,2.25,1.48l0.14,0.77c0.19,0.47,0.47,0.7,0.84,0.7
		c0.52,0.14,0.95,0.27,1.3,0.39c0.35,0.12,0.74,0.22,1.16,0.32c0.33,0.38,0.63,0.82,0.91,1.34c0.38,0.56,0.74,1.12,1.09,1.65
		c0.35,0.54,0.63,1.08,0.84,1.62c0.21,0.54,0.33,1.09,0.35,1.65s-0.08,1.15-0.32,1.76l0.07,0.7c0.23,0.42,0.28,1.01,0.14,1.76
		c-0.05,0.33-0.07,0.67-0.07,1.02s0.05,0.74,0.14,1.16c0.84,0.66,1.59,0.99,2.25,0.99c0.75,0,1.44-0.17,2.08-0.53
		c0.63-0.35,1.23-0.71,1.79-1.09c0.38-0.28,0.75-0.53,1.12-0.74c0.38-0.21,0.75-0.34,1.12-0.39c0.84-0.8,1.61-1.5,2.29-2.11
		c0.68-0.61,1.39-1.22,2.15-1.83c1.41-1.12,2.77-2.34,4.08-3.66c1.31-1.31,2.37-2.95,3.17-4.92c0.47-0.28,0.96-0.42,1.48-0.42
		s1.05,0.12,1.62,0.35c0.56,0.24,1.1,0.47,1.62,0.7c0.14,0.09,0.27,0.17,0.39,0.21c0.12,0.05,0.22,0.09,0.32,0.14
		c0,0.47,0.19,0.87,0.56,1.2c0.19,0.14,0.3,0.24,0.35,0.28c0.05,0.05,0.12,0.09,0.21,0.14c0.7,0.38,1.15,0.75,1.34,1.13
		c0.33,1.08,0.91,1.9,1.76,2.46c-0.09,0.47-0.08,0.9,0.03,1.3c0.12,0.4,0.27,0.81,0.46,1.23c0.05,0.14,0.09,0.28,0.14,0.42
		s0.12,0.31,0.21,0.49l-1.33-0.14l0.21,1.34c0.09,0.66,0.03,1.38-0.18,2.18c-0.21,0.8-0.46,1.43-0.74,1.9
		c0.05,1.22,0.08,2.17,0.1,2.85c0.02,0.68-0.01,1.31-0.11,1.9c-0.09,0.59-0.22,1.14-0.39,1.65c-0.17,0.52-0.39,1.08-0.67,1.69
		c0.19,3-0.16,5.73-1.02,8.19c-0.87,2.46-1.77,4.77-2.71,6.92c-0.09,0.24-0.2,0.47-0.32,0.7c-0.12,0.24-0.22,0.47-0.32,0.7
		c-0.42,0.14-0.8,0.29-1.13,0.46C374.76,438.01,374.41,438.19,374.03,438.37z"/>
	<path class="st0" d="M423.27,400.07c0.04,0.33,0.06,0.57,0.03,0.74c-0.02,0.17-0.05,0.32-0.07,0.46c-0.02,0.14-0.04,0.29-0.04,0.46
		c0,0.17,0.05,0.41,0.14,0.74c-0.99,1.59-2.12,2.68-3.41,3.27c-1.29,0.59-2.68,1.01-4.18,1.26c-1.5,0.26-3.04,0.53-4.61,0.81
		c-1.57,0.28-3.13,0.89-4.68,1.83c-0.61-0.23-1.16-0.23-1.65,0c-0.49,0.24-1.21,0.3-2.15,0.21c-0.28,0.28-0.63,0.48-1.05,0.6
		c-0.42,0.12-0.84,0.25-1.27,0.39c0.19,0.42,0.27,0.86,0.25,1.3c-0.03,0.45,0.03,0.81,0.17,1.09c1.64,0.14,3.46,0.12,5.45-0.07
		c1.99-0.19,3.95-0.3,5.87-0.35c0.05,0.24,0.02,0.39-0.07,0.46c-0.09,0.07-0.12,0.2-0.07,0.39c0.33,0.24,0.66,0.53,0.98,0.88
		c0.33,0.35,0.66,0.69,0.98,1.02c0.33,0.33,0.67,0.6,1.02,0.81s0.76,0.29,1.23,0.25c0.19,0.38,0.32,0.79,0.39,1.23
		c0.07,0.45,0.01,0.9-0.18,1.37c-0.75,0.52-1.5,1.04-2.25,1.58c-0.75,0.54-1.54,1.02-2.36,1.44c-0.82,0.42-1.69,0.76-2.6,1.02
		c-0.91,0.26-1.93,0.36-3.06,0.31c-0.24,0-0.41,0-0.53,0c-0.12,0-0.27-0.07-0.46-0.21c-0.38,0.24-0.9,0.31-1.58,0.21
		c-0.68-0.09-1.21-0.02-1.58,0.21c-0.52-0.23-1.14-0.34-1.86-0.32c-0.73,0.02-1.37-0.06-1.93-0.25c-0.75,0.98-1.43,2.04-2.04,3.16
		c-0.61,1.12-1.15,2.32-1.62,3.59c1.59,0.24,2.92,0.33,3.97,0.28c1.05-0.04,2.05-0.13,2.99-0.25c0.94-0.12,1.9-0.23,2.88-0.35
		c0.98-0.12,2.23-0.15,3.73-0.1c0.94-0.51,2.05-0.85,3.34-1.02c1.29-0.16,2.47-0.43,3.55-0.81c0.38,0.14,0.7,0.39,0.98,0.74
		c0.28,0.35,0.55,0.68,0.81,0.98c0.26,0.31,0.53,0.58,0.81,0.81c0.28,0.24,0.63,0.33,1.05,0.28c0.19,0.19,0.32,0.41,0.39,0.67
		c0.07,0.26,0.13,0.5,0.17,0.74c0.05,0.24,0.13,0.43,0.25,0.6c0.12,0.17,0.32,0.22,0.6,0.18c-0.7,1.55-1.51,2.73-2.43,3.55
		c-0.91,0.82-1.96,1.44-3.13,1.86c-1.17,0.42-2.47,0.75-3.9,0.98c-1.43,0.24-3.01,0.52-4.75,0.84c-0.42,0.09-0.77,0.08-1.05-0.04
		c-0.28-0.12-0.61-0.18-0.98-0.18c-1.08,0.23-2.37,0.44-3.87,0.63c-1.5,0.19-3.02,0.26-4.57,0.21c-1.55-0.05-3.02-0.25-4.43-0.6
		s-2.56-0.97-3.44-1.86c-0.38-0.33-0.62-0.71-0.74-1.16c-0.12-0.44-0.43-0.78-0.95-1.02c-0.05-0.61-0.14-1.29-0.28-2.04
		c-0.14-0.75-0.28-1.54-0.42-2.36c-0.14-0.82-0.25-1.63-0.32-2.43c-0.07-0.8-0.03-1.52,0.11-2.18c0.14-0.7,0.43-1.34,0.88-1.9
		c0.45-0.56,0.6-1.17,0.46-1.83c0.23-0.05,0.38-0.18,0.42-0.39c0.05-0.21,0.23-0.29,0.56-0.25c0.28-0.84,0.59-1.64,0.92-2.39
		c0.33-0.75,0.67-1.48,1.02-2.18s0.7-1.42,1.06-2.14c0.35-0.73,0.69-1.53,1.02-2.43c-0.66-0.61-1.14-1.28-1.44-2
		c-0.31-0.73-0.53-1.45-0.67-2.18c-0.14-0.73-0.26-1.48-0.35-2.25c-0.09-0.77-0.26-1.56-0.49-2.36c0.47-0.7,1.04-1.28,1.72-1.72
		s1.42-0.81,2.22-1.09c0.8-0.28,1.66-0.51,2.6-0.7c0.94-0.19,1.92-0.4,2.95-0.63c1.88-0.61,3.55-1.08,5.03-1.4
		c1.48-0.33,2.93-0.6,4.36-0.81c1.43-0.21,2.92-0.41,4.47-0.6c1.55-0.19,3.3-0.47,5.27-0.84c0.42,0.42,0.82,0.63,1.2,0.63
		c0.19-0.42,0.41-0.55,0.67-0.39c0.26,0.17,0.36,0.04,0.32-0.39c0.47,0.8,1.06,1.47,1.79,2.01
		C421.57,399.24,422.38,399.7,423.27,400.07z"/>
</g>
<g>
	<path class="st0" d="M176.49,336.11c0-1.66-0.2-3.45-0.61-5.39c-0.41-1.94-0.84-3.92-1.31-5.95c-0.47-2.03-0.92-4.05-1.36-6.07
		c-0.44-2.02-0.67-3.91-0.7-5.7l-10.45,0c0-0.25,0-0.61,0-1.08s0.05-0.95,0.14-1.43c0.09-0.48,0.23-0.92,0.42-1.31
		c0.19-0.39,0.47-0.63,0.84-0.73l25.78,0.01c-0.03,1-0.24,1.77-0.61,2.3s-0.87,0.94-1.48,1.22c-0.61,0.28-1.29,0.46-2.04,0.54
		c-0.75,0.08-1.5,0.16-2.25,0.26c-0.75,0.09-1.48,0.21-2.2,0.35c-0.72,0.14-1.34,0.41-1.85,0.82c-0.52,0.41-0.91,0.96-1.17,1.66
		c-0.27,0.7-0.34,1.65-0.21,2.84c0,0.66,0.05,1.52,0.14,2.6s0.25,2.24,0.47,3.49c0.22,1.25,0.5,2.51,0.84,3.77
		c0.34,1.27,0.77,2.42,1.29,3.47c0.52,1.05,1.11,1.89,1.78,2.53s1.46,0.96,2.37,0.96c0.62,0.06,1.43,0.07,2.41,0.02
		c0.98-0.05,1.98-0.08,2.98-0.12c1-0.03,1.95-0.01,2.84,0.05c0.89,0.06,1.54,0.25,1.95,0.56c0.41,0.31,0.5,0.77,0.28,1.38
		c-0.22,0.61-0.91,1.43-2.06,2.46c-2,0.75-4.02,1.26-6.07,1.52s-4.1,0.4-6.16,0.42c-2.06,0.01-4.12-0.02-6.19-0.1
		c-2.06-0.08-4.11-0.12-6.14-0.12c-1.16-1.41-1.84-2.48-2.06-3.24c-0.22-0.75-0.13-1.27,0.26-1.57s1.02-0.45,1.88-0.47
		c0.86-0.01,1.79,0.02,2.79,0.1c1,0.08,2,0.14,3,0.19C175.01,336.42,175.83,336.33,176.49,336.11z"/>
	<path class="st0" d="M198.53,326.84c0-0.81,0.2-1.4,0.61-1.76c0.41-0.36,1.06-0.54,1.97-0.54h0.47c0.09,0.5,0.2,1.08,0.33,1.74
		c0.12,0.66,0.31,1.33,0.56,2.02s0.55,1.32,0.89,1.9c0.34,0.58,0.77,1.04,1.27,1.38c0.03-1.09,0.31-2.15,0.82-3.16
		c0.52-1.01,1.16-1.92,1.92-2.72c0.77-0.8,1.61-1.47,2.53-2.01s1.84-0.91,2.74-1.1h1.03c1.5,0,2.78,0.34,3.84,1.01
		c1.06,0.67,1.94,1.55,2.65,2.63s1.24,2.31,1.62,3.68c0.37,1.38,0.66,2.77,0.87,4.2c0.2,1.42,0.33,2.8,0.37,4.12
		c0.05,1.33,0.07,2.46,0.07,3.4l-3.42,0c-0.19-1.88-0.42-3.67-0.7-5.39c-0.09-0.69-0.22-1.41-0.37-2.18
		c-0.16-0.77-0.33-1.48-0.51-2.16c-0.19-0.67-0.39-1.3-0.61-1.88c-0.22-0.58-0.47-1.07-0.75-1.48c-0.12-0.12-0.29-0.3-0.49-0.52
		c-0.2-0.22-0.41-0.44-0.63-0.66c-0.22-0.22-0.42-0.41-0.61-0.56c-0.19-0.16-0.3-0.23-0.33-0.23c-0.94-0.25-1.75-0.07-2.44,0.54
		s-1.3,1.43-1.83,2.46c-0.53,1.03-0.96,2.2-1.29,3.52c-0.33,1.31-0.6,2.57-0.82,3.77c-0.22,1.2-0.38,2.25-0.47,3.14
		c-0.09,0.89-0.16,1.43-0.19,1.62c-0.78,0.56-1.52,0.73-2.2,0.49c-0.69-0.23-1.34-0.73-1.94-1.48s-1.16-1.69-1.64-2.81
		c-0.48-1.12-0.93-2.32-1.33-3.59c-0.41-1.27-0.77-2.54-1.1-3.82C199.06,329.12,198.78,327.93,198.53,326.84z"/>
	<path class="st0" d="M224.64,319.02c0-0.09,0.02-0.17,0.05-0.23c0-0.06,0.02-0.14,0.05-0.23c0.12-0.16,0.31-0.36,0.56-0.61
		c0.25-0.25,0.41-0.37,0.47-0.37l9.42,0c0-0.34-0.05-0.89-0.14-1.64c-0.09-0.75-0.18-1.58-0.26-2.48c-0.08-0.91-0.1-1.85-0.07-2.84
		s0.17-1.88,0.4-2.67c0.23-0.8,0.61-1.45,1.13-1.97c0.52-0.52,1.24-0.77,2.18-0.77c0,3.16,0.22,5.69,0.65,7.59
		c0.44,1.91,1.02,3.38,1.76,4.41c0.73,1.03,1.57,1.7,2.51,2.02s1.9,0.45,2.88,0.4c0.98-0.05,1.95-0.19,2.88-0.44
		c0.94-0.25,1.77-0.42,2.51-0.51c0.73-0.09,1.32-0.02,1.76,0.21s0.66,0.79,0.66,1.66c0,0.66-0.15,1.12-0.45,1.41
		s-0.87,0.5-1.71,0.66c-0.25,0.03-0.66,0.09-1.24,0.16c-0.58,0.08-1.23,0.15-1.95,0.21s-1.48,0.13-2.3,0.21
		c-0.81,0.08-1.58,0.15-2.3,0.21c-0.72,0.06-1.38,0.1-1.97,0.12c-0.59,0.02-1.03,0.02-1.31,0.02c0,0.16-0.02,0.42-0.05,0.8
		s-0.05,0.62-0.05,0.75c0,1.38,0.22,2.71,0.66,4.01c0.44,1.3,0.91,2.59,1.43,3.87c0.52,1.28,0.99,2.56,1.43,3.84
		c0.44,1.28,0.65,2.61,0.65,3.99c0,0.25-0.02,0.51-0.07,0.77c-0.05,0.27-0.14,0.5-0.28,0.7c-0.14,0.2-0.34,0.36-0.61,0.47
		s-0.63,0.09-1.1-0.07c-1.19-0.31-2.07-0.99-2.65-2.02c-0.58-1.03-1.01-2.26-1.29-3.68c-0.28-1.42-0.47-2.93-0.56-4.52
		c-0.09-1.59-0.24-3.09-0.44-4.48c-0.2-1.39-0.52-2.58-0.96-3.56c-0.44-0.98-1.14-1.59-2.11-1.81l-9.05-2.07
		c-0.12,0-0.31-0.13-0.56-0.4c-0.25-0.26-0.41-0.46-0.47-0.59c-0.03-0.06-0.05-0.14-0.05-0.23
		C224.65,319.24,224.64,319.15,224.64,319.02z"/>
	<path class="st0" d="M255.81,329.63c0-1.69,0.2-3.38,0.61-5.06c0.41-1.69,1.06-3.2,1.95-4.55c0.89-1.34,2.05-2.44,3.47-3.28
		c1.42-0.84,3.15-1.26,5.18-1.26c1.16,0,2.17,0.21,3.05,0.63s1.61,0.98,2.2,1.67c0.59,0.69,1.04,1.49,1.33,2.42
		c0.3,0.92,0.44,1.88,0.44,2.88c0,1.59-0.37,3.14-1.1,4.64c-0.73,1.5-1.72,2.82-2.95,3.96c-1.24,1.14-2.65,2-4.24,2.58
		c-1.59,0.58-3.22,0.71-4.88,0.4c0.03,0.91,0.34,1.63,0.91,2.18c0.58,0.55,1.27,0.96,2.08,1.24c0.81,0.28,1.66,0.46,2.53,0.54
		s1.66,0.12,2.34,0.12c0.72,0,1.39-0.06,2.02-0.19c0.62-0.12,1.25-0.26,1.88-0.42s1.26-0.3,1.9-0.42c0.64-0.12,1.32-0.19,2.04-0.19
		c0.28,0,0.56,0.02,0.84,0.05c0.28,0.03,0.55,0.1,0.8,0.21c0.25,0.11,0.45,0.28,0.61,0.52s0.23,0.52,0.23,0.87
		c0,0.59-0.22,1.09-0.66,1.48s-0.99,0.73-1.66,1.01c-0.67,0.28-1.42,0.49-2.23,0.63s-1.6,0.25-2.37,0.33s-1.47,0.12-2.11,0.14
		s-1.12,0.02-1.43,0.02c-2,0-3.8-0.32-5.39-0.96c-1.59-0.64-2.94-1.53-4.03-2.67c-1.09-1.14-1.93-2.52-2.51-4.13
		C256.09,333.39,255.81,331.6,255.81,329.63z M260.78,326.58c0,1.09,0.15,1.89,0.44,2.39c0.3,0.5,1.02,0.75,2.18,0.75
		c0.81,0,1.61-0.15,2.39-0.44c0.78-0.3,1.49-0.71,2.13-1.24s1.15-1.16,1.52-1.87s0.56-1.5,0.56-2.34c0-0.47-0.04-0.95-0.12-1.45
		c-0.08-0.5-0.24-0.96-0.49-1.38s-0.57-0.77-0.96-1.03c-0.39-0.26-0.9-0.4-1.52-0.4c-0.94,0-1.79,0.21-2.55,0.63
		c-0.77,0.42-1.42,0.97-1.95,1.64s-0.94,1.42-1.22,2.25C260.92,324.9,260.78,325.74,260.78,326.58z"/>
	<path class="st0" d="M281.96,322.98c0-0.28,0.02-0.57,0.05-0.87c0.03-0.3,0.09-0.56,0.19-0.8s0.24-0.43,0.45-0.59
		c0.2-0.16,0.49-0.23,0.87-0.23c0.31,0,0.66,0.24,1.05,0.73c0.39,0.49,0.79,1.09,1.19,1.83c0.41,0.73,0.8,1.54,1.19,2.41
		c0.39,0.88,0.73,1.68,1.03,2.42c0.3,0.73,0.54,1.37,0.73,1.9c0.19,0.53,0.3,0.81,0.33,0.84c0.41-1.09,0.86-2.28,1.36-3.56
		c0.5-1.28,1.12-2.48,1.85-3.59c0.74-1.11,1.61-2.04,2.63-2.79c1.02-0.75,2.26-1.12,3.73-1.12c0.75,0,1.46,0.12,2.13,0.35
		s1.26,0.58,1.78,1.03s0.93,0.99,1.24,1.62c0.31,0.63,0.47,1.34,0.47,2.16c0,0.69-0.27,1.17-0.82,1.45s-1.16,0.42-1.85,0.42h-0.47
		l-2.01-2.02c-0.06,0-0.11-0.02-0.14-0.05c-0.06,0-0.12-0.01-0.16-0.02c-0.05-0.02-0.1-0.02-0.16-0.02c-1.09,0-1.95,0.3-2.56,0.91
		c-0.61,0.61-1.07,1.36-1.38,2.25c-0.31,0.89-0.51,1.83-0.59,2.81c-0.08,0.98-0.12,1.88-0.12,2.7c0,0.63,0.06,1.26,0.19,1.9
		c0.12,0.64,0.27,1.27,0.42,1.88c0.16,0.61,0.3,1.24,0.42,1.88c0.12,0.64,0.19,1.3,0.19,1.99c0,1.31-0.7,1.97-2.11,1.97
		c-0.78,0-1.59-0.42-2.44-1.24c-0.84-0.83-1.68-1.88-2.51-3.17c-0.83-1.28-1.62-2.7-2.37-4.24c-0.75-1.55-1.41-3.05-1.97-4.52
		c-0.56-1.47-1.01-2.8-1.33-3.99C282.13,324.42,281.96,323.54,281.96,322.98z"/>
	<path class="st0" d="M326.07,336.64c-1.19,0.81-2.21,1.54-3.07,2.18c-0.86,0.64-1.7,1.18-2.51,1.62c-0.81,0.44-1.68,0.77-2.6,0.98
		c-0.92,0.22-2.05,0.33-3.4,0.33c-2.91,0-5.06-0.78-6.47-2.32c-1.41-1.55-2.11-3.85-2.11-6.92c0-1.19,0.16-2.42,0.47-3.7
		c0.31-1.28,0.77-2.55,1.38-3.82c0.61-1.27,1.34-2.47,2.18-3.61c0.84-1.14,1.8-2.15,2.86-3.02c1.06-0.87,2.2-1.57,3.4-2.08
		c1.2-0.51,2.48-0.77,3.82-0.77c2.25,0.22,4.01,0.78,5.3,1.67c1.28,0.89,2.25,2.03,2.9,3.42c0.66,1.39,1.11,2.94,1.36,4.64
		c0.25,1.7,0.44,3.46,0.58,5.27c0.14,1.81,0.32,3.63,0.54,5.44s0.67,3.48,1.36,5.02c-0.41,1.03-0.79,1.76-1.15,2.18
		s-0.76,0.49-1.2,0.21s-0.95-0.97-1.52-2.06C327.62,340.19,326.91,338.64,326.07,336.64z M309.9,332.6c0,1.78,0.33,3.09,1.01,3.91
		c0.67,0.83,1.87,1.24,3.58,1.24c1.28,0,2.51-0.23,3.68-0.68c1.17-0.45,2.2-1.08,3.07-1.87c0.88-0.8,1.58-1.76,2.11-2.88
		c0.53-1.12,0.8-2.38,0.8-3.75c0-0.56,0.02-1.35,0.05-2.37s-0.03-2.02-0.19-3.02c-0.16-1-0.45-1.87-0.89-2.6
		c-0.44-0.73-1.09-1.1-1.97-1.1c-1.62,0-3.12,0.41-4.5,1.24c-1.38,0.83-2.56,1.88-3.56,3.16c-1,1.28-1.78,2.69-2.35,4.24
		C310.18,329.67,309.9,331.17,309.9,332.6z"/>
	<path class="st0" d="M334.09,328.58c0-1.31,0.29-2.69,0.87-4.12c0.58-1.44,1.35-2.74,2.32-3.91c0.97-1.17,2.09-2.15,3.35-2.93
		c1.27-0.78,2.6-1.17,4.01-1.17c0.72,0,1.44,0.13,2.16,0.38c0.72,0.25,1.37,0.61,1.95,1.08c0.58,0.47,1.05,1.03,1.41,1.69
		s0.54,1.39,0.54,2.2c-0.56,0-1.07-0.06-1.52-0.19c-0.45-0.12-0.9-0.27-1.34-0.45s-0.87-0.32-1.29-0.45
		c-0.42-0.12-0.88-0.19-1.38-0.19c-1.28,0-2.32,0.32-3.12,0.96c-0.8,0.64-1.43,1.45-1.9,2.41c-0.47,0.97-0.79,2.01-0.96,3.12
		c-0.17,1.11-0.26,2.15-0.26,3.12c0,0.16,0.01,0.45,0.02,0.89c0.02,0.44,0.03,0.9,0.05,1.38c0.02,0.49,0.03,0.95,0.05,1.38
		c0.02,0.44,0.04,0.73,0.07,0.89c0.34,0.75,0.68,1.33,1.01,1.74s0.68,0.71,1.05,0.91c0.38,0.2,0.78,0.33,1.22,0.38
		c0.44,0.05,0.95,0.07,1.55,0.07c0.81,0,1.52-0.12,2.13-0.37s1.18-0.55,1.71-0.89s1.03-0.73,1.5-1.15c0.47-0.42,0.96-0.81,1.48-1.17
		c0.52-0.36,1.08-0.66,1.69-0.89c0.61-0.23,1.3-0.35,2.09-0.35c0,1.53-0.27,2.89-0.82,4.08c-0.55,1.19-1.31,2.2-2.3,3.05
		c-0.98,0.84-2.14,1.49-3.47,1.94c-1.33,0.45-2.77,0.68-4.34,0.68c-1.47,0-2.79-0.5-3.96-1.5c-1.17-1-2.17-2.23-3-3.68
		c-0.83-1.45-1.46-2.99-1.9-4.62C334.31,331.27,334.09,329.83,334.09,328.58z"/>
	<path class="st0" d="M356.12,319.08c0-0.09,0.02-0.17,0.05-0.23c0-0.06,0.02-0.14,0.05-0.23c0.12-0.16,0.31-0.36,0.56-0.61
		c0.25-0.25,0.41-0.38,0.47-0.38l9.42,0c0-0.34-0.05-0.89-0.14-1.64c-0.09-0.75-0.18-1.58-0.26-2.48c-0.08-0.91-0.1-1.85-0.07-2.84
		c0.03-0.98,0.16-1.87,0.4-2.67c0.23-0.8,0.61-1.45,1.13-1.97c0.52-0.52,1.24-0.77,2.18-0.77c0,3.16,0.22,5.69,0.65,7.59
		c0.44,1.91,1.02,3.38,1.76,4.41c0.73,1.03,1.57,1.7,2.51,2.02c0.94,0.31,1.9,0.45,2.88,0.4c0.98-0.05,1.95-0.19,2.88-0.44
		s1.77-0.42,2.51-0.51c0.73-0.09,1.32-0.02,1.76,0.21c0.44,0.24,0.66,0.79,0.66,1.67c0,0.66-0.15,1.12-0.45,1.41
		c-0.3,0.28-0.87,0.5-1.71,0.66c-0.25,0.03-0.66,0.09-1.24,0.16c-0.58,0.08-1.23,0.15-1.95,0.21c-0.72,0.06-1.48,0.13-2.3,0.21
		c-0.81,0.08-1.58,0.15-2.3,0.21c-0.72,0.06-1.38,0.1-1.97,0.12s-1.03,0.02-1.31,0.02c0,0.16-0.02,0.42-0.05,0.8
		s-0.05,0.63-0.05,0.75c0,1.38,0.22,2.71,0.66,4.01c0.44,1.3,0.91,2.59,1.43,3.87c0.52,1.28,0.99,2.56,1.43,3.84
		c0.44,1.28,0.65,2.61,0.65,3.99c0,0.25-0.02,0.51-0.07,0.77c-0.05,0.27-0.14,0.5-0.28,0.7s-0.34,0.36-0.61,0.47
		s-0.63,0.09-1.1-0.07c-1.19-0.31-2.07-0.99-2.65-2.02s-1.01-2.26-1.29-3.68c-0.28-1.42-0.47-2.93-0.56-4.52
		c-0.09-1.59-0.24-3.09-0.44-4.48c-0.2-1.39-0.52-2.58-0.96-3.56c-0.44-0.98-1.14-1.59-2.11-1.8l-9.05-2.07
		c-0.12,0-0.31-0.13-0.56-0.4c-0.25-0.26-0.41-0.46-0.47-0.59c-0.03-0.06-0.05-0.14-0.05-0.23
		C356.14,319.29,356.12,319.2,356.12,319.08z"/>
	<path class="st0" d="M389.92,307.56c0.59,0.25,1.09,0.66,1.5,1.22c0.41,0.56,0.59,1.07,0.54,1.52c-0.05,0.45-0.4,0.77-1.06,0.94
		c-0.66,0.17-1.75-0.01-3.28-0.54c0-0.84,0.16-1.58,0.49-2.2C388.45,307.87,389.05,307.56,389.92,307.56z M389.26,325.14
		c0-0.19,0.01-0.49,0.02-0.91s0.03-0.87,0.05-1.34c0.02-0.47,0.03-0.92,0.05-1.36c0.02-0.44,0.02-0.75,0.02-0.94
		c0.34-0.5,0.79-0.91,1.34-1.22c0.55-0.31,1.1-0.56,1.66-0.75c0.09,1.69,0.36,3.49,0.79,5.39s0.9,3.82,1.4,5.74
		c0.5,1.92,0.94,3.82,1.33,5.7s0.58,3.63,0.58,5.25c0,1.41-0.72,2.11-2.16,2.11c-0.88,0-1.61-0.36-2.2-1.08
		c-0.59-0.72-1.07-1.63-1.43-2.74c-0.36-1.11-0.65-2.34-0.87-3.7c-0.22-1.36-0.37-2.7-0.44-4.01c-0.08-1.31-0.12-2.51-0.14-3.61
		C389.27,326.57,389.26,325.73,389.26,325.14z"/>
	<path class="st0" d="M398.08,318.3c0.22-0.75,0.48-1.09,0.77-1.03c0.3,0.06,0.66,0.42,1.1,1.08c0.44,0.66,0.93,1.53,1.48,2.62
		c0.55,1.09,1.13,2.27,1.76,3.54c0.62,1.27,1.3,2.56,2.04,3.87c0.73,1.31,1.5,2.52,2.3,3.61c0.8,1.09,1.64,2,2.53,2.72
		c0.89,0.72,1.8,1.14,2.74,1.27l3.76-19.4c0.06-0.53,0.3-0.84,0.73-0.91c0.42-0.08,0.84-0.12,1.24-0.12c1.41,0,2.11,0.66,2.11,1.97
		c0,0.69-0.06,1.78-0.19,3.28c-0.12,1.5-0.33,3.15-0.61,4.95s-0.63,3.64-1.03,5.53s-0.89,3.62-1.46,5.18
		c-0.56,1.56-1.21,2.84-1.95,3.84c-0.73,1-1.54,1.5-2.41,1.5c-1.28,0-2.55-0.43-3.8-1.29s-2.43-1.99-3.54-3.38
		c-1.11-1.39-2.12-2.95-3.04-4.67c-0.92-1.72-1.72-3.45-2.39-5.18c-0.67-1.74-1.19-3.4-1.57-4.99
		C398.26,320.69,398.08,319.36,398.08,318.3z"/>
	<path class="st0" d="M423.43,329.7c0-1.69,0.2-3.38,0.61-5.06c0.41-1.69,1.06-3.2,1.95-4.55c0.89-1.34,2.05-2.44,3.47-3.28
		s3.15-1.26,5.18-1.26c1.16,0,2.17,0.21,3.05,0.63c0.88,0.42,1.61,0.98,2.2,1.66c0.59,0.69,1.04,1.49,1.33,2.42
		c0.3,0.92,0.44,1.88,0.44,2.88c0,1.59-0.37,3.14-1.1,4.64c-0.73,1.5-1.72,2.82-2.95,3.96c-1.24,1.14-2.65,2-4.24,2.58
		c-1.59,0.58-3.22,0.71-4.88,0.4c0.03,0.91,0.34,1.63,0.91,2.18c0.58,0.55,1.27,0.96,2.08,1.24s1.66,0.46,2.53,0.54
		s1.66,0.12,2.34,0.12c0.72,0,1.39-0.06,2.02-0.19c0.62-0.12,1.25-0.26,1.88-0.42s1.26-0.3,1.9-0.42c0.64-0.12,1.32-0.19,2.04-0.19
		c0.28,0,0.56,0.02,0.84,0.05s0.55,0.1,0.8,0.21c0.25,0.11,0.45,0.28,0.61,0.52s0.23,0.52,0.23,0.87c0,0.59-0.22,1.09-0.66,1.48
		s-0.99,0.73-1.66,1.01c-0.67,0.28-1.42,0.49-2.23,0.63c-0.81,0.14-1.6,0.25-2.37,0.33c-0.77,0.08-1.47,0.12-2.11,0.14
		s-1.12,0.02-1.43,0.02c-2,0-3.8-0.32-5.39-0.96c-1.59-0.64-2.94-1.53-4.03-2.67c-1.09-1.14-1.93-2.52-2.51-4.13
		C423.72,333.46,423.43,331.67,423.43,329.7z M428.4,326.65c0,1.09,0.15,1.89,0.44,2.39s1.02,0.75,2.18,0.75
		c0.81,0,1.61-0.15,2.39-0.44s1.49-0.71,2.13-1.24s1.15-1.16,1.52-1.88c0.38-0.72,0.56-1.5,0.56-2.34c0-0.47-0.04-0.95-0.12-1.45
		c-0.08-0.5-0.24-0.96-0.49-1.38s-0.57-0.77-0.96-1.03s-0.9-0.4-1.52-0.4c-0.94,0-1.79,0.21-2.55,0.63
		c-0.77,0.42-1.42,0.97-1.95,1.64c-0.53,0.67-0.94,1.42-1.22,2.25S428.4,325.81,428.4,326.65z"/>
</g>
<g>
</g>
<g>
</g>
<g>
</g>
<g>
</g>
<g>
</g>
<g>
</g>
</svg>
