<svg id="interactive_resume" xmlns="http://www.w3.org/2000/svg" viewBox="0 0 363.47 433.12"><defs><style>.cls-1{fill:#fff;}.cls-2{fill:#231f20;}.cls-3{fill:#49274a;}</style></defs><rect class="cls-1" x="6.38" y="7.93" width="351.09" height="419.57"/><path class="cls-2" d="M350.63,13.48l1.4,0,0,.52v-.5l-25.29-.11-31.36-.3c9.95.41,20.29.8,30.74,1.13l15.74.45,7.81.17.88.14-.07.61,0,.27,0,2.54q0,5.18,0,10.28c0,6.79.1,13.43.27,19.84.34,12.81,1,24.72,2.16,35.06-2.13,3.91-3.13,49.18-2.61,50.11q.57,14.1,1,28.54-.27-9.93-.52-19.75.25,9.81.52,19.75c1.62,60.86.87,127,0,195.34-.12,13.84-.33,37.26-.55,63.2l-1.14-.05-7.58-.06-15.63-.12-30.44-.24c-19.49-.17-36.79-.34-48.38-.53l-16.94-.22,18.87.39c-23.71.56-45.2,1.1-66,1.46,3.67.3,4.31.6,13,1l-10.61-.2c-9.67.87-32,.82-42.46,1.19,2.26-.46-6-.55-13.29-.63l2.88.31c-27.65-.2-59.75.16-84.47.09-3.45,0-6-.17-7.59-.33l-23.7.34c.3-.1,0-.18-.79-.25-.37,0-.84-.07-1.38-.1l-.8,0-.38,0c-1-.1-2.2-.16-2.66-.23,0-.41.1-.52.16-.16.21,0,.54-.07,1-.11l-1,.1c-.08-.7-.14-1.48-.18-2.29l0-.63,0-1.59L11,414.72c0-4.23-.08-8.46-.12-12.66-.07-8.41-.15-16.71-.51-24.77-.06-60.45-.51-124.75-1.52-187.23l-.23,1.53c-.4-21.88-1.61-41.15-1.19-67.75-.82-19-1.24-46-2.53-53.54-.17-21.91-.81-30.65-1.14-52.14C3.14,23.7,3-2.71,2.52,7.86c-.89,14.26-.14,15-.86,27.14l.21-.36C.89,91.09.32,147.62,0,204.84c.53,38.18.07,79.59.21,119.3.12,17.42.24,35.43.35,53,.18,19.39.35,38.27.5,55.53l17.06-.13,10.53-.14c8.75-.18,15.06.36,22.52.66,33.71-.27,76.62,0,114.65-.37l-1.86,0c20.21-.1,35.34.56,55.08.46-.1-.18,3-.19,4.44-.29,3.43.85,116.17-1.71,123.13-1.22l3.26-.06,4.81,0,6.68.05q0-5.67.1-11.35l.12-7.76q.15-7.57.29-15.13c.22-10.08.44-20.09.65-29.92.43-19.67.79-38.62.72-55.86-.39-7.76-.74-16.5-1.19-23,.37-6.32-.33-7.53-.23-15.16,1.7-19.34,1-30.66.39-20.68-.22-15.92-.06-31.88-.12-46-.13-6.56-.26-13.08-.39-19.69a64.41,64.41,0,0,1,.52-11.58c-.24-14.37.18-10.14.36-25.2.59-3.65-.93-37.8-.75-42.06l.09,2.46c.11-17.42,1.26-29,1.32-46,.06-9.21.12-18.59.18-28,0-11.41,0-22.91.05-34.39l-50.24,0-42-.07c-.44.62,9.67-.13,10.18.69-25.86-.12-51.93-.9-78-1-4.7-.17-10.46-.48-12.61-.68-8.33-.24-4.92.29-11,.21L178.91.7c-8.92.46-13-.63-21.44-.4A37.49,37.49,0,0,1,151,.54c-.16-.6-9.2,0-8.76-.51l-.09.05c-1.8,0-3.08,0-5.28-.08-3.41.21-35.45,1.83-38.92,2.08L96.31,2c-4.79,0-6.84.46-4,.56l-5.91,0,.68,0-5.87,0c-1.09-.05-2.31-.33-.64-.59-3.33.21-7.07.32-10.4.21,9.26.37,20.76.9,30.44,1.5-4,.2-11.16-.12-15.48,0-5.15-.4-15.74-.74-24-1-1.81,0-3.06.7-7.17.4-2-.46-4.64,0-8-.32,3.92-.24,7.76-.13,11.74-.1C57,1.93,48,2.1,44.81,1.94c-1.48.17-9.15,0-14,.14,2.1-.52-3.89-.33-6.75-.61-3.26-.07-5.34.14-4,.32-1,.57,13,.35,8.42.94-1.2-.27-7.57-.18-11-.16,0,.31,2.35.24.12.53-3.81-.07-7.86.3-10,0,.72-.08,2.29,0,3.41,0-5,0,26.92-2,20.49-1.83,1.67.28-28.29,1.82-25,1.84,3,.15-2.17.56,1,.67l3.48-.38c4.29.12,6,.66,4.53.87C8.27,4.18,35.83,2.14,29.69,2.44l2.49.15A95.92,95.92,0,0,1,20,2.64c0,.3-3.52.41-6.42.52l-1-.05c-3,.15-7.2.07-5.25.48,17.61,0-11.58,3.09,5.47,3.28-7.15-.68,2.41-.69,9.91-.77a62.28,62.28,0,0,0,9.47.75c4.67,0,2.75-.25,3.64-.42,2.59.15,7.54.28,6.89.64,3.65-.42,5.83.27,10.2.13,3.85-.2-.26-.19,2.47-.39L73.77,7c1.78.34,7.2.93,3.25,1.44-8.76-.07,3.34-.84-5.78-.73,3.93.76-8.06.2-9.72.78a132.4,132.4,0,0,0,13.71.26l-1-.11c4.33-.09,13-.25,17.71.16-1.1.27,1,.47-2.24.53l6,.05c.76-.08,1.54-.17-.18-.23a55.28,55.28,0,0,1,7.8.07c.65.28,31.78-1.17,30.81-1,4.31,0,5.35.41,9.55.13.11-.06-2.41,0-6.16.05L124,8.74c-9.63.25-18.6.52-15.76.48,3.68.31,48.78-1.39,51.46-.86,3.19,0,7-.07,6.29-.36,5.38.14-1.62.54,2.22.81.08,0-.32-.14.91-.13l3.69.36c8.36-.44,20.64.15,29.4-.44-2.54.31-5.43.85-11.07,1.13l-1-.15c-.8.09-5.44.19-5.31.47,5.36.19,9.94.14,15.58-.13,1,.07,2.25.15,3.07.23,0,0-.11-.07-.09-.11,1.84.18,1.65.21,1,.32l-.38.06c3.35.84,21-.52,30.81-.08,2.88-.12.27-.14,3.86-.3,10,.33,16.89.59,27.34.79,3.34-.36,3.6-.5-.44-.88l7.9.12c-7.18,1,14.74.92,6.83,1.88a107.34,107.34,0,0,0,11.46.11c.44-.24,1.14-.63,6.7-.62,7.74.32,5.89.2,12.3.51,1.52.32-.83.44-.56.69,9.89-.4,8.63.69,17.95.64,5.84-.1,17.38-.13,17.66-.68l2.6,0,1.05,0h.32l.17,0a2.53,2.53,0,0,1,.85.19C351,13,350.84,13.26,350.63,13.48Z"/><rect class="cls-3" x="18.88" y="23.69" width="326.09" height="388.04"/><path class="cls-2" d="M67.75,17.66c-7.25,0,20.14,1,4.71,1.23,10.72.73,33.05-.21,46.59-.07,1.58,1.15-10.4,2.15,13.85,3,32.41.65,4.09-2.32,33-2.42l-19.82-.31c19.83-1.9,67-.63,101-1,25.5,1.34,48.54,4.15,81.81,3.61-1.83.18-10,.58-8.37,1.18,3.06.27,7.29.34,11.54.31,2.15,0,4.23-.06,6.3-.11l6.12-.16c.64,0,1.25-.08,1.46-.12a50.9,50.9,0,0,0,.6,5.52c.18.84.34.71.5,0,.31-1.41.59-5.3.89-7.5-.95-.17-1.26-.35.55-.55,0-.16.11.14.15.59.08,2.75.16,5.47.24,8.19l.07,2,.06,1.35.13,2.72c.16,3.64.32,7.35.43,11.25.22,7.78.28,16.3-.06,26.49l-2.49,25.3c3.14,17,.05,43.88,1.07,78.21-1.63,6.71.65,42.25-1,49,0,16.1-4.38,3-5.62,16.1-1,22.82-.74-15.82-1.78,7-.63-24.81,4.33-7.86,3.79-41.13l-.6,1.63c-.93-13.69,1-37.35-.7-46.75.36-35.73,2.33.61,3.67-16.92-1.36-10.22-1.83-50.64-3.86-52.1l0,27.77c-.05-4.5-.48-1-.65-2.87,1.94-19.17-5.92-69.68,0-55.52.35,3.67.16,13.47.81,16.35,1.37-1.42.69-20.43.83-34.72-.32-3.15-.65-6.4-1-9.79l-.26-2.57-.07-.65,0-.33c0-.09,0-.12,0-.19l-.13-.65c-.17-.85-.34-1.59-.5-2.23l-1.76.3-.77.14-.36.06-.09,0-.16,0-.49,0c-2.63.16-5.36.3-8.18.39-5.66.19-11.72.22-18.3,0-8-.37-3.25-1.19-11.2-1.57-47,1.48-45.05-1.79-94.44-1.13-30.86-1.72-68.63-.53-99.47-2.24,4.69,1.23-20.46.55-26.76.38A316.11,316.11,0,0,0,45.38,23c7.25,0,2.84-.59,7.88-.9C25.57,22.7,20.52,20.8,19,19.66,40.39,18.91,42.56,17,67.75,17.66Z"/><path class="cls-2" d="M348.41,312.34c-2.48-5.52-.82,46.89-3.59,22.23a278.41,278.41,0,0,0,.7,34.05c.87-19.36.36,4.71,1.47-5.68q.22,12.36.43,24.58.07,6.11.17,12.18.06,7.5.13,14.94l-36.06.26-32.74.09q-32.52,0-64.22-.17c-42.9-1.86-80.93-.12-122,1.7-25.31-.71-8.86-2.56-3.11-3.88l-31.79-.07L89.91,411c1-1-13.37-1-21.32-1.75l-8.94.25c10.54-4.49,63.58.13,93.9-1.16-36.51.29,5.67,1.47-9.76,2.36l11.43.15c-10.18,0-30.31,1.3-56.66,1.55,73.24.56,146-1.18,206.16-3.29-1.75.28-6.45.64-1,1,9.85.05,17.84-.43,24.53-1,3.34-.31,6.36-.64,9.11-1l.51-.06.23-.06.43-.11.73-.22c.44-.14.79-.27,1.08-.39l-.23-1.06.2,1c-.62.18-1.41.35-2.37.53a24.44,24.44,0,0,0,3.21.31c0-.74,0-1.55,0-2.4,0-1.45,0-2.95-.06-4.48-.07-3.73-.19-7.61-.32-11.51-.27-7.78-.59-15.61-.68-22.42,1.15-17.61,2.47-29.26,1.66-59.06l1,1,.51-24.08c.17,6,.56,3.52.76,2.27.28,1.75.08,3,0,7.21,1.44,1.52,3.43-10.85,4.46-24.23-.11,4.21-.23,8.43-.15,11.42.63-10.92,1.7-48.88,3.14-30C351.36,283.6,348.08,283,348.41,312.34Z"/><path class="cls-2" d="M342,174.63c-.81,23.05-1-6.55-2-1.46l-.08-20.64C340.91,151.94,341,172.56,342,174.63Z"/><path class="cls-2" d="M13.82,343.59c.87-2,.47-16.89.7-25.3-.68-16.67-1.72-20.68-1.21-44.73,2.6,18.7,3.18-19.78,4.82-36.88.32,11.93,1.85,33.83.5,52.65-.76-2.25-1.23,14.63-1.47,23.05,1.28,12.95,3.91-10.31,4.41,42.33-.43,9.67.22,33.53-1.22,32a65.44,65.44,0,0,0,.3,9.9c.12,1.66.21,3.35.2,5.08q0,1.31-.09,2.64c0,.24,0,.42-.06.57l-.07.51c-.05.34-.12.7-.19,1.08-.2,1-.4,2.15-.6,3.38l-.9-31.9a34.56,34.56,0,0,0,.52-6.68c-1,6.19-2.13-35.57-3.88-14.27l.06,45-.12,1.75L15.39,405c-.09.88-.17,1.24-.26,1.13a1.48,1.48,0,0,1-.13-.52l-.07-.51c0-.18,0-.49-.06-.62-.09-.65-.17-1.57-.26-2.69-.32-4.51-.6-12.41-.7-20.5C14.9,357.77,14.7,359,13.82,343.59Z"/><polygon class="cls-2" points="62.8 413.37 65.24 413.77 25.74 414.15 62.8 413.37"/><path class="cls-2" d="M13.31,196.83c.45,7.73-.07,14.42.37,22.12l-1.84.93Z"/><path class="cls-2" d="M214.43,406.91c10.45-1.68,37-.77,45.72-2.18-7.2,0-4.72.36-6.48.65l13.9.55C250.4,407.1,233.54,406.62,214.43,406.91Z"/><path class="cls-2" d="M13.52,118.88c-.25-26.32-2.25-31.35-1.23-62.12.52-6.68.93,8.23,1.36-1.45S13.33,43.39,13,38.66l-.59,3.72c1.19-7.42,2.18-31,4.15-18.75-.59,38.48,3.86,56.18,1.87,85.94l-1.95,5.18.48,17.89c-.2,1.22-.68.71-.51,6.68.8,12.43.91-9.16,1.87-8.15l1.17,34.55c-.11,4.22-.56-3.5-.76-2.26-1,16.37,1.89,26.62.18,40.72L17.82,182.8c-.23,25.82-1.1,45.15-1.77,63.25C16.51,194.44,11.54,166,13.52,118.88Z"/><path class="cls-1" d="M61.32,255.59A39.39,39.39,0,0,1,60,259.84a13.26,13.26,0,0,1-1.8,3,1.46,1.46,0,0,0-1.26.21,5.37,5.37,0,0,1-.78.63,1.44,1.44,0,0,1-.91,0,2.57,2.57,0,0,1-.49-.31,3.47,3.47,0,0,0-.53-.36,2.12,2.12,0,0,0-1-.17c-.09-.38-.2-.73-.31-1.06s-.44-.44-1-.35a2.49,2.49,0,0,0,.07-.95,5.47,5.47,0,0,0-.18-.7,4.64,4.64,0,0,1-.17-.64,1.55,1.55,0,0,1,.07-.8c-.24,0-.42-.17-.57-.5a10,10,0,0,0-.49-1c.14-.84.28-1.64.43-2.39a17.59,17.59,0,0,1,.52-2.11c.21-.66.39-1.31.53-2a3.48,3.48,0,0,0-.21-2c.19.14.33.11.42-.1a3,3,0,0,0,.22-.85,9.26,9.26,0,0,0,.07-1,5.31,5.31,0,0,0-.07-.88,31.51,31.51,0,0,0,1.16-3.76c.3-1.29.58-2.57.84-3.83s.53-2.51.81-3.73a17.54,17.54,0,0,1,1.13-3.37,3.4,3.4,0,0,1,1.72.17,1.78,1.78,0,0,1,1.16.81,15.28,15.28,0,0,0,3.24-3.41q1.41-2,2.88-3.9a21.77,21.77,0,0,1,3.27-3.37,8.28,8.28,0,0,1,4.54-1.76c.94.71,2,1.42,3.13,2.15a9.3,9.3,0,0,1,2.84,2.85,5.19,5.19,0,0,1,1,.59,8.14,8.14,0,0,0,1,.67v.85a6.32,6.32,0,0,1,1.37,1.79,18.84,18.84,0,0,1,1,2.18l.84,2.32a17,17,0,0,0,1,2.22,1.51,1.51,0,0,0-.14.59,1.46,1.46,0,0,0,.1.53c.07.19.13.38.18.56a2.5,2.5,0,0,1,0,.78,7.82,7.82,0,0,1-2,5,14.9,14.9,0,0,1-4.33,3.13,34.09,34.09,0,0,1-5.41,2.07,48,48,0,0,0-5.2,1.82c0,.19.08.29.24.29s.22.11.18.35c1.12.7,2,1.26,2.67,1.69a16.44,16.44,0,0,0,1.86,1.05,14.17,14.17,0,0,0,1.9.74c.68.21,1.63.46,2.85.74l2.84.67,1.87.42c.56.12,1.13.21,1.72.28s1.42.16,2.5.25a6.06,6.06,0,0,1,1.08,1.51,5.65,5.65,0,0,1,.6,1.76,6.94,6.94,0,0,1,.07,1.69,2.27,2.27,0,0,1-.49,1.3.24.24,0,0,0,.31.17,1.39,1.39,0,0,1,.53,0,2.59,2.59,0,0,0-.7.7l-.56.85a3.77,3.77,0,0,1-.64.73,1.72,1.72,0,0,1-1,.39,9.47,9.47,0,0,1-5.49.1,59.31,59.31,0,0,1-8.36-2.71c-1.69-.65-3.06-1.23-4.11-1.72a24.44,24.44,0,0,1-2.75-1.48,17.31,17.31,0,0,1-2.11-1.58Zm10.06-24.11a12.55,12.55,0,0,1-1.72,2c-.63.61-1.24,1.23-1.83,1.87a13,13,0,0,0-1.58,2.11,7.88,7.88,0,0,0-1,2.7,19.1,19.1,0,0,0,5.14-1.37l5.06-2.07A6.28,6.28,0,0,0,74,233.23,6,6,0,0,0,71.38,231.48Z"/><path class="cls-1" d="M128.2,223.34a2.93,2.93,0,0,1,0,.74c0,.17-.05.32-.07.46a2.19,2.19,0,0,0,0,.46,3.08,3.08,0,0,0,.14.73,8,8,0,0,1-3.41,3.27,16.6,16.6,0,0,1-4.19,1.26l-4.6.81a13.64,13.64,0,0,0-4.68,1.83,2,2,0,0,0-1.65,0,4.25,4.25,0,0,1-2.14.21,2.36,2.36,0,0,1-1.06.59l-1.27.39a2.82,2.82,0,0,1,.25,1.3,2.1,2.1,0,0,0,.18,1.09,30.3,30.3,0,0,0,5.44-.07c2-.18,4-.3,5.88-.35,0,.24,0,.39-.07.46s-.12.2-.07.39a7,7,0,0,1,1,.88c.33.35.65.69,1,1a5.33,5.33,0,0,0,1,.81,1.93,1.93,0,0,0,1.23.24,4.21,4.21,0,0,1,.39,1.23,2.53,2.53,0,0,1-.18,1.37q-1.12.78-2.25,1.59a20.8,20.8,0,0,1-2.35,1.44,13.7,13.7,0,0,1-2.61,1,9.57,9.57,0,0,1-3.06.32h-.52a.86.86,0,0,1-.46-.21,2.41,2.41,0,0,1-1.58.21,2.28,2.28,0,0,0-1.58.21,4.15,4.15,0,0,0-1.87-.32,5.32,5.32,0,0,1-1.93-.25,24.52,24.52,0,0,0-2,3.17,27.81,27.81,0,0,0-1.62,3.58,21.82,21.82,0,0,0,4,.29c1.06-.05,2-.13,3-.25l2.88-.35a26.49,26.49,0,0,1,3.73-.1,9.17,9.17,0,0,1,3.34-1,17,17,0,0,0,3.55-.81,2.27,2.27,0,0,1,1,.74l.8,1a6.77,6.77,0,0,0,.81.8,1.37,1.37,0,0,0,1.06.29,1.51,1.51,0,0,1,.38.66c.07.26.13.51.18.74a1.49,1.49,0,0,0,.25.6.56.56,0,0,0,.59.18,10.66,10.66,0,0,1-2.42,3.55,9.46,9.46,0,0,1-3.13,1.86,22.12,22.12,0,0,1-3.91,1q-2.14.36-4.74.84a1.78,1.78,0,0,1-1.06,0,2.48,2.48,0,0,0-1-.18q-1.62.35-3.87.63a28.87,28.87,0,0,1-4.57.21,21.13,21.13,0,0,1-4.43-.6,7.18,7.18,0,0,1-3.44-1.86,2.25,2.25,0,0,1-.74-1.16,1.57,1.57,0,0,0-1-1,20.11,20.11,0,0,0-.28-2c-.14-.75-.28-1.54-.42-2.36s-.25-1.63-.32-2.42a7.33,7.33,0,0,1,.11-2.18,4.31,4.31,0,0,1,.88-1.9,2.13,2.13,0,0,0,.46-1.83.5.5,0,0,0,.42-.39c0-.21.23-.29.56-.24.28-.85.59-1.64.92-2.39s.67-1.48,1-2.18.7-1.42,1-2.15.69-1.53,1-2.42a5.94,5.94,0,0,1-1.44-2A11.11,11.11,0,0,1,94,232.5c-.15-.72-.26-1.47-.36-2.25a13.67,13.67,0,0,0-.49-2.35,6,6,0,0,1,1.73-1.72,9.88,9.88,0,0,1,2.21-1.09,18.55,18.55,0,0,1,2.6-.7c.94-.19,1.93-.4,3-.64q2.8-.9,5-1.4c1.47-.33,2.92-.6,4.36-.81s2.91-.41,4.46-.59,3.31-.47,5.27-.85a1.77,1.77,0,0,0,1.2.64c.19-.42.41-.55.67-.39s.36,0,.31-.38a6.76,6.76,0,0,0,1.8,2A11.17,11.17,0,0,0,128.2,223.34Z"/><path class="cls-1" d="M127.63,231.29a6.13,6.13,0,0,1,1.59-2.53,11.61,11.61,0,0,1,2.39-1.8,16.06,16.06,0,0,1,2.71-1.22c.93-.33,1.83-.61,2.67-.85,1.87-.79,3.88-1.55,6-2.28s4.31-1.37,6.54-1.93a39.88,39.88,0,0,1,6.86-1.09,21.18,21.18,0,0,1,7.38.88,5,5,0,0,0,.63,1.34c.28.42.58.84.88,1.27s.57.83.81,1.23a3.22,3.22,0,0,1,.42,1.23,5.48,5.48,0,0,1,1.12,1.37,2.56,2.56,0,0,1,.14,1.93,16.71,16.71,0,0,1-1.37,1,8.37,8.37,0,0,1-1.44.81,16.68,16.68,0,0,0-5.27-.42l-4.78.35a2.06,2.06,0,0,0-1.51-.64,6.67,6.67,0,0,0-1.83.28l-1.9.56a3.84,3.84,0,0,1-1.79.14,3.63,3.63,0,0,1-1.73.74c-.68.12-1.42.22-2.21.32,0,.23,0,.38.14.45s.16.23.07.46a2.36,2.36,0,0,0,1.09.71l1.4.42a5.35,5.35,0,0,1,1.3.53,1.65,1.65,0,0,1,.78,1,3.29,3.29,0,0,1,1.82.5,4.53,4.53,0,0,1,1.27,1.19,5.49,5.49,0,0,1,.74,1.52,5.14,5.14,0,0,1,.24,1.44c.14.37.31.54.5.49s.39.05.63.28a4.4,4.4,0,0,0,1,1.87,7.9,7.9,0,0,1,1.34,2.07c.09,1.17.16,2.21.21,3.13a6.59,6.59,0,0,1-.5,2.78,15.25,15.25,0,0,1-2.92,4.64,23.31,23.31,0,0,1-4.22,3.61,28.91,28.91,0,0,1-5,2.71,55.19,55.19,0,0,1-5.2,1.9,1.06,1.06,0,0,0-.56,0c-.19,0-.24-.07-.14-.36a2.81,2.81,0,0,1-1.23.64,6.12,6.12,0,0,1-1.44.1c-.52,0-1-.06-1.59-.1a5.36,5.36,0,0,0-1.51.06c-.33-.32-.62-.64-.88-.94a3.42,3.42,0,0,1-.59-1.16c-.24,0-.34-.12-.32-.36s-.06-.35-.25-.35a2.14,2.14,0,0,0,.39-.81.29.29,0,0,0-.21-.17,1.65,1.65,0,0,1-.32-.18.27.27,0,0,1-.07-.32,2.37,2.37,0,0,0,.22-1.3c0-.49-.1-1-.14-1.51a4.23,4.23,0,0,1,.1-1.47,1.78,1.78,0,0,1,1-1.13,14,14,0,0,0,4.54-.17,21,21,0,0,0,4-1.3,38.27,38.27,0,0,0,3.62-1.83c1.15-.65,2.29-1.24,3.41-1.76a2.84,2.84,0,0,1,.6-1,8.33,8.33,0,0,1,.81-.77,5.68,5.68,0,0,0,.77-.78,2.45,2.45,0,0,0,.5-1.05c0-.33,0-.53-.25-.6a.49.49,0,0,1-.32-.53l-.77-.21a15.17,15.17,0,0,0-3-1.3,16.69,16.69,0,0,1-2.88-1.16,1.83,1.83,0,0,1-1.45.21,16.76,16.76,0,0,0-1.72-.42c-1.59-.1-3.13-.26-4.6-.5a16.59,16.59,0,0,1-4.26-1.26,2.63,2.63,0,0,0-.35-.64c-.14-.18-.4-.23-.77-.14-.28-.37-.56-.74-.84-1.09a8.1,8.1,0,0,1-.78-1.16q.15-.84.21-1.44a1.46,1.46,0,0,0-.42-1.16c.19-.61.33-1.1.42-1.48A3.59,3.59,0,0,0,127.63,231.29Z"/><path class="cls-1" d="M201.4,223a12.38,12.38,0,0,0,.49,2.67c.23.75.49,1.48.77,2.18s.46,1.3.67,1.94a10.68,10.68,0,0,1,.45,2.28,26.77,26.77,0,0,0-.81,3.38c-.16,1-.34,2.11-.53,3.23-.75,1.64-1.47,3.09-2.18,4.36s-1.26,2.37-1.69,3.3a3.66,3.66,0,0,0-.59.81c-.17.31-.34.62-.53,1a5.13,5.13,0,0,0-.35.63,2.35,2.35,0,0,1-.36.57l-1.4-.5-.28,1.76-1,.28-.7.84a21.08,21.08,0,0,1-2.82,3.91,18.56,18.56,0,0,1-3.34,2.81,29.23,29.23,0,0,1-4.22,2.28c-1.57.7-3.34,1.48-5.31,2.32-.79-.1-1.48-.15-2.07-.18s-1.14-.06-1.65-.1c-.89,0-2-.08-3.31-.22a1.34,1.34,0,0,0-.63-.77,1.75,1.75,0,0,0-.77-.21,3.84,3.84,0,0,1-1.79-1.65c-.4-.73-.79-1.52-1.16-2.36-.24-.52-.47-1-.71-1.44s-.49-.9-.77-1.37l1.2-.36-1.55-1.68a1.82,1.82,0,0,0-.35-.39,1.82,1.82,0,0,1-.35-.39l-.07-1.12c-.14-3.24-.2-6.2-.17-8.9a23.08,23.08,0,0,1,1.09-7.2v-.78c.14-1,.28-1.88.42-2.56s.26-1.33.35-1.94a17.39,17.39,0,0,1,.64-2.88,2.49,2.49,0,0,0,1.47-.81c.33-.39.61-.76.85-1.09a1.71,1.71,0,0,1,1.33.29,3.87,3.87,0,0,1,.71,1.12,16,16,0,0,0,.88,1.41,3.32,3.32,0,0,0,1.58,1.19,7.84,7.84,0,0,0,.38,1.16c.17.4.34.84.53,1.31q.56,1.18,1,2.49a9.49,9.49,0,0,1,.53,2.5,12.32,12.32,0,0,0-1.1,3.09,23.68,23.68,0,0,0-.49,3.55,20.7,20.7,0,0,0,.07,3.45,10.59,10.59,0,0,0,.6,2.77l.42.92,1.19-.14a34.82,34.82,0,0,0,3.84-1.23,19,19,0,0,0,3.19-1.58,18.38,18.38,0,0,0,2.82-2.14c.89-.82,1.83-1.77,2.81-2.85a17.58,17.58,0,0,0,2.57-3.69,27.45,27.45,0,0,0,1.83-4.32,32.53,32.53,0,0,0,1.13-4.47c.25-1.48.43-2.87.53-4.18a1.65,1.65,0,0,0,1.19-1.69l-.14-.77a.93.93,0,0,1,0-1,3.37,3.37,0,0,1,2-2,12.2,12.2,0,0,1,2,1.55C200.33,221.83,200.88,222.39,201.4,223Z"/><path class="cls-1" d="M250.67,261.71c-.47.24-.9.45-1.3.63a3.17,3.17,0,0,1-1.37.29q-2.75-2-2.85-7.11a45.05,45.05,0,0,1,2.15-12.86.89.89,0,0,0,.35-.85l-.63-.7a1.83,1.83,0,0,0-.53.07c-.16,0-.29.21-.38.49q-1.83,1.34-4,2.78a52.44,52.44,0,0,1-4.54,2.67,29.37,29.37,0,0,1-4.78,2,15.46,15.46,0,0,1-4.75.77c-3.93,0-6.89-2-8.85-6l-.57-1-.56.91a8.09,8.09,0,0,0-.63,1.16c-.28.59-.56,1.25-.85,2s-.52,1.51-.74,2.29a5.8,5.8,0,0,0-.24,2c-.42.42-.87.92-1.34,1.48a5.61,5.61,0,0,0-1.05,1.9,1.33,1.33,0,0,0,.14,1.05,1.6,1.6,0,0,1-.64,1,7.63,7.63,0,0,1-.59.67,3.25,3.25,0,0,0-.53.67,2.33,2.33,0,0,0-.18.7c0,.24-.06.47-.1.71a2.71,2.71,0,0,1-.15.91,14.07,14.07,0,0,1-1.9,3.2,2.5,2.5,0,0,1-1.89.74,11.61,11.61,0,0,1-1.83-.22,9.19,9.19,0,0,1-1.65-2.7,18,18,0,0,1-1.13-3.69,19,19,0,0,1-.35-4,9.42,9.42,0,0,1,.67-3.48s.19-.51.57-1.4l1.44-3.45q.87-2.1,2-4.67c.75-1.71,1.5-3.38,2.26-5s1.46-3.11,2.14-4.47a29.44,29.44,0,0,1,1.73-3.09c.37-.56.71-1.09,1-1.58s.59-1,.88-1.44a28.63,28.63,0,0,1,2.42-3.62,7.75,7.75,0,0,1,3.42-2.29,5.66,5.66,0,0,1,2.24,1.48l.14.77c.19.47.47.71.85.71l1.3.38a10.15,10.15,0,0,0,1.16.32,7.3,7.3,0,0,1,.91,1.34c.38.56.74,1.11,1.09,1.65a9,9,0,0,1,.84,1.62,4.78,4.78,0,0,1,.35,1.65,4.34,4.34,0,0,1-.31,1.76l.07.7a2.66,2.66,0,0,1,.14,1.76,6.81,6.81,0,0,0-.07,1,5,5,0,0,0,.14,1.16,3.8,3.8,0,0,0,2.25,1,4.19,4.19,0,0,0,2.07-.52c.63-.36,1.23-.72,1.79-1.09a10.39,10.39,0,0,1,1.13-.74,3.13,3.13,0,0,1,1.12-.39c.85-.79,1.61-1.5,2.29-2.1s1.4-1.22,2.15-1.83a51.42,51.42,0,0,0,4.08-3.66,14.63,14.63,0,0,0,3.16-4.92,2.84,2.84,0,0,1,1.48-.42,4.35,4.35,0,0,1,1.62.35c.56.24,1.1.47,1.61.71a2.54,2.54,0,0,0,.39.21l.32.14a1.49,1.49,0,0,0,.56,1.19l.35.29.21.14a3.09,3.09,0,0,1,1.34,1.12,4.32,4.32,0,0,0,1.75,2.46,2.69,2.69,0,0,0,0,1.3,10.44,10.44,0,0,0,.45,1.24l.14.42c0,.14.12.3.21.49l-1.33-.14.21,1.33a5.57,5.57,0,0,1-.18,2.18,7.45,7.45,0,0,1-.74,1.9c.05,1.22.08,2.17.11,2.85a10.51,10.51,0,0,1-.11,1.9,10.21,10.21,0,0,1-.39,1.65,13.86,13.86,0,0,1-.66,1.69,20.66,20.66,0,0,1-1,8.19q-1.31,3.69-2.71,6.92c-.09.24-.2.47-.31.71a7.24,7.24,0,0,0-.32.7,8,8,0,0,0-1.13.46Z"/><path class="cls-1" d="M299.9,223.41a2.93,2.93,0,0,1,0,.74c0,.17-.05.32-.07.46a2.19,2.19,0,0,0,0,.46,3.08,3.08,0,0,0,.14.73,8,8,0,0,1-3.41,3.27,16.52,16.52,0,0,1-4.18,1.26l-4.61.81A13.51,13.51,0,0,0,283.1,233a2,2,0,0,0-1.66,0,4.23,4.23,0,0,1-2.14.21,2.41,2.41,0,0,1-1.06.6c-.42.11-.84.24-1.26.38a2.81,2.81,0,0,1,.24,1.3,2.21,2.21,0,0,0,.18,1.09,30.42,30.42,0,0,0,5.45-.07q3-.27,5.87-.35c0,.24,0,.39-.07.46s-.12.2-.07.39a7,7,0,0,1,1,.88q.49.52,1,1a4.78,4.78,0,0,0,1,.81,1.93,1.93,0,0,0,1.23.24,4.52,4.52,0,0,1,.38,1.23,2.67,2.67,0,0,1-.17,1.38c-.76.51-1.51,1-2.26,1.58a19.45,19.45,0,0,1-2.35,1.44,14.33,14.33,0,0,1-2.6,1,9.94,9.94,0,0,1-3.06.31h-.53a.86.86,0,0,1-.46-.21,2.4,2.4,0,0,1-1.58.21,2.4,2.4,0,0,0-1.58.21,4.27,4.27,0,0,0-1.86-.32,5.61,5.61,0,0,1-1.94-.24,23.74,23.74,0,0,0-2,3.16,27.81,27.81,0,0,0-1.62,3.58,21.92,21.92,0,0,0,4,.29c1.05,0,2.05-.13,3-.25L281,253a26.29,26.29,0,0,1,3.72-.1,9.17,9.17,0,0,1,3.34-1,17,17,0,0,0,3.56-.81,2.31,2.31,0,0,1,1,.74l.81,1a5.56,5.56,0,0,0,.81.8,1.34,1.34,0,0,0,1.05.29,1.44,1.44,0,0,1,.39.66c.07.26.13.51.17.74a1.49,1.49,0,0,0,.25.6c.11.17.31.22.6.18a10.82,10.82,0,0,1-2.43,3.55,9.46,9.46,0,0,1-3.13,1.86,21.78,21.78,0,0,1-3.9,1c-1.43.24-3,.52-4.75.84a1.74,1.74,0,0,1-1.05,0,2.53,2.53,0,0,0-1-.18q-1.62.35-3.87.63a28.87,28.87,0,0,1-4.57.21,21.22,21.22,0,0,1-4.43-.6,7.23,7.23,0,0,1-3.44-1.86,2.32,2.32,0,0,1-.74-1.16,1.54,1.54,0,0,0-.95-1,17.62,17.62,0,0,0-.28-2c-.14-.75-.28-1.54-.42-2.36s-.24-1.63-.31-2.42a7.35,7.35,0,0,1,.1-2.18,4.42,4.42,0,0,1,.88-1.9,2.1,2.1,0,0,0,.46-1.83.5.5,0,0,0,.42-.39c.05-.21.24-.29.56-.24.29-.85.59-1.64.92-2.39s.67-1.48,1-2.18l1.06-2.15c.35-.72.69-1.53,1-2.42a5.68,5.68,0,0,1-1.44-2,10.51,10.51,0,0,1-.67-2.18c-.14-.72-.26-1.47-.35-2.25a15.87,15.87,0,0,0-.49-2.35,5.87,5.87,0,0,1,1.72-1.72,10.1,10.1,0,0,1,2.21-1.09,18.33,18.33,0,0,1,2.61-.7c.93-.19,1.92-.4,2.95-.64q2.81-.9,5-1.4c1.47-.33,2.93-.6,4.36-.81s2.92-.41,4.46-.59,3.31-.47,5.28-.84a1.77,1.77,0,0,0,1.19.63c.19-.42.41-.55.67-.39s.36,0,.32-.38a6.6,6.6,0,0,0,1.79,2A11.17,11.17,0,0,0,299.9,223.41Z"/><path class="cls-1" d="M53.13,159.45a26.18,26.18,0,0,0-.61-5.39q-.6-2.91-1.31-5.95c-.47-2-.92-4.06-1.36-6.07a29.92,29.92,0,0,1-.7-5.7H38.7v-1.08a7.78,7.78,0,0,1,.14-1.43,5.92,5.92,0,0,1,.42-1.31,1.26,1.26,0,0,1,.85-.73H65.89a4.23,4.23,0,0,1-.61,2.3,3.68,3.68,0,0,1-1.48,1.22,6.25,6.25,0,0,1-2,.53l-2.25.26c-.75.09-1.48.21-2.2.35a4.28,4.28,0,0,0-1.85.82,3.69,3.69,0,0,0-1.17,1.66,6.34,6.34,0,0,0-.22,2.84c0,.66,0,1.52.14,2.6s.25,2.24.47,3.49.5,2.51.84,3.78a20.5,20.5,0,0,0,1.29,3.47,9.08,9.08,0,0,0,1.78,2.53,3.32,3.32,0,0,0,2.37,1,18.32,18.32,0,0,0,2.41,0c1,0,2-.09,3-.12a26.2,26.2,0,0,1,2.83,0,3.68,3.68,0,0,1,1.95.56,1.11,1.11,0,0,1,.28,1.38A7.47,7.47,0,0,1,69.35,163a27.57,27.57,0,0,1-6.07,1.53,51,51,0,0,1-6.17.41q-3.09,0-6.19-.09t-6.14-.12a11,11,0,0,1-2.06-3.24c-.22-.75-.13-1.27.26-1.57a3.33,3.33,0,0,1,1.88-.47c.86,0,1.78,0,2.78.1s2,.14,3,.19A6.87,6.87,0,0,0,53.13,159.45Z"/><path class="cls-1" d="M75.16,150.18a2.27,2.27,0,0,1,.61-1.76,3,3,0,0,1,2-.54h.47c.1.5.2,1.08.33,1.74a12.13,12.13,0,0,0,.56,2,11.47,11.47,0,0,0,.89,1.9,4.37,4.37,0,0,0,1.27,1.39,7.32,7.32,0,0,1,.82-3.17A10.9,10.9,0,0,1,84,149a12.14,12.14,0,0,1,2.53-2,8.9,8.9,0,0,1,2.75-1.1h1a7,7,0,0,1,3.84,1,8.74,8.74,0,0,1,2.65,2.63,12.68,12.68,0,0,1,1.61,3.68,32.78,32.78,0,0,1,.87,4.19,37.89,37.89,0,0,1,.37,4.13c0,1.33.07,2.46.07,3.39H96.3q-.28-2.8-.7-5.39c-.1-.68-.22-1.41-.38-2.18s-.32-1.48-.51-2.15-.39-1.3-.61-1.88a7,7,0,0,0-.75-1.48c-.12-.12-.29-.29-.49-.51s-.42-.44-.63-.66-.43-.4-.61-.56a1.13,1.13,0,0,0-.33-.23,2.47,2.47,0,0,0-2.44.53A8.31,8.31,0,0,0,87,152.9a16.52,16.52,0,0,0-1.29,3.52c-.33,1.31-.6,2.57-.82,3.77s-.38,2.25-.47,3.14-.16,1.43-.19,1.62a2.38,2.38,0,0,1-2.2.49,4.38,4.38,0,0,1-2-1.48,12,12,0,0,1-1.64-2.81c-.48-1.13-.93-2.32-1.33-3.59s-.77-2.54-1.1-3.82S75.41,151.27,75.16,150.18Z"/><path class="cls-1" d="M101.28,142.36a.53.53,0,0,1,0-.23.93.93,0,0,1,.05-.24c.13-.15.31-.35.56-.61s.41-.37.47-.37h9.42a13.45,13.45,0,0,0-.14-1.64c-.09-.75-.17-1.57-.25-2.48a24,24,0,0,1-.07-2.84,10.39,10.39,0,0,1,.4-2.67,4.55,4.55,0,0,1,1.12-2,3,3,0,0,1,2.18-.77,34.94,34.94,0,0,0,.66,7.59,12.4,12.4,0,0,0,1.75,4.41,5.15,5.15,0,0,0,2.51,2,8.07,8.07,0,0,0,2.88.4,13.93,13.93,0,0,0,2.89-.45,18.52,18.52,0,0,1,2.5-.51,3,3,0,0,1,1.76.21c.44.23.66.79.66,1.66a1.86,1.86,0,0,1-.45,1.41,3.59,3.59,0,0,1-1.71.66l-1.24.16q-.87.12-2,.21l-2.29.21-2.3.21c-.72.06-1.38.1-2,.12l-1.31,0c0,.16,0,.42,0,.8s-.05.62-.05.75a12.34,12.34,0,0,0,.66,4c.43,1.3.91,2.59,1.43,3.87s1,2.56,1.42,3.85a12.17,12.17,0,0,1,.66,4,5.12,5.12,0,0,1-.07.77,1.86,1.86,0,0,1-.28.71,1.39,1.39,0,0,1-.61.47,1.75,1.75,0,0,1-1.11-.07,4.14,4.14,0,0,1-2.64-2,12.34,12.34,0,0,1-1.29-3.68,33,33,0,0,1-.56-4.53c-.09-1.59-.24-3.08-.44-4.47a14.4,14.4,0,0,0-1-3.57,3,3,0,0,0-2.11-1.8l-9-2.07c-.12,0-.31-.13-.56-.4a3,3,0,0,1-.47-.58.54.54,0,0,1-.05-.24A.66.66,0,0,1,101.28,142.36Z"/><path class="cls-1" d="M132.45,153a21.28,21.28,0,0,1,.61-5.06,14,14,0,0,1,1.94-4.55,10.58,10.58,0,0,1,3.47-3.28,10,10,0,0,1,5.18-1.26,7,7,0,0,1,3,.63,6.69,6.69,0,0,1,2.2,1.67,6.76,6.76,0,0,1,1.34,2.41,9.53,9.53,0,0,1,.44,2.88,10.47,10.47,0,0,1-1.1,4.64,13.34,13.34,0,0,1-3,4,12.46,12.46,0,0,1-4.24,2.58,9.12,9.12,0,0,1-4.88.4,3.06,3.06,0,0,0,.92,2.18,5.79,5.79,0,0,0,2.08,1.24A10.87,10.87,0,0,0,143,162c.88.08,1.66.12,2.35.12a9.8,9.8,0,0,0,2-.19c.63-.12,1.25-.26,1.88-.42s1.26-.3,1.9-.42a10.24,10.24,0,0,1,2-.19,7.89,7.89,0,0,1,.84.05,2.7,2.7,0,0,1,.8.21,1.39,1.39,0,0,1,.61.52,1.55,1.55,0,0,1,.23.86A1.89,1.89,0,0,1,155,164a5.78,5.78,0,0,1-1.66,1,10.38,10.38,0,0,1-2.23.63c-.81.14-1.6.25-2.36.33s-1.47.12-2.11.14l-1.43,0a14.34,14.34,0,0,1-5.39-1,11.15,11.15,0,0,1-6.54-6.8A15.52,15.52,0,0,1,132.45,153Zm5-3.05a4.78,4.78,0,0,0,.45,2.39c.3.51,1,.76,2.18.76a6.62,6.62,0,0,0,2.39-.45,7.34,7.34,0,0,0,2.13-1.24,6.23,6.23,0,0,0,1.53-1.87,5.06,5.06,0,0,0,.56-2.35,9.15,9.15,0,0,0-.12-1.45,3.68,3.68,0,0,0-.49-1.38,3.2,3.2,0,0,0-1-1,2.7,2.7,0,0,0-1.52-.39,5.14,5.14,0,0,0-2.56.63,6.4,6.4,0,0,0-1.94,1.64,7.43,7.43,0,0,0-1.22,2.25A7.73,7.73,0,0,0,137.41,149.92Z"/><path class="cls-1" d="M158.6,146.32a8.43,8.43,0,0,1,.05-.86,2.68,2.68,0,0,1,.19-.8,1.35,1.35,0,0,1,.44-.59,1.47,1.47,0,0,1,.87-.23c.31,0,.67.24,1.06.73a12.65,12.65,0,0,1,1.19,1.83c.41.73.8,1.54,1.19,2.41s.74,1.68,1,2.41.54,1.37.73,1.9a6.33,6.33,0,0,0,.33.85c.41-1.1.86-2.28,1.36-3.56a19,19,0,0,1,1.85-3.59,11,11,0,0,1,2.63-2.79,6.09,6.09,0,0,1,3.73-1.12,6.52,6.52,0,0,1,2.13.35,5.54,5.54,0,0,1,1.78,1,5.47,5.47,0,0,1,1.24,1.62,4.8,4.8,0,0,1,.47,2.16,1.51,1.51,0,0,1-.82,1.45,4,4,0,0,1-1.85.42h-.47l-2-2a.2.2,0,0,1-.14,0,.38.38,0,0,1-.16,0l-.17,0a3.44,3.44,0,0,0-2.55.91A6,6,0,0,0,171.3,151a11.32,11.32,0,0,0-.58,2.81q-.12,1.48-.12,2.7a9.49,9.49,0,0,0,.19,1.9c.12.64.26,1.26.42,1.87s.29,1.24.42,1.88a10.75,10.75,0,0,1,.19,2c0,1.31-.71,2-2.12,2a3.62,3.62,0,0,1-2.43-1.24,18.45,18.45,0,0,1-2.51-3.17,40,40,0,0,1-2.36-4.24q-1.12-2.33-2-4.53c-.56-1.47-1-2.79-1.34-4A11.49,11.49,0,0,1,158.6,146.32Z"/><path class="cls-1" d="M202.71,160c-1.19.81-2.21,1.54-3.07,2.18a21.11,21.11,0,0,1-2.51,1.62,11,11,0,0,1-2.6,1,15,15,0,0,1-3.4.33c-2.91,0-5.06-.78-6.47-2.33s-2.11-3.85-2.11-6.91a15.7,15.7,0,0,1,.47-3.7,19.77,19.77,0,0,1,1.39-3.82,21.79,21.79,0,0,1,2.18-3.61,16.76,16.76,0,0,1,2.86-3,14,14,0,0,1,3.4-2.09,9.69,9.69,0,0,1,3.82-.77,11.17,11.17,0,0,1,5.3,1.66,8.66,8.66,0,0,1,2.9,3.43,16.29,16.29,0,0,1,1.36,4.64c.25,1.7.44,3.46.58,5.27s.32,3.63.54,5.44a17.2,17.2,0,0,0,1.36,5,8.39,8.39,0,0,1-1.15,2.18.83.83,0,0,1-1.2.21,5.7,5.7,0,0,1-1.52-2.07Q204,163,202.71,160Zm-16.17-4a6.2,6.2,0,0,0,1,3.92c.67.83,1.87,1.24,3.59,1.24a10,10,0,0,0,3.68-.68,9.66,9.66,0,0,0,3.07-1.87,9.1,9.1,0,0,0,2.11-2.88,8.72,8.72,0,0,0,.8-3.75c0-.56,0-1.35.05-2.37a16.08,16.08,0,0,0-.19-3,7.2,7.2,0,0,0-.89-2.6,2.14,2.14,0,0,0-2-1.11,8.66,8.66,0,0,0-4.5,1.24,13.12,13.12,0,0,0-3.56,3.17,15.55,15.55,0,0,0-2.35,4.24A13.09,13.09,0,0,0,186.54,155.94Z"/><path class="cls-1" d="M210.73,151.92a11,11,0,0,1,.87-4.12,14.6,14.6,0,0,1,2.32-3.92,13.5,13.5,0,0,1,3.35-2.92,7.53,7.53,0,0,1,4-1.17,6.61,6.61,0,0,1,4.1,1.45,5.44,5.44,0,0,1,1.4,1.69,4.51,4.51,0,0,1,.54,2.2,5.5,5.5,0,0,1-1.52-.19,13.11,13.11,0,0,1-1.34-.44q-.65-.25-1.29-.45a5,5,0,0,0-1.38-.18,4.78,4.78,0,0,0-3.12.95,6.87,6.87,0,0,0-1.89,2.42,11.27,11.27,0,0,0-1,3.11,20.71,20.71,0,0,0-.26,3.12c0,.16,0,.45,0,.89s0,.9,0,1.39,0,.94,0,1.38a7.87,7.87,0,0,0,.07.89,7.9,7.9,0,0,0,1,1.73,3.57,3.57,0,0,0,1.05.92A3.21,3.21,0,0,0,219,161a14,14,0,0,0,1.55.07,5.59,5.59,0,0,0,2.13-.37,10.63,10.63,0,0,0,1.71-.89,11.93,11.93,0,0,0,1.5-1.15,15.21,15.21,0,0,1,1.48-1.17,7.55,7.55,0,0,1,1.69-.89,5.85,5.85,0,0,1,2.08-.35,9.62,9.62,0,0,1-.82,4.08,8.72,8.72,0,0,1-2.3,3,10.25,10.25,0,0,1-3.47,2,13.42,13.42,0,0,1-4.33.68,5.89,5.89,0,0,1-4-1.51,13.47,13.47,0,0,1-3-3.68,19.56,19.56,0,0,1-1.9-4.61A16.78,16.78,0,0,1,210.73,151.92Z"/><path class="cls-1" d="M232.76,142.42a.57.57,0,0,1,.05-.24.56.56,0,0,1,.05-.23,6.43,6.43,0,0,1,.56-.61c.25-.25.4-.38.47-.38h9.42a15.68,15.68,0,0,0-.14-1.64c-.09-.75-.18-1.58-.26-2.49a23.87,23.87,0,0,1-.07-2.83,10.86,10.86,0,0,1,.4-2.68,4.53,4.53,0,0,1,1.13-2,2.92,2.92,0,0,1,2.18-.78,35.19,35.19,0,0,0,.65,7.6,12.41,12.41,0,0,0,1.76,4.4,5.07,5.07,0,0,0,2.5,2,7.87,7.87,0,0,0,2.89.4,13.92,13.92,0,0,0,2.88-.44,20.53,20.53,0,0,1,2.51-.52,3,3,0,0,1,1.76.21c.43.24.65.79.65,1.67a1.89,1.89,0,0,1-.44,1.4A3.49,3.49,0,0,1,260,146l-1.24.16c-.58.08-1.22.15-1.94.21l-2.3.21-2.3.21c-.72.07-1.37.1-2,.12s-1,0-1.31,0a7.83,7.83,0,0,1-.05.8c0,.37,0,.63,0,.75a12.39,12.39,0,0,0,.65,4c.44,1.29.91,2.58,1.43,3.87s1,2.56,1.43,3.84a12.43,12.43,0,0,1,.65,4,4.26,4.26,0,0,1-.07.78,1.81,1.81,0,0,1-.28.7,1.34,1.34,0,0,1-.61.47,1.65,1.65,0,0,1-1.1-.07,4.1,4.1,0,0,1-2.65-2,12.34,12.34,0,0,1-1.29-3.68,34.67,34.67,0,0,1-.56-4.52c-.09-1.6-.24-3.09-.44-4.48a13.39,13.39,0,0,0-1-3.56,2.94,2.94,0,0,0-2.11-1.81l-9-2.06c-.13,0-.32-.14-.57-.4a2.79,2.79,0,0,1-.46-.59.41.41,0,0,1-.05-.23A.7.7,0,0,1,232.76,142.42Z"/><path class="cls-1" d="M266.56,130.9a3.47,3.47,0,0,1,1.5,1.22,2.23,2.23,0,0,1,.54,1.52c-.05.45-.4.77-1.05.94a6.5,6.5,0,0,1-3.28-.54,4.61,4.61,0,0,1,.49-2.2A1.85,1.85,0,0,1,266.56,130.9Zm-.66,17.58c0-.19,0-.5,0-.92s0-.86.05-1.33,0-.92,0-1.36,0-.75,0-.94a4,4,0,0,1,1.34-1.22A9.77,9.77,0,0,1,269,142a32.42,32.42,0,0,0,.8,5.39c.43,1.91.9,3.82,1.4,5.75s.95,3.82,1.33,5.69a26,26,0,0,1,.59,5.25,1.89,1.89,0,0,1-2.16,2.11,2.74,2.74,0,0,1-2.2-1.08,8.33,8.33,0,0,1-1.43-2.74,24.73,24.73,0,0,1-.87-3.71c-.21-1.35-.36-2.69-.44-4s-.12-2.52-.14-3.61S265.9,149.07,265.9,148.48Z"/><path class="cls-1" d="M274.71,141.64c.22-.75.48-1.1.78-1s.66.42,1.1,1.07a26.12,26.12,0,0,1,1.48,2.63c.54,1.09,1.13,2.27,1.75,3.54s1.31,2.56,2,3.87a37.35,37.35,0,0,0,2.29,3.61,14.5,14.5,0,0,0,2.53,2.72,5.48,5.48,0,0,0,2.75,1.26l3.75-19.4c.07-.53.31-.84.73-.91a6.67,6.67,0,0,1,1.24-.12c1.41,0,2.11.66,2.11,2,0,.69-.06,1.78-.19,3.28s-.33,3.15-.61,5-.62,3.64-1,5.53a40.08,40.08,0,0,1-1.46,5.18,15.26,15.26,0,0,1-1.94,3.84,3.07,3.07,0,0,1-2.42,1.5,6.63,6.63,0,0,1-3.79-1.29,16.7,16.7,0,0,1-3.54-3.38,30.59,30.59,0,0,1-3-4.67,47.1,47.1,0,0,1-2.39-5.18,37.26,37.26,0,0,1-1.56-5A17.75,17.75,0,0,1,274.71,141.64Z"/><path class="cls-1" d="M300.07,153a21.28,21.28,0,0,1,.61-5.06,14.21,14.21,0,0,1,1.95-4.55,10.58,10.58,0,0,1,3.47-3.28,9.92,9.92,0,0,1,5.18-1.26,6.63,6.63,0,0,1,6.58,4.71,9.23,9.23,0,0,1,.45,2.88,10.35,10.35,0,0,1-1.11,4.64,13.31,13.31,0,0,1-2.95,4,12.56,12.56,0,0,1-4.24,2.58,9.13,9.13,0,0,1-4.88.4,3.05,3.05,0,0,0,.91,2.18,5.84,5.84,0,0,0,2.09,1.24,10.65,10.65,0,0,0,2.53.54c.87.08,1.66.12,2.34.12a10,10,0,0,0,2-.19c.62-.12,1.25-.26,1.87-.42s1.26-.3,1.9-.42a10.24,10.24,0,0,1,2-.19,8.24,8.24,0,0,1,.85.05,2.64,2.64,0,0,1,.79.21,1.34,1.34,0,0,1,.61.52,1.48,1.48,0,0,1,.24.86,1.89,1.89,0,0,1-.66,1.48,5.84,5.84,0,0,1-1.67,1,10.29,10.29,0,0,1-2.22.63c-.82.14-1.6.25-2.37.32s-1.47.13-2.11.14l-1.43,0a14.15,14.15,0,0,1-5.39-1,11.37,11.37,0,0,1-4-2.67,11.53,11.53,0,0,1-2.51-4.12A16,16,0,0,1,300.07,153Zm5-3a4.94,4.94,0,0,0,.44,2.39c.3.5,1,.75,2.18.75a6.57,6.57,0,0,0,2.39-.44,7.49,7.49,0,0,0,2.14-1.24,6,6,0,0,0,1.52-1.88,4.91,4.91,0,0,0,.57-2.34,9.15,9.15,0,0,0-.12-1.45,4,4,0,0,0-.49-1.39,3.27,3.27,0,0,0-1-1,2.71,2.71,0,0,0-1.53-.4,5.11,5.11,0,0,0-2.55.64,6.19,6.19,0,0,0-1.95,1.64,7.43,7.43,0,0,0-1.22,2.25A7.72,7.72,0,0,0,305,150Z"/></svg>