<?xml version="1.0" encoding="utf-8"?>
<!-- Generator: Adobe Illustrator 24.1.0, SVG Export Plug-In . SVG Version: 6.00 Build 0)  -->
<svg version="1.1" id="interactive_x5F_resume" xmlns="http://www.w3.org/2000/svg" xmlns:xlink="http://www.w3.org/1999/xlink"
	 x="0px" y="0px" viewBox="0 0 367.86 435.26" style="enable-background:new 0 0 367.86 435.26;" xml:space="preserve">
<style type="text/css">
	.at0{fill:#FFFFFF;}
	.at1{fill:#49274A;}
</style>
<g>
	<rect x="8.99" y="5.21" class="at0" width="352.72" height="422.12"/>
	<g>
		<g>
			<g>
				<g>
					<path d="M6.65,250.25c-0.03,0.68-0.08,0.85-0.14,0.91c0.02,0.56,0.04,1.09,0.06,1.66L6.65,250.25z"/>
					<path d="M1.43,94.77c0-0.1,0-0.16,0-0.27c-0.05,0.3-0.11,0.67-0.17,0.74C1.37,95.52,1.37,95.52,1.43,94.77z"/>
					<path d="M2.72,133.93c-0.05,0.69-0.11,1.36-0.18,1.97C2.61,135.86,2.67,135.04,2.72,133.93z"/>
					<path d="M6.99,228.87c-0.09,1.74-0.18,3.5-0.27,5.32C6.89,233.62,7.06,231.59,6.99,228.87z"/>
					<path d="M2.96,128.65c-0.06,1.39-0.16,3.62-0.24,5.28C2.84,132.32,2.92,130.54,2.96,128.65z"/>
					<path d="M1.38,20.97c-0.06,1.06-0.13,2.23-0.17,3.5c0.04,0.08,0.07,0.29,0.12,0.26L1.38,20.97z"/>
					<path d="M18.16,11.16c3.48-0.08,4.07-0.21,3.56-0.38C21.11,10.9,20.06,11.02,18.16,11.16z"/>
					<path d="M103.6,11.21c-0.64,0.03-1.27,0.08-1.83,0.12C103.08,11.28,103.97,11.23,103.6,11.21z"/>
					<path d="M54.49,8.46c-0.1-0.08-0.32-0.14-0.64-0.2C53.53,8.32,53.66,8.38,54.49,8.46z"/>
					<path d="M367.04,296.24l0.18-2.06C367.13,294.53,367.08,295.3,367.04,296.24z"/>
					<path d="M367.86,408.8c0,0.35,0,0.67,0,1C367.85,409.47,367.85,409.15,367.86,408.8z"/>
					<path d="M367.85,412.14c0-0.81,0-1.56,0-2.34C367.85,410.81,367.83,411.7,367.85,412.14z"/>
					<path d="M2.38,17.36C2.06,14.63,1.96,7.85,1.56,7.7L1.38,20.97C1.67,16.25,2.11,13.84,2.38,17.36z"/>
					<path d="M353.36,46.47c0.03,4.3,0.09,6.47,0.17,7.54c-0.05-2.59-0.11-5.26-0.16-7.76L353.36,46.47z"/>
					<path d="M356.91,145.08c-0.01-0.13-0.03-0.27-0.04-0.38c0.01,0.22,0.01,0.38,0.02,0.61L356.91,145.08z"/>
					<path d="M352.97,38.77c-0.06-0.5-0.12-1.06-0.2-1.35C352.78,39.06,352.87,39.15,352.97,38.77z"/>
					<path d="M8.2,272.34c0.03,0.61,0.05,1.11,0.08,1.89C8.27,273.38,8.24,272.82,8.2,272.34z"/>
					<path d="M357.48,138.53l-0.57,6.55c0.09,0.88,0.18,1.77,0.3,2.95C357.65,149.23,357.61,141.69,357.48,138.53z"/>
					<path d="M352.97,38.77c0.2,1.71,0.33,4.34,0.41,7.48l0.31-3.56C353.66,33.98,353.23,37.89,352.97,38.77z"/>
					<path d="M10.69,9.48c4.05,0.32-10.06,0.83-1.62,0.97l8.34-0.71c-1.39,0.33,3.36,0.74,4.3,1.04c3.35-0.66-10.7-1.11-0.87-2.02
						c2.29-0.41,9.75-0.32,13.53-0.22c-8.43-0.14,0.21-0.62,3.59-0.86c5.18,0.28,13.48,0.15,15.88,0.58
						c0.79-0.16,4.81-0.24,7.56-0.17l0.27,0.22c6.19-0.19-2.1-0.22-0.52-0.45c4.48-0.07,11.49,0.41,18.8,0.38
						c-7.31,0.03-13.39,0.34-18.61,0.58c13.32,0.4-2.35,1.14-5.32,1.72c10.71-0.27,14.8-0.69,23.55-1.06
						c10.64,0.47-0.83,1.65-3.52,1.72c9.72-0.32,19.91-1.04,25.12-1.29c-7.24,0.88-5.99,1.16-12.51,1.86
						c7.8,0.51,9.38-0.11,13.11-0.45c-2.18,0.08-5.53,0.14-6.32-0.04c9.27,0.08,7.68-1.28,12.51-1.86
						c6.85,0.37,19.91,0.54,19.03,1.34l-0.09-0.85c8.03-0.2,4.17,0.44,5.42,0.72c3-0.58-0.74-1.41,12.79-1.64
						c-2.08,1.37,12.07,0.12,11.69,1.37c6.32-0.08,9.2-0.77,15.78-0.63c7.28,0.71-9.97,1.69-13.89,1.48
						c-9.14,0.04,1.2-0.57-2.46-0.56l-8.74,0.38c4.87,0.26,14.42,0.57,13.26,1.14c8.89-0.26-7.15-0.59,2.59-0.92l5.88,0.32
						c9.73-0.32-2.04-0.96,10.64-1.12c-8.49,0.6,13.76,0,13,0.91c0.51-1.14,22.74-0.15,25.37-1.07l-6.72-0.26l1.49,0.5
						c-7.31,0.03-13.38,0.34-20.94,0.14c5.93-0.42-2.03-0.95,4.87-1.32c12.97-0.68,3.46,0.61,5.29,0.6l10.32-0.61l-7-0.48
						c8.04-0.2,19-0.25,30.1-0.18c16.39,0.67-2.01,0.63,9.73,1.27c5.25-0.25,3.97-0.53,11.42-0.44c-4.02-0.32-7.17,0.14-9.97,0.1
						c-3.6-0.72,13.36-0.34,12.6-1.01c3.06,0.27,2.47,0.56,0.06,0.85c12.54-0.28,24.61-0.16,29.32,0.73l5.41-0.87
						c21.47,0.31-14.68,0.8,3.38,1.35c7.45,0.08,14.78,0.05,18.04-0.3l-6.45-0.03c4.94-0.47,4.56-0.81,12.45-1.13
						c5.61,0.09,2.61,0.67,9.38,0.19c17.11,0.5,5.25,1.34,2.51,2.14c12.48,0.46-6.31,1.66,2.13,1.3l-2.27-0.2l12.94-1.15
						c-12.14-0.97-4.81,0.89-9.62-0.08l-7.23-0.08c2.27-0.49,18.99-0.14,20.5-0.7c0.14,0.29-1.66,0.96-9.19,0.99l4.51,1.08
						c2.18,0.05,3.99-0.1,5.55-0.21c0.39-0.02,0.77-0.04,1.13-0.07c0.29-0.01,0.57-0.02,0.84-0.02c0.14,0,0.28,0.05,0.36,0.17
						c0.27,0.17,0.2,0.33,0.1,0.47c-0.11,0.14-0.26,0.27-0.33,0.38c-0.18,0.22-0.04,0.4,0.16,0.54l0.01,0.01
						c-0.03,0.11-0.03,0.16-0.01,0.22c0.01,0.03,0.02,0.05,0.04,0.08c0.02,0.1,0.04-0.22,0.06,0.66c0.09,2.43,0.23,4.23,0.37,5.87
						c0.28,3.28,0.56,5.92,0.47,11.66c0.24-1.19,0.22-4.07,0.25-7.68c0.36,3.77,0.66-2.86,0.94,3.48
						c-0.73,3.6-0.68,15.81-0.67,25.14c-0.39-2.44-0.79,3.55-1.01,0.62c0.09,4.73,0.21,9.1,0.54,11.12
						c0.55-18.98,0.61,18.38,1.34,3.63c-0.04,14.79-0.7,17.63-1.09,26.81c-0.22-0.61-0.45-17.02-0.76-3.91
						c0.76,15.07,1.06-2.7,1.97,9.03l0.27-9.48c0.93-1.19,0.23,16.42,0.43,18.85c-0.24,5.85-0.26-8.15-0.89-2.44
						c-0.21,8.73,0.38,13.13,0.03,18.7c-0.63-5.43-0.38-1.97-0.94-8.15c0.01,20.49-0.73-1.05-1.13,14.6
						c0.12,4.97,0.67,1.81,0.53,9.82c0.68-4.68,0.9-4.08,0.93-17.03c0.98,4.52-0.24,17.03,0.35,26.07c0.08-7.24,0.2-2.27,0.05-10.11
						c0.82-1.06,0.95-3.96,1.72,3.18c-0.22-8.41-1.1-12.05-0.86-24.11c0.84-3.31,0.64,14.77,1.73,14.92
						c0.55,5.99,0.09,20.58-0.32,27.22c0.67,11.69,0.68,26.03,1.66,34.99c-0.32,8.45,0.6,29.55,0.32,45.5
						c-0.49,2.44-0.32,19.58-0.85,9.78c0.16,1.38,0.25,14.62,0.69,11.16c-0.16-1.36-0.03-2.86-0.05-5.71l0.6,2.55
						c-0.25,7.69,0.52,16.29,0.15,23.67c-0.48,2.41-0.31-13.85-0.88-8.89c0.9,7.09,1.28,36,0.89,45.2
						c-0.12,6.18-0.88,6.91-0.96,9.49l0.06,10.38c-0.24,1.22-0.53,1.38-0.84,3.31c-0.17,5.12,0.08,8.59,0.22,11.76
						c-0.49,13.54-1.1,6.31-1.6-0.63l0.26-7.65c-0.34-5.58-0.2-13.58-0.88-8.89c0.07,3.88,0.36,3.75,0.52,5.12l-0.39,4.5
						c0.3,4.52,0.45,17.03,0.98,15.69c-0.38,9.17,0.08,19.71-0.36,27.85c0.35-5.58,0.56,1.5,0.98-0.15l0.16-9.78
						c0.15,7.83,0.54,19.13,0.17,26.51c-0.33-0.91-0.45-1.2-0.77,2.54c0.46-5.26,0.6,13.71,1.18,2.28
						c-0.18-4.21-0.26-8.14-0.2-13.58c0.73-3.57,0.81,5,1.21,9.81c0.1,3.9,0.27,10.43,0.43,16.35c-2.47,0.08-4.69,0.15-6.66,0.22
						c-0.59-0.03-1.12-0.06-1.63-0.09c-0.55-0.05-1.06-0.09-1.56-0.13c-1-0.09-1.94-0.18-2.99-0.28c-2.11-0.17-4.67-0.25-9.05-0.01
						c11.14,0.69-10.54,1.15-13.42,1.86c-8.44-0.32-13.7,0.6-20.47,0.01c3.45-0.25,16.42-0.23,19.73-0.76
						c0.47-0.51-2.86-1.35,9.95-1.61c-15.39-0.26-9.04,0.44-16.13,0.64l5.27-0.07c-2.4,0.2,2.13,0.59-2.55,0.6
						c-18.06-0.2-21.24-0.74-33.44-1.39c2.72,0.37-2.85,0.72-5.73,0.74c-11.74-0.47,0.15-1.09-7.05-1.85
						c-4.09,0.47-12.08,0.33-9.37,0.7c-4.65,0.01-2.24-0.2-5.56-0.35c-3,0.43-6.49,0.68-12.94,0.66c0.58-0.22,1.49-0.56,7.67-0.43
						c-6.93-0.19-9.47-0.96-6.47-1.39l11.29,0.29c5.13-0.52-10.53-0.23-10.1-0.74c4.98-0.12,8.74,0.21,11.91,0.07
						c-3.17-0.55-12.94-0.03-18.67,0.03c-9.04-0.1-5.73-0.63-5.87-0.92c-15.37,0.87,17.76,0.99,3.45,1.82
						c-5.42,0.63-19.13,0.54-28.77,0.67c8.28,0.72-0.92,1.02-10.86,1.26c12.95,0.02,3.31,0.84,18.53,0.37l0.3,0.58
						c-6.49-0.01-14.16-0.27-20.64-0.28c1.35-0.16-0.15-0.29,1.97-0.38l-19.3,0.25l1.96-0.38c-11.9-0.07-26.51-0.51-33.6-0.3
						c5.73-0.05,10.69,0.52,4.68,0.68c-3.48,0.25-9.8,0.53-15.22,0.47c-2.86-0.66-23.35-0.65-10.39-1.32
						c-16.72,0.34-10.54,0.46-26.52,0.86l10.7-0.17c1.35,0.53-7.54,1.41,2.71,1.75c-12.05,0.33-4.37,1.27-20.5,1.39
						c-6.55-0.32,1.95-1.07,11.01-1.2c-4.56-0.04-8.71-0.34-13.42,0.03c-3.45-0.44,8.59-0.77,8.13-0.94
						c-8.29-0.03,0.16,0.29-7.67,0.43c-13.71,0.6-8.74-0.9-21.85-0.52c2.87-0.03,7.97,0.14,4.52,0.39
						c-17.62-0.02-9.8,0.53-22.6,0.79c-7.23-0.77-4.06-1.59-15.64-1.77l6.45,0.01c-4.51-0.39-9.63-0.56-14.31-0.55
						c-3.57,0.11-7.04,0.22-10.45,0.32c-3.08,0.12-6.11,0.25-9.09,0.37c-0.31-7.58-0.62-14.97-0.93-22.57
						c-0.3-7.92-0.58-16.05-0.79-24.8l0.19,8.89c-0.26,3.01-0.32-7.41-0.61-7.26L8.06,375c-0.56-1.52-0.54,12.49-1.07,9.17
						c0.07-0.75,0.09-2.57,0.04-3.62l-0.17,5.13c0.18-11.61-0.81-20.8,0.09-29.53c0.1,22.61,1.63,3.46,1.9,25.61
						c-0.22-11.73,0.6-2.08,0.84-3.29c0.12-6.18-0.43-3.03-0.24-9.96c0.4,0.16,0.76,15.08,1.06,8.45c-0.62-0.76-0.5-6.92-0.92-9.93
						c0.17-5.12,0.4,0.13,0.6-2.12c-0.03-2.85-0.3-4.52-0.21-7.08l0.38,1.94c0.55-14.29-0.58-4.35-0.41-20.61
						c-0.51-0.46-0.39,4.52-0.29,11.29c-1.13,3.44-1.21-20.94-2.43-19.6c-0.18-15.37,0.47,4.07,0.78-9.03
						c0.76-7.22,0.81,9.64,1.35,12.97l0.49-13.58c0.98,4.54,0.66,12.97,1.56,15.38c0.05-10.09-0.19-8.89-0.54-19.14
						c-0.75,16.57-0.61-7.22-1.57,2.26c0.25-7.67,0.46-5.26,0.46-16.41c0.21,7.07,0.8,0.28,0.81,9.64
						c-0.07-15.06-0.28-10.99-0.35-26.04c-0.7-4.69-0.91,15.21-1.4-2.89c-0.01-3.91,0.26-3.15,0.25-0.85
						c0.28-12.93-0.86,2.66-1.22-5.47c-0.08-5.65,0.19-7.68,0.36-5.35c-0.38-8.47-0.85-3.79-1-9.42l-0.09,2.57
						c-0.2-2.41-1.19,4.2-1.23-8c0-8.9,0.39-6.11,0.63-6.32c-0.24-6.92-0.03-12.23,0.21-16.97c-0.14,0.48-0.27-0.05-0.28-2.15
						c-0.22-11.75,0.59-6.76,0.69-11.13c0.35-16.74-1.28,2.09-1.31-16.59l-0.23,21.69c-0.34-0.91-0.85-1.37-0.84,3.31
						c0.51,0.44,0.95,8.13,0.87,15.38c-0.59,2.09-0.65-19.45-1.3-7.24c0.1-4.37-0.06-10.42,0-15.82c0.63,5.43,0.13-17.33,0.83-7.97
						C5,190,5.44,186.54,4.98,164.84c0.38,1.96,1.38,15.81,1.09,27.11l-0.35,0.92c0.42,14.15,0.4-11.02,1.01-8.45
						c-0.96-17.47,0.47-38.69,0.13-60.08c-0.33,3.76-0.51-0.48-0.84-1.39c0.08,8.59,0.21,7.09-0.2,13.4
						c-0.45-1.2-0.28-6.33-0.59-9.04c-0.49-2.25-0.01,6.47-0.27,9.51c-0.26-8.16-0.32-7.39-0.73-12.23c0.39-4.51,0.62-3.9,1.05-7.37
						c0.1-20.18-0.78-17.92-0.61-34.2c-0.1,9.03,0.5-4.23,0.34,5.58l0.06-5.43c0.71,14.02,0.68,38.12,1.85,35.72
						C6.8,107.45,6.15,99.16,6.13,85.17l0.22,0.59c0.05-10.11-0.29,0.15-0.49-2.25c-0.4-11.31,1.13-14.62,0.3-22.44L5.97,72.65
						c-0.48-8.73-0.09,2.57-0.87,0.47C4.53,57.59,4.93,30.77,4.36,8.78C3.95,15.1,3.93,16.9,3.9,25.2c-1.05-3.75-0.9-7.09-1.8-3.03
						l-0.05,10.1l-0.98,0.15c-0.02-2.76,0.04-5.5,0.13-7.94c-0.61-1.39,0.19-15.32-0.39-16l0.08,8.58
						c-0.5,4.22-0.45-5.89-0.62-11.92c-0.64,5.73,0.03,18.69,0.07,30.88c0.35-0.88,1.08,11.3,1.15-0.59
						c0.4,0.15,0.61,7.24,0.62,11.92c-0.2-2.44-1.07,9.17-1.36-1.83c0.46,10.55,0.01,4.67,0.23,16.42
						c-0.27-1.65,0.01,20.49-0.84,19.13c0.36,3.73,1.25-0.19,1.28,13.43c0.59-3.31,0.68-18.49,1.3-8.31l-0.39-6.62
						c0.27-9.49,0.6,2.59,0.85-9.79C3.15,73.4,3.48,80.78,3.06,82.43c1.24-3.18,0.61,18.38,1.52,18.98
						c-0.37,2.72-0.41,6.33-0.31,13.14c-0.34-0.93-0.66,2.83-0.89-2.44c0.1-4.37-0.03-7.53,0.25-12.35
						c-1.23,2.68-0.39,17.6-0.66,28.9c0.1-1.58,0.22-2.03,0.39,1.09c-0.19,6.9-0.41,22.13-0.99,17.76L2.5,182.3
						c-0.29,0.16-0.12-4.96-0.21-7.09l-0.03,19.42c-0.39,4.54-0.39-6.61-0.77-8.57l0.02,14.01l-0.38-1.96
						c0.25,3.45,0.36,19.58-0.25,23.49c0.18,15.36,1.44,15.07,0.88,35.86c-0.62-0.76-0.22-11.75-0.62-16.57
						c-0.22,4.06,0.22,16.42-0.37,18.52c0.36,14.91,1.46,13.27,2.07,20.5c0.04,12.19-0.53,1.34-0.71,1.83
						c-0.04,3.6,1.1,9.48,0.26,12.78c0.45,5.88,0.99,9.2,1.2,0.46c-0.01,6.48,0.29,15.67,0.56,17.31c-0.92-5.25-0.37,7.4-1.12,8.13
						c-0.16,9.82-0.39,31.5,0.6,40.69l-1-2.72l0.11,11.46c-0.61,8.57-0.64-10.1-0.69-15.82c-0.11,15.53-0.05,25.91-0.03,39.92
						c0.21-4.08,0.42-1.65,0.73-3.6c0.41,4.81,0.11,11.43,0.23,16.42c-0.24,1.21-0.47,0.6-0.54-3.31l0.12,9.62
						c-0.62-0.76-0.62,3.93-1.03-5.58l0.19,8.89c-0.03,1.56-0.05,2.73-0.07,3.56c-0.03,1.18-0.05,1.9-0.08,2.25
						c-0.06,0.7-0.12-0.07-0.19-1.56c-0.03-0.72-0.06-1.6-0.1-2.56c-0.03-0.55-0.07-1.13-0.1-1.71c-0.06-1.15-0.12-2.24-0.18-2.84
						l-0.1,21.72l3.35,0.01c5.36-0.17,3.91-0.31,3.73-0.42c-0.1-0.06,0.09-0.11,1.52-0.16c0.71-0.02,1.73-0.04,3.19-0.07
						c1.39-0.02,3.19-0.04,5.52-0.07c14.3,0.55,32.55,0.35,48.81,0.52l-11.45-0.58c9.8,0.16,7.83-0.83,10.85-1.26
						c9.05,0.1,21.24,0.06,28.91,0.31c-8.73,0.48-5.13,1.21,3.01,1.64c18.37,0.08,13.87-1,24.11-1.35
						c-7.98,1.23,12.81,0.42,11.01,1.09c23.35-0.04,46.83-0.47,70.95-0.44c-0.47-0.18-7.39-0.37-3.16-0.55
						c8.87-0.19,13.09,0.31,14.3,0.55c11.45-0.11,18.06-0.49,21.84-0.86c-4.98,0.12-5.43-0.06-4.51-0.39
						c11.44-0.11,8.28,0.72,19.13,0.15c2.86,0.66-12.07,0.33-11.01,0.97c10.1,0.05,16.44-0.23,23.81-0.55
						c1.67,0.42-6.77,0.1-1.2,0.45c15.65-0.32,34.49-0.7,46.24-0.94l3.16,0.55c7.53-0.03,12.5-0.15,15.96-0.4
						c4.07,0.22,0.89,0.36-3.02,0.43c5.05,0.03,10.66-0.07,15.73-0.18c2.53-0.06,4.93-0.11,7.05-0.16c1.06-0.02,2.05-0.04,2.96-0.06
						c1.3-0.01,2.47-0.03,3.49-0.04c-0.37,0.08-1.16,0.13-2.18,0.15c-0.36,0.01-0.75,0.02-1.17,0.02c-0.36,0-0.73,0-1.11,0.01
						c-1.53,0-3.15,0-3.98,0.14c1.17,0,2.37,0.01,3.59,0.01c1.56-0.01,3.14-0.03,4.74-0.04c4.2-0.05,8.47-0.11,12.7-0.17
						c-0.09-6.43-0.19-12.75-0.27-18.44c-0.04-3.79,0.01-7.16,0.24-9.77c0.09,1.08,0.11,2.3,0.11,3.44
						c0.04-18.74-0.36-35.06-0.41-55.42c0.66-18.66-0.85-6.01-0.77-24.39c1.48-0.13,0.09-25,0.37-32.74l-0.22,2.46
						c-0.59-9.05-0.06-21.55,0.36-27.87c0.09-13.7,0.08-34.19-0.52-47.89l0.31,2.72c-0.39-11.31,0.08-18.37-0.31-29.7
						c0.11,0.31,0.3,4.54,0.4,0.16c0.47-54.53-0.48-110.13-0.3-164.49c0.03-9.96,0.06-20.12,0.09-31.4
						c-26.22-0.06-53.69-0.13-81.72-0.19c-26.3-0.01-53.12-0.02-79.8-0.03C151.95,0.05,99.09,0.28,51.98,0.81
						C51.98,0.81,3.39,6.97,10.69,9.48z"/>
					<path d="M9.07,283.16c-0.01,0.48-0.02,0.92-0.03,1.47C9.06,284.07,9.07,283.61,9.07,283.16z"/>
					<path d="M109.24,427.72c-1.15,0.01-2.3,0.01-3.46,0.02C106.92,427.75,108.05,427.75,109.24,427.72z"/>
					<path d="M317.87,425.72l-4.37,0.06C315.39,425.77,316.76,425.75,317.87,425.72z"/>
					<path d="M357.19,154.49c-0.42,1.66-1.19-6.94-1.55,0.44c-0.05,25.89,1.66,11.02,1.55,37.67l0.49-13.54
						c-0.75,0.72-1.17-8.76-1.23-19.14l0.55-3.17c0.16,1.78,0.29,3.68,0.41,5.65C357.47,158.48,357.03,159.22,357.19,154.49z"/>
					<path d="M357.38,163.37c0.01-0.19,0.03-0.44,0.04-0.64c-0.01-0.1-0.01-0.22-0.02-0.34
						C357.4,162.72,357.39,162.99,357.38,163.37z"/>
				</g>
			</g>
		</g>
	</g>
</g>
<g>
	<rect x="17.87" y="35.34" class="at1" width="326.09" height="369.61"/>
	<g>
		<g>
			<g>
				<g>
					<polygon points="16.86,35.28 16.54,36.6 16.94,43.66 					"/>
					<path d="M16.49,107.63c0.35,6.48,0.56,18.85,1.23,19.06l-0.59-11.72c0.5-1.63,0.47-9.34,0.31-16.15l0.03,7.73
						c-0.07-1.99-0.38-0.72-0.45-2.72c0.26-11.82-0.43-14.84,0.12-25.76l0.05,0.62l-0.32-8.61c0.08-2.72,0.31-1.64,0.4-0.77
						c-0.26-7.68-0.54-13.51-0.5-23.92c-0.91,8.07,0.7,22.86-0.21,30.89l-0.05-0.61C16.84,85.72,16.25,97.41,16.49,107.63z"/>
					<path d="M17.27,69.3c0.01,0.23,0.02,0.45,0.02,0.67C17.32,69.93,17.31,69.63,17.27,69.3z"/>
					<path d="M99.2,406.9l0.42-0.14C99,406.81,98.42,406.86,99.2,406.9z"/>
					<path d="M17.67,358.85c-0.01,0.21-0.01,0.41-0.02,0.62C17.85,360.28,17.8,359.85,17.67,358.85z"/>
					<path d="M265.85,33.62l-2.49-0.21C263.98,33.61,264.86,33.65,265.85,33.62z"/>
					<path d="M94.78,33.39c-0.09,0-0.18,0.01-0.26,0.01C94.6,33.39,94.71,33.39,94.78,33.39z"/>
					<path d="M172.69,36.24l0.34,0.18C173.35,36.32,173.17,36.27,172.69,36.24z"/>
					<path d="M117.45,36.59c-1.54-0.05-3.05-0.08-4.6-0.09C113.91,36.6,115.85,36.63,117.45,36.59z"/>
					<path d="M96.45,33.31c-0.51,0.02-1.09,0.05-1.68,0.08C95.42,33.37,96.05,33.35,96.45,33.31z"/>
					<path d="M255.8,36.62l2.15,0.48C257.92,36.94,256.82,36.78,255.8,36.62z"/>
					<path d="M103.81,36.97c-0.77-0.09-1.8-0.14-2.89-0.17C101.46,36.89,102.41,36.96,103.81,36.97z"/>
					<path d="M16.52,118.86c-0.01-1.57-0.01-3.35-0.07-5.5C16.41,115.4,16.45,117.19,16.52,118.86z"/>
					<path d="M342.26,258.7c-0.05-0.43-0.11-0.77-0.18-0.99C342.12,258.94,342.19,259,342.26,258.7z"/>
					<path d="M342.42,76.21l-0.02-0.6c-0.02,0.16-0.05,0.38-0.08,0.76L342.42,76.21z"/>
					<path d="M342.47,129.49c-0.03-0.26-0.07-0.5-0.1-0.71C342.41,129.29,342.44,129.43,342.47,129.49z"/>
					<path d="M341.93,37.56c-0.01-0.01-0.03-0.01-0.04,0c-0.06,0.03-0.11,0.07-0.13,0.12c0.02-0.04,0.06-0.08,0.13-0.12
						C341.9,37.56,341.91,37.56,341.93,37.56z"/>
					<path d="M306.05,37c1.73,0.17-0.12,0.33-1.95,0.49c9.62,0.23,12.81-0.36,22.8,0.06l-4.69-0.24c2.84-0.15,6.74-0.25,10.7-0.28
						c1.98-0.01,3.98-0.01,5.88,0.02c0.95,0.02,1.87,0.04,2.75,0.06c0.29,0.01,0.24,0.01,0.31,0.02l0.14,0.02
						c0.09,0.02,0.17,0.03,0.23,0.05c-0.04,0.25-0.09,0.33-0.14,0.55c-0.05-0.2-0.1-0.17-0.16-0.2c0.02,0.01,0.04,0.04,0.06,0.08
						l0.01,0.03l0.01,0.02l0,0.01l0,0.08c0.01,0.21,0.01,0.42,0.02,0.64c0.02,0.86,0.02,1.75,0.02,2.66
						c-0.01,1.81-0.05,3.68-0.1,5.44c-0.09,3.51-0.19,6.59-0.03,7.9c0.21-2.52,0.33,0.11,0.53-3.8l0.39,15.63l-0.65,1.17l0.21,8.21
						c0.26-2.02-0.21,11.01,0.4,11.22c-0.24,4.68-0.49-1.93-0.74-3.6c0.19,4.63-0.09,5.12,0.28,9.42l-0.57,4.58l0.4,12.05
						c-0.05-0.61-0.09,0.14-0.15-0.44c0.48,5.51-0.29,13.99,0.54,21.01c-0.03-0.36-0.06-0.26-0.09-0.36
						c0.45,3.84,0.12,13.33,0.02,16.8c0.11,6.22,0.54,2.58,0.78,2.84c-0.15,18.02-0.11,12.27,0.55,27.4
						c-0.71,9.05-1.14-10.7-1.64,0.81c0.34,1.54,0.61,9.53,0.75,18.54c-0.25,8.25-0.44,22.06-0.93,30.04l0.46-0.82l0.25,11.59
						l-0.68-6.59c0.16,1.85,0.45,7.68,0.68,11.55c0.4,12.04-1.02,6.83-0.31,16.18c-0.05,0.36-0.1,0.68-0.15,0.88
						c0.36,3.01,0.22,10.92,0.35,20.01l-0.6-3.17l0.13-5.9c-0.58,3.18,0.1,9.76,0.06,15.5c0.2,6,0.69,3.02,0.86,6.23
						c-0.03,2.17,0.15,5.41-0.02,7.14c-0.18,5.28-0.7,0.56-0.96-1.1c0.61,4.57,0.53,6.14,0.77,16.32c-0.29,0.54-0.42-0.2-0.47-1.55
						c0.07,2.15,0.2,4.01,0.46,5.12l-0.34,3.46c-0.5,11.58,1.1,11.48,0.91,25.32c-0.32-3.7,0.07,11.93-0.31,16.18
						c-0.09-4.8-0.87,2.3-1.23-0.61c-0.22,11.06,0.7,4.41,0.84,13.37l-0.74-3.62c0.32,8.63,0.4,2.1,0.63,10.92
						c-0.21-2.43-0.2,3.91-0.44-1.32c-0.06,11.49-0.05,8.5-0.1,18.62l0.72,0.83c0.01,0.58,0.02,1.1,0.01,1.57
						c-0.01,0.23-0.01,0.45-0.02,0.66c-0.01,0.17-0.02,0.22-0.03,0.33c-0.04,0.36-0.11,0.58-0.18,0.71
						c-0.24-0.06-0.41-0.12-0.53-0.16c0.11,0,0.24,0,0.37-0.01c0-0.46,0-0.85-0.08-0.87c-0.13,0.34-0.19,0.41-0.21,0.58
						c-0.17-0.02-0.3,0-0.46,0.03l-0.06,0.01l-0.23,0.01l-0.5,0.03c-0.33,0.02-0.67,0.03-1.02,0.05c-1.38,0.06-2.86,0.08-4.67-0.15
						c1.13,0.23,2.41,0.54-1.78,0.58c1.34-0.44-6.42-0.41-6.73-0.59c2.66,0.3-8.98,0.14-9.54,0.61c-4.85-0.33,1.52-0.35,1.79-0.58
						c-3.97,0.56-16.92,0.07-20.59,0.39c-0.08-0.04-0.28-0.08-0.27-0.1c-5.12,0.34-13.61,0.42-23.79,0.91l3.5-0.41
						c-10.28-0.18-6.24,0.86-14.77,0.85c1.79-0.58-14.11,0.04-10.31-0.61c-5.08,0.33-10.5,0.48-13.82,0.99
						c-4.85-0.33,9.2-0.8,2.5-0.97l-7.23,0.31l-1.3-0.32c-0.29,0.24-6.64,0.25-6.31,0.44c-1.13-0.38-4.04-0.65-3.72-0.94
						c-4.58,0.11-11.02-0.25-14.84,0.08l-0.34-0.19c-4.4,0.7-13.93,0.14-16.15,0.87l-2.84-0.4c-6.97,0.07-5.64,0.81-8.88,0.98
						c-2.79,0.03-6.2,0.11-9.14,0.04c9.09-0.47-4.58-0.57-6.48-0.83c-3.58-0.01-14.11,0.04-17,0.4c4.3-0.37,1.62-0.68,9.37-0.71
						c-4.15-0.71-11.77,0.16-20.46,0.06l0.09-0.33c-12.37,0.22-12.75,0.79-18.1,1.36c-1.46-0.41-0.24-0.52,3.27-0.93
						c-8.24-0.25-21.26,0.02-30.56-0.03c-2.93-0.29-1-0.46,2.08-0.59c-9.6,0.31-21.47-0.08-27.51,0.65
						c2.37-0.29-3.86-0.19-7.41-0.33c0,0.15-0.68,0.34-1.1,0.32c-5.87,0.29-18.85,0.56-25.72,0.3l2.48-0.21
						c-3.12-0.02-5.9,0-8.47,0.06c-2.56,0.06-5.05,0.14-7.03,0.24c-0.07-1.71-0.14-3.39-0.21-5.1c-0.05-1.8-0.11-3.64-0.16-5.58
						c-0.08-3.88-0.08-8.18,0.09-13.42c0.16-3.11,0.6,3.2,0.58-3.16c-0.27-3.08-0.82-2.07-0.67-10.14l0.48,0.55l-0.48-5.5
						c-0.4,2.83-0.26,11.82-0.7,5.53c0.45-7.22-0.44-6.3,0.09-15.07c0.05,2.03,0.41,4.68,0.6,6.12c0.57-18.39-0.46-25.74,0.15-44.36
						c-0.37-9.27-0.44-21.2-0.79-27.63c0.48,0.53,0.9,0.47,1.27,4.76c0.06-7.92-1.01-11.64-0.31-17.17
						c-0.65-3.8-0.41-21.98-1.32-23.87c0.19-0.33,0.01-8.53,0.52-0.23c-0.3-10.81,0.8-14.23,0.8-19.18
						c-0.03-2.78-0.58,3.18-0.6-3.17c0.04-0.78,0.13-0.96,0.17-1.75l-0.21-2.43c0.21-2.52,0.45,2.75,0.69,3
						c0.2-8.88-0.52-14.66-0.58-25.17l0.16,1.8l0.04-10.69l0.05,0.61l-0.32-8.63l0.24,0.26c-0.07-1.99-0.21-2.46-0.24-5.24
						l0.29,0.89c-0.45-2.74-0.69-12.92-0.7-17.9l0.13-0.95l-0.59-11.71c0.32-6.24,0.69,7.97,0.48-4.41l0.6,3.18
						c-0.23-8.8,0.09-10.11-0.11-16.12c-0.3,2.72-0.26,6.89-0.53,3.8c0.69-6.92-0.17-11.04-0.45-17.68c0.01,3.37,0,5.65,0.35,7.94
						c-0.01,3.56-0.32,1.28-0.35,3.47l0.33,5.05l-0.41,1.44l0.32,8.65c-0.48-0.54-0.06,7.95-0.57,4.57c0.2,6.04-0.14,9.5,0.34,15.01
						c-0.29,4.09-0.35-6.46-0.4-2.12c0.38,24.15,0.29,49.12,0.12,74.27l-0.21-2.44c0.18,2.45,0.41,5.67,0.55,7.5
						c-0.38,4.27-0.88,20.75-0.16,26.55c-0.04,0.8-0.15-0.45-0.2-1.06c0.08,8.38-0.43,23.47-0.36,35.39
						c0.76,5.04-0.48,17.93,0.55,22.44l-0.21-2.47c0.29-4.06,0.72,5.79,0.97,7.46c-0.68,3.35-0.52,0.23-1.14,4.22l0.24-4.73
						l-0.56,1.04c1.42,15.14-0.67,28.19,0.37,37.61c-0.05-0.57-0.15-0.43-0.2-1.04c-0.32,6.26,0.39,10.67,0.57,15.27
						c-0.28,0.53-0.45-2.75-0.66-5.16c-0.07,3.58-0.04,7.95,0.02,12.63c0.03,2.34,0.07,4.76,0.1,7.2c0.03,3.04,0.06,6.1,0.09,9.11
						c3.23,0,6.4-0.01,9.42-0.01c2.45,0.02,4.77,0.06,6.9,0.14c4.28-0.37-1.62-0.5,2.84-0.78c3.75,0.11,6.41,0.41,1.79,0.6
						c10.5,0.7,34.67-0.44,50.75,0.21c8.46-0.41,3.18-0.6,16.16-0.87c-3.04,0.27,3.08,0.91-4.66,0.94l-0.91,0.29
						c12.9,0.06,30.11,0.18,37.15-0.65c0.41,0.61,2.34,0.12,7.21,0.45c1.98-0.07-0.18-0.09-0.98-0.13
						c4.74-0.52,7.15,0.02,10.54-0.06l-1.2,0.11l9.27-0.37c1.54,0.08,3.86,0.2,4.19,0.38l-0.05-0.42c4.98,0,2.41,0.54,8.62,0.43
						l-1.31-0.32c3.93,0.2,10.23-0.24,11.05,0.22c0.17,0.09-0.61,0.05-2.01,0.07c6.16,0.65,15.94-0.2,23.57,0.1l-1.95-0.69
						c7.42-0.21,4.54,0.14,4.26,0.38c4.97,0,6.06,0.22,12.6,0.3c3.23-0.17,1.68-0.25,2.73-0.45l6.68,0.17l-4.29,0.37
						c10.27-1,25.77,0.12,32.62-0.79c3.9,0.2-3.49,0.41-1.16,0.53c12.18,0.45,27.2-0.64,37.36-0.13c7.79,0.23,16.12,0.25,24.69,0.24
						c4.28,0,8.62-0.01,12.97-0.01c5.01,0.03,10.03,0.06,15.03,0.08c0.02-1.72,0.03-3.43,0.05-5.13l-0.19,0.33l0.15-13.05
						c-0.41-3.52-0.22-12.39-0.7-17.9c0.15,0.45,0.37-0.71,0.48,0.54c-0.06-5.56-0.26-11.58,0-14.87l0.16,1.86
						c0.12-12.29,0.14-29.35-0.21-35.8c-0.04-4.2,0.29-4.1,0.52-5.22c0.02-7.11-0.16-11.76-0.46-17.6c0.08-1.54,0.16-3.13,0.33-4.87
						l-0.45-2.7c0.06-2.97,0.37-0.69,0.49-3.04c-0.53-11.08-0.05-24.01-0.08-31.79l-0.22,1.11c-0.17-3.22,0.14-9.47,0.37-5.64
						c0.27-15.39-0.7-22.83-0.57-43.63c0.82-2.9-0.23-18.75,0.68-21.81c-0.23-8.79,0.14-14.44-0.39-20.57
						c0.09-0.18,0.13-0.94,0.15,0.45c0.34-3.48,0.09-15.06-0.14-23.87l0.28-0.49c-0.6-3.18-0.42-18.4-1.01-21.57
						c0.13-0.97,0.25,1.68,0.36,2.92c0.57-4.61-0.27-8.04-0.14-13.96c0.15,0.45,0.32-1.29,0.42-0.05
						c0.33-9.83,0.22-21.88,0.09-34.68c-0.05-6.4-0.11-12.99-0.17-19.57c0-3.29,0-6.59,0-9.86c0.04-3.5,0.07-6.98,0.1-10.41
						c0-1.01,0-1.83-0.01-2.43c-3.8,0.03-2.39,0.19-2.05,0.33c0.18,0.07,0.13,0.14-0.75,0.18c-0.37,0.01-0.93,0.03-1.74,0.05
						c-0.62,0-1.44,0.01-2.51,0.01c-2.69-0.3,4.56-0.61-1.35-0.74c-4.29,0.37-5.86,0.29-11.59,0.26c1.04-0.2,0.1-0.33,4.13-0.47
						c-3.31-0.25-14.05,0.47-20.64-0.03c0.33,0.18-0.88,0.29-2.1,0.4c-9.71,0.52-22.26-0.53-23.16-0.24c0,0-3.39,0.08-0.45,0.15
						c-3.57-0.01-8.69-0.1-7.8-0.4c-1.86,0.16-3.49,0.41-6.31,0.44l1.52-0.35c-1.62,0.07-3.49,0.29-5.08,0.33l2.52,0.21
						c-4.08-0.29-12.08,0.4-11.84-0.26l1.39-0.01l-7.63-0.3c-3.05,0.27-6.14,0.53-11.25,0.44c-1.97-0.69-13.06-0.15-19.58-0.23
						l0.29-0.24c-5.1,0.33-18.16,0.18-15.79,0.3c-4.96,0-11.66-0.17-9.2-0.38c-4.03,0.13-12.56,0.12-14.68,0.52l-8.11-0.58
						c-4.87,0.85-16.21-0.31-16.69,0.59c-4.52-0.14-3.47-0.34-6.6-0.5c-6.29,0.44-12.79,0.36-19.33,0.29l-0.17-0.09
						c-6.53-0.08-14.21,0.38-23.36,0.42l-1.93-0.69c-4.8,0.1-5.97,0.63-10.52,0.48c-1.06-0.11-0.05-0.14,1.16-0.18
						c-4.47,0.14-10.52-0.04-13.9-0.21c-6.91,0.49-12.21,0.31-18.31,0.84c-5.37-0.61,8.02-0.27,3.41-0.84
						c-9.82-0.33-19.85,0.01-30.66,0.3c-0.93-0.13,0.28-0.24,0.73-0.38c0,0-21.94,1.64-17.85,2.3c-2.71,0.45-5.79,0.72,3.44,1.1
						c3.06-0.27,11.72-0.59,13.34-0.08l0.54-0.48c12.36-0.22,1.08,0.98,15.96,0.97l-3.13-0.16c2.8-0.03,5.06-0.33,8.21-0.17
						c0.95,0.13-1.07,0.2-2.29,0.31l12.31-0.64c0.52,0.28,0.05,0.42-2.4,0.64c11.31-0.02-2.28-0.87,11.54-0.68
						c2.5,0.21-0.89,0.29-2.71,0.45c6.4,0.41,10.7,0.04,17.31-0.22c0.09,0.43-4.27,0.37,1.18,0.65c-1.09-0.22-1.78-0.6,2.41-0.64
						c-2.03,0.43,3.19,0.23,7.27,0.34c-0.83-0.15-0.52-0.35,1.09-0.42c2-0.07,3.72,0.1,6.52,0.08l-5.01-0.42
						c7.04-0.4,11.03,0.22,16.37,0.41c-0.44,0.08-1.36,0.13-2.43,0.16c5.64,0.18,11.44,0.52,18.57,0.16l-0.61,0.05
						c13.43-0.42-4.14-0.71,11.48-1.1c5.14,0.09-2.46,1.39,9.41,0.9c-5.62-0.37,7.66-0.88,14.43-1.04l-7,0.82
						c2.73,0.01,7.46-0.22,8.96-0.13l-0.34-0.19c-0.52-0.7,8.74,0.1,13.65-0.32c-6.09,0.96-6.43,0.77-7.55,1.73
						c4.76-0.52,10.25-1,18.96-0.89l-7.17,0.73c11.62,0.17,25.29-0.91,34.83-1.52c-2.57,0.54,1.35,0.74-2.81,1.21l11.16-0.11
						l-3.16,0.6c4.57-0.61,9.58-0.19,8.83-0.98c-1.21,0.11-1.06,0.2-3.22,0.17c0.27-0.24,2.21-0.73,7.98-0.69
						c3.89,0.2-2.29,0.31-1.2,0.53c3.71-0.32,3.93,0.2,7.77-0.03l-3.44-0.34c2.71-0.45,6.38-0.02,10.17-0.24
						c-4.57,0.19-3.07,0.46-1.36,0.74l-0.25-0.06c2.77-0.03,6.45-0.35,8.37-0.08l-2.37,0.64l4.11-0.46c1.55,0.08,2.66,0.3,0.04,0.42
						c12.75,0.39-0.36-1.37,16.34-0.78c-0.28,0.24-2.11,0.4-6.64,0.26c-0.73,0.38,0.39,0.61,4.91,0.75
						c0.08,0.03,0.01,0.05,0.03,0.07C289.03,37.39,300.34,37.43,306.05,37z"/>
					<path d="M280.35,37.37c-4.64-0.01-8.56-0.01-10.38,0.08C270.85,37.58,280.59,37.77,280.35,37.37z"/>
					<path d="M92.82,403.61c0.59-0.02,1.16-0.04,1.71-0.06C93.94,403.57,93.37,403.59,92.82,403.61z"/>
					<path d="M55.96,403.79c0.4,0.07,1.1,0.11,1.94,0.14C57.9,403.8,57.43,403.71,55.96,403.79z"/>
					<path d="M342.39,312.02c0,0.05,0,0.1,0.01,0.16C342.4,312.12,342.39,312.06,342.39,312.02z"/>
					<path d="M227.4,403.28c-3.22,0.2-4.43,0.37-4.6,0.54C224.83,403.76,226.51,403.62,227.4,403.28z"/>
					<path d="M298.05,403.56c0.45-0.03,0.93-0.07,1.33-0.09C298.35,403.5,298.06,403.52,298.05,403.56z"/>
					<path d="M342.08,300.98c0.21,3.11,0.19,7.47,0.31,11.04C342.28,308.97,342.49,303.11,342.08,300.98z"/>
					<polygon points="18.22,398.15 18.54,401.84 18.31,397.97 					"/>
					<path d="M45.49,404.27c1.54,0.08,7.58-0.12,5.84-0.29C49.49,404.13,47.46,404.2,45.49,404.27z"/>
					<polygon points="177.36,404.62 178.83,404.27 175.78,404.54 					"/>
				</g>
			</g>
		</g>
	</g>
</g>
<g>
	<path class="at0" d="M84.46,151.47c0,1.14-0.21,2.24-0.64,3.3c-0.42,1.06-0.73,2.14-0.93,3.25c-0.72,0.94-1.38,1.92-2,2.93
		c-0.62,1.01-1.25,2.02-1.91,3.03c-0.65,1.01-1.34,1.98-2.05,2.9c-0.72,0.93-1.53,1.77-2.44,2.51c0.03,0.03,0.05,0.1,0.05,0.2
		c0,0.2-0.09,0.35-0.27,0.46c-0.18,0.11-0.24,0.25-0.17,0.42c-0.81,0.85-1.61,1.68-2.39,2.49c-0.78,0.81-1.5,1.72-2.15,2.73
		c-0.72,0.36-1.3,0.94-1.76,1.76c-0.2,0-0.34,0.04-0.44,0.12c-0.1,0.08-0.23,0.15-0.39,0.22c-1.04,1.27-2.13,2.47-3.27,3.61
		c-1.14,1.14-2.36,2.18-3.66,3.12c-0.49,0.36-0.98,0.68-1.47,0.98c-0.49,0.29-0.96,0.6-1.42,0.93c-0.29,0.19-0.58,0.42-0.85,0.68
		c-0.28,0.26-0.56,0.5-0.85,0.73c-0.94,0.81-1.87,1.49-2.78,2.03s-1.99,0.9-3.22,1.1c-0.1,0.36-0.15,0.75-0.15,1.17l0,1.17
		c0,0.39-0.02,0.79-0.05,1.2c-0.03,0.41-0.15,0.79-0.34,1.15v0.15c0,0.33,0.08,0.64,0.24,0.95c0.16,0.31,0.24,0.63,0.24,0.95
		c0,0.23-0.11,0.42-0.34,0.59l1.27,0c0,0.46,0.14,0.85,0.41,1.17c0.28,0.33,0.42,0.57,0.41,0.73c0,0.55-0.06,1.16-0.17,1.83
		c-0.11,0.67-0.45,1.11-1,1.34v0.29c0,0.33-0.03,0.64-0.1,0.95c-0.07,0.31-0.21,0.61-0.44,0.9c-0.2,0-0.38,0.01-0.56,0.02
		c-0.18,0.02-0.35,0.02-0.51,0.02c-1.37,0-2.59-0.33-3.66-0.98c-0.36-0.85-0.59-1.72-0.71-2.61c-0.11-0.9-0.17-1.8-0.17-2.71
		c0-1.79,0.13-3.56,0.39-5.32c0.26-1.76,0.47-3.52,0.64-5.27l0.73-1.42c0.07-0.91,0.18-1.83,0.34-2.76
		c0.16-0.93,0.33-1.85,0.49-2.76c0.16-0.91,0.3-1.82,0.42-2.73c0.11-0.91,0.16-1.82,0.12-2.73c0.26-0.55,0.45-1.14,0.56-1.76
		c0.11-0.62,0.17-1.22,0.17-1.81c0-0.33-0.02-0.65-0.05-0.98s-0.13-0.64-0.29-0.93c0.2-0.13,0.33-0.29,0.39-0.49
		c0.06-0.2,0.16-0.37,0.29-0.54c0.1-1.27,0.18-2.53,0.25-3.78c0.07-1.25,0.1-2.5,0.1-3.74c0-0.68-0.02-1.36-0.05-2.03
		c-0.03-0.67-0.08-1.34-0.15-2.03c-0.03-0.26-0.09-0.57-0.17-0.93c-0.08-0.36-0.12-0.63-0.12-0.83c0-0.26,0.02-0.53,0.05-0.81
		c0.03-0.28,0.05-0.56,0.05-0.85c0-0.33-0.03-0.64-0.1-0.95c-0.06-0.31-0.18-0.59-0.34-0.85c-1.56,0.46-2.96,1.07-4.2,1.83
		c-1.24,0.76-2.49,1.62-3.76,2.56c-0.52,0.36-1.09,0.78-1.71,1.27c-0.62,0.49-1.2,0.86-1.76,1.12c-0.1,0.07-0.22,0.11-0.37,0.12
		s-0.27,0.02-0.37,0.02c-0.36,0-0.68-0.02-0.98-0.07c-0.29-0.05-0.59-0.07-0.88-0.07c-0.46-0.46-0.99-0.81-1.61-1.08
		c-0.1-0.39-0.15-0.81-0.15-1.27c0-0.46,0.04-0.9,0.12-1.32c0.08-0.42,0.2-0.85,0.37-1.27c0.39-0.13,0.81-0.28,1.25-0.44
		s0.86-0.35,1.27-0.56c0.41-0.21,0.77-0.46,1.1-0.73s0.59-0.63,0.78-1.05c0.2,0.1,0.37,0.15,0.54,0.15c0.16,0,0.31-0.02,0.44-0.05
		c0.13-0.03,0.28-0.06,0.44-0.1c0.59-0.36,1.18-0.73,1.78-1.12c0.6-0.39,1.23-0.72,1.88-0.98c0.2-0.06,0.31-0.15,0.34-0.24
		c0.03-0.1,0.03-0.24,0-0.44c0.75-0.23,1.53-0.5,2.34-0.8c0.81-0.31,1.5-0.74,2.05-1.29h0.88c0.49-0.36,1.01-0.65,1.56-0.88
		c0.55-0.23,1.11-0.45,1.68-0.66c0.57-0.21,1.13-0.44,1.69-0.68c0.55-0.24,1.07-0.56,1.56-0.95c0.2-0.06,0.36-0.1,0.49-0.1
		c0.16,0,0.34,0.03,0.54,0.1c0.33-0.16,0.6-0.36,0.83-0.59l0.78-0.78c0.52,0,0.99-0.05,1.42-0.15c0.42-0.1,0.83-0.23,1.22-0.39
		c0.39-0.16,0.77-0.35,1.15-0.56c0.37-0.21,0.79-0.43,1.25-0.66c0.2,0.07,0.34,0.14,0.44,0.22s0.26,0.12,0.49,0.12
		c0.33-0.23,0.68-0.4,1.05-0.51c0.37-0.11,0.76-0.2,1.15-0.27s0.77-0.15,1.15-0.24c0.37-0.1,0.71-0.28,1-0.54
		c1.04,0,2.09-0.02,3.15-0.07c1.06-0.05,2.11-0.07,3.15-0.07c1.5,0,3.02,0.12,4.57,0.34c1.55,0.23,2.94,0.8,4.17,1.71
		c0.49,1.17,1.19,2.17,2.1,2.98c0.06,0.36,0.14,0.69,0.22,1c0.08,0.31,0.19,0.61,0.32,0.9c-0.23,0.49-0.34,1.03-0.34,1.61
		c0,0.59,0.06,1.16,0.17,1.73C84.4,150.35,84.46,150.92,84.46,151.47z M79.92,150.25c-0.16-0.29-0.27-0.63-0.32-1
		c-0.05-0.37-0.06-0.74-0.02-1.1c-0.42-0.33-0.75-0.75-0.98-1.27s-0.55-0.91-0.98-1.17c-0.29-0.16-0.71-0.26-1.25-0.29
		s-0.98-0.1-1.34-0.2c-0.42-0.13-0.71-0.26-0.85-0.39c-0.15-0.13-0.45-0.2-0.9-0.2c-0.39,0-0.78,0.04-1.17,0.12
		c-0.39,0.08-0.78,0.12-1.17,0.12c-0.33,0-0.63-0.06-0.93-0.2c-0.29-0.13-0.6-0.2-0.93-0.2c-0.36,0-0.69,0.11-1,0.34
		c-0.31,0.23-0.68,0.29-1.1,0.19c-0.2,0.16-0.3,0.3-0.32,0.39c-0.02,0.1-0.04,0.17-0.07,0.22c-0.03,0.05-0.11,0.07-0.24,0.07h-0.68
		c-0.68,0-1.38,0.1-2.08,0.29c-0.7,0.2-1.33,0.52-1.88,0.98c-0.1-0.03-0.19-0.06-0.27-0.07c-0.08-0.02-0.17-0.02-0.27-0.02
		c-0.55,0-1.08,0.16-1.59,0.47c-0.5,0.31-1.07,0.47-1.69,0.47c-0.39,0.39-0.86,0.71-1.42,0.94c-0.55,0.23-1.12,0.45-1.69,0.66
		c-0.57,0.21-1.1,0.46-1.59,0.74c-0.49,0.28-0.86,0.68-1.12,1.21c-0.03,0.26,0.05,0.42,0.24,0.49c0.2,0.07,0.29,0.23,0.29,0.49
		c0,0.23-0.04,0.5-0.12,0.83c-0.08,0.33-0.12,0.65-0.12,0.98c0,0.75,0.08,1.48,0.24,2.2c0.16,0.72,0.32,1.45,0.49,2.2
		c-0.16,0.1-0.28,0.24-0.34,0.44c-0.07,0.2-0.18,0.34-0.34,0.44c0.46,1.37,0.68,2.77,0.68,4.2c0,1.14-0.12,2.25-0.37,3.34
		c-0.24,1.09-0.42,2.21-0.51,3.34l0,0.05c0,0.2,0.06,0.33,0.2,0.39c0.13,0.07,0.2,0.18,0.2,0.34c0,0.1-0.02,0.18-0.05,0.24
		c-0.36,2.21-0.71,4.43-1.05,6.64s-0.63,4.44-0.86,6.69h0.39c0.85,0,1.6-0.25,2.27-0.76c0.67-0.5,1.23-1.07,1.69-1.69h0.78
		c2.34-2.05,4.6-4.17,6.77-6.35c2.17-2.18,4.23-4.53,6.18-7.04c0.26,0,0.44-0.06,0.54-0.19s0.26-0.23,0.49-0.29
		c0.68-0.94,1.4-1.88,2.15-2.81c0.75-0.93,1.56-1.82,2.44-2.66c0.03-0.33,0.12-0.62,0.27-0.88c0.15-0.26,0.3-0.51,0.46-0.73
		c0.16-0.23,0.31-0.47,0.44-0.73c0.13-0.26,0.2-0.57,0.2-0.93c0.16-0.06,0.34-0.14,0.54-0.22c0.2-0.08,0.37-0.2,0.54-0.37
		c0.06-0.33,0.18-0.62,0.34-0.88c0.16-0.26,0.24-0.55,0.24-0.88c0-0.13-0.03-0.29-0.1-0.49c0.52-0.23,0.93-0.6,1.22-1.12
		c0.29-0.52,0.52-1.1,0.68-1.74c0.16-0.64,0.29-1.28,0.37-1.93C79.63,151.31,79.76,150.74,79.92,150.25z"/>
	<path class="at0" d="M144.07,187.19c-0.07,0.49-0.24,0.86-0.51,1.12c-0.28,0.26-0.59,0.5-0.95,0.73c-0.16-0.03-0.32-0.06-0.46-0.07
		c-0.15-0.02-0.3-0.02-0.46-0.02c-1.01-0.03-1.96,0.1-2.86,0.39s-1.81,0.5-2.76,0.63c-0.33,0.06-0.63,0.09-0.91,0.07
		c-0.28-0.02-0.56,0.01-0.85,0.07c-1.04,0.16-2.15,0.29-3.32,0.39c-1.17,0.1-2.34,0.22-3.52,0.36s-2.32,0.32-3.44,0.54
		c-1.12,0.21-2.17,0.51-3.15,0.9c-0.1-0.06-0.2-0.14-0.29-0.22c-0.1-0.08-0.21-0.12-0.34-0.12c-0.33,0-0.63,0.05-0.93,0.15
		c-0.29,0.1-0.59,0.13-0.88,0.1c-0.33,0.2-0.68,0.33-1.05,0.41c-0.38,0.08-0.75,0.15-1.12,0.19s-0.74,0.12-1.1,0.22
		c-0.36,0.1-0.7,0.28-1.03,0.54c-0.26-0.13-0.58-0.2-0.95-0.22s-0.63-0.14-0.76-0.37c-0.75,0.36-1.54,0.59-2.37,0.68
		s-1.67,0.13-2.51,0.1c-0.55-0.03-1.19-0.11-1.9-0.25c-0.72-0.13-1.43-0.32-2.15-0.56c-0.72-0.24-1.38-0.54-2-0.88
		c-0.62-0.34-1.09-0.76-1.42-1.25c-0.23-0.33-0.39-0.68-0.49-1.07c-0.1-0.39-0.33-0.68-0.68-0.88c0.1-0.75,0.21-1.48,0.34-2.2
		c0.13-0.72,0.26-1.45,0.39-2.2c0.65-0.55,1.27-1.14,1.86-1.76c0.59-0.62,1.14-1.27,1.66-1.95c0.62-0.29,1.2-0.65,1.73-1.07
		c0.54-0.42,1.07-0.85,1.61-1.29c0.54-0.44,1.07-0.87,1.61-1.29c0.54-0.42,1.12-0.8,1.73-1.12c0.1-0.23,0.24-0.42,0.42-0.56
		s0.37-0.29,0.56-0.44c0.2-0.15,0.37-0.31,0.54-0.49c0.16-0.18,0.28-0.4,0.34-0.66c1.14-0.68,2.13-1.54,2.98-2.59
		c0.85-1.04,1.4-2.21,1.66-3.52c-0.55-0.46-1.18-0.76-1.88-0.9c-0.7-0.15-1.42-0.25-2.17-0.32c-0.65-0.03-1.33-0.03-2.03,0
		c-0.7,0.03-1.41,0.02-2.12-0.05c-0.72,0.23-1.46,0.37-2.22,0.44c-0.77,0.07-1.52,0.12-2.27,0.17c-0.75,0.05-1.49,0.15-2.22,0.29
		c-0.73,0.15-1.44,0.41-2.12,0.8c-0.13,0-0.25-0.02-0.37-0.05c-0.11-0.03-0.24-0.05-0.37-0.05c-1.04-0.03-2.02,0.17-2.93,0.61
		c-0.91,0.44-1.81,0.87-2.69,1.29c-0.07,0.13-0.1,0.23-0.1,0.29c0,0.2,0.04,0.38,0.12,0.56c0.08,0.18,0.12,0.37,0.12,0.56
		c-0.03,0.03-0.05,0.07-0.05,0.1c0,0.03-0.02,0.07-0.05,0.1c-0.03,0.16-0.07,0.31-0.12,0.44s-0.11,0.28-0.17,0.44
		c-0.36,1.04-0.55,2.07-0.59,3.08c-0.03,0.85-0.03,1.68,0,2.49c0.03,0.81,0.03,1.64,0,2.49c-0.07,1.04-0.23,2.02-0.49,2.93
		c0.16,0.78,0.31,1.6,0.44,2.47c0.13,0.86,0.29,1.72,0.49,2.56c0.2,0.85,0.43,1.67,0.71,2.47c0.28,0.8,0.64,1.55,1.1,2.27
		c-0.03,0.07-0.02,0.11,0.05,0.15c0.06,0.03,0.13,0.05,0.2,0.05h0.39c0.16,0,0.23,0.07,0.2,0.2c0.06,0.1,0.11,0.19,0.15,0.27
		c0.03,0.08,0.1,0.15,0.2,0.22c0.06,0.1,0.06,0.23,0,0.39c-0.03,0.65-0.2,1.25-0.49,1.81c-0.29,0.55-0.47,1.16-0.54,1.81
		c-0.39,0.1-0.75,0.15-1.07,0.15c-0.55-0.03-1.04-0.19-1.46-0.46c-0.42-0.28-0.81-0.61-1.17-1c-0.36-0.39-0.7-0.79-1.02-1.2
		s-0.68-0.76-1.07-1.05c-0.23-0.91-0.45-1.92-0.66-3.03c-0.21-1.11-0.56-2.05-1.05-2.83c0.13-0.29,0.2-0.65,0.2-1.07
		c0.03-0.65-0.02-1.29-0.17-1.93c-0.15-0.64-0.19-1.28-0.12-1.93c0-0.36,0.04-0.72,0.12-1.07c0.08-0.36,0.14-0.72,0.17-1.07
		c0.03-0.55-0.02-1.09-0.17-1.61c-0.15-0.52-0.2-1.06-0.17-1.61c0.03-0.26,0.09-0.51,0.17-0.76s0.2-0.46,0.37-0.66
		c-0.16-0.39-0.21-0.76-0.15-1.12c0.03-0.55,0.1-1.07,0.2-1.56c0.1-0.49,0.16-0.98,0.2-1.46c0-0.26-0.02-0.51-0.05-0.76
		c-0.03-0.24-0.08-0.48-0.15-0.71l-0.44-0.15c-0.2,0-0.38,0.05-0.56,0.15c-0.18,0.1-0.33,0.21-0.46,0.34
		c-0.13,0.13-0.24,0.24-0.34,0.32c-0.1,0.08-0.2,0.12-0.29,0.12c-0.07,0-0.14-0.01-0.22-0.02c-0.08-0.02-0.15-0.02-0.22-0.02
		c-0.07,0-0.19,0.07-0.37,0.19c-0.18,0.13-0.39,0.27-0.63,0.42c-0.24,0.15-0.48,0.29-0.71,0.44c-0.23,0.15-0.41,0.24-0.54,0.27
		c-0.36-0.06-0.64-0.19-0.85-0.37c-0.21-0.18-0.41-0.36-0.59-0.54c-0.18-0.18-0.37-0.34-0.56-0.49s-0.44-0.2-0.73-0.17
		c-0.1-0.2-0.15-0.41-0.17-0.64c-0.02-0.23-0.01-0.46,0.02-0.68l0-0.78c0.23-0.42,0.53-0.77,0.9-1.05c0.37-0.28,0.77-0.51,1.2-0.71
		l1.27-0.59c0.42-0.19,0.81-0.44,1.17-0.73l0.44,0c0.59,0.03,1.1-0.08,1.54-0.34c0.44-0.26,0.85-0.56,1.25-0.9
		c0.39-0.34,0.79-0.69,1.2-1.05c0.41-0.36,0.85-0.63,1.34-0.83c0.36,0.16,0.73,0.3,1.12,0.42c0.39,0.11,0.8,0.19,1.22,0.22
		c0.42,0,0.86-0.06,1.32-0.19c0.46-0.13,0.81-0.37,1.07-0.73c0.16,0.07,0.3,0.11,0.42,0.12c0.11,0.02,0.25,0.02,0.42,0.02
		c0.49,0.03,0.98-0.04,1.47-0.22c0.49-0.18,0.96-0.4,1.42-0.66c0.65,0.03,1.29-0.01,1.93-0.12s1.27-0.24,1.9-0.37
		c0.64-0.13,1.27-0.25,1.9-0.37c0.63-0.11,1.28-0.15,1.93-0.12c1.07,0.03,2.13-0.06,3.17-0.29c1.04-0.23,2.1-0.31,3.17-0.24
		c0.75,0.03,1.49,0.09,2.22,0.17s1.47,0.11,2.22,0.07c0.42,0.2,0.8,0.37,1.15,0.51c0.34,0.15,0.77,0.19,1.29,0.12
		c1.04,0.88,1.98,1.9,2.83,3.08v0.83c-0.03,0.75-0.17,1.48-0.39,2.2c-0.23,0.72-0.5,1.42-0.81,2.12c-0.31,0.7-0.64,1.38-1,2.05
		c-0.36,0.67-0.7,1.33-1.03,1.98c-2.12,1.92-4.23,3.82-6.35,5.71c-2.12,1.89-4.3,3.71-6.55,5.47c-0.07,0.33-0.16,0.62-0.27,0.88
		c-0.11,0.26-0.19,0.54-0.22,0.83c0,0.16,0.02,0.29,0.05,0.39c0.23,0.07,0.43,0.19,0.61,0.37c0.18,0.18,0.24,0.42,0.17,0.71h0.44
		c0.16,0,0.24,0.07,0.24,0.2l0.78,0.05c1.24,0.07,2.47,0.03,3.71-0.1c1.24-0.13,2.48-0.28,3.73-0.44c1.25-0.16,2.5-0.32,3.74-0.46
		c1.24-0.15,2.47-0.23,3.71-0.27c0.29-0.1,0.6-0.18,0.93-0.24c0.32-0.06,0.62-0.19,0.88-0.39h0.15c0.23,0,0.4,0.07,0.51,0.2
		c0.11,0.13,0.29,0.21,0.51,0.24c0.16,0,0.33-0.03,0.51-0.1s0.37-0.11,0.56-0.15c0.46-0.13,0.94-0.21,1.44-0.24
		c0.5-0.03,1-0.08,1.49-0.15c1.89-0.16,3.76-0.27,5.62-0.32c1.86-0.05,3.71-0.28,5.57-0.71c0.16,0.23,0.39,0.38,0.68,0.46
		c0.29,0.08,0.6,0.16,0.93,0.24c0.32,0.08,0.62,0.17,0.9,0.27S143.97,186.89,144.07,187.19z"/>
	<path class="at0" d="M161.11,167.42c-0.2,0.29-0.31,0.62-0.34,0.98c-0.03,0.36-0.05,0.68-0.05,0.98c0,0.39,0.01,0.77,0.02,1.15
		c0.02,0.38,0.02,0.74,0.02,1.1v0.73c-0.07,0.23-0.16,0.46-0.29,0.68c-0.13,0.23-0.23,0.46-0.29,0.68c-0.46,1.2-0.68,2.41-0.68,3.61
		v0.1c-0.16,0.39-0.32,0.75-0.46,1.07c-0.15,0.33-0.29,0.64-0.42,0.95c-0.13,0.31-0.23,0.63-0.29,0.98
		c-0.07,0.34-0.08,0.74-0.05,1.2c-0.46,1.14-1.06,2.17-1.81,3.1c-0.75,0.93-1.48,1.88-2.2,2.86c-0.68,0.26-1.31,0.6-1.88,1.02
		c-0.57,0.42-1.12,0.9-1.64,1.42c-1.01,0.33-2,0.7-2.98,1.12s-1.86,0.99-2.64,1.71c-0.62,0.07-1.24,0.16-1.86,0.29
		c-0.62,0.13-1.22,0.33-1.81,0.58h-0.59c-0.29,0-0.5-0.07-0.63-0.2c-0.42,0.23-0.86,0.38-1.32,0.46c-0.46,0.08-0.91,0.12-1.37,0.12
		c-0.59,0-1.16-0.04-1.73-0.12c-0.57-0.08-1.15-0.17-1.73-0.27c-0.33-0.46-0.78-0.81-1.37-1.05c-0.59-0.24-1.11-0.48-1.56-0.71
		c-0.94-1.3-1.63-2.56-2.05-3.79c-0.42-1.22-0.86-2.6-1.32-4.13c0.07-0.46,0.18-0.9,0.34-1.34s0.23-0.92,0.2-1.44
		c0.59-1.69,1.36-3.23,2.32-4.61c0.96-1.38,2.06-2.71,3.3-3.98c0-0.2,0.04-0.36,0.12-0.49c0.08-0.13,0.09-0.33,0.02-0.59
		c0.03,0.03,0.1,0.05,0.2,0.05c0.26,0,0.42-0.07,0.49-0.22c0.06-0.15,0.08-0.32,0.05-0.51c1.17-0.75,2.24-1.61,3.2-2.59
		c0.96-0.98,2.06-1.79,3.3-2.44c0.1-0.29,0.26-0.54,0.49-0.73c0.23-0.2,0.41-0.42,0.54-0.68c1.04-0.29,1.99-0.73,2.83-1.32
		c0.85-0.59,1.74-1.11,2.69-1.56c0.52-0.29,1.02-0.5,1.49-0.61c0.47-0.11,0.98-0.24,1.54-0.37c0.2-0.06,0.37-0.11,0.54-0.15
		c0.16-0.03,0.34-0.05,0.54-0.05c0.59,0,1.16,0.11,1.71,0.32c0.55,0.21,1.12,0.32,1.71,0.32c0.16,0,0.3-0.01,0.42-0.02
		c0.11-0.02,0.24-0.04,0.37-0.07c0.55,0.68,1.25,1.21,2.1,1.56c0.2,0.49,0.43,0.91,0.71,1.27c0.28,0.36,0.56,0.71,0.85,1.05
		c0.29,0.34,0.56,0.72,0.81,1.12C160.89,166.39,161.05,166.87,161.11,167.42z M156.23,169.96c0-0.16-0.02-0.31-0.05-0.44
		c-0.33-0.1-0.63-0.23-0.93-0.39c-0.29-0.16-0.62-0.24-0.98-0.24c-0.23,0-0.46,0.05-0.68,0.15c-0.03-0.23-0.12-0.39-0.27-0.49
		c-0.15-0.1-0.31-0.19-0.49-0.27c-0.18-0.08-0.36-0.15-0.54-0.2c-0.18-0.05-0.33-0.14-0.46-0.27c-0.1-0.26-0.2-0.53-0.32-0.81
		c-0.11-0.28-0.32-0.48-0.61-0.61c-0.29,0.29-0.63,0.53-1.03,0.71c-0.39,0.18-0.79,0.35-1.2,0.51c-0.41,0.16-0.8,0.36-1.17,0.59
		c-0.38,0.23-0.69,0.5-0.95,0.83l-0.88,0c-0.2,0.36-0.47,0.63-0.83,0.81c-0.36,0.18-0.67,0.43-0.93,0.76
		c-0.52,0.26-1,0.58-1.44,0.95c-0.44,0.37-0.87,0.76-1.29,1.17c-0.42,0.41-0.84,0.82-1.25,1.24c-0.41,0.42-0.84,0.81-1.29,1.17
		c-0.42,0.91-0.89,1.7-1.39,2.37c-0.51,0.67-0.98,1.34-1.42,2.03c-0.44,0.68-0.82,1.42-1.12,2.22c-0.31,0.8-0.46,1.78-0.46,2.95
		v0.49c0,0.16,0.01,0.33,0.05,0.49c0.42,0.46,0.77,0.94,1.05,1.47c0.28,0.52,0.74,0.9,1.39,1.12c0.65,0.26,1.34,0.38,2.08,0.34
		c0.73-0.03,1.44,0.05,2.12,0.25c1.56-0.29,3.07-0.77,4.52-1.44c1.45-0.67,2.82-1.47,4.13-2.42c0.2-0.16,0.42-0.33,0.68-0.51
		c0.26-0.18,0.47-0.37,0.63-0.56c0.16-0.16,0.3-0.34,0.42-0.54c0.11-0.2,0.24-0.37,0.37-0.54c0.26-0.42,0.55-0.85,0.88-1.27
		c0.33-0.42,0.67-0.81,1.03-1.17c0.16-0.72,0.37-1.41,0.63-2.07c0.26-0.67,0.52-1.33,0.78-1.98s0.48-1.32,0.66-2
		c0.18-0.68,0.27-1.4,0.27-2.15c0-0.16-0.01-0.34-0.02-0.54c-0.02-0.2-0.04-0.37-0.07-0.54
		C156.1,170.77,156.23,170.38,156.23,169.96z"/>
	<path class="at0" d="M198.76,162.55c-0.16,0.29-0.24,0.59-0.24,0.88s-0.03,0.59-0.1,0.88c-0.29,0.03-0.59,0.13-0.88,0.29
		c-0.29,0.16-0.58,0.33-0.85,0.49c-0.28,0.16-0.56,0.32-0.85,0.46s-0.59,0.22-0.88,0.22c-0.26,0-0.5-0.08-0.73-0.24
		c-0.23-0.16-0.42-0.34-0.59-0.54c-0.59,0.2-1.22,0.3-1.9,0.32s-1.38,0.03-2.08,0.05c-0.7,0.02-1.38,0.06-2.05,0.15
		c-0.67,0.08-1.28,0.27-1.83,0.56c0.1,0.29,0.17,0.59,0.22,0.9c0.05,0.31,0.11,0.61,0.2,0.9c0.08,0.29,0.2,0.57,0.34,0.83
		c0.15,0.26,0.35,0.49,0.61,0.68c0,0.36,0.03,0.68,0.1,0.98c0.06,0.29,0.1,0.6,0.1,0.93c0.55,1.24,1.14,2.49,1.76,3.76
		c0.62,1.27,1.04,2.59,1.27,3.96c0.06,0.36,0.19,0.58,0.37,0.66c0.18,0.08,0.28,0.2,0.32,0.37l0,1.61c0.36,0.39,0.61,0.82,0.76,1.29
		c0.15,0.47,0.25,0.96,0.32,1.46c0.06,0.5,0.11,1.02,0.15,1.54c0.03,0.52,0.1,1.03,0.2,1.51c-0.2,0.26-0.38,0.54-0.56,0.83
		c-0.18,0.29-0.27,0.62-0.27,0.98c0,0.29,0.03,0.5,0.1,0.64c-0.36-0.03-0.6,0.06-0.73,0.29c-0.13,0.23-0.23,0.49-0.29,0.78
		c-0.52,0.36-1.04,0.71-1.56,1.05c-0.52,0.34-1.01,0.74-1.47,1.2c-0.36,0.03-0.68,0.11-0.95,0.24c-0.28,0.13-0.59,0.28-0.95,0.44
		c-0.36,0.06-0.73,0.1-1.12,0.1l-1.07,0c-1.11,0-2.21-0.06-3.3-0.17c-1.09-0.11-2.19-0.25-3.3-0.42c-0.46-0.36-0.98-0.61-1.56-0.76
		c-0.59-0.15-1.16-0.25-1.71-0.32c-0.55-0.39-1.21-0.78-1.95-1.17c-0.75-0.39-1.45-0.57-2.1-0.54c-0.2-0.52-0.5-0.88-0.93-1.07
		c-0.42-0.2-0.86-0.31-1.32-0.34c0.03-0.1,0.05-0.24,0.05-0.44c0-0.23-0.07-0.4-0.2-0.51c-0.13-0.11-0.28-0.21-0.44-0.29
		c-0.16-0.08-0.34-0.16-0.54-0.24c-0.2-0.08-0.36-0.17-0.49-0.27c-0.36-0.26-0.67-0.56-0.93-0.9c-0.26-0.34-0.52-0.69-0.78-1.05
		c-0.26-0.36-0.54-0.7-0.83-1.03s-0.62-0.62-0.98-0.88c-0.13-0.75-0.28-1.49-0.44-2.22c-0.16-0.73-0.24-1.47-0.24-2.22
		c0-0.26,0.08-0.5,0.24-0.73c0.16-0.23,0.34-0.44,0.54-0.63s0.39-0.41,0.59-0.63c0.2-0.23,0.33-0.47,0.39-0.73
		c0.49,0.23,1.06,0.34,1.71,0.34c0.72,0,1.42-0.1,2.1-0.32s1.4-0.32,2.15-0.32c0.23,0,0.44,0.02,0.63,0.07s0.39,0.07,0.59,0.07
		c0.23,0,0.37-0.07,0.42-0.22s0.2-0.22,0.46-0.22c0.46,0,0.85,0.17,1.17,0.51c0.33,0.34,0.63,0.64,0.93,0.9
		c-0.03,0.46-0.18,0.78-0.44,0.98s-0.47,0.46-0.63,0.78c-0.52,0.03-0.97,0.12-1.34,0.27c-0.38,0.15-0.74,0.31-1.1,0.49
		c-0.36,0.18-0.73,0.33-1.12,0.46c-0.39,0.13-0.88,0.2-1.46,0.19c-0.2,0-0.36,0.15-0.49,0.44c-0.13,0.29-0.28,0.5-0.44,0.63
		c0.26,0.26,0.5,0.54,0.71,0.83c0.21,0.29,0.42,0.58,0.63,0.85c0.21,0.28,0.46,0.51,0.76,0.71s0.65,0.34,1.07,0.44
		c0.06,0.26,0.17,0.46,0.32,0.61s0.27,0.33,0.37,0.56c0.75,0.26,1.43,0.56,2.05,0.9c0.62,0.34,1.24,0.67,1.86,0.98
		c0.62,0.31,1.25,0.58,1.9,0.81c0.65,0.23,1.4,0.39,2.25,0.49c0.26,0.03,0.37,0.12,0.34,0.27c-0.03,0.15,0.03,0.24,0.2,0.27
		c0.13,0,0.28-0.01,0.46-0.02c0.18-0.02,0.33-0.02,0.46-0.02c0.36,0,0.7,0.03,1.03,0.1c0.33,0.07,0.67,0.16,1.03,0.29
		c0.39-0.13,0.89-0.25,1.49-0.37c0.6-0.11,1.19-0.28,1.76-0.49c0.57-0.21,1.05-0.49,1.44-0.83c0.39-0.34,0.59-0.81,0.59-1.39
		c0-1.01-0.21-1.94-0.63-2.81c-0.42-0.86-0.75-1.77-0.98-2.71c-0.07-0.33-0.11-0.68-0.15-1.07c-0.03-0.39-0.09-0.78-0.17-1.17
		c-0.08-0.39-0.19-0.74-0.34-1.05c-0.15-0.31-0.38-0.56-0.71-0.76c0-0.26-0.03-0.54-0.1-0.85c-0.07-0.31-0.28-0.5-0.63-0.56
		c-0.1-0.72-0.29-1.41-0.56-2.08c-0.28-0.67-0.57-1.33-0.88-1.98c-0.31-0.65-0.59-1.32-0.85-2c-0.26-0.68-0.42-1.4-0.49-2.15
		c-1.04,0-2.05,0.11-3.03,0.34c-0.98,0.23-1.95,0.5-2.91,0.8c-0.96,0.31-1.93,0.62-2.91,0.93c-0.98,0.31-1.95,0.56-2.93,0.76
		c-0.59-0.26-1.1-0.57-1.54-0.93c-0.44-0.36-1.02-0.59-1.73-0.68c0.1-0.42,0.18-0.9,0.24-1.42c0.06-0.52,0.18-1.03,0.34-1.51
		c0.16-0.49,0.39-0.92,0.68-1.29s0.68-0.64,1.17-0.81c0.52,0.1,1.11,0.15,1.76,0.15c0.98,0,1.92-0.13,2.83-0.39
		c0.91-0.26,1.84-0.54,2.78-0.83h0.39c0.94,0,1.97-0.11,3.08-0.34c1.11-0.23,2.1-0.54,2.98-0.93c0.13,0.07,0.19,0.14,0.17,0.22
		c-0.02,0.08,0.04,0.14,0.17,0.17c0.36-0.33,0.83-0.52,1.42-0.59s1.2-0.1,1.83-0.12c0.63-0.02,1.25-0.06,1.83-0.12
		s1.06-0.26,1.42-0.59c0.46,0.16,0.94,0.27,1.44,0.32c0.5,0.05,1.02,0.07,1.54,0.07c0.65,0,1.29-0.02,1.93-0.07
		c0.63-0.05,1.28-0.09,1.93-0.12c-0.2-0.06-0.29-0.15-0.29-0.24c0-0.06,0.03-0.16,0.1-0.29c0.42,0.1,0.81,0.25,1.15,0.46
		s0.72,0.35,1.15,0.42c-0.1,0.16-0.15,0.34-0.15,0.54c0,0.36,0.15,0.63,0.44,0.81C198.27,162.17,198.53,162.36,198.76,162.55z"/>
	<path class="at0" d="M228.55,164.66v0.2c-0.23,0.07-0.34,0.23-0.34,0.49c-0.36,0.16-0.73,0.29-1.12,0.37
		c-0.39,0.08-0.77,0.2-1.12,0.37c-0.36-0.03-0.72-0.06-1.1-0.07c-0.38-0.02-0.74-0.02-1.1-0.02c-0.98,0-1.95,0.03-2.93,0.1
		c-0.98,0.06-1.95,0.06-2.93,0c-0.46,0.26-0.95,0.46-1.49,0.61c-0.54,0.15-1.05,0.22-1.54,0.22c-0.39,0-0.73-0.05-1.03-0.15
		c-0.78,0.39-1.64,0.72-2.56,0.98c-0.93,0.26-1.86,0.51-2.81,0.76c-0.95,0.24-1.85,0.52-2.71,0.83c-0.86,0.31-1.62,0.74-2.27,1.29
		c-0.07,0.46-0.12,0.9-0.15,1.34c-0.03,0.44-0.05,0.87-0.05,1.29c0,0.46,0.02,0.88,0.07,1.27s0.15,0.78,0.32,1.17
		c0.16,0.07,0.35,0.11,0.56,0.15c0.21,0.03,0.4,0.05,0.56,0.05c0.16,0,0.33-0.02,0.49-0.07c0.16-0.05,0.28-0.15,0.34-0.32
		c0.49-0.06,0.98-0.09,1.46-0.07c0.49,0.02,0.98,0.02,1.46,0.03c0.49,0,0.97-0.02,1.44-0.05c0.47-0.03,0.94-0.11,1.39-0.24
		c0.52-0.13,1.03-0.21,1.54-0.24c0.5-0.03,1-0.06,1.49-0.1s0.99-0.09,1.51-0.17c0.52-0.08,1.06-0.25,1.61-0.51
		c0.42,0.16,0.85,0.24,1.29,0.24c0.44,0,0.87,0.03,1.29,0.1c0.23,0.16,0.42,0.34,0.56,0.54s0.22,0.42,0.22,0.68
		c0,0.46-0.16,0.91-0.49,1.37c-0.33,0.46-0.59,0.88-0.78,1.27h-0.54c-0.78,0-1.54,0.1-2.27,0.32s-1.46,0.46-2.2,0.73
		s-1.46,0.52-2.2,0.73c-0.73,0.21-1.49,0.32-2.27,0.32c-0.13,0-0.21,0.07-0.22,0.22c-0.02,0.15-0.06,0.25-0.12,0.32
		c-0.16-0.03-0.41-0.05-0.73-0.05c-0.75,0-1.46,0.08-2.15,0.24c-0.68,0.16-1.38,0.24-2.1,0.24c-0.2,0-0.39-0.01-0.59-0.02
		c-0.2-0.02-0.39-0.04-0.59-0.07c-0.16,0.26-0.38,0.43-0.63,0.51c-0.26,0.08-0.5,0.22-0.73,0.41c-0.1,0.29-0.16,0.65-0.17,1.07
		c-0.02,0.42-0.03,0.85-0.05,1.29c-0.02,0.44-0.06,0.85-0.12,1.25c-0.07,0.39-0.2,0.7-0.39,0.93c0.03,0.16,0.16,0.22,0.39,0.17
		c0.23-0.05,0.34,0.06,0.34,0.32c0,0.29-0.03,0.6-0.1,0.93c-0.07,0.33-0.1,0.65-0.1,0.98c0,0.62,0.07,1.29,0.22,2.03
		c0.15,0.73,0.37,1.41,0.68,2.03c0.31,0.62,0.72,1.13,1.25,1.54c0.52,0.41,1.17,0.61,1.95,0.61c0.52,0,1.01-0.1,1.46-0.29
		c0.46-0.2,0.83-0.52,1.12-0.98l0.24-0.05c0.13,0,0.25,0.02,0.37,0.05c0.11,0.03,0.24,0.05,0.37,0.05c0.2,0,0.45-0.12,0.76-0.37
		c0.31-0.24,0.65-0.53,1.03-0.85c0.37-0.33,0.76-0.64,1.15-0.95c0.39-0.31,0.76-0.53,1.12-0.66c0.23-0.46,0.45-0.91,0.66-1.37
		c0.21-0.46,0.53-0.81,0.95-1.07l0-1.42c0.33-0.36,0.67-0.68,1.05-0.98c0.37-0.29,0.66-0.67,0.85-1.12
		c0.16,0.07,0.32,0.11,0.46,0.15c0.15,0.03,0.3,0.05,0.46,0.05c0.16,0,0.33-0.02,0.51-0.05c0.18-0.03,0.35-0.08,0.51-0.15
		c0.26,0.36,0.46,0.76,0.61,1.2s0.33,0.85,0.56,1.25c-0.29,0.59-0.63,1.29-1.03,2.1c-0.39,0.81-0.82,1.63-1.27,2.44
		c-0.46,0.81-0.94,1.59-1.44,2.32c-0.51,0.73-1,1.29-1.49,1.68c-0.1,0.1-0.31,0.21-0.63,0.34c-0.36,0.26-0.68,0.51-0.98,0.76
		s-0.57,0.53-0.83,0.85c-0.94,0.29-1.85,0.68-2.71,1.17c-0.86,0.49-1.72,0.96-2.56,1.42c-0.39-0.1-0.81-0.15-1.27-0.15
		c-0.39,0-0.78,0.02-1.17,0.07c-0.39,0.05-0.81,0.07-1.27,0.07c-0.13-0.16-0.32-0.27-0.56-0.32s-0.33-0.22-0.27-0.51
		c-1.11-0.07-2-0.37-2.68-0.9c-0.68-0.54-1.26-1.2-1.73-1.98c-0.47-0.78-0.85-1.63-1.15-2.54c-0.29-0.91-0.6-1.79-0.93-2.64v-0.15
		c0-0.16,0.07-0.26,0.2-0.29c0.13-0.03,0.2-0.13,0.2-0.29c0-0.06-0.02-0.11-0.05-0.15c-0.1-0.36-0.18-0.67-0.24-0.93
		c-0.06-0.26-0.1-0.57-0.1-0.93c0-0.52,0.03-1.03,0.1-1.54c0.07-0.5,0.1-1.02,0.1-1.54c0-0.52-0.06-0.98-0.19-1.37
		c0.13-0.16,0.24-0.38,0.32-0.66c0.08-0.28,0.14-0.56,0.17-0.85s0.06-0.59,0.07-0.88c0.02-0.29,0.06-0.55,0.12-0.78
		c-0.13-0.36-0.24-0.68-0.34-0.95c-0.1-0.28-0.15-0.61-0.15-1v-0.34c0.33-0.55,0.6-1.12,0.83-1.71c0.23-0.59,0.47-1.19,0.73-1.81
		l0-0.15c0-0.94-0.03-1.89-0.1-2.83c-0.07-0.94-0.1-1.89-0.1-2.83v-0.93c0-0.33,0.02-0.63,0.05-0.93c0.26-0.13,0.46-0.31,0.59-0.54
		c0.13-0.23,0.33-0.41,0.59-0.54l1.61,0l0.29-0.49c0.1-0.16,0.16-0.34,0.2-0.54c0.36-0.1,0.71-0.24,1.05-0.41s0.66-0.37,0.95-0.56
		c0.46-0.26,0.87-0.5,1.25-0.71c0.37-0.21,0.75-0.39,1.12-0.54c0.38-0.15,0.77-0.27,1.2-0.37c0.42-0.1,0.91-0.18,1.46-0.24
		c0.26,0,0.43-0.05,0.51-0.15c0.08-0.1,0.2-0.21,0.37-0.34c0.39,0.07,0.78,0.12,1.17,0.17c0.39,0.05,0.78,0.07,1.17,0.07
		c0.78,0,1.51-0.15,2.2-0.44c0.98,0,1.94-0.02,2.91-0.05c0.96-0.03,1.93-0.05,2.91-0.05c0.85,0,1.69,0.03,2.54,0.1
		c0.85,0.07,1.68,0.18,2.49,0.34c0.29-0.1,0.62-0.15,0.98-0.15c0.39,0,0.79,0.04,1.2,0.12c0.41,0.08,0.81,0.09,1.2,0.02
		c0.03,0.36,0.12,0.66,0.27,0.9C228.47,164.05,228.55,164.34,228.55,164.66z"/>
	<path class="at0" d="M262.82,186.94c0,0.33-0.09,0.59-0.27,0.81c-0.18,0.21-0.39,0.4-0.63,0.56c-0.24,0.16-0.49,0.31-0.73,0.44
		c-0.24,0.13-0.46,0.29-0.66,0.49c-0.13,0.13-0.22,0.29-0.27,0.46c-0.05,0.18-0.14,0.3-0.27,0.37c-0.2,0.16-0.41,0.26-0.63,0.29
		c-0.23,0.03-0.46,0.07-0.71,0.12c-0.24,0.05-0.48,0.11-0.71,0.19c-0.23,0.08-0.42,0.24-0.59,0.46c-1.53,0.16-3.04,0.37-4.52,0.63
		c-1.48,0.26-3,0.39-4.57,0.39c-0.29,0-0.61,0.02-0.95,0.07s-0.66,0.09-0.95,0.12c-0.68,0.07-1.36,0.11-2.03,0.15
		c-0.67,0.03-1.34,0.05-2.03,0.05c-0.94,0-1.89-0.04-2.83-0.12s-1.87-0.22-2.78-0.42c-0.23-0.16-0.49-0.29-0.78-0.39
		c-0.29-0.1-0.59-0.2-0.9-0.29c-0.31-0.1-0.59-0.21-0.85-0.34c-0.26-0.13-0.46-0.33-0.59-0.59c-0.49-0.03-0.92-0.13-1.29-0.29
		s-0.72-0.35-1.02-0.56c-0.31-0.21-0.63-0.43-0.95-0.66c-0.33-0.23-0.7-0.42-1.12-0.59c-0.33-0.46-0.66-0.9-1-1.34
		s-0.76-0.81-1.25-1.1c-0.1-0.62-0.25-1.24-0.46-1.86c-0.21-0.62-0.42-1.23-0.63-1.83c-0.21-0.6-0.39-1.21-0.54-1.83
		c-0.15-0.62-0.22-1.25-0.22-1.9c0-0.46,0.07-1.01,0.2-1.66c0.13-0.65,0.3-1.31,0.51-1.98c0.21-0.67,0.46-1.29,0.76-1.88
		c0.29-0.59,0.59-1.06,0.88-1.42c0.1-0.1,0.21-0.18,0.34-0.24c0.13-0.06,0.24-0.16,0.34-0.29c0.29-0.33,0.6-0.59,0.93-0.81
		c0.33-0.21,0.67-0.46,1.03-0.76c0.13-0.13,0.24-0.28,0.32-0.44c0.08-0.16,0.2-0.31,0.37-0.44c0.1-0.06,0.24-0.08,0.42-0.05
		c0.18,0.03,0.33,0,0.46-0.1c0.13-0.1,0.2-0.21,0.2-0.34c0-0.13,0.05-0.24,0.15-0.34c0.03-0.03,0.13-0.04,0.29-0.02
		c0.16,0.02,0.26,0.02,0.29,0.02c0.23,0,0.49-0.15,0.78-0.46c0.29-0.31,0.54-0.51,0.73-0.61c0.23-0.13,0.46-0.22,0.68-0.27
		c0.23-0.05,0.47-0.14,0.73-0.27c0.36-0.19,0.71-0.35,1.05-0.46c0.34-0.11,0.69-0.25,1.05-0.41c0.2-0.06,0.37-0.18,0.54-0.34
		c0.16-0.16,0.33-0.28,0.49-0.34c0.29-0.1,0.61-0.17,0.95-0.22c0.34-0.05,0.67-0.1,0.98-0.15c0.31-0.05,0.62-0.11,0.93-0.19
		c0.31-0.08,0.59-0.24,0.86-0.46h0.39c0.59,0,1.16-0.08,1.71-0.24c0.55-0.16,1.12-0.24,1.71-0.24c0.16,0,0.41,0.03,0.73,0.1
		c0.26-0.16,0.55-0.24,0.88-0.24c0.55,0,1.11,0.14,1.66,0.42c0.55,0.28,1.12,0.42,1.71,0.42l0.29,0c0.13,0,0.26-0.02,0.39-0.05
		c0.36,0.36,0.79,0.55,1.29,0.59c0.5,0.03,0.94,0.18,1.29,0.44c0.23,0.2,0.42,0.42,0.56,0.68s0.27,0.54,0.37,0.83l0.29,0.88
		c0.1,0.29,0.23,0.55,0.39,0.78c-0.16,1.17-0.64,2.11-1.44,2.81c-0.8,0.7-1.8,1.05-3,1.05c-0.46,0-0.84-0.06-1.15-0.17
		c-0.31-0.11-0.59-0.24-0.83-0.37c-0.24-0.13-0.5-0.26-0.76-0.39c-0.26-0.13-0.55-0.23-0.88-0.29c0.36-0.65,0.59-1.35,0.68-2.1
		c-0.36-0.16-0.72-0.28-1.07-0.34c-0.36-0.06-0.7-0.18-1.03-0.34c-0.88,0.23-1.73,0.38-2.56,0.46c-0.83,0.08-1.6,0.43-2.32,1.05
		c-0.16-0.03-0.33-0.06-0.51-0.1c-0.18-0.03-0.35-0.05-0.51-0.05c-0.2,0-0.59,0.14-1.17,0.41s-1.21,0.59-1.88,0.95
		c-0.67,0.36-1.3,0.72-1.91,1.07c-0.6,0.36-1.02,0.6-1.25,0.73c-0.26,0.16-0.49,0.36-0.68,0.59c-0.2,0.23-0.39,0.46-0.59,0.71
		c-0.2,0.24-0.39,0.47-0.59,0.68c-0.2,0.21-0.44,0.37-0.73,0.46c-0.07,0.36-0.18,0.67-0.34,0.93c-0.16,0.26-0.34,0.54-0.54,0.83
		c-0.03,0.59-0.09,1.17-0.17,1.76s-0.12,1.17-0.12,1.76l0,0.63c0,0.2,0.03,0.37,0.1,0.54c0.33,0.42,0.59,0.9,0.81,1.42
		c0.21,0.52,0.58,0.88,1.1,1.07c0.03,0.13,0.02,0.21-0.02,0.24c-0.05,0.03-0.09,0.11-0.12,0.24c0.2,0.36,0.45,0.64,0.76,0.85
		c0.31,0.21,0.62,0.42,0.95,0.64c0.33,0.21,0.63,0.43,0.93,0.66c0.29,0.23,0.52,0.52,0.68,0.88c0.49,0,0.95,0.08,1.39,0.24
		s0.86,0.34,1.27,0.54c0.41,0.2,0.8,0.37,1.17,0.54c0.37,0.16,0.76,0.24,1.15,0.24c0.36,0,0.68-0.05,0.98-0.15
		c0.85,0.26,1.7,0.45,2.56,0.56c0.86,0.11,1.73,0.17,2.61,0.17c1.07,0,2.15-0.06,3.22-0.19s2.15-0.24,3.22-0.34
		c0.39-0.06,0.76-0.1,1.12-0.1c0.36,0,0.72-0.03,1.07-0.1c0.46-0.06,0.89-0.28,1.29-0.63c0.41-0.36,0.81-0.62,1.2-0.78
		c0.36,0.23,0.78,0.34,1.27,0.34c0.55,0,1.09-0.09,1.61-0.27c0.52-0.18,1.06-0.27,1.61-0.27H262.82z"/>
	<path class="at0" d="M304.47,164.35c-0.13,0.42-0.34,0.81-0.63,1.17l-0.83,1.02c-0.26,0.33-0.48,0.68-0.66,1.05
		c-0.18,0.37-0.24,0.81-0.17,1.29c-0.07,0-0.15-0.01-0.24-0.02c-0.1-0.02-0.18-0.02-0.24-0.02c-0.52,0-0.92,0.12-1.2,0.37
		c-0.28,0.24-0.64,0.45-1.1,0.61c-0.07-0.2-0.15-0.38-0.24-0.56c-0.1-0.18-0.24-0.3-0.44-0.37c-0.78,0.16-1.56,0.28-2.34,0.37
		c-0.78,0.08-1.56,0.19-2.34,0.32c-0.36,0.07-0.72,0.15-1.07,0.27c-0.36,0.11-0.73,0.22-1.12,0.32c-0.2,0.06-0.41,0.09-0.63,0.07
		c-0.23-0.02-0.46-0.01-0.68,0.02c-0.78,0.03-1.63,0.09-2.54,0.17c-0.91,0.08-1.73,0.33-2.44,0.76c-0.33-0.06-0.67-0.11-1.03-0.15
		c-0.36-0.03-0.72-0.05-1.07-0.05c-0.78,0-1.64,0.07-2.56,0.22c-0.93,0.15-1.75,0.43-2.47,0.85c-0.16-0.06-0.33-0.11-0.51-0.15
		c-0.18-0.03-0.38-0.05-0.61-0.05c-0.07,0-0.11,0.01-0.15,0.02c-0.03,0.02-0.08,0.02-0.15,0.02c-0.03,0.29,0.01,0.58,0.12,0.85
		c0.11,0.28,0.32,0.5,0.61,0.66c-0.13,0.36-0.2,0.75-0.2,1.17c0,0.55,0.04,1.11,0.12,1.66c0.08,0.55,0.12,1.11,0.12,1.66
		c0,0.62-0.08,1.11-0.25,1.46c0.33,0.98,0.49,2.02,0.49,3.12c0,0.39-0.03,0.77-0.07,1.15c-0.05,0.37-0.07,0.77-0.07,1.2
		c0,0.36,0.13,0.64,0.39,0.85c0.26,0.21,0.39,0.5,0.39,0.85c0,0.13-0.03,0.26-0.1,0.39c0.46-0.1,0.89-0.24,1.32-0.41
		c0.42-0.18,0.86-0.27,1.32-0.27c0.26,0,0.51,0.05,0.76,0.15s0.46,0.23,0.66,0.39c-0.03,0.16-0.06,0.34-0.07,0.54
		c-0.02,0.2-0.03,0.39-0.03,0.59c0,0.36,0.01,0.69,0.02,1c0.02,0.31,0.04,0.64,0.07,1c-0.26,0.46-0.56,0.86-0.9,1.22
		c-0.34,0.36-0.58,0.81-0.71,1.37c-0.49,0-0.92,0.11-1.29,0.32c-0.38,0.21-0.72,0.44-1.05,0.68c-0.33,0.24-0.65,0.47-0.98,0.68
		c-0.33,0.21-0.68,0.32-1.07,0.32c-0.49,0-0.83-0.07-1.03-0.22s-0.34-0.3-0.44-0.46s-0.19-0.31-0.27-0.44
		c-0.08-0.13-0.25-0.18-0.51-0.15c-0.07-0.42-0.19-0.82-0.39-1.2s-0.4-0.74-0.61-1.1c-0.21-0.36-0.42-0.72-0.63-1.1
		c-0.21-0.37-0.37-0.76-0.46-1.15c-0.2-0.85-0.28-1.73-0.24-2.64c0.03-0.91-0.11-1.79-0.44-2.64c0.06-0.46,0.11-0.92,0.15-1.39
		c0.03-0.47,0.05-0.94,0.05-1.39c0-0.91-0.02-1.81-0.07-2.71c-0.05-0.9-0.09-1.81-0.12-2.76c-0.23-0.29-0.37-0.63-0.42-1
		c-0.05-0.37-0.09-0.74-0.12-1.1c-0.1-0.1-0.2-0.2-0.32-0.29c-0.11-0.1-0.19-0.23-0.22-0.39c-0.26-0.07-0.46-0.1-0.59-0.1
		c-0.46,0-0.84,0.11-1.15,0.32c-0.31,0.21-0.59,0.32-0.85,0.32c-0.26,0-0.5-0.03-0.73-0.1c-0.23-0.06-0.46-0.1-0.68-0.1
		c-0.2,0-0.3,0.04-0.32,0.12c-0.02,0.08-0.09,0.15-0.22,0.22c-0.1,0.07-0.33,0.13-0.68,0.19c-0.36,0.07-0.76,0.12-1.2,0.17
		c-0.44,0.05-0.86,0.09-1.27,0.12c-0.41,0.03-0.68,0.05-0.81,0.05c-0.52,0-0.92-0.11-1.2-0.32s-0.61-0.45-1-0.71
		c0.07-0.2,0.1-0.33,0.1-0.39c0-0.33-0.1-0.59-0.29-0.81c-0.2-0.21-0.29-0.4-0.29-0.56c0-0.36,0.14-0.63,0.42-0.83
		c0.28-0.2,0.43-0.5,0.46-0.93c0.75-0.32,1.51-0.57,2.3-0.73c0.78-0.16,1.58-0.29,2.39-0.39c0.81-0.1,1.62-0.21,2.42-0.34
		c0.8-0.13,1.59-0.34,2.37-0.63c0.23,0.03,0.45,0.06,0.66,0.07c0.21,0.02,0.43,0.02,0.66,0.02c0.98,0,1.94-0.1,2.91-0.32
		c0.96-0.21,1.94-0.32,2.95-0.32c0.26,0,0.52,0.02,0.78,0.05c0.26,0.03,0.52,0.08,0.78,0.15c1.3-0.19,2.6-0.41,3.88-0.63
		c1.29-0.23,2.61-0.42,3.98-0.58c0.65-0.06,1.29-0.12,1.93-0.17c0.63-0.05,1.28-0.12,1.93-0.22c0.23-0.03,0.4-0.09,0.51-0.17
		c0.11-0.08,0.17-0.25,0.17-0.51c0.29,0.13,0.62,0.2,0.98,0.2c0.55,0,1.09-0.1,1.61-0.29c0.52-0.2,1.06-0.29,1.61-0.29
		c0.13,0,0.24,0.01,0.34,0.02s0.2,0.02,0.29,0.02c0.23,0,0.35-0.11,0.37-0.32c0.02-0.21,0.17-0.35,0.46-0.42
		c0.23-0.06,0.55-0.11,0.98-0.15c0.42-0.03,0.87-0.07,1.34-0.12c0.47-0.05,0.91-0.11,1.32-0.19c0.41-0.08,0.71-0.2,0.9-0.37
		l0.34-0.54c0.59,0.03,1.02,0.29,1.29,0.76c0.28,0.47,0.43,0.98,0.46,1.54c0.13,0.13,0.32,0.19,0.56,0.17
		c0.24-0.02,0.46-0.02,0.66-0.02H304.47z"/>
	<path class="at0" d="M323.46,189.6c0,0.55-0.14,1.03-0.42,1.44c-0.28,0.41-0.38,0.9-0.32,1.49c-0.46,0.26-0.83,0.6-1.12,1.02
		s-0.57,0.86-0.83,1.32c-2.15,1.4-4.45,2.53-6.91,3.39c-2.46,0.86-4.99,1.29-7.59,1.29c-0.16,0-0.31-0.07-0.44-0.22
		c-0.13-0.15-0.26-0.3-0.39-0.46c-0.13-0.16-0.27-0.32-0.42-0.46s-0.32-0.22-0.51-0.22c-0.23,0-0.41,0.05-0.54,0.15
		c0-0.07,0.01-0.12,0.02-0.17c0.02-0.05,0.02-0.11,0.02-0.17c0-0.39-0.05-0.79-0.15-1.2c-0.1-0.41-0.15-0.81-0.15-1.2
		c0-0.46,0.08-0.83,0.25-1.12h0.59c0.33,0,0.64-0.02,0.95-0.07c0.31-0.05,0.64-0.07,1-0.07c0.36,0,0.68,0.1,0.98,0.29
		c1.79-0.06,3.49-0.4,5.1-1c1.61-0.6,3.25-1.19,4.91-1.78c0.26-0.36,0.42-0.76,0.46-1.2c0.05-0.44,0.17-0.85,0.37-1.25
		c-0.85-0.72-1.7-1.28-2.56-1.69s-1.86-0.55-3-0.42c-0.68-0.42-1.41-0.67-2.17-0.73c-0.77-0.06-1.54-0.16-2.32-0.29
		c-0.2-0.03-0.4-0.07-0.61-0.12c-0.21-0.05-0.43-0.07-0.66-0.07c-0.16,0-0.32,0.04-0.46,0.12c-0.15,0.08-0.19,0.2-0.12,0.37
		c-0.16-0.26-0.38-0.42-0.66-0.46c-0.28-0.05-0.51-0.17-0.71-0.37c-1.04-0.07-1.95-0.25-2.73-0.56c-0.78-0.31-1.64-0.66-2.59-1.05
		c-0.26-0.1-0.51-0.17-0.76-0.22c-0.24-0.05-0.48-0.14-0.71-0.27c-0.59-0.29-1.06-0.68-1.42-1.17c-0.36-0.49-0.64-1.03-0.85-1.64
		c-0.21-0.6-0.37-1.23-0.46-1.88c-0.1-0.65-0.19-1.25-0.29-1.81c0.29-0.52,0.56-1.06,0.81-1.61c0.24-0.55,0.45-1.14,0.61-1.76
		c0.2-0.1,0.39-0.18,0.59-0.24c0.2-0.06,0.41-0.15,0.64-0.24c-0.03-0.06-0.05-0.15-0.05-0.24c0-0.16,0.06-0.33,0.17-0.49
		c0.11-0.16,0.14-0.33,0.07-0.49c0.72-0.65,1.41-1.33,2.08-2.03c0.67-0.7,1.25-1.47,1.73-2.32c0.49-0.16,0.88-0.41,1.17-0.73
		c0.29-0.33,0.59-0.66,0.88-1c0.29-0.34,0.62-0.65,0.98-0.93c0.36-0.28,0.81-0.45,1.37-0.51c0.13-0.23,0.31-0.42,0.54-0.56
		s0.46-0.28,0.68-0.41c0.23-0.13,0.44-0.28,0.63-0.44c0.2-0.16,0.34-0.39,0.44-0.68c0.52,0,1-0.1,1.44-0.29
		c0.44-0.2,0.87-0.41,1.29-0.63c0.42-0.23,0.86-0.44,1.29-0.63s0.92-0.29,1.44-0.29c0.13,0,0.26,0.01,0.39,0.02
		c0.13,0.02,0.28,0.04,0.44,0.07c0.23,0.23,0.38,0.5,0.46,0.81c0.08,0.31,0.14,0.64,0.17,1c0.03,0.36,0.06,0.72,0.07,1.07
		c0.01,0.36,0.07,0.68,0.17,0.98c-0.29,0.55-0.61,1.11-0.95,1.66c-0.34,0.55-0.79,0.98-1.34,1.27h-0.1
		c-0.23,0.03-0.44-0.02-0.63-0.15c-0.2-0.13-0.42-0.2-0.68-0.2c-0.16,0-0.29,0.05-0.39,0.15l-0.24,0.24
		c-0.07,0.07-0.16,0.13-0.27,0.2c-0.11,0.07-0.27,0.07-0.46,0c-0.46,0.16-0.63,0.44-0.54,0.83c-0.62,0.06-1.14,0.25-1.56,0.56
		c-0.42,0.31-0.81,0.65-1.17,1.02c-0.36,0.37-0.72,0.72-1.08,1.02s-0.78,0.48-1.27,0.51c-0.55,0.98-1.23,1.84-2.03,2.59
		c-0.8,0.75-1.46,1.59-1.98,2.54c0.1,0.26,0.16,0.54,0.2,0.83c0.03,0.29,0.08,0.6,0.15,0.93c0.29,0.39,0.64,0.73,1.05,1.03
		c0.41,0.29,0.81,0.59,1.2,0.88l0.15,0c0.65,0,1.25,0.12,1.81,0.37c0.55,0.24,1.14,0.37,1.76,0.37c0.33,0,0.6-0.06,0.83-0.2
		c0.85,0.2,1.68,0.36,2.51,0.49c0.83,0.13,1.67,0.23,2.51,0.29c0.42,0.07,0.85,0.1,1.29,0.1c0.44,0,0.85,0.05,1.25,0.15
		c0.36,0.1,0.72,0.22,1.07,0.37c0.36,0.15,0.72,0.3,1.07,0.46c0.75,0.33,1.46,0.68,2.12,1.08c0.67,0.39,1.26,0.85,1.78,1.39
		c0.52,0.54,0.93,1.16,1.22,1.86C323.31,187.89,323.46,188.69,323.46,189.6z"/>
</g>
<g>
	<g>
		<g>
			<g>
				<g>
					<path class="at0" d="M72.92,217.27c-0.01,0.04-0.01,0.08,0.01,0.14C72.94,217.35,72.94,217.3,72.92,217.27z"/>
					<path class="at0" d="M93.75,212.31l-0.24,0.1C93.68,212.38,93.73,212.35,93.75,212.31z"/>
					<path class="at0" d="M61.94,223.62c0.01-0.02,0-0.03,0-0.04c-0.15,0.13-0.35,0.3-0.68,0.58L61.94,223.62z"/>
					<path class="at0" d="M139.89,211.02l-0.29-0.01C139.73,211.02,139.82,211.04,139.89,211.02z"/>
					<path class="at0" d="M112.45,210.6c0.08-0.06,0.22-0.09,0.36-0.11C112.63,210.49,112.49,210.51,112.45,210.6z"/>
					<path class="at0" d="M55.19,226.94l0.39-0.21C55.5,226.68,55.35,226.75,55.19,226.94z"/>
					<path class="at0" d="M51.24,240.19c0.01-0.01,0.03-0.01,0.05-0.03C51.27,240.13,51.25,240.15,51.24,240.19z"/>
					<path class="at0" d="M52.95,235.13c0.01-0.11,0.01-0.25,0.01-0.39C52.93,234.89,52.88,235.09,52.95,235.13z"/>
					<path class="at0" d="M52.96,234.55l0,0.19C52.98,234.64,52.99,234.56,52.96,234.55z"/>
					<path class="at0" d="M306.97,236.64c0.37,0.1,0.72,0.04,1.08,0.01L306.97,236.64z"/>
					<path class="at0" d="M181.83,214.43l-0.09,0.07C181.81,214.48,181.83,214.46,181.83,214.43z"/>
					<path class="at0" d="M307.84,235.15l0.25,0.1C308,235.2,307.92,235.17,307.84,235.15z"/>
					<path class="at0" d="M59.83,221.03c0.19-0.42,0.96-0.81,0.84-0.94C60.37,220.4,59.81,220.71,59.83,221.03z"/>
					<path class="at0" d="M191.57,208.52l0.26,0.02C191.7,208.52,191.63,208.52,191.57,208.52z"/>
					<path class="at0" d="M307.84,235.15l-0.29-0.12c0.02,0.04,0.04,0.08,0.07,0.11C307.69,235.14,307.76,235.14,307.84,235.15z"/>
					<path class="at0" d="M225.28,220.78l-0.01,0c-0.03,0.01-0.06,0.01-0.09,0.02L225.28,220.78z"/>
					<path class="at0" d="M227.53,221.47c-0.16-0.01-0.32-0.02-0.5-0.03C227.29,221.51,227.43,221.5,227.53,221.47z"/>
					<path class="at0" d="M308.05,236.65l0.62,0.01C308.46,236.63,308.25,236.63,308.05,236.65z"/>
					<path class="at0" d="M252.3,225.75c-0.08-0.01-0.16-0.02-0.23-0.02C252.17,225.75,252.24,225.76,252.3,225.75z"/>
					<path class="at0" d="M110.69,210.59c-0.06-0.01-0.14-0.02-0.2-0.03C110.46,210.61,110.48,210.64,110.69,210.59z"/>
					<polygon class="at0" points="127.93,205.09 127.94,205.09 127.94,205.09 					"/>
					<path class="at0" d="M127,205.32c0.29,0.04,0.71-0.09,0.94-0.23C127.64,205.09,127.36,205.13,127,205.32z"/>
					<path class="at0" d="M129.94,205.2c-0.04-0.01-0.07-0.01-0.11-0.02C129.87,205.19,129.91,205.2,129.94,205.2z"/>
					<path class="at0" d="M111.05,205.32c0,0.01,0,0.01,0,0.02l0.01-0.02L111.05,205.32z"/>
					<path class="at0" d="M114.79,205.08c0.07,0.03,0.16,0.06,0.26,0.07C114.99,205.12,114.9,205.09,114.79,205.08z"/>
					<path class="at0" d="M139.25,204.85L139.25,204.85c0,0.01,0.01,0.01,0.02,0.01L139.25,204.85z"/>
					<path class="at0" d="M174.44,205.94c-3.53-0.25-8.11-0.3-11.59-0.7c-0.79,0.31-1.9,0.24-3.02,0.25l-0.08-0.52l-0.94,0.09
						c-0.37-0.18,0.72-0.04,0.07-0.28l-0.37,0.29c-0.06-0.19-2.38-0.3-0.79-0.55c-1.2-0.09-2.41-0.18-3.61-0.26
						c-0.8-0.07-0.49,0.4-1.37,0.21c-0.17-0.16,0.32-0.08,0.26-0.27c-2.63-0.55-3.12,0.79-5.58,0.44l0.21-0.06
						c-0.43,0.11-1.23,0.06-1.24,0.13c0.29,0.53,0.46-0.26,1.2,0.08c-0.09,0.43-0.95,0.19-0.92,0.52c-0.57-0.19-0.92,0.04-1.43,0.04
						c-0.85-0.32-2.09-0.18-2.72-0.54c-0.43,0.12-0.91,0.53-1.82,0.51c-0.64-0.36,0.16-0.32-0.71-0.48l-0.15,0.25
						c-0.72-0.06-0.61-0.13-0.58-0.25c-0.78-0.04-0.65,0.32-1.62,0.13l0.55-0.23c-0.72,0.07-1.01,0.03-2.02-0.02
						c0.03-0.14,0.43-0.13,0.72-0.08c-0.54-0.38-0.94,0.14-1.23,0.09c0.08,0.11,0.77,0.18,0.43,0.42c-0.5-0.06-1.07,0.32-1.41,0.01
						l0.55-0.23c-1.04,0.17-0.56,0.3-1.75,0.18c0.06-0.02,0.03-0.08,0.06-0.13c-0.76,0.3-1.74-0.01-2.85-0.03l0.21-0.07
						c-0.45,0.08-0.7,0.31-0.94,0.29c0.63,0.15,0.46,0.22,0.52,0.46c-0.84-0.42-1.28,0.48-2.65,0.22c0.02-0.14,0.35-0.32,0.73-0.16
						c0.47-0.42,0.53-0.79,1.36-0.98c-0.52,0.1-1.13,0.15-1-0.03l-0.16,0.4c-0.31,0.01-0.56-0.02-0.8-0.02
						c-0.13,0.25,0.64,0.41-0.09,0.57c-0.82,0.13-0.44-0.41-0.56-0.23c-1.13,0.15-0.47,0.42-1.55,0.3c0.11-0.03,0.32-0.11,0.41-0.07
						c-0.78-0.15-1.91,0.1-2.15-0.38c0.11-0.11,0.13-0.25,0.43-0.22l-0.01,0.07c0.85-0.36-0.72,0.1-0.45-0.33
						c0.06,0.26-1.04,0.21-1.53,0.17l0.16,0.29c-1.63,0.9,0.08-0.58-1.55-0.44c-1.03,0.22,0.39,0.07-0.24,0.29
						c-0.7-0.03-0.97-0.28-1.99-0.12c-0.29-0.11-0.88-0.24-0.94-0.57c-0.62,0.15-1.9-0.08-2.24,0.25c1.07,0.24,1.05-0.38,2.31,0.01
						l-0.34,0.33c-0.86,0.02-1.96,0.2-2.55,0.12c0.12,0.06,0.18,0.13,0.11,0.21c-1.22,0.19-1.55,0.53-2.75,0.5
						c-0.17-0.28,0.53-0.27,1.03-0.32c-0.78-0.19-0.8,0.03-2,0c-0.08-0.25,0.8-0.03,0.93-0.29l-1.32,0.15c0-0.02,0-0.03,0-0.05
						c-0.16,0.44-1.01,0.01-1.81,0.21c-1.91,0.15-2.16,0.74-3.19,1.17c-0.29-0.09-0.39-0.19-0.28-0.31
						c0.49,0.15,0.39,0.01,0.54-0.11c-0.64,0.09-1.45-0.31-1.1-0.51c-1.01,0.21,0.39,0.19-0.22,0.38l-1.4,0.12
						c0.19,0.2,0.68,0.2-0.02,0.44c-0.6,0.12-0.9,0.11-1.7,0.18c0.1-0.12-0.29-0.3,0.31-0.35c-0.39-0.04-1,0.01-1.21,0.25
						c0.9,0.1-1.41,0.34-0.72,0.61c-0.3-0.04-0.6-0.06-0.89-0.09c0.2-0.02,0.2-0.17,0.5-0.17c-0.29-0.3-0.7,0.19-1,0.26
						c-0.31-0.02-1.12,0.06-1.2-0.06c-0.26,0.13-0.95,0.15-1.1,0c-0.4,0.12,0,0.22-0.11,0.34l-1.4,0.17c-0.1-0.17-0.3-0.65-0.1-0.76
						c-0.5,0.26-0.11,0.57-0.9,0.68c0.4-0.43-1.1-0.09-0.5-0.62c-0.5-0.18-1.81,0.05-2.51,0.27c-0.4,0.35,0.81,0.03,0.81,0.32
						c-2,0.43-1.96,1.28-3.46,1.44l0.4,0c-0.88,0.35-0.78,0.29-1.26,0.64c0.18-0.39-1.25-0.76-2.73-0.29
						c-0.08,0.21,0.92,0.12,0.74,0.46l-0.98,0.3c-0.08-0.01,0.02-0.1,0.13-0.17c-0.85,0.35-1.77-0.04-1.92,0.43l-1.04-0.28
						l0.42,0.13c-0.08,0.19-1.05,0.53-1.24,0.66c-0.95,0.49-1.36,0.45-1.98,0.4c0.22,0.09,0.75,0.28-0.02,0.57
						c-0.17-0.57-1.72,0.3-1.79,0.03c-0.31,0.12-0.93,0.15-0.89,0.39l-0.07-0.36c0.09,0.5-1.06,0.89-1.91,1.29
						c-0.06-0.73-0.93,0.43-1.55,0.02c0.02,0.5-1.47,0.83-1.46,1.26c-0.65,0.3-0.77-0.12-1-0.18c-0.08,0.09-0.16,0.2-0.23,0.3
						c-0.42-0.03-1.66,0.56-2.46,0.81l-0.48,0.71l-0.34-0.03c-0.05,0.16-0.56,0.54-0.15,0.47l-0.36,0.19c0.2,0.41-0.43,0.41-1.03,1
						c-0.2,0.04-0.21-0.08-0.09-0.22c-0.35,0.21-0.32-0.08-0.6-0.09c0.3-0.05-0.82,1.44,0.23,1.04c0.17,0.12-0.32,0.53-0.67,0.72
						l-0.42-0.19l-0.14,0.63c-0.46,0.42-0.83,0.36-1.27,0.63c0.4-0.32,0.47-1.31-0.62-0.49c0.54-0.47,0.69-0.86,0.95-1.15
						c-0.24,0.16-0.38,0.21-0.12-0.19c-0.8,0.74-0.14,0.41-0.97,1.08c-0.17-0.31-0.5-0.26-1.31,0.25c0.23-0.1,0.47-0.17,0.72-0.23
						c0,0.05-0.02,0.11-0.05,0.16c0.24-0.13,0.33-0.13,0.46-0.05c-0.08,0.06-0.27,0.33-0.45,0.58c-0.17,0.27-0.36,0.51-0.5,0.49
						c1.15-0.28-1.09,1.56-0.36,1.36c-0.02,0.16-0.54,0.66-0.72,0.58c0.46-0.78-0.78,0.14-0.85-0.13c-0.17,0.29,0.7-0.27,0.47,0.12
						c-0.37,0.36-0.76,0.52-1.05,0.66l0.1-0.21l-0.67,0.5c0.04,0.22,0.76-0.38,0.32,0.24c-0.19,0.1-0.62,0.72-0.72,0.61
						c0.05-0.43-0.37-0.45,0.02-0.98c-0.35,0.42-1.47,1.74-0.74,1.43c-0.15,0.15-0.26,0.34-0.4,0.51c0.34-0.26,1.28-0.91,0.52,0.1
						l-0.05-0.05l-0.3,0.88l-0.37,0.2c0.08,0.04,0.07,0.21-0.12,0.47c-0.14,0.01-0.35,0.24-0.46,0.13
						c-0.54,0.79-0.34,0.82-0.31,0.99c-0.23,0.48-0.39,0.62-0.46,0.29c-0.39,0.62-0.96,1.77-1.37,2.13
						c-0.25,0.97,0.13-0.16,0.14,0.47c-0.86,0.54-1.5,2.93-1.7,4.51c0.64-0.29-0.05,0.44,0.37,0.83c-0.09-0.37-0.78,1.37-0.6-0.01
						l-0.15,0.84c-0.43,0.52,0.11-1.43-0.51-0.64c-0.22,0.96,0.38,1.68,0.01,2.77c-0.34-0.42,0.02,0.88-0.37,0.56
						c-0.11-0.25-0.03-0.56-0.02-0.89l-0.1,0.19c-0.36,2.11,0.35,0.66,0.55,1.77c0.03,1.26-0.32,0.99-0.51,1.06
						c-0.08,0.2-0.03,0.85,0.07,1.18c-0.23-0.78,0.26-1.44,0.5-1.07c-0.45,0.55-0.06,1.88,0.12,2.21c0.49-1.79,0.04-1.25,0.56-2.9
						c-0.11-0.23-0.59-0.22-0.31-1.21c0.12,0.64,0.23-0.03,0.31-0.19c-0.25,0.17-0.01-0.7-0.07-1.01c0.22-0.25,0.45,0.65,0.67-0.33
						l-0.51-0.27c0.13-0.38,0.37,0.22,0.35-0.63c0.22,0.49,0.45-0.06,0.39,1.06c0.32-0.63,0.29-1.14,0.25-1.63
						c-0.03-0.49-0.14-0.96-0.11-1.5c0.01,0.11,0.07,0.14,0.08,0.25c-0.08-0.25,0.02-0.65,0.07-0.96c0.29-0.64,0.1,0.6,0.29,0.46
						l0.26-1.08c0.02-0.02,0.03-0.02,0.04-0.02c0.01-0.3,0.08-0.57,0.24-0.63c0.05,0.36,0.16,0.53,0.24,0.79
						c-0.01-0.4,0.03-0.79,0.05-1.2c0.12,0.18,0.63-0.77,0.46,0.03l0.54-1.6l0.38,0.02c0.12-0.38,0.05-0.43-0.19-0.01
						c0.31-0.47,0.64-2.55,1.12-1.94c0.09-0.33,0.18-0.59,0.27-0.84c0.1-0.24,0.23-0.43,0.36-0.64c0.26-0.41,0.54-0.85,0.94-1.56
						c-0.44,1.2,1.15-0.88,0.52,0.27c0.54-0.53,0.4-0.84,0.74-1.35c0.49-0.32,0.59,0.11,0.3,0.64l0.34-0.63l0.05,0.06l0.26-0.59
						c0.57-0.35,0.36,0.15,0.84-0.31l-0.13-0.34c0.14-0.07,0.31-0.12,0.46-0.17c-0.23,0.01,0.02-0.3,0.37-0.65l0.04,0.06l0.4-0.44
						c-0.3,0.54,0.45-0.31,0.4,0.04c0.39-0.32,0.37-0.35,1.04-0.97l-0.27-0.08c0.85-0.86,0.25,0.23,1.03-0.33l-0.2-0.17
						c1.37-0.48,1.75-1.62,2.81-1.9c-0.47,0.36-0.19,0.53-0.22,0.46c0.72-0.52,1.94-1.27,2.63-1.94c0.48,0.17,0.6,0.23,1.51-0.05
						c0.6-0.33,0.67-0.41,0.78-0.7c0.63-0.2,1.72-0.84,1.85-0.62c0.06-0.26,0.57-0.2,0.83-0.51l0.11,0.07l-0.15-0.21
						c1.29,0.04,1.74-1.06,3.04-1l-0.17,0.13l0.44-0.26c0.11,0.08-0.06,0.21-0.03,0.36c0.74-0.24,1.46-0.52,2.22-0.72l-0.5-0.05
						c0.46-0.17,0.71-0.5,1.29-0.51c-0.78,0.63,0.75-0.21,0.98,0.03l-0.45,0.24c0.65-0.22,0.65-0.22,0.52-0.45
						c0.83-0.34,0.72,0.29,1.43-0.21l-0.56,0.16c-0.21-0.09,0.14-0.41,0.52-0.52c0.1,0.01,0.39,0.04,0.12,0.16
						c0.65-0.28,1.71-0.4,1.99-0.57c0.39-0.02,0.31,0.19,0.13,0.31c1.4-0.58,0.67-0.12,2.08-0.7l0.01,0.15
						c0.15-0.1,0.31-0.18,0.47-0.28l0.79,0.15l-0.3-0.13c0.48-0.13,0.76-0.29,1.34-0.32l-0.18,0.26c1.34-0.39,1.64,0.01,2.89-0.52
						c0.1,0.02-0.09,0.12-0.19,0.18c1.15-0.54,0.98,0.22,2.13-0.39c-0.06,0.08,0.08,0.15,0.05,0.22l0.53-0.23l0,0.29l0.38-0.5
						l0.39,0.24l0.19-0.17c0.67,0.44,1.46-0.07,2.33,0.22l-0.19-0.34c0.98-0.51,2.17-0.58,3.42-0.57c1.26,0.02,2.56,0.1,3.79-0.21
						l-0.02,0.29l1-0.44c0.58,0.18-0.31,0.27-0.12,0.41c1.09-0.25,0.42-0.46,1.7-0.65c0.68,0.14-0.21,0.23-0.51,0.36
						c1.19-0.24,2.96-0.54,3.83-0.44c0.02-0.04,0.07-0.09,0.02-0.11c0.8-0.17,1.87-0.1,2.76-0.17c-0.01,0.13-0.23,0.17-0.45,0.21
						c0.32,0,0.76,0.07,1.03-0.08l-0.32,0.27c0.68,0.01,1.99-0.29,2.15,0c-0.09-0.11-0.06-0.33,0.53-0.33
						c0.34,0.43,1.6-0.24,2.56-0.03c-0.11,0.11-0.8,0.15-0.61,0.15c0.48,0.1,0.9-0.12,1.31-0.27l-0.12,0.18
						c0.73-0.1,1.47-0.22,2.2-0.31c0.34,0.44,2.09-0.09,1.94,0.23c0.79,0.01-0.67-0.19,0.33-0.25c0.27,0.18,0.9-0.1,0.86,0.19
						l-0.11,0.04l0.7-0.03l-0.44,0.29c0.6-0.07,1.04-0.36,1.07-0.57c0.57,0.14,1.38,0.03,1.64,0.28l-0.21,0.07
						c1.6-0.11,2.65,0.79,3.91,0.31c0.09,0.04,0.08,0.11-0.11,0.11l0.99,0.02l-0.24,0.21l1.64-0.3l-0.02,0.14
						c1.08,0.08,2.77,0.04,4.16,0.03l-0.21,0.06c1.52-0.18,1.46,0.19,2.57,0.07c-0.04,0.04-0.08,0.05-0.12,0.06l1,0.03l-0.23,0.13
						c0.75-0.28,2.1,0.48,1.65,0.2c0.42-0.12,1.15-0.26,1.28-0.43c1.09,0.04,0.26,0.2,0.93,0.36c0.79,0.05,0.94-0.19,2,0l-0.03,0.14
						c0.5,0,0.82-0.09,1.51-0.07l-0.21,0.06c1.15-0.25,1.39,0.49,2.32-0.08c0.47,0.15,1.38,0.11,1.32,0.4
						c1.42-0.1,2.53-0.12,3.94-0.14c0.19,0.49,0.3-0.01,1.13,0.33l-0.04-0.26c1.99,0.12,4.22,0.9,6.41,1l0.04,0.26l0.46-0.24
						c2.34,0.31,5.38,0.7,7.25,0.89c0.63-0.07,1.59-0.29,2.56-0.1l-0.11,0.02c1.71,0.03,3.52,0.12,5.35,0.46
						c-0.13,0.09,0.05,0.19-0.17,0.24c0.47-0.23,1.09,0.1,1.48,0.16l-0.44-0.24c0.55-0.18,1.28,0.14,1.53,0.36l0.86-0.18
						c0.05,0.03,0.13,0.08,0.14,0.12l0.16-0.12l0.4,0.39c0.21-0.04,1.32,0,1.71-0.28c0.07,0.12,0.83,0.3,0.23,0.29l3.03,0.47
						l-0.46-0.18c-0.03-0.26,0.91-0.31,1.36-0.13c-0.64,0.13-0.1,0.35,0.15,0.57c0.43-0.08-0.33-0.27-0.1-0.38
						c0.54-0.1,1.65-0.05,1.91,0.09l-0.32,0.06c0.72,0,0.99,0.47,1.68,0.54c0.65-0.12,1.09,0.13,1.01-0.32
						c0.91,0.03,0.31,0.34,0.59,0.42c0.45-0.15,1.69,0.15,1.82,0.39c0.58-0.57,2.39,0.55,2.65,0.05l0.7,0.41
						c0.04-0.14,0.23-0.44,0.84-0.41c0.54,0.23,0.37,0.47,0.52,0.64l0.45-0.48c3.17,1.02,7.52,1.28,11.01,2.3
						c1.6,0.14,3.65,0.19,5.49,0.57l-0.22,0.03l1.82,0.44l-1.3-0.46c0.41,0,0.74-0.05,1.13,0.02c1.99,0.54,4.64,1.26,7.17,1.41
						c1.71-0.34,0.98,0.72,2.59,0.54c-0.14,0.03-0.21,0.11-0.33,0.15c1.69,0.09,2.61,0.14,4.34,0.07c-0.3,0.57,1.08,0.18,0.88,0.47
						l0.18-0.22c0.34,0.22,1.2,0.43,1.05,0.58l0.79-0.17l0.02,0.26c0.97,0.2,3.09,0.36,3.51,0.97c2.47,0.06,6.25,0.88,9.24,1.56
						c0.46-0.13,1.35,0.03,2.04,0.14l0.68,0.44c0.72,0.04,1.53-0.19,2.15,0.13c-0.01,0.03-0.04,0.05-0.09,0.06
						c0.72,0.08,1.37,0.37,2.08,0.22c0.77,0.17,1.5,0.48,1.21,0.71c0.17-0.48,1.63,0.4,1.63,0.4s9.92,2.28,21.07,4.7
						c11.16,2.4,23.54,4.97,28.68,4.86c0.38-0.16,1.32-0.09,1.05-0.47c0.71,0.08,0.92,0.59,1.11,0.38c-0.89-0.4,0.45-0.55-0.39-1.09
						l0.6,0.09c0.17-0.14-0.85-0.01-0.63-0.28l-0.28,0.41c-0.46-0.19-0.7-0.35-0.83-0.55c-0.5,0.06-0.93,0.6-1.94,0.07l0.3,0.05
						c-0.88-0.2-0.46-0.43-0.63-0.54l0.19,0.05l-0.68-0.41c0.52,0.29,1.54,0.15,1.05,0.06c-1.01-0.39,0.24,0.18-0.55,0.04
						c-0.49-0.1-0.3-0.31-0.24-0.44l-0.88-0.2c0.08-0.2,0.58,0.15,0.28-0.15l-1.16-0.05c-0.08-0.58-1.26-0.03-1.64-0.66
						c0.82,0.07-0.03-0.2,0.14-0.34l-1.95-0.44c-0.17-0.12,0.55-0.04,0.25-0.09c-0.33-0.24-0.63-0.01-0.83-0.07
						c-0.13-0.19-1.45-0.34-1.32-0.68c-1.26-0.55-0.66,0.32-1.85-0.18c-0.11-0.25,0.99,0.18,0.5-0.17l-1.3-0.22
						c0.14-0.08,0.33-0.29,0.8-0.13c-3.39-1.09-4.99-2.66-8.23-3.09c-0.39-0.36,0.36-0.1,0.72-0.2c-2.37-0.18-3.1-1.29-5.06-1.7
						l-0.08,0.2c-2.58-1.27-5.95-1.59-8.98-2.53l0.34,0.23c-0.47,0.11-1.16-0.01-1.69-0.03c-0.05-0.12,0.46-0.38-0.45-0.48
						c0.17,0.11,0.53,0.27,0.4,0.35c-2.53-1.12-8.17-2.16-12.48-3.31c-5.94-1.03-12.28-2.69-18.13-3.64
						c0.89,0.15,0.42,0.6-0.23,0.36c-1.67-1.23-3.2-0.44-4.96-1.38c-3.45-0.33-6.35-1.63-9.63-1.49l-0.02-0.26
						c-0.45-0.19-0.61-0.04-1.11-0.1l0.02-0.07c-1.16-0.29-2.62-0.27-3.27-0.51l-0.09,0.28c-0.7-0.09-0.33-0.28-1.07-0.24l0.04-0.14
						l-0.88,0.13c0.16-0.49-1.96-0.36-2.48-0.67c-0.92-0.06-2.66-0.12-4.02-0.43c-0.21-0.3-1.9-0.56-2.95-0.85
						c-2.1-0.27-5.1-0.61-7.75-1.1l0,0.33l-0.7-0.08c0.02-0.07-0.07-0.12,0.04-0.14c-0.49-0.44-1.62-0.11-2.15-0.42
						c0.31,0.34,0.48,0.11,0.88,0.18c0.55,0.24-0.04,0.47-0.79,0.2l0.03-0.07l-0.55,0.1c-0.02-0.26-0.48-0.45-0.51-0.71
						c-2.3-0.27-3.92-0.03-6.27-0.47c0.28-0.25-1.71-0.15-1.17-0.58c-1.45,0,0.18,0.43-0.51,0.69c-0.4-0.06-0.83,0.02-0.88-0.17
						c0.2-0.09-0.28-0.34,0.04-0.34l-0.96-0.08c-0.09-0.05,0.13-0.09,0.24-0.11c-1.97,0.04-3.39-0.75-5.17-0.68
						c-0.15,0.16,0.68,0.13,0.54,0.3c-1.79,0.15-1.51-0.5-3.17-0.44l0.37-0.21c-0.55,0.11-0.8,0.29-1.64-0.01
						c-0.12-0.31,0.76-0.15,1.2-0.24c-0.59-0.08-2.11-0.18-1.68,0.13c-0.72,0.01-0.95-0.28-1.33-0.4c-0.02,0.07,0.64,0.27,0.21,0.36
						c-0.95-0.27-2.46-0.42-3.64-0.58c0.02-0.07-0.05-0.19,0.05-0.21C175.59,206.64,175.76,206,174.44,205.94z"/>
					<path class="at0" d="M110.56,205.3l0.49,0.02c0-0.06,0.01-0.14,0.23-0.22L110.56,205.3z"/>
					<path class="at0" d="M133.52,205.01c0.06-0.02,0.12-0.04,0.17-0.08C133.58,204.94,133.54,204.97,133.52,205.01z"/>
					<path class="at0" d="M139.1,204.63c-0.4,0.05-0.05,0.14,0.14,0.22C139.26,204.79,139.25,204.72,139.1,204.63z"/>
					<path class="at0" d="M97.65,207.36c0.08-0.04,0.13-0.08,0.1-0.14C97.65,207.28,97.63,207.32,97.65,207.36z"/>
					<path class="at0" d="M63.13,218.46c0.05-0.02,0.09-0.03,0.15-0.05C63.24,218.41,63.19,218.43,63.13,218.46z"/>
					<path class="at0" d="M65.11,217.72c0.09-0.05,0.19-0.13,0.33-0.25C65.28,217.55,65.18,217.64,65.11,217.72z"/>
					<path class="at0" d="M106.32,206.29c0.13-0.02,0.26-0.05,0.37-0.12C106.49,206.19,106.39,206.24,106.32,206.29z"/>
					<path class="at0" d="M65.78,217.19l0.46-0.24c-0.01-0.02-0.01-0.03-0.02-0.05L65.78,217.19z"/>
					<path class="at0" d="M62.57,218.83c0.17-0.11,0.4-0.28,0.55-0.36C62.87,218.55,62.7,218.67,62.57,218.83z"/>
					<path class="at0" d="M84.69,210.14c0.02-0.01,0.03-0.01,0.05-0.02C85.1,209.9,84.87,210.01,84.69,210.14z"/>
					<path class="at0" d="M67.5,215.64c0.02-0.01,0.04-0.01,0.07-0.02l0.1-0.14L67.5,215.64z"/>
					<path class="at0" d="M60.67,220.09c0.08-0.06,0.14-0.13,0.18-0.2c-0.07,0.04-0.16,0.09-0.26,0.15
						C60.64,220.05,60.66,220.07,60.67,220.09z"/>
					<path class="at0" d="M77.26,211.79c-0.1,0.15-0.13,0.24-0.12,0.29C77.3,212.02,77.38,211.94,77.26,211.79z"/>
				</g>
			</g>
		</g>
	</g>
</g>
<g>
</g>
<g>
</g>
<g>
</g>
<g>
</g>
<g>
</g>
<g>
</g>
</svg>
