<svg id="Layer_1" data-name="Layer 1" xmlns="http://www.w3.org/2000/svg" viewBox="0 0 197.54 143.08"><defs><style>.cls-1{fill:#231f20;}</style></defs><g id="lVQYz8.tif"><path class="cls-1" d="M98.85,0c24.78,0,49.55-.06,74.33,0,17.53.06,24.26,6.59,24.3,23.65q.12,47.91,0,95.84c0,17-6.83,23.47-24.47,23.49q-74.32.09-148.65,0C6.83,143,.1,136.43.06,119.38q-.12-47.92,0-95.84C.11,6.58,6.89.1,24.53,0,49.3,0,74.08,0,98.85,0Zm-80,17.79C16.69,32.72,16.74,32.66,27.58,41,44.81,54.13,61.87,67.52,79.21,80.57c16.31,12.26,22.81,12.26,39.11,0,17.35-13,34.08-26.87,51.78-39.43,8.75-6.21,11.64-13.06,8.54-23.33Zm-.36,107.4h160.2V55.63C163.27,67.37,149,77.81,135.28,88.82c-29.61,23.7-42.18,23.88-72.08.62-14.35-11.15-28.92-22-44.75-34.06Z"/></g></svg>