<svg id="Layer_1" data-name="Layer 1" xmlns="http://www.w3.org/2000/svg" viewBox="0 0 200 195.47"><g id="_1kWURV.tif" data-name="1kWURV.tif"><path d="M105.25,0c4.35.59,8.72,1.05,13,1.81,21.68,3.8,39.88,14.12,54.85,30.05a95.84,95.84,0,0,1,26.24,57c3.47,33.55-7.49,61.92-31.78,85.17-10,9.54-21.74,16.14-34.7,20.71-2.07.73-4.36,1.27-6-.38a7.24,7.24,0,0,1-1.93-4.54c-.18-8.88,0-17.77-.11-26.65,0-6.16-.91-12.12-5-17.08-.39-.47-.78-.92-1.17-1.38,0,0,0-.14,0-.3,3.91-.75,7.86-1.31,11.72-2.28,10.26-2.58,19.35-7.17,25.54-16.16,4-5.85,6.07-12.53,7.08-19.49,1.18-8.16,1.43-16.31-1.14-24.32a34.55,34.55,0,0,0-6.95-12.4,3.23,3.23,0,0,1-.73-3.64c2.66-8,1.62-15.85-1.36-23.54a2.06,2.06,0,0,0-1.62-1.11c-2.62.26-5.42.24-7.77,1.24-5.62,2.4-11.06,5.24-16.49,8.06a4.86,4.86,0,0,1-3.8.69,84,84,0,0,0-27.72-2.66c-6,.44-11.84,1.57-17.74,2.55A5.71,5.71,0,0,1,73,50.58a61.25,61.25,0,0,0-20-8.9l-.22-.07c-4.3-1-5.46-.3-6.65,3.87-2,7.14-2.57,14.29,0,21.46a2.58,2.58,0,0,1-.39,2.16c-8.9,10.1-10.3,22.05-8.92,34.79a54.5,54.5,0,0,0,4.83,17.43c5.27,11.25,14.86,17.08,26.26,20.37,4.4,1.27,9,1.88,13.72,2.83a22.23,22.23,0,0,0-6,12.5c-.08.49-.81,1.07-1.36,1.27-11.17,4.07-20.84,2.87-27.41-8.12-3.52-5.9-8.37-10-15.38-10.84-1.53-.18-3.19.75-4.79,1.16.86,1.27,1.42,3,2.61,3.74,6.64,4,10,10.25,12.91,17.08,2.65,6.28,8,9.27,14.46,10.5a42.85,42.85,0,0,0,18.61-.2c0,3.58,0,6.89,0,10.2,0,2.74.08,5.47,0,8.21,0,4-2.83,6.39-6.62,5.08a97.26,97.26,0,0,1-15.26-6.36C24.19,172.81,6.83,148.33,1.05,115.63.6,113.1.35,110.54,0,108V92.51c.54-3.58,1-7.18,1.63-10.74A97,97,0,0,1,22.87,36.4C38.3,18,57.76,6.18,81.52,1.83,85.91,1,90.35.6,94.77,0Z"/></g></svg>