<?xml version="1.0" encoding="utf-8"?>
<!-- Generator: Adobe Illustrator 25.2.1, SVG Export Plug-In . SVG Version: 6.00 Build 0)  -->
<svg version="1.1" xmlns="http://www.w3.org/2000/svg" xmlns:xlink="http://www.w3.org/1999/xlink" x="0px" y="0px"
	 viewBox="0 0 200 195.5" style="enable-background:new 0 0 200 195.5;" xml:space="preserve">
<g id="Layer_2">
</g>
<g id="Layer_1">
	<g id="_1kWURV.tif">
		<path d="M105.2,0c4.3,0.6,8.7,1,13,1.8c21.7,3.8,39.9,14.1,54.9,30c14.9,15.5,24.1,35.6,26.2,57c3.5,33.6-7.5,61.9-31.8,85.2
			c-10,9.5-21.7,16.1-34.7,20.7c-2.1,0.7-4.4,1.3-6-0.4c-1.2-1.2-1.8-2.8-1.9-4.5c-0.2-8.9,0-17.8-0.1-26.6c0-6.2-0.9-12.1-5-17.1
			c-0.4-0.5-0.8-0.9-1.2-1.4c0,0,0-0.1,0-0.3c3.9-0.8,7.9-1.3,11.7-2.3c10.3-2.6,19.4-7.2,25.5-16.2c4-5.8,6.1-12.5,7.1-19.5
			c1.2-8.2,1.4-16.3-1.1-24.3c-1.4-4.6-3.8-8.8-6.9-12.4c-1-0.9-1.3-2.4-0.7-3.6c2.7-8,1.6-15.8-1.4-23.5c-0.3-0.6-0.9-1-1.6-1.1
			c-2.6,0.3-5.4,0.2-7.8,1.2c-5.6,2.4-11.1,5.2-16.5,8.1c-1.1,0.7-2.5,1-3.8,0.7c-9-2.4-18.4-3.3-27.7-2.7c-6,0.4-11.8,1.6-17.7,2.5
			c-1.6,0.4-3.3,0.2-4.7-0.8c-6.1-4.1-12.9-7.2-20-8.9l-0.2-0.1c-4.3-1-5.5-0.3-6.7,3.9c-2,7.1-2.6,14.3,0,21.5
			c0.2,0.7,0.1,1.5-0.4,2.2c-8.9,10.1-10.3,22.1-8.9,34.8c0.6,6,2.3,11.9,4.8,17.4c5.3,11.2,14.9,17.1,26.3,20.4
			c4.4,1.3,9,1.9,13.7,2.8c-3.3,3.4-5.4,7.8-6,12.5c-0.1,0.5-0.8,1.1-1.4,1.3c-11.2,4.1-20.8,2.9-27.4-8.1
			c-3.5-5.9-8.4-10-15.4-10.8c-1.5-0.2-3.2,0.8-4.8,1.2c0.9,1.3,1.4,3,2.6,3.7c6.6,4,10,10.2,12.9,17.1c2.7,6.3,8,9.3,14.5,10.5
			c6.1,1.3,12.5,1.2,18.6-0.2c0,3.6,0,6.9,0,10.2c0,2.7,0.1,5.5,0,8.2c0,4-2.8,6.4-6.6,5.1c-5.3-1.7-10.4-3.8-15.3-6.4
			C24.2,172.8,6.8,148.3,1,115.6c-0.4-2.5-0.7-5.1-1-7.6V92.5c0.5-3.6,1-7.2,1.6-10.7c3-16.7,10.3-32.4,21.2-45.4
			C38.3,18,57.8,6.2,81.5,1.8C85.9,1,90.3,0.6,94.8,0H105.2z"/>
	</g>
</g>
</svg>
