<?xml version="1.0" encoding="utf-8"?>
<!-- Generator: Adobe Illustrator 24.1.3, SVG Export Plug-In . SVG Version: 6.00 Build 0)  -->
<svg version="1.1" xmlns="http://www.w3.org/2000/svg" xmlns:xlink="http://www.w3.org/1999/xlink" x="0px" y="0px"
	 viewBox="0 0 200 176.36" style="enable-background:new 0 0 200 176.36;" xml:space="preserve">
<g id="Layer_1">
	<rect x="116.33" y="129.48" width="54.48" height="46.88"/>
	<rect x="29.19" y="129.48" width="54.48" height="46.88"/>
</g>
<g id="Layer_2">
	<path d="M95.69,61c-17.43,17.43-34.85,34.85-52.28,52.28c-4.14,4.14-8.29,8.29-12.43,12.43c-0.29,0.29-1.79,1.84-1.79,4.31
		c0,1.56,0.6,3.12,1.79,4.31h138.05c2.38-2.38,2.38-6.24,0-8.62L104.31,61C101.93,58.62,98.07,58.62,95.69,61z"/>
	<path d="M87.46,23.06l96.11,98.47c1.53,1.56,4,1.56,5.52,0l9.76-10c1.53-1.56,1.53-4.1,0-5.66L102.74,7.4c-1.53-1.56-4-1.56-5.52,0
		l-9.76,10C85.93,18.96,85.93,21.49,87.46,23.06z"/>
	<path d="M16.43,121.53l96.11-98.47c1.53-1.56,1.53-4.1,0-5.66l-9.76-10c-1.53-1.56-4-1.56-5.52,0L1.14,105.87
		c-1.53,1.56-1.53,4.1,0,5.66l9.76,10C12.43,123.09,14.9,123.09,16.43,121.53z"/>
	<path d="M175.13,86.44l-1.67-61.27c-0.03-0.97-1.82-1.77-4-1.78l-13.97-0.08c-2.18-0.01-3.93,0.77-3.91,1.74l1.67,61.27
		c0.03,0.97,1.82,1.77,4,1.78l13.97,0.08C173.41,88.19,175.16,87.41,175.13,86.44z"/>
</g>
</svg>
