<?xml version="1.0" encoding="utf-8"?>
<!-- Generator: Adobe Illustrator 25.2.1, SVG Export Plug-In . SVG Version: 6.00 Build 0)  -->
<svg version="1.1" id="Layer_1" xmlns="http://www.w3.org/2000/svg" xmlns:xlink="http://www.w3.org/1999/xlink" x="0px" y="0px"
	 viewBox="0 0 142.8 121.6" style="enable-background:new 0 0 142.8 121.6;" xml:space="preserve">
<g id="Layer_1_3_">
	<g id="Layer_1_2_">
		<g id="Layer_1_1_">
			<rect x="83" y="87.9" width="38.6" height="33.2"/>
			<rect x="21.2" y="87.9" width="38.6" height="33.2"/>
		</g>
		<g id="Layer_2_2_">
			<path d="M68.3,39.3C56,51.7,43.6,64,31.3,76.4c-2.9,2.9-5.9,5.9-8.8,8.8c-0.2,0.2-1.3,1.3-1.3,3.1c0,1.1,0.4,2.2,1.3,3.1h97.9
				c1.7-1.7,1.7-4.4,0-6.1l-45.9-46C72.8,37.6,70,37.6,68.3,39.3z"/>
			<path d="M62.5,12.4l68.1,69.8c1.1,1.1,2.8,1.1,3.9,0l6.9-7.1c1.1-1.1,1.1-2.9,0-4L73.3,1.3c-1.1-1.1-2.8-1.1-3.9,0l-6.9,7.1
				C61.4,9.5,61.4,11.3,62.5,12.4z"/>
			<path d="M12.2,82.2l68.1-69.8c1.1-1.1,1.1-2.9,0-4l-6.9-7.1c-1.1-1.1-2.8-1.1-3.9,0L1.3,71.1c-1.1,1.1-1.1,2.9,0,4l6.9,7.1
				C9.3,83.3,11.1,83.3,12.2,82.2z"/>
			<path d="M124.7,57.4L123.5,14c0-0.7-1.3-1.3-2.8-1.3l-9.9-0.1c-1.5,0-2.8,0.5-2.8,1.2l1.2,43.4c0,0.7,1.3,1.3,2.8,1.3l9.9,0.1
				C123.4,58.6,124.7,58.1,124.7,57.4z"/>
		</g>
	</g>
</g>
</svg>
