<?xml version="1.0" encoding="utf-8"?>
<!-- Generator: Adobe Illustrator 25.2.1, SVG Export Plug-In . SVG Version: 6.00 Build 0)  -->
<svg version="1.1" xmlns="http://www.w3.org/2000/svg" xmlns:xlink="http://www.w3.org/1999/xlink" x="0px" y="0px"
	 viewBox="0 0 412.8 412.1" style="enable-background:new 0 0 412.8 412.1;" xml:space="preserve">
<style type="text/css">
	.st0{fill:#FFFFFF;}
</style>
<g id="Layer_3">
</g>
<g id="Layer_2_1_">
	<g id="XaoLGw.tif">
		<path d="M23.7,0h364.7c0.4,0.3,0.8,0.5,1.3,0.7c12.2,3,22.4,15.1,22.4,28.1c-0.1,118.2-0.1,236.3,0,354.5
			c0,14.4-13.7,28.1-28,28.1c-118.5,0-237-0.1-355.5-0.1c-10.6,0-18.7-5.2-24-14.2c-2.1-3.5-3.1-7.6-4.6-11.4v-360
			c0.3-0.4,0.6-0.8,0.7-1.3c1.3-7.9,5-14.3,11.7-18.7C15.9,3.4,19.9,1.9,23.7,0z M351.2,350.5c0.1-1.2,0.1-2.1,0.1-3
			c0-35.9,0-71.7,0-107.6c0-15.5-1.1-30.8-5.5-45.8c-5.1-17.5-14.9-31.2-32.2-38.5c-15.1-6.4-31-7.7-47-5.4
			c-19,2.7-34.3,11.8-44.9,28.1c-0.5,0.8-1.1,1.5-1.6,2.3l-0.8-0.2v-25.9h-58.2v196H222v-4.2c0-31.6-0.1-63.1,0.1-94.7
			c0-6.1,0.5-12.1,1.4-18.1c2.8-16.1,10.8-28,29.6-29.9c17.1-1.8,30.5,4.2,34.5,22.9c1.6,7.9,2.5,16,2.5,24.1
			c0.3,32,0.1,64.1,0.1,96.1v4H351.2z M61.6,154.3v196.1h60.7V154.3H61.6z M92.1,56.6C72.5,56.2,56.3,71.8,56,91.3
			c-0.4,19.6,15.2,35.7,34.7,36.1c0.4,0,0.8,0,1.2,0c19.2,0.1,35.3-15.5,35.5-34.3C127.5,72.6,112.2,56.8,92.1,56.6z"/>
		<path class="st0" d="M0,385.7c1.5,3.8,2.5,7.9,4.6,11.4c5.4,9,13.4,14.2,24,14.2c118.5,0.1,237,0.1,355.5,0.1
			c14.2,0,28-13.7,28-28.1c-0.1-118.2-0.1-236.3,0-354.5c0-13-10.2-25.1-22.4-28.1c-0.5-0.2-0.9-0.4-1.3-0.7h24.4v412.1H0V385.7z"/>
		<path class="st0" d="M23.7,0c-3.8,1.9-7.8,3.4-11.2,5.7C5.8,10.1,2.1,16.6,0.7,24.4c-0.2,0.5-0.4,0.9-0.7,1.3V0H23.7z"/>
		<path class="st0" d="M351.2,350.5h-61v-4c0-32,0.2-64.1-0.1-96.1c0-8.1-0.9-16.2-2.5-24.1c-4-18.7-17.4-24.6-34.5-22.9
			c-18.8,1.9-26.9,13.8-29.6,29.9c-1,6-1.4,12.1-1.4,18.1c-0.1,31.6-0.1,63.2-0.1,94.7v4.2h-60.9v-196h58.2v25.9l0.8,0.2
			c0.5-0.8,1.1-1.5,1.6-2.3c10.6-16.3,25.9-25.4,44.9-28.1c16.1-2.3,31.9-1,47,5.4c17.3,7.3,27,21.1,32.2,38.5
			c4.4,14.9,5.5,30.3,5.5,45.8c0,35.9,0,71.7,0,107.6C351.3,348.4,351.2,349.3,351.2,350.5z"/>
		<path class="st0" d="M61.6,154.3h60.7v196.1H61.6V154.3z"/>
		<path class="st0" d="M92.1,56.6c20.2,0.2,35.4,16,35.2,36.5c-0.2,18.8-16.3,34.4-35.5,34.3c-19.6,0.3-35.7-15.4-35.9-35
			s15.4-35.7,35-35.9C91.3,56.6,91.7,56.6,92.1,56.6z"/>
	</g>
</g>
</svg>
