<svg id="Layer_2" data-name="Layer 2" xmlns="http://www.w3.org/2000/svg" viewBox="0 0 412.8 412.12"><defs><style>.cls-1{fill:#fff;}</style></defs><g id="XaoLGw.tif"><path d="M23.69,0H388.43a5.64,5.64,0,0,0,1.3.73c12.2,3,22.4,15.05,22.38,28.07q-.18,177.24,0,354.47c0,14.4-13.73,28.12-28,28.12q-177.73-.06-355.49-.07c-10.63,0-18.68-5.22-24-14.2-2.08-3.46-3.07-7.58-4.56-11.39v-360a4.31,4.31,0,0,0,.72-1.3c1.34-7.86,5-14.34,11.73-18.72C15.94,3.42,19.92,1.88,23.69,0ZM351.17,350.51c.06-1.25.14-2.13.14-3q0-53.79,0-107.59c0-15.46-1.11-30.83-5.5-45.76-5.14-17.46-14.87-31.24-32.17-38.52-15.12-6.36-31-7.66-47.05-5.39-19,2.69-34.27,11.77-44.91,28.05-.51.78-1.08,1.52-1.62,2.28l-.78-.2V154.44H161.08v196H222v-4.21c0-31.57-.07-63.15.06-94.73a112.45,112.45,0,0,1,1.41-18.15c2.75-16.13,10.77-28,29.61-29.93,17.12-1.75,30.53,4.21,34.5,22.9a121.76,121.76,0,0,1,2.49,24.1c.28,32,.12,64.06.12,96.09v4ZM61.57,154.33V350.45h60.69V154.33ZM92.08,56.59a35.44,35.44,0,1,0-.21,70.87c19.19.06,35.27-15.5,35.46-34.32C127.53,72.59,112.25,56.76,92.08,56.59Z"/><path class="cls-1" d="M0,385.73c1.49,3.81,2.48,7.93,4.56,11.39,5.37,9,13.42,14.2,24.05,14.2q177.75.1,355.49.07c14.25,0,28-13.72,28-28.12Q412,206,412.11,28.8c0-13-10.18-25.1-22.38-28.07a5.64,5.64,0,0,1-1.3-.73H412.8V412.12H0Z"/><path class="cls-1" d="M23.69,0c-3.77,1.88-7.75,3.42-11.24,5.7C5.76,10.08,2.06,16.56.72,24.42A4.31,4.31,0,0,1,0,25.72V0Z"/><path class="cls-1" d="M351.17,350.51h-61v-4c0-32,.16-64.06-.12-96.09a121.76,121.76,0,0,0-2.49-24.1c-4-18.69-17.38-24.65-34.5-22.9-18.84,1.92-26.86,13.8-29.61,29.93a112.45,112.45,0,0,0-1.41,18.15c-.13,31.58-.06,63.16-.06,94.73v4.21H161.08v-196h58.19v25.92l.78.2c.54-.76,1.11-1.5,1.62-2.28,10.64-16.28,25.92-25.36,44.91-28.05,16.07-2.27,31.93-1,47.05,5.39,17.3,7.28,27,21.06,32.17,38.52,4.39,14.93,5.48,30.3,5.5,45.76q.07,53.8,0,107.59C351.31,348.38,351.23,349.26,351.17,350.51Z"/><path class="cls-1" d="M61.57,154.33h60.69V350.45H61.57Z"/><path class="cls-1" d="M92.08,56.59c20.17.17,35.45,16,35.25,36.55-.19,18.82-16.27,34.38-35.46,34.32a35.44,35.44,0,1,1,.21-70.87Z"/></g></svg>