<?xml version="1.0" encoding="utf-8"?>
<!-- Generator: Adobe Illustrator 24.1.0, SVG Export Plug-In . SVG Version: 6.00 Build 0)  -->
<svg version="1.1" id="Layer_1" xmlns="http://www.w3.org/2000/svg" xmlns:xlink="http://www.w3.org/1999/xlink" x="0px" y="0px"
	 viewBox="0 0 605.33 462.43" style="enable-background:new 0 0 605.33 462.43;" xml:space="preserve">
<style type="text/css">
	.st0{fill:#FFCD05;}
	.st1{fill:#231F20;}
	.st2{fill:#FFFFFF;}
</style>
<g id="Layer_1_1_">
	<g>
		<rect x="6.6" y="7.17" class="st0" width="594.57" height="449.21"/>
		<g>
			<path class="st1" d="M1.1,440.22C1.1,441.11,1.1,441.55,1.1,440.22z"/>
			<path class="st1" d="M258.45,0.57h0.67c0.48-0.15,0.94-0.28,1.38-0.38L258.45,0.57z"/>
			<path class="st1" d="M368.61,1.51h0.67C369.23,1.46,369.36,1.37,368.61,1.51z"/>
			<path class="st1" d="M1.4,5.42c0,1.64,0,2.57,0.07,3.25C1.44,7.72,1.41,6.73,1.4,5.42z"/>
			<path class="st1" d="M192.32,461.09h-0.48l1.18,0.09L192.32,461.09z"/>
			<path class="st1" d="M190.1,461.35c-2.43-0.11,0.67-0.22,1.74-0.25c-2.69-0.19-5.39-0.23-8.09-0.12
				C183.77,461.21,188.9,461.17,190.1,461.35z"/>
			<path class="st1" d="M558.54,460.45l-1.1,0.09C557.89,460.52,558.23,460.48,558.54,460.45z"/>
			<path class="st1" d="M15.42,13.34l-1.63,0.05C14.33,13.4,14.88,13.39,15.42,13.34z"/>
			<path class="st1" d="M500.73,460.22l-0.63,0.37C500.66,460.43,500.78,460.32,500.73,460.22z"/>
			<path class="st1" d="M260.5,0.19l0.79-0.14C261.02,0.08,260.76,0.13,260.5,0.19z"/>
			<path class="st1" d="M470.4,1.74c0,0.12,0.27,0.21,0.54,0.28h0.29L470.4,1.74z"/>
			<path class="st1" d="M600.75,389.47c0.07-0.08,0.12-0.17,0.15-0.27l-0.26-2.05C600.66,388.23,600.7,389,600.75,389.47z"/>
			<path class="st1" d="M605,16c0.03,0.16,0.08,0.32,0.13,0.47c0-0.39,0-0.89,0.06-1.49c0-0.83,0-1.8,0-2.9c0-2.47,0-5.52,0-9
				h-11.43l-0.49,0.45l11.64-0.08L605,16z"/>
			<path class="st1" d="M594.49,168.71l0.91-14.88c0.41,47.77-0.5,70.06,0.24,110.95l-0.2-2.27c-0.21,6,1.83,9.31-0.66,75.07h-0.09
				c0.11,2.27,0.09,4.55-0.05,6.82l0.56-11.4c0.23,6.81,0.66,12.76,0.72,21.84c0.05,0.94-0.1,1.89-0.43,2.77l0.15,22.27l-0.58,6.82
				c0.31,6.81,1.55,3.71,0.86,21.91c0.86-6.86,0.52,9,1,6.79c-0.1,0.92-0.26,3-0.41,4.68c0.1,10.83,0.34,31.22,0.78,36.27
				c0,0,1.81-42.37,2.73-53.76c-0.24,15.24,0.1,4,0.39,1l-0.21-1c0.21-9.14,0.75-9.14,0.9-13.7c0,0-0.1,0.14-0.15,0.27l0.07,0.58
				c-0.1,0.43-0.16,0.18-0.22-0.31c-0.11,0.11-0.2-0.31-0.17-2.8l0.06,0.48c-0.08-3.82,0-10.41,0-13.27l0.45-0.06
				c-0.86-6.77,1.32-45.5,1.35-54.59c0.57-9.13-0.14-20.46,0.14-31.85c0.15-18.17,0.66-9.09,1-18.21c0.29-11.39-0.53,2.31-0.56-2.26
				l0.63-13.65c0.06,7.93,0.33,3.63,0.51,2.17c0.07-11.79,0.9-30.4,0-34c0.43-15.91,0.79-16,0.84-22.78
				c-0.17,2.29-0.32,6.83-0.5,6.87c0.4-6.38-0.1-3.05-0.19-0.44c-0.39-9.73,1.65-50.47,0.66-52.52h0.18
				c-0.74-2.25-1.46,1.37-1.86-5.42l0.33-4.53l-0.32-6.82c0.24-4.58,0.44-2.33,0.53-2.33c-0.34-11.11,0.06-26.62,0.16-40.09
				l-2,14.26c0.46-11.36,1.41-31.85,0.76-34.12l0.68-6.82c1.29-22.77-0.57-15.9-0.18-25l0.74-11.44v11.4
				c0.37-11.38,0.61-15.93,1.09-25v-0.1c0,0.38-0.03,0.75-0.11,1.12L605,16c-0.23-1.23-0.34-2.47-0.33-3.72
				c-0.1-2.23-0.17-5.08-0.21-8.42c-2.83,0-6,0-9.45,0h-4.5h-4.08L578,4c-5.92,0-12.69,0-21.78-0.43l-4.54,0.76L538,3.9V3.3
				c13.37,0,38.55-0.2,55.74-0.23c0.1-0.11,0.23-0.2,0.36-0.27c-10.3,0-21.83,0.27-28.58,0.21c-3.29-0.12-11.69-0.75-5.59-1.15
				l-6.3,0.58c-34,0.07-34.25,0.1-69.77-0.58l3.09,0.3c-7.05,0.18-14.07,0.35-16-0.14c-21.33-0.09-43.42-0.47-57.26-1.23l-3,0.7
				c-4.51,0-11.26-1.1-13.45-0.11l-9.62,0.31c-6.16-0.06-9.93,0.35-16.93-0.06l0,0l-1.33-0.08c0,0,0,0,0.08,0.06
				c-13.93-0.32,0.14,0.63-15.81,0.22c-5.12-0.5-5.66,0.9-13.43,0.74l-7.81-1C318.23,1,315.82,2,295.41,2c-9.79-0.36-14.53-1.22-8-2
				c-8.92,0.93-4.06,0.61-15.9,1.05c-1.82-0.38-0.56-0.46,2.06-0.81C263-0.2,267,0.59,259.12,0.57c-2.31,0.72-5,1.86-7.54,1.91
				l3.07,0.22c-8.39,0.39-17.56,0.57-27.32,0.21l0.37-0.36l-10.38,0.18l-0.66-0.46l-14.83,0.14l2,0.12
				c-3.48,0.07-14.92,0.22-21.45,0l0.24-0.25c-18.45-0.81-33.65,0.24-55.25,0.33l2.83-0.53c-7.36-0.52-2,0.81-10.78,0.55L119,2
				c-7.72,0.84-10-0.18-15.3-0.5l2.49,0.84l-10-0.18c-11-0.28-6.77-1.06-5.16-1.51l-7.51,0.67l-1.47-0.78
				c-5.49,0.87-5.49-0.14-15.11,0.33c-0.79-0.28,1.64-0.45-1.63-0.57L49.45,1.36L59,0.89L57.85,2c-10,0.83-13.49-0.12-20.61,0.19
				l4.9-0.33c-11.61,0.27-12.23-0.2-18.79-0.44c2,0.2,5.14,0.5,0.44,0.65c-3.45,0.06-1.87-0.39-5.13-0.51
				c-0.31,0.29-1.83,0.53-4,0.69h-0.85L12.3,2.3L9,2.4c-2.26,0-4.67,0.05-7.17,0c0,2.51-0.06,5.07-0.13,7.61
				c-0.18-0.43-0.27-0.9-0.27-1.37c0.07,1.65,0.12,2.92,0.18,4.48v1.22v0.82c0,0.6,0,1.29-0.06,2.13l-0.81-2l0.77,6.46
				c-0.22,4.3,0.36,10.59-0.18,10L1.16,29.3L1,62l-0.65,0.45c0.89,3.23-0.33,17.77,0.78,16.7c-0.61,6.15,0.42,24.22-0.83,20.6
				c-0.09,21.43,1.11,33,0.5,59.06c-1.03,9.26-0.69,34.69-0.8,51.4C0.44,242.9,0.84,264,1.18,297.42
				c-1.48,20.09,0.51,50.11-0.32,71.73l0.59,5.92c-0.94,14.37,0.2,36.31-0.71,56.47c0.26,4.94,0.34,7.54,0.36,8.68
				c-0.04-0.94,0.13-1.88,0.51-2.74c-0.13,2.88-0.11,7.23-0.15,10.76l-0.05,3.53c0,1.29,0,2.43-0.09,3.37
				c-0.08,1.89-0.2,3-0.39,2.74l-0.07-2.58c-0.23-0.38-0.29,2.54-0.27,7.1l16.48-0.16c3.77-0.05,7.41,0,9.63,0.19l-3.52-0.8
				l10.91,0.14l-2.92,0.15c47.36-1.77,68.77,0.76,113.25-0.86c-5.9,0.87,8.77-0.46,9.35,0.5c11.21,1.2,20.78-0.26,30-0.58
				c0-0.05,0.11-0.1,0.64-0.18l16.07,0.12c-9.6,1.2,11.58-1,2.76,0c41.93,0.9,96.63,0,145.17,0.4l-2.13-0.31
				c12.3,0.06,27.61-0.32,36.95,0.18s20.43-0.79,24.05-0.84c10.24-0.53,19.55,0.53,15.15,0.48c10.95-0.15,21.24-1.25,36.43-0.78
				c5.19,1,41.43-1,41.89,0.15l0.17-0.1c19.45,0.81,37.8-0.57,58.75,0.17c0,0-0.4,0.08-1.11,0.16l42.63-3.5L589,453.11l-37-3.13
				l-100.14,0.68L372,449.44l-194.53,0.41l-13.89,0.87c-38.22-1.52-87.24,0.23-128.42-0.86l-0.85,0.75
				c-11.61,0.05-10.82-0.42-13.69-0.55h-6.84H12.9c-0.17-49.67-0.35-99.88-0.52-148.82c-0.13-51-0.12-100.71,0.33-147.19
				c0.49-9.37,0.2-37.87,0.72-45.21c-0.45-15.78-0.68-32-0.78-48.29c0-8.12,0-16.25-0.07-24.32c0-7.48,0-14.91,0-22.24l0.09,0.21
				l-0.06-1h0.67h0.35h1.52c0.63,0.06,0.71,0.15,0.23,0.21c16.79-0.66,43.24,0,63.8,0.26l-1.2,0.08
				c119.93,0.14,231.28-1.26,350.23-0.21c26.17,0.57,54.37,0.5,83.54,0.37l44.36-0.16h22.47l11.27,0.06h2.82H594h0.11l0.36,0.06
				c0,0.13-0.02,0.25-0.06,0.36v0.08c0,0,0-0.11,0,0.49v2.54C593.58,29,594.14,157.37,594.49,168.71z"/>
			<path class="st1" d="M595.49,357.65v-0.49C595.17,357.18,595.29,357.92,595.49,357.65z"/>
			<path class="st1" d="M604.09,92.51c0,0.28,0,0.56,0,0.83l0.45-3.15L604.09,92.51z"/>
			<path class="st1" d="M604.35,262.35c0.1-7.64,0-8-0.1-6.92C604.23,258.19,604.25,260.61,604.35,262.35z"/>
			<path class="st1" d="M596.09,420c0,4,0.16,2.48,0.37,0.12c0-4.08-0.06-6.93-0.06-6.93C596.3,415.44,596.2,417.69,596.09,420z"/>
			<path class="st1" d="M600.36,403.64l0.26,1.25C600.55,402.53,600.46,402.63,600.36,403.64z"/>
		</g>
	</g>
	<g>
		<rect x="62.34" y="63.95" class="st2" width="483.08" height="335.66"/>
		<g>
			<path class="st1" d="M64,405.11C65.21,405.11,65.84,405.11,64,405.11z"/>
			<path class="st1" d="M259.89,57.35h0.53c0.35-0.14,0.71-0.25,1.08-0.35L259.89,57.35z"/>
			<path class="st1" d="M346.31,58.28h0.52C346.79,58.23,346.89,58.14,346.31,58.28z"/>
			<path class="st1" d="M57.14,61.45c-0.02,0.85,0.01,1.7,0.08,2.55C57.18,63.27,57.15,62.48,57.14,61.45z"/>
			<path class="st1" d="M224.72,404.31h-0.37l0.92,0.09L224.72,404.31z"/>
			<path class="st1" d="M223,404.57c-1.91-0.11,0.52-0.21,1.36-0.24c-2.11-0.19-4.23-0.24-6.35-0.13
				C218,404.43,222,404.4,223,404.57z"/>
			<path class="st1" d="M512,403.67l-0.87,0.1C511.48,403.74,511.74,403.71,512,403.67z"/>
			<path class="st1" d="M69.5,70.11c-0.06,0.02-0.12,0.04-0.18,0.06C69.39,70.18,69.45,70.16,69.5,70.11z"/>
			<path class="st1" d="M466.64,403.44l-0.49,0.37C466.59,403.66,466.69,403.54,466.64,403.44z"/>
			<path class="st1" d="M261.5,57l0.63-0.15C261.92,56.88,261.71,56.93,261.5,57z"/>
			<path class="st1" d="M426.15,58.52c0,0.11,0.21,0.2,0.42,0.28h0.23L426.15,58.52z"/>
			<path class="st1" d="M545,347.12c0.07-0.05,0.12-0.13,0.15-0.21l-0.26-1.61C544.92,346.15,545,346.74,545,347.12z"/>
			<path class="st1" d="M535.67,60.11c0.1,0,0.35-0.08,0.37-0.12c-1.87-0.13-6.81-0.15-13.13-0.14l-0.38,0.45L535.67,60.11z"/>
			<path class="st1" d="M538.75,174l0.91-11.68c0.41,37.48-0.5,55,0.24,87l-0.2-1.77c-0.21,4.67,1.83,7.3-0.66,58.88H539
				c0.11,1.78,0.09,3.57-0.05,5.35l0.56-8.91c0.23,5.34,0.66,10,0.72,17.13c-0.1,1.51-0.29,2-0.43,2.17l0.15,17.47l-0.59,5.35
				c0.32,5.34,1.56,2.91,0.87,17.19c0.86-5.38,0.51,7.09,1,5.32c-0.1,0.72-0.26,2.36-0.41,3.68c0.1,8.49,0.34,24.48,0.78,28.44
				c0,0,1.81-33.23,2.73-42.17c-0.24,12,0.1,3.16,0.39,0.8l-0.21-0.8c0.21-7.16,0.75-7.16,0.9-10.74c0,0-0.1,0.11-0.15,0.21
				l0.07,0.45c-0.1,0.34-0.16,0.14-0.22-0.24c-0.11,0.09-0.2-0.24-0.17-2.2l0.06,0.38c-0.08-3,0-8.16,0-10.41h0.45
				c-0.86-5.31,1.32-35.7,1.35-42.82c0.57-7.17-0.14-16,0.14-25c0.15-14.25,0.66-7.13,1-14.28c0.29-8.94-0.53,1.81-0.56-1.78
				l0.63-10.7c0.06,6.22,0.33,2.84,0.51,1.7c0.07-9.25,0.9-23.84,0-26.69c0.43-12.49,0.79-12.52,0.84-17.87
				c-0.08,1.8-0.24,3.6-0.5,5.38c0.4-5-0.1-2.39-0.19-0.34c-0.39-7.63,1.65-39.59,0.66-41.19h0.18c-0.74-1.77-1.46,1.07-1.86-4.26
				l0.33-3.55l-0.32-5.35c0.24-3.59,0.44-1.83,0.53-1.83c-0.34-8.72,0.06-20.88,0.16-31.44l-2,11.18c0.46-8.91,1.41-25,0.76-26.76
				l0.68-5.35c1.29-17.87-0.57-12.48-0.18-19.6l0.19-2.25l0.09-1.19l0.09-1.52l0.37-6.36v11.23c0-1.1,0.09-2.11,0.13-3.06
				c0-1.36,0.09-2.63,0.12-3.83c0.09-2.49,0.17-4.7,0.25-6.81l-6.4-0.27l-3.5-0.15h-0.85l-0.63-0.05L536.12,60h-0.08
				c0.3,0,0.59,0.03,0.88,0.11h-1.25c-1.08,0.37-5.74,0.62-12,0.6c-8.93-0.11-15.92,0.44-30.18-0.34l-3.56,0.75l-10.71-0.45v-0.6
				c10.49,0,30.24-0.19,43.72-0.22l0.24-0.27c-8,0-17.09,0.26-22.38,0.2c-2.57-0.12-9.16-0.74-4.38-1.15l-4.94,0.59
				c-26.7,0.07-26.87,0.1-54.73-0.58l2.42,0.3c-5.52,0.18-11,0.35-12.57-0.14c-16.73-0.1-34.05-0.48-44.91-1.24l-2.38,0.71
				c-3.53,0-8.83-1.11-10.55-0.12l-7.55,0.31c-4.82-0.05-7.78,0.35-13.28-0.05l0,0l-1-0.09c0,0,0,0,0.06,0.06
				c-10.92-0.31,0.11,0.64-12.4,0.23c-4-0.5-4.44,0.9-10.54,0.74l-6.12-1c-11.05-0.58-12.94,0.44-28.94,0.44
				c-7.69-0.36-11.4-1.23-6.31-2c-7,0.93-3.19,0.6-12.47,1c-1.43-0.38-0.44-0.47,1.61-0.81c-8.24-0.45-5.09,0.35-11.3,0.32
				c-1.81,0.72-3.89,1.87-5.91,1.92l2.41,0.22c-7.13,0.45-14.29,0.51-21.43,0.2l0.29-0.36l-8.15,0.18L227.22,59l-11.64,0.15
				l1.6,0.12c-2.73,0.06-11.7,0.22-16.83,0l0.19-0.26c-14.47-0.8-26.39,0.25-43.34,0.34l2.23-0.53c-5.77-0.52-1.59,0.81-8.46,0.55
				l-0.35-0.65c-6.05,0.85-7.83-0.18-12-0.5l1.95,0.85l-7.85-0.18c-8.66-0.28-5.31-1.07-4.05-1.51l-5.89,0.66l-1.15-0.74
				c-4.31,0.87-4.31-0.14-11.86,0.32c-0.62-0.28,1.29-0.44-1.27-0.56L96,58.13l7.51-0.46l-0.91,1.09
				c-7.82,0.82-10.59-0.12-16.18,0.18l3.85-0.32c-9.11,0.26-9.6-0.2-14.74-0.44c1.6,0.2,4,0.5,0.35,0.64c-2.71,0.06-1.47-0.38-4-0.5
				c-0.29,0.21-0.64,0.35-1,0.39c-0.27,0.06-0.59,0.11-0.94,0.16h-0.28h-0.47l-1,0.06c-2.88,0.16-6.51,0.24-10.44,0.21
				c0,2-0.06,4-0.13,5.94c-0.21-0.33-0.35-0.69-0.4-1.08l0.17,3.55c0,0.61,0,1.27,0,2.05v1.29v0.53v0.47l-0.41-0.78l-0.4-1.4
				l0.09,1.14v0.28v0.16v0.31l0.19,1.27l0.39,2.53c-0.22,3.38,0.36,8.31-0.18,7.86L57,81.36L56.77,107l-0.65,0.35
				c0.89,2.53-0.33,13.94,0.78,13.1c-0.61,4.83,0.42,19-0.83,16.16c-0.09,16.81,1.11,25.89,0.5,46.32
				c-1.06,7.28-0.72,27.22-0.83,40.34c0.44,25.63,0.84,42.2,1.18,68.4c-1.48,15.76,0.51,39.31-0.32,56.27l0.59,4.64
				c-0.47,5.64-0.42,12.76-0.37,20.44c0,3.85,0.06,7.84,0,11.85c0,2-0.04,4-0.11,6c-0.09,3.2-0.17,6.4-0.26,9.57
				c0.08,2.09,0.15,3.86,0.19,4.86l7.28-0.17c-1.26,0-3.12-0.14-3.42-0.51c9.86,0.26,16.92-0.07,16.69,0.68l-1.15,0.08
				c-0.66,0.74,13.7-0.35,18.74,0.3l-2.76-0.8l8.55,0.13l-2.29,0.15c37.16-1.77,53.95,0.77,88.84-0.86
				c-4.63,0.88,6.88-0.45,7.33,0.5c8.8,1.2,16.31-0.26,23.52-0.58c0-0.05,0.09-0.1,0.5-0.17l12.61,0.11c-7.53,1.21,9.08-1,2.17,0
				c32.88,0.9,75.79,0,113.86,0.4l-1.67-0.31c9.66,0.05,21.67-0.32,29,0.17s16-0.78,18.87-0.83c8-0.54,15.33,0.52,11.88,0.47
				c8.59-0.15,16.66-1.25,28.57-0.78c4.08,1,32.51-1,32.86,0.15l0.13-0.1c15.26,0.82,29.65-0.56,46.09,0.17c0,0-0.32,0.08-0.87,0.16
				l33.44-3.49l-9.53-3.85l-29-3.12l-78.56,0.67l-62.7-1.22l-152.58,0.42l-10.9,0.86c-30-1.51-68.43,0.23-100.73-0.85l-0.67,0.75
				c-9.1,0-8.49-0.42-10.74-0.55H76.17h-6.71h-0.91c-0.17-35.83-0.33-71.85-0.49-106.94c-0.11-37.13-0.07-73.28,0.35-107.25
				c0.49-7.35,0.2-29.7,0.73-35.46c-0.46-12.38-0.69-25.13-0.79-37.88c0-6.37,0-12.75-0.07-19.08c0-5.43,0-10.82,0-16.14l0.09,0.18
				L68.39,70l1.07-0.08c0.06,0.05,0.06,0.13,0.02,0.18c-0.01,0.01-0.01,0.01-0.02,0.02c0,0,0,0,0.07,0h0.31h0.64h1.3l2.71-0.09
				c1.86,0,3.81-0.07,5.84-0.08c4,0,8.38,0,12.8,0.06l26.13,0.48l-0.94,0.08c94.08,0.13,181.42-1.26,274.73-0.22
				c43.38,1.22,93.85-0.46,143.62,0.55c0.31,0,0.74,0,1.27,0.08s0.22,0,0.28,0l0,0c0.03,0.03,0.05,0.06,0.07,0.1l-0.06,0.1l0,0v1.48
				c0,1.09,0,2.21,0,3.37c0,4.63,0,9.8,0,15.28c0,11,0,23.16,0.08,34.77C538.41,149.27,538.6,170.13,538.75,174z"/>
			<path class="st1" d="M539.75,322.16v-0.38C539.43,321.79,539.55,322.37,539.75,322.16z"/>
			<path class="st1" d="M548.35,114.18v0.66l0.44-2.47L548.35,114.18z"/>
			<path class="st1" d="M548.61,247.4c0.1-6,0-6.26-0.1-5.42C548.49,244.15,548.51,246,548.61,247.4z"/>
			<path class="st1" d="M540.35,371.07c0,3.14,0.16,1.94,0.37,0.1c0-3.21-0.06-5.44-0.06-5.44
				C540.56,367.49,540.45,369.26,540.35,371.07z"/>
			<path class="st1" d="M544.62,358.24l0.25,1C544.81,357.37,544.72,357.44,544.62,358.24z"/>
		</g>
	</g>
	<g>
		<path class="st1" d="M26.84,19.93C26.84,19.88,26.79,19.93,26.84,19.93z"/>
		<path class="st1" d="M45.91,37.79L45.91,37.79l0.31-0.23L45.91,37.79z"/>
		<path class="st1" d="M48.18,41.44L48.18,41.44C48.18,41.44,48.3,41.36,48.18,41.44z"/>
		<path class="st1" d="M38.13,31.86c0,0-0.05,0-0.1,0H38.13z"/>
		<path class="st1" d="M20.88,15L20.88,15v-0.09V15z"/>
		<path class="st1" d="M21.12,14.88c0,0.14-0.17,0.13-0.22,0.12c-0.07,0.22,0,0.3,0.13,0.31C21.19,15.15,21,15,21.12,14.88z"/>
		<path class="st1" d="M10.64,5.49h0.1H10.64z"/>
		<path class="st1" d="M30.31,40.12h-0.08C30.23,40.12,30.28,40.14,30.31,40.12z"/>
		<path class="st1" d="M12,7.22L12.3,7C12.19,7.06,12.09,7.14,12,7.22z"/>
		<path class="st1" d="M46.24,37.57l0.12-0.08L46.24,37.57z"/>
		<path class="st1" d="M50.73,44.37c-0.07,0.06-0.13,0.13-0.18,0.21l0,0L50.73,44.37z"/>
		<path class="st1" d="M60.26,62.42l0.1-0.11l-0.24,0.13C60.17,62.45,60.22,62.44,60.26,62.42z"/>
		<path class="st1" d="M53.32,49.28l0.11-0.07c0-0.15-0.13-0.34-0.35-0.55l-0.34,0.3L53.32,49.28z"/>
		<path class="st1" d="M49.9,60.81l0.25-1.05c1.57,1,1.52,2.25,3.13,2.85l-0.2,0.08c0,0.31,1.55-1,1.53,2.51l-0.06,0.06
			c0.07,0,0.2-0.08,0.15,0.22l0.09-0.7c0.34,0,0.81-0.12,1.1,0.08c-0.04,0.14-0.12,0.27-0.23,0.38l0.7,0.5l-0.24,0.6
			c0.41,0,1.21-1,1.2,0c0.43-0.79,0.61-0.12,0.86-0.48c0,0.09-0.1,0.26-0.16,0.41c0.36,0.23,1.07,0.61,1.52,0.44
			c0.06-1.14,0.23-2.27,0.51-3.37c0.24,0.58,0.18,0,0.31-0.25l-0.18,0.12c-0.1-0.39,0.29-0.77,0.28-1l-0.1,0.11h0.06
			c-0.04,0.06-0.1,0.11-0.16,0.14c-0.08,0.08-0.15,0.14-0.2,0h0.06c-0.16,0-0.28-0.29-0.33-0.39l0.32-0.32
			c-0.79,0.42-0.27-2.16-0.49-2.43c0.16-0.65-0.65-0.46-0.75-1c-0.38-0.59,0.23-0.71,0.26-1.23s-0.31,0.44-0.46,0.33l0.09-0.81
			c0.25,0.18,0.33-0.13,0.41-0.29c-0.26-0.38-0.16-1.46-0.9-0.93c-0.12-0.74,0.14-1,0-1.21c-0.06,0.18,0,0.41-0.17,0.54
			c0.11-0.46-0.15,0-0.15,0.12c-0.54,0-0.17-2.53-0.93-1.89l0.13-0.13c-0.59,0.46-1,1.06-1.48,1.16l0.12-0.35h-0.41
			c0.04-0.18,0.15-0.34,0.31-0.43c-0.54-0.06-0.66-0.77-1-1.21l-1.06,1.8c0-0.63,0.16-1.85-0.36-1.46l0.3-0.66
			c0.31-1.52-0.83,0-0.79-0.56L53,50.29l0.29,0.31c-0.03-0.48,0-0.97,0.11-1.44l0,0c0.01,0.04,0.01,0.07,0,0.11h-0.06
			c-0.22,0.23-0.59,0.23-0.82,0.01c0,0-0.01-0.01-0.01-0.01c-0.23-0.38-0.86-0.24-0.79-1.28l-0.65,0.4v-0.68l0.43-0.42
			c0.33,0.39,1.17,0.91,1.65,1.36l0.2-0.19c-0.27-0.27-0.77-0.4-0.91-0.63s0.22-0.84,0.67-1l-0.59,0.24
			c-0.78-0.52-1.33-1.33-1.52-2.25l-0.13,0.3c-0.32-0.07-0.63-0.14-0.33-0.54c-0.55-0.68-0.79-1.56-0.65-2.42l-0.59,0.41
			c-0.09-0.15,0.49-1.08-0.27-0.45h-0.48c-0.13-0.2-0.51,0-0.41-0.5l0,0c0-0.03,0-0.07,0-0.1v0.05c-0.15-0.6-0.45,0.44-0.58-0.27
			c0.22-0.5-0.79,0.47-0.89,0.15l0.52-0.93c0-0.79-0.75-0.14-1.3-0.69c0.1-0.71,0.56-1.32,1.21-1.62c-0.9,0.41-0.54,0.32-1.18,0.31
			c0.15-0.23,0.38-0.41,0.64-0.51c0-0.6-0.42,0.06-0.62-0.17c-0.49,0.42-1.01,0.81-1.57,1.14l-0.07,0.24c-0.5,0-0.88-0.09-0.88-0.6
			l0.27-0.25l-0.41-0.15l0.31-0.34l-0.49-0.31v0.15c-0.14-0.06-0.55-0.25-0.56-0.6l0.19-0.18c0.08-1.06-1.07-0.74-1.71-1.26
			l0.45-0.3c0.18-0.56-0.63,0.52-0.68,0.09l0.45-0.46c-0.81,0.38-0.14-0.4,0-0.77L40.7,34.9l-0.14-0.39
			c-0.09-0.5,0.58-0.94,0.94-1.2l-0.67,0.26l0.49-0.56c-0.77,0.46,0-0.25-0.64-0.18c0.18-0.22,0.36-0.27,0.36-0.44l-1.17,0.3
			l0.59-0.06l-0.81,0.73c-0.86,0.31-0.28-0.45-0.69-0.43l0.37-0.1c-0.5-0.13-0.19-0.47-0.19-0.82c-0.09,0.2-0.22,0.5-0.45,0.47
			s0.22-0.32,0.22-0.49c-0.54,0.48-1,0.53-1,0.08l0.21-0.17c-0.13,0-0.29,0.14-0.26-0.08l0.63-0.51l-0.72,0.36
			c0-0.27-0.54,0-0.14-0.4h0.18l-0.73-1l0.45-0.46c-0.72,0.53-0.24-0.72-1,0.09c0.27-0.59-0.95-0.36,0-1.14
			c-0.51-0.65-1.67-0.12-1.93-1.26c0.51-1-0.42-1.44-0.78-2c-1.19-0.58-2-0.87-3.18-1.54c0.52-1.59-1.7-1-1.68-2.18l-0.58,0.25
			c0.29-1.05-1.12-0.84-1-2c-0.16,0.03-0.33,0.03-0.49,0c0,0,0,0.16-0.3,0.43c0-0.34-0.51-0.43,0.05-0.93h0.09
			c0.56-0.5-0.71-0.23-0.42-0.86l-0.48,0.66l-0.2-0.39h0.19c-2.53-0.05-1.29-2.41-3.64-2.48c0.78-0.45-0.56,0.08,0.11-0.6
			c0.56-1.15-0.74-0.38-1.21-0.41c-0.05,0.04-0.1,0.07-0.15,0.1l-0.34-0.51c1.11-0.59-1,0.38-0.06-0.1
			C20,13,17.89,12.19,16.89,10.58l-0.17,0.27c-0.28-0.37-1-0.53-0.86-1.13s-1.1,0-1.23-0.07c-0.66,0.1-0.15-0.9-0.07-0.74
			c-0.4-0.19-1.46,0.3-1.53-0.45c0.59-0.85-1.82-0.42-1-1.24L12,7.28c0.06-1.09-1.42-0.63-1.45-1.71c0.04-0.03,0.09-0.06,0.14-0.08
			L7,6.78l-2.42,3L3.35,13l3.15,2.24l1.27,3l5.48,5l1-0.23c-0.06,2.11,2.5,2.22,2.82,4.1l0.56-0.5c0.34,0.28,0,0.58,0,0.75
			c3,2.82,6.68,5.15,8.61,8.45c-0.11,0.6,0.86,1.17,0.68,1.74c1.26,0.27,2.36,1.02,3.08,2.09h-0.09l0.5,0.31
			c-0.03,0.06-0.08,0.11-0.14,0.15c0.92,0,1.16,1.17,1.52,1.92H31.7c3.1,3.36,7.07,5.41,9.5,9.38c0.61,2.36,3.53,2.93,4.5,5.36
			C45.52,57.64,49.34,60.74,49.9,60.81z"/>
		<path class="st1" d="M55.66,65.24L55.66,65.24C55.42,65.45,55.52,65.39,55.66,65.24z"/>
		<path class="st1" d="M54.71,52L54.71,52l0.23-0.39L54.71,52z"/>
		<path class="st1" d="M59.43,56.44c-0.13-0.27-0.19-0.23-0.26-0.11C59.22,56.42,59.33,56.47,59.43,56.44z"/>
		<path class="st1" d="M57.75,66.52c0.09,0.12,0.18,0,0.27-0.26c-0.08-0.05-0.16-0.1-0.23-0.15C57.8,66.23,57.74,66.4,57.75,66.52z"
			/>
		<path class="st1" d="M60.36,63.08l0.21-0.14C60.47,62.92,60.4,63,60.36,63.08z"/>
	</g>
	<g>
		<path class="st1" d="M557.81,43.48C557.81,43.48,557.81,43.54,557.81,43.48z"/>
		<path class="st1" d="M575.31,24.09L575.31,24.09c-0.08-0.1-0.16-0.2-0.23-0.31L575.31,24.09z"/>
		<path class="st1" d="M578.92,21.75H579C578.9,21.69,578.84,21.63,578.92,21.75z"/>
		<path class="st1" d="M569.53,32c0,0,0,0.06,0,0.1C569.52,32.07,569.52,32.03,569.53,32z"/>
		<path class="st1" d="M553,49.53L553,49.53h-0.09H553z"/>
		<path class="st1" d="M552.87,49.29c0.14,0,0.13,0.17,0.12,0.22c0.22,0.07,0.3,0,0.31-0.13C553.13,49.22,553,49.38,552.87,49.29z"
			/>
		<path class="st1" d="M543.67,59.94v-0.09C543.67,59.88,543.67,59.91,543.67,59.94z"/>
		<path class="st1" d="M577.93,39.64v0.08C577.93,39.72,578,39.67,577.93,39.64z"/>
		<path class="st1" d="M545.38,58.53l-0.25-0.27C545.2,58.36,545.29,58.45,545.38,58.53z"/>
		<path class="st1" d="M575.1,23.76l-0.09-0.12L575.1,23.76z"/>
		<path class="st1" d="M581.81,19.14l0.21,0.19l0,0L581.81,19.14z"/>
		<path class="st1" d="M599.68,9.28l-0.11-0.09l0.13,0.24C599.71,9.38,599.7,9.33,599.68,9.28z"/>
		<path class="st1" d="M586.67,16.46c-0.02-0.04-0.04-0.07-0.07-0.1c-0.16,0-0.34,0.13-0.55,0.36l0.31,0.33L586.67,16.46z"/>
		<path class="st1" d="M598.26,19.68l-1-0.23c1-1.6,2.22-1.56,2.79-3.19l0.08,0.2c0.31,0-1.05-1.53,2.48-1.58l0.06,0.07
			c0-0.08-0.08-0.2,0.22-0.16l-0.7-0.08c0-0.34-0.13-0.81,0.06-1.1c0.15,0.04,0.28,0.12,0.39,0.23l0.48-0.71l0.6,0.22
			c0-0.41-1-1.19,0-1.2c-0.8-0.42-0.13-0.61-0.5-0.85c0.1,0,0.27,0.1,0.42,0.16c0.22-0.37,0.59-1.09,0.41-1.54
			c-1.14-0.04-2.27-0.19-3.38-0.44c0.58-0.25,0-0.19-0.25-0.31l0.12,0.18c-0.39,0.1-0.78-0.28-1-0.26l0.12,0.1V9.12
			c0.06,0.04,0.11,0.1,0.15,0.16c0.08,0.08,0.14,0.16,0.05,0.2V9.43c-0.05,0.16-0.28,0.28-0.39,0.33L599,9.44
			c0.43,0.79-2.15,0.32-2.42,0.55c-0.65-0.15-0.44,0.65-1,0.76c-0.59,0.39-0.71-0.21-1.24-0.24s0.44,0.31,0.34,0.45l-0.81-0.07
			c0.17-0.25-0.14-0.32-0.3-0.41c-0.37,0.27-1.46,0.19-0.91,0.93c-0.74,0.13-1-0.13-1.21,0c0.18,0.05,0.41,0,0.54,0.16
			c-0.46-0.11,0,0.15,0.12,0.14c0,0.54-2.52,0.22-1.87,1l-0.13-0.13c0.47,0.58,1.08,1,1.19,1.46l-0.36-0.11v0.41
			c-0.18-0.04-0.34-0.15-0.43-0.31c-0.06,0.54-0.76,0.68-1.19,1l1.81,1c-0.63,0-1.85-0.12-1.45,0.39l-0.66-0.28
			c-1.53-0.29,0,0.82-0.55,0.8l-0.83-0.21l0.31-0.3c-0.49,0.04-0.97,0.01-1.45-0.09l0,0c0.04,0,0.07,0.02,0.1,0.05v0.05
			c0.23,0.23,0.23,0.61,0,0.84c-0.38,0.23-0.23,0.86-1.27,0.8l0.42,0.66h-0.69l-0.43-0.42c0.39-0.34,0.89-1.18,1.33-1.67l-0.19-0.2
			c-0.27,0.28-0.39,0.78-0.61,0.92s-0.84-0.2-1-0.65l0.25,0.58c-0.53,0.78-1.35,1.32-2.28,1.49l0.3,0.13
			c-0.06,0.31-0.13,0.62-0.53,0.34c-0.67,0.56-1.55,0.81-2.41,0.69l0.43,0.57c-0.15,0.1-1.09-0.47-0.45,0.29v0.48
			c-0.2,0.13,0,0.51-0.49,0.42l0,0h-0.09l0,0c-0.59,0.16,0.46,0.45-0.26,0.59c-0.49-0.21,0.49,0.79,0.17,0.89l-0.93-0.5
			c-0.79,0-0.13,0.75-0.67,1.31c-0.71-0.09-1.33-0.54-1.64-1.18c0.42,0.89,0.32,0.53,0.32,1.17c-0.23-0.15-0.41-0.37-0.52-0.62
			c-0.6,0,0.08,0.42-0.15,0.62c0.43,0.48,0.82,0.99,1.16,1.54l0.24,0.07c0,0.5-0.06,0.88-0.58,0.89l-0.25-0.26l-0.15,0.41
			l-0.34-0.31l-0.3,0.5h0.15c0,0.13-0.24,0.56-0.59,0.56l-0.18-0.18c-1.06-0.06-0.72,1.09-1.24,1.73l-0.29-0.44
			c-0.57-0.17,0.52,0.62,0.1,0.68l-0.47-0.44c0.39,0.8-0.4,0.14-0.77,0.06l0.67,0.53l-0.4,0.14c-0.49,0.11-0.94-0.56-1.21-0.91
			l0.27,0.67l-0.57-0.49c0.48,0.76-0.24,0.06-0.17,0.64c-0.22-0.17-0.27-0.35-0.44-0.35l0.32,1.17l-0.07-0.59l0.74,0.8
			c0.33,0.85-0.44,0.28-0.42,0.69l-0.1-0.36c-0.12,0.5-0.46,0.19-0.81,0.2c0.2,0.09,0.49,0.21,0.47,0.44s-0.32-0.21-0.5-0.21
			c0.5,0.53,0.55,1,0.11,1c-0.07-0.06-0.12-0.13-0.17-0.21c0,0.14,0.14,0.3-0.08,0.26l-0.52-0.61l0.37,0.71
			c-0.27,0,0,0.54-0.39,0.15v-0.18l-1,0.75l-0.48-0.44c0.55,0.71-0.71,0.24,0.11,1c-0.6-0.26-0.34,1-1.14,0
			c-0.64,0.52-0.09,1.68-1.22,2c-1-0.49-1.44,0.44-2,0.82c-0.55,1.2-0.83,2-1.48,3.2c-1.59-0.49-1,1.72-2.15,1.72l0.26,0.57
			c-1-0.26-0.82,1.14-2,1c0.03,0.16,0.03,0.32,0,0.48c0,0,0.16,0,0.44,0.29c-0.34,0-0.42,0.52-0.93,0v-0.09
			c-0.52-0.55-0.22,0.72-0.86,0.44l0.67,0.46l-0.39,0.21v-0.19c0,2.53-2.38,1.34-2.41,3.68c-0.47-0.77,0.09,0.56-0.6-0.09
			c-1.16-0.54-0.37,0.75-0.39,1.22c0.04,0.04,0.08,0.09,0.11,0.14l-0.51,0.36c-0.61-1.11,0.4,1-0.1,0
			c-1.76,0.51-2.56,2.64-4.16,3.67l0.28,0.16c-0.37,0.3-0.51,1-1.11,0.88s0,1.11,0,1.24c0.11,0.66-0.9,0.16-0.74,0.08
			c-0.19,0.4,0.32,1.46-0.42,1.54c-0.87-0.58-0.39,1.83-1.22,1l0.06,0.08c-1.1,0-0.6,1.42-1.68,1.48c-0.03-0.05-0.06-0.1-0.09-0.15
			l1.35,3.75l3.07,2.37l3.22,1.18l2.19-3.2l3-1.32l4.9-5.58l-0.25-1c2.1,0,2.16-2.53,4-2.9l-0.51-0.54c0.27-0.35,0.58,0,0.75,0
			c2.77-3.05,5-6.77,8.29-8.76c0.61,0.09,1.16-0.88,1.73-0.72c0.23-1.28,0.94-2.43,2-3.19v0.09l0.29-0.51
			c0.06,0.03,0.12,0.08,0.15,0.14c0-0.92,1.15-1.18,1.89-1.55v0.09c3.3-3.17,5.28-7.17,9.2-9.68c2.34-0.65,2.86-3.58,5.28-4.59
			C595.17,24.11,598.2,20.23,598.26,19.68z"/>
		<path class="st1" d="M602.59,13.84L602.59,13.84C602.8,14.07,602.74,14,602.59,13.84z"/>
		<path class="st1" d="M589.37,15L589.37,15l-0.4-0.23L589.37,15z"/>
		<path class="st1" d="M593.72,10.22c-0.28,0.14-0.23,0.2-0.11,0.26C593.7,10.42,593.74,10.32,593.72,10.22z"/>
		<path class="st1" d="M603.82,11.72c0.13-0.09-0.05-0.18-0.26-0.26l-0.14,0.23C603.53,11.68,603.71,11.73,603.82,11.72z"/>
		<path class="st1" d="M600.34,9.17L600.19,9C600.17,9.07,600.24,9.13,600.34,9.17z"/>
	</g>
	<g>
		<path class="st1" d="M565.66,412.37C565.66,412.32,565.66,412.37,565.66,412.37z"/>
		<path class="st1" d="M584.73,430.22L584.73,430.22l0.31-0.23L584.73,430.22z"/>
		<path class="st1" d="M587,433.88L587,433.88C587.06,433.86,587.13,433.8,587,433.88z"/>
		<path class="st1" d="M577,424.3c0,0-0.06,0-0.1,0H577z"/>
		<path class="st1" d="M559.7,407.44L559.7,407.44v-0.1V407.44z"/>
		<path class="st1" d="M559.94,407.32c0,0.14-0.17,0.13-0.22,0.12c-0.07,0.22,0,0.3,0.13,0.31
			C560,407.59,559.85,407.47,559.94,407.32z"/>
		<path class="st1" d="M549.47,397.93h0.09C549.53,397.92,549.5,397.92,549.47,397.93z"/>
		<path class="st1" d="M569.13,432.56h-0.08C569.05,432.56,569.1,432.57,569.13,432.56z"/>
		<path class="st1" d="M550.84,399.66l0.28-0.24C551.02,399.49,550.93,399.57,550.84,399.66z"/>
		<path class="st1" d="M585.06,430l0.12-0.08L585.06,430z"/>
		<path class="st1" d="M589.56,436.81l-0.19,0.21l0,0L589.56,436.81z"/>
		<path class="st1" d="M599.09,454.86l0.09-0.11l-0.24,0.13C598.99,454.89,599.04,454.88,599.09,454.86z"/>
		<path class="st1" d="M592.15,441.72l0.1-0.07c0-0.15-0.12-0.34-0.35-0.55l-0.33,0.3L592.15,441.72z"/>
		<path class="st1" d="M588.72,453.24l0.25-1c1.57,1,1.52,2.25,3.13,2.85l-0.2,0.08c0,0.31,1.56-1,1.54,2.5l-0.07,0.07
			c0.07,0.05,0.2-0.08,0.15,0.21l0.09-0.69c0.35,0,0.82-0.12,1.1,0.08c-0.04,0.14-0.12,0.28-0.23,0.38l0.7,0.5l-0.23,0.6
			c0.41,0,1.21-1,1.2,0c0.43-0.79,0.61-0.12,0.86-0.49c0,0.1-0.11,0.27-0.17,0.42c0.36,0.22,1.08,0.61,1.53,0.44
			c0.06-1.14,0.23-2.27,0.51-3.37c0.24,0.58,0.18,0,0.3-0.25l-0.18,0.12c-0.09-0.39,0.3-0.77,0.28-1l-0.1,0.11h0.07
			c-0.04,0.06-0.1,0.11-0.16,0.15c-0.08,0.08-0.16,0.13-0.2,0h0.05c-0.16-0.05-0.27-0.29-0.32-0.39l0.32-0.32
			c-0.8,0.42-0.28-2.16-0.5-2.43c0.16-0.65-0.65-0.46-0.75-1c-0.38-0.59,0.23-0.71,0.27-1.23c-0.11-0.51-0.32,0.43-0.46,0.33
			l0.08-0.81c0.25,0.18,0.33-0.13,0.42-0.29c-0.26-0.38-0.17-1.47-0.91-0.93c-0.11-0.74,0.14-1,0-1.21c-0.05,0.18,0,0.41-0.17,0.54
			c0.12-0.46-0.15,0-0.14,0.11c-0.54,0-0.18-2.52-0.94-1.88l0.13-0.13c-0.59,0.46-1,1.06-1.47,1.16l0.11-0.36h-0.41
			c0.04-0.18,0.15-0.34,0.32-0.43c-0.54-0.06-0.67-0.77-1-1.21l-1,1.8c0-0.63,0.15-1.85-0.37-1.46l0.3-0.66
			c0.31-1.52-0.82,0-0.79-0.56l0.22-0.83l0.3,0.32c-0.03-0.48,0-0.97,0.11-1.44l0,0c0.01,0.03,0.01,0.07,0,0.1h-0.05
			c-0.23,0.23-0.6,0.23-0.83,0.01c0,0,0,0-0.01-0.01c-0.23-0.38-0.85-0.24-0.78-1.28l-0.66,0.4v-0.68l0.42-0.42
			c0.34,0.39,1.17,0.91,1.65,1.36l0.21-0.19c-0.28-0.27-0.78-0.4-0.91-0.63s0.21-0.84,0.67-0.95l-0.59,0.24
			c-0.77-0.55-1.29-1.38-1.45-2.31l-0.13,0.29c-0.31-0.06-0.62-0.13-0.33-0.53c-0.55-0.68-0.79-1.56-0.65-2.42l-0.58,0.41
			c-0.09-0.15,0.49-1.08-0.28-0.45h-0.48c-0.12-0.21-0.51,0-0.41-0.5l0,0v-0.1v0.05c-0.15-0.6-0.45,0.44-0.59-0.28
			c0.23-0.49-0.79,0.48-0.88,0.15l0.51-0.92c0-0.79-0.75-0.14-1.29-0.69c0.1-0.71,0.55-1.32,1.2-1.62c-0.9,0.41-0.54,0.31-1.17,0.3
			c0.15-0.23,0.37-0.41,0.63-0.5c0-0.6-0.42,0.06-0.62-0.17c-0.48,0.42-1.01,0.8-1.56,1.13l-0.08,0.25c-0.5,0-0.87-0.09-0.87-0.61
			l0.26-0.24l-0.4-0.15l0.31-0.35l-0.5-0.3v0.14c-0.14-0.05-0.56-0.25-0.56-0.59l0.19-0.18c0.08-1.06-1.08-0.74-1.72-1.27l0.46-0.29
			c0.17-0.56-0.64,0.51-0.68,0.09l0.45-0.46c-0.82,0.38-0.14-0.4-0.06-0.77l-0.53,0.66l-0.14-0.39c-0.1-0.5,0.58-0.94,0.94-1.2
			l-0.68,0.26l0.49-0.56c-0.76,0.46,0-0.25-0.63-0.19c0.18-0.22,0.36-0.26,0.36-0.44l-1.18,0.31l0.59-0.07l-0.81,0.74
			c-0.85,0.3-0.27-0.45-0.68-0.44l0.36-0.09c-0.5-0.13-0.18-0.47-0.19-0.82c-0.09,0.2-0.22,0.49-0.44,0.47s0.22-0.32,0.22-0.5
			c-0.54,0.49-1,0.53-1,0.09c0.07-0.06,0.14-0.12,0.22-0.17c-0.14,0-0.3,0.13-0.26-0.08l0.62-0.51l-0.72,0.36
			c0-0.27-0.54,0-0.14-0.4h0.18l-0.73-1l0.45-0.46c-0.72,0.53-0.23-0.72-1,0.08c0.26-0.59-1-0.35,0-1.13
			c-0.5-0.65-1.67-0.12-1.93-1.26c0.51-1-0.41-1.45-0.78-2c-1.19-0.58-2-0.87-3.17-1.54c0.52-1.59-1.71-1-1.69-2.18l-0.57,0.25
			c0.28-1.05-1.12-0.84-1-2c-0.16,0.03-0.33,0.03-0.49,0c0,0,0,0.16-0.29,0.43c0-0.34-0.51-0.43,0-0.93h0.1
			c0.55-0.5-0.72-0.23-0.43-0.86l-0.48,0.66l-0.19-0.39h0.19c-2.53-0.05-1.3-2.41-3.64-2.48c0.78-0.45-0.56,0.08,0.1-0.6
			c0.56-1.15-0.74-0.39-1.21-0.41c-0.04,0.04-0.09,0.07-0.14,0.1l-0.35-0.51c1.12-0.59-1,0.38-0.06-0.1
			c-0.47-1.77-2.59-2.61-3.59-4.22l-0.16,0.27c-0.29-0.38-1-0.53-0.86-1.13s-1.11,0-1.24-0.07c-0.65,0.1-0.15-0.9-0.07-0.74
			c-0.39-0.19-1.46,0.3-1.52-0.45c0.59-0.85-1.83-0.42-1-1.24l-0.07,0.06c0.06-1.09-1.41-0.63-1.45-1.71
			c0.05-0.03,0.1-0.06,0.15-0.08l-3.64,1.28l-2.42,3l-1.24,3.19l3.16,2.25l1.26,3l5.49,5l1-0.23c-0.06,2.11,2.49,2.22,2.82,4.09
			l0.55-0.5c0.35,0.29,0,0.59,0,0.76c3,2.82,6.68,5.15,8.6,8.45c-0.1,0.6,0.87,1.17,0.69,1.74c1.28,0.25,2.42,0.99,3.16,2.06h-0.09
			l0.5,0.31c-0.03,0.06-0.09,0.12-0.15,0.15c0.92,0,1.16,1.17,1.52,1.92h-0.09c3.11,3.36,7.07,5.41,9.51,9.38
			c0.6,2.35,3.52,2.92,4.49,5.36C584.34,450.08,588.17,453.18,588.72,453.24z"/>
		<path class="st1" d="M594.48,457.68L594.48,457.68C594.24,457.89,594.34,457.83,594.48,457.68z"/>
		<path class="st1" d="M593.54,444.44L593.54,444.44l0.24-0.39L593.54,444.44z"/>
		<path class="st1" d="M598.26,448.88c-0.14-0.27-0.2-0.23-0.26-0.11C598.06,448.86,598.16,448.9,598.26,448.88z"/>
		<path class="st1" d="M596.57,459c0.09,0.12,0.18,0,0.27-0.26c-0.08-0.04-0.15-0.09-0.22-0.15
			C596.62,458.66,596.56,458.84,596.57,459z"/>
		<path class="st1" d="M599.18,455.52l0.22-0.15C599.29,455.35,599.23,455.42,599.18,455.52z"/>
	</g>
	<g>
		<path class="st1" d="M50,420.08C50,420.08,50,420.02,50,420.08z"/>
		<path class="st1" d="M32.46,439.47L32.46,439.47l0.23,0.31L32.46,439.47z"/>
		<path class="st1" d="M28.85,441.81H28.8C28.87,441.87,28.93,441.93,28.85,441.81z"/>
		<path class="st1" d="M38.24,431.59c0,0,0-0.06,0-0.1C38.25,431.52,38.25,431.56,38.24,431.59z"/>
		<path class="st1" d="M54.78,414L54.78,414h0.1H54.78z"/>
		<path class="st1" d="M54.91,414.27c-0.15,0-0.14-0.17-0.13-0.22c-0.22-0.07-0.3,0-0.31,0.13
			C54.64,414.34,54.75,414.18,54.91,414.27z"/>
		<path class="st1" d="M64.1,403.62v0.09C64.11,403.68,64.11,403.65,64.1,403.62z"/>
		<path class="st1" d="M29.84,423.92c0-0.03,0-0.05,0-0.08C29.84,423.84,29.82,423.89,29.84,423.92z"/>
		<path class="st1" d="M62.4,405l0.24,0.27C62.57,405.17,62.49,405.08,62.4,405z"/>
		<path class="st1" d="M32.68,439.8l0.08,0.12L32.68,439.8z"/>
		<path class="st1" d="M26,444.42l-0.21-0.19l0,0L26,444.42z"/>
		<path class="st1" d="M8.09,454.28l0.11,0.09l-0.13-0.24C8.06,454.18,8.07,454.23,8.09,454.28z"/>
		<path class="st1" d="M21.1,447.1l0.08,0.1c0.15,0,0.34-0.13,0.54-0.36l-0.31-0.33L21.1,447.1z"/>
		<path class="st1" d="M9.52,443.88l1,0.23c-1,1.6-2.22,1.56-2.79,3.19l-0.08-0.2c-0.31,0,1.06,1.53-2.47,1.58l-0.07-0.07
			c-0.05,0.08,0.08,0.2-0.21,0.16l0.7,0.08c0,0.34,0.13,0.81-0.07,1.1c-0.14-0.04-0.27-0.12-0.38-0.23l-0.49,0.71l-0.6-0.22
			c0.05,0.41,1,1.19,0,1.2c0.8,0.42,0.13,0.61,0.5,0.85c-0.1-0.05-0.27-0.1-0.42-0.16c-0.22,0.37-0.59,1.09-0.41,1.54
			c1.14,0.04,2.27,0.19,3.38,0.44c-0.57,0.25,0,0.19,0.26,0.31l-0.13-0.18c0.39-0.1,0.78,0.28,1,0.26c-0.04-0.04-0.08-0.07-0.12-0.1
			v0.07c-0.06-0.04-0.11-0.1-0.15-0.16c-0.08-0.08-0.13-0.16-0.05-0.2v0.05c0-0.16,0.28-0.28,0.39-0.33l0.32,0.32
			c-0.43-0.79,2.16-0.32,2.42-0.55c0.65,0.15,0.44-0.65,1-0.76c0.59-0.39,0.72,0.21,1.24,0.24s-0.44-0.31-0.34-0.45l0.81,0.07
			c-0.17,0.25,0.14,0.32,0.31,0.41c0.36-0.27,1.45-0.19,0.91-0.93c0.73-0.13,1,0.13,1.2,0c-0.18-0.05-0.4,0-0.53-0.16
			c0.45,0.11,0-0.15-0.13-0.14c0-0.54,2.53-0.22,1.87-1l0.13,0.13c-0.46-0.58-1.07-1-1.18-1.46l0.35,0.11v-0.41
			c0.18,0.04,0.34,0.15,0.44,0.31c0-0.54,0.76-0.68,1.19-1l-1.82-1c0.63,0,1.85,0.12,1.45-0.39l0.67,0.28c1.53,0.29,0-0.82,0.54-0.8
			l0.83,0.21l-0.31,0.3c0.49-0.04,0.97-0.01,1.45,0.09l0,0c-0.04,0-0.08-0.02-0.11-0.05l0,0c-0.23-0.23-0.23-0.61,0-0.84
			c0.38-0.23,0.23-0.86,1.27-0.8l-0.41-0.66l0.68-0.05l0.43,0.42c-0.38,0.34-0.89,1.18-1.33,1.67l0.19,0.2
			c0.27-0.28,0.39-0.78,0.61-0.92s0.85,0.2,1,0.65l-0.25-0.58c0.53-0.78,1.35-1.31,2.28-1.49l-0.3-0.13
			c0.06-0.31,0.13-0.62,0.53-0.34c0.67-0.56,1.55-0.81,2.41-0.69l-0.42-0.57c0.15-0.1,1.09,0.47,0.44-0.29v-0.48
			c0.21-0.13,0-0.51,0.5-0.42l0,0h0.09l0,0c0.6-0.16-0.46-0.44,0.26-0.58c0.5,0.21-0.49-0.79-0.17-0.89l0.94,0.5
			c0.79,0,0.13-0.75,0.67-1.31c0.71,0.09,1.33,0.54,1.64,1.18c-0.43-0.89-0.33-0.53-0.33-1.17c0.24,0.15,0.42,0.36,0.52,0.62
			c0.6,0-0.07-0.42,0.16-0.62c-0.43-0.49-0.82-1.02-1.15-1.58l-0.24-0.07c-0.05-0.5,0.07-0.88,0.58-0.89l0.25,0.26l0.15-0.41
			l0.35,0.31l0.29-0.5h-0.14c0-0.13,0.24-0.56,0.58-0.56l0.18,0.18c1.07,0.06,0.72-1.09,1.24-1.73l0.3,0.44
			c0.57,0.17-0.52-0.62-0.1-0.68l0.47,0.44c-0.4-0.8,0.39-0.14,0.76-0.06l-0.67-0.53l0.4-0.14c0.49-0.11,0.94,0.56,1.21,0.91
			l-0.27-0.67l0.57,0.49c-0.47-0.76,0.25-0.06,0.17-0.64c0.22,0.17,0.27,0.35,0.45,0.35l-0.33-1.17l0.08,0.59l-0.75-0.8
			c-0.32-0.85,0.45-0.28,0.42-0.69l0.1,0.36c0.12-0.5,0.47-0.19,0.82-0.2c-0.2-0.09-0.5-0.22-0.48-0.44s0.33,0.21,0.5,0.21
			c-0.5-0.53-0.55-1-0.1-1c0.06,0.06,0.12,0.13,0.17,0.21c0-0.14-0.14-0.3,0.07-0.26l0.53,0.61l-0.38-0.71c0.27,0,0-0.54,0.4-0.15
			v0.18l1-0.75l0.47,0.44c-0.55-0.71,0.71-0.24-0.11-1c0.6,0.26,0.35-1,1.14,0c0.64-0.52,0.09-1.68,1.22-2c1,0.49,1.44-0.44,2-0.82
			c0.55-1.2,0.83-2.05,1.48-3.2c1.6,0.49,1-1.72,2.15-1.72l-0.26-0.57c1.05,0.26,0.82-1.14,2-1.05c-0.03-0.16-0.03-0.32,0-0.48
			c0,0-0.16,0-0.44-0.29c0.35,0,0.42-0.52,0.93,0v0.09c0.51,0.55,0.22-0.72,0.85-0.44l-0.67-0.46l0.39-0.21v0.19
			c0-2.53,2.38-1.34,2.41-3.68c0.47,0.77-0.09-0.56,0.61,0.09c1.15,0.54,0.37-0.75,0.38-1.22c-0.04-0.04-0.08-0.09-0.1-0.14
			l0.51-0.36c0.6,1.11-0.41-1,0.09-0.05c1.76-0.51,2.57-2.64,4.16-3.67l-0.28-0.16c0.37-0.3,0.51-1,1.12-0.88s0-1.11,0-1.24
			c-0.11-0.66,0.9-0.16,0.74-0.08c0.19-0.4-0.32-1.46,0.42-1.54c0.87,0.58,0.39-1.83,1.23-1l-0.07-0.08c1.1,0,0.6-1.42,1.69-1.48
			c0.03,0.05,0.06,0.1,0.08,0.15L62.75,400l-3.07-2.37l-3.22-1.18l-2.19,3.2l-3,1.32l-4.9,5.58l0.25,1c-2.11,0-2.17,2.53-4,2.9
			l0.51,0.54c-0.28,0.35-0.59,0-0.76,0c-2.77,3-5,6.77-8.29,8.76c-0.6-0.09-1.16,0.88-1.72,0.72c-0.23,1.28-0.94,2.43-2,3.19v-0.09
			l-0.3,0.51c-0.06-0.03-0.11-0.08-0.15-0.14c0,0.92-1.15,1.18-1.89,1.55v-0.09c-3.3,3.17-5.28,7.17-9.2,9.68
			c-2.34,0.65-2.86,3.58-5.28,4.59C12.6,439.45,9.57,443.33,9.52,443.88z"/>
		<path class="st1" d="M5.19,449.72L5.19,449.72C5,449.49,5,449.59,5.19,449.72z"/>
		<path class="st1" d="M18.4,448.54L18.4,448.54l0.4,0.23L18.4,448.54z"/>
		<path class="st1" d="M14.05,453.34c0.28-0.14,0.23-0.2,0.12-0.26C14.08,453.13,14.03,453.24,14.05,453.34z"/>
		<path class="st1" d="M4,451.84c-0.12,0.09,0,0.18,0.26,0.26c0.05-0.08,0.1-0.16,0.15-0.23C4.24,451.88,4.07,451.83,4,451.84z"/>
		<path class="st1" d="M7.44,454.39l0.14,0.21C7.6,454.49,7.53,454.43,7.44,454.39z"/>
	</g>
</g>
<g id="Layer_2_1_">
	<g>
		<path d="M200,293.4c-9.75-27.73,7.6-47.82,33-65.76c21.1-14.9,40.43-32.4,60-49.39c7.81-6.78,13.38-6.29,21,0.2
			c28.16,23.92,57,47.05,85.06,71.07c4.3,4.02,6.94,9.5,7.41,15.36c0.79,23.54,0.05,47.14,0.46,70.71
			c0.22,12.22-4.58,17.63-17,17.16c-14.84-0.56-29.72-0.47-44.56,0c-11.79,0.35-16.51-4.83-16-16.49s0.13-23.09,0.1-34.63
			c0-2.89,0.81-6.24-0.35-8.58c-9.3-18.7-26.31-7-39.69-9.38c-8.9-1.6-12.35,5-12.17,13.67c0.27,13.47,0,26.94,0.08,40.41
			c0.09,10.09-4.38,15.1-14.74,14.95c-15.81-0.23-31.63-0.23-47.44,0c-11,0.14-15.58-5-15.26-15.93
			C200.23,324.24,200,311.73,200,293.4z"/>
		<path d="M368.75,156.22c0-13.22,0.22-23.12-0.07-33c-0.25-9,3.23-12.77,12.63-13.11C410.68,109,413.09,109,410.06,138
			c-3.95,37.84,4.69,67.31,39.69,86.12c14.82,8,4.93,15.87-0.7,24c-6.19,9-11.58,10.55-20.69,2.78
			C391.49,219.45,353.77,189,317,157.47c-10-8.54-16.78-9-27-0.24c-36.37,31.28-73.66,61.48-110.28,92.48
			c-8.37,7.08-14.41,9.61-21.94-1.17c-6.36-9.1-13.09-15.27-0.14-25.6c41.63-33.19,82.22-67.69,123.28-101.6
			c17.48-14.43,27-14.48,44.43-0.46C339,131.88,352.55,143,368.75,156.22z"/>
	</g>
</g>
</svg>
