<svg xmlns="http://www.w3.org/2000/svg" viewBox="0 0 201.67 200.48"><defs><style>.cls-1{fill:#4a284a;}.cls-2,.cls-3{fill:none;stroke:#4a284a;stroke-miterlimit:10;}.cls-2{stroke-width:7px;}.cls-3{stroke-width:9px;}</style></defs><g id="Layer_1" data-name="Layer 1"><g id="Layer_1-2" data-name="Layer 1-2"><polygon class="cls-1" points="200 34.29 99.98 71.65 0 34.29 99.98 0 200 34.29"/><path class="cls-1" d="M-1.56,37.11" transform="translate(1.56)"/></g><g id="Layer_3" data-name="Layer 3"><line class="cls-2" x1="184" y1="65.94" x2="183.95" y2="37.36"/><path class="cls-1" d="M180,59.55h5.75c4.57,0,8.28,2.86,8.28,6.39v.54c0,3.53-3.71,6.39-8.28,6.39H180c-4.57,0-8.28-2.86-8.28-6.39v-.54C171.76,62.41,175.47,59.55,180,59.55Z" transform="translate(1.56)"/><rect class="cls-1" x="173.32" y="66.21" width="22.3" height="20.24"/></g><g id="Layer_1-2-2" data-name="Layer 1-2"><polygon class="cls-1" points="157.58 64.28 152.15 66.22 99.98 84.78 47.84 66.22 42.95 64.48 43.11 120.29 157.27 120.01 157.58 64.28"/><path class="cls-1" d="M-1.56,51.88" transform="translate(1.56)"/></g><path class="cls-3" d="M200.11,123.51H15.35s-11.23,5.8-11.23,17,11.23,17,11.23,17H200.11" transform="translate(1.56)"/><path class="cls-3" d="M-.56,196H184.2s11.23-5.8,11.23-17-11.23-17-11.23-17H-.56" transform="translate(1.56)"/></g></svg>