<svg fill="#49274a" xmlns="http://www.w3.org/2000/svg" xmlns:xlink="http://www.w3.org/1999/xlink" version="1.1" x="0px" y="0px" viewBox="0 0 100 100" enable-background="new 0 0 100 100" xml:space="preserve"><path d="M87.5,38.75c-4.825,0-8.75,3.925-8.75,8.75c0,4.399,3.267,8.04,7.5,8.65v15.1h-22.5V65c0-0.69-0.56-1.25-1.25-1.25H51.25  v-27.6c4.233-0.61,7.5-4.251,7.5-8.65c0-4.825-3.925-8.75-8.75-8.75s-8.75,3.925-8.75,8.75c0,4.399,3.267,8.04,7.5,8.65v27.6H37.5  c-0.69,0-1.25,0.56-1.25,1.25v6.25h-22.5v-15.1c4.233-0.61,7.5-4.251,7.5-8.65c0-4.825-3.925-8.75-8.75-8.75s-8.75,3.925-8.75,8.75  c0,4.399,3.267,8.04,7.5,8.65V72.5c0,0.69,0.56,1.25,1.25,1.25h23.75V80c0,0.69,0.56,1.25,1.25,1.25h25c0.69,0,1.25-0.56,1.25-1.25  v-6.25H87.5c0.69,0,1.25-0.56,1.25-1.25V56.15c4.233-0.61,7.5-4.251,7.5-8.65C96.25,42.675,92.325,38.75,87.5,38.75z"></path></svg>